<?xml version="1.0" encoding="utf-8"?>
<!-- Generator: Adobe Illustrator 23.0.6, SVG Export Plug-In . SVG Version: 6.00 Build 0)  -->
<svg version="1.1" id="Adapter" 	 viewBox="0 0 991.9 663.4" style="enable-background:new 0 0 991.9 663.4;" xml:space="preserve">
<title>Adapter</title>
<path d="M526.8,663.4h-49.6c-0.2,0-0.3,0-0.5,0l-25.4-1.1l-48.5-2.2c-0.2,0-0.3,0-0.5,0l-24.2-2.2c-0.2,0-0.4,0-0.6-0.1l-22.9-3.3
	l-22.9-2.2c-0.4,0-0.7-0.1-1.1-0.2l-21.7-4.4l-21.7-3.3c-0.1,0-0.3,0-0.4-0.1c-0.1,0-0.2,0-0.4-0.1l-20.9-4.4
	c-0.2,0-0.4-0.1-0.5-0.1l-20.8-5.5l-18.6-4.4c-0.4-0.1-0.8-0.2-1.1-0.3l-18.6-6.5l-17.4-5.5c-0.3-0.1-0.5-0.2-0.8-0.3l-16.5-6.5
	c-0.2-0.1-0.4-0.2-0.6-0.2l-28.7-13.2c-0.3-0.2-0.7-0.3-1-0.5l-13.2-7.8c-0.3-0.1-0.5-0.3-0.7-0.5l-11-7.7c-0.1-0.1-0.3-0.2-0.4-0.3
	l-9.9-7.7c-0.2-0.1-0.3-0.3-0.5-0.4l-8.8-7.7c-0.2-0.2-0.4-0.3-0.5-0.5l-7.7-7.7c-0.6-0.6-1.1-1.2-1.5-1.9l-5.5-8.8
	c-0.1-0.1-0.2-0.3-0.2-0.4l-4.4-7.7c-0.1-0.2-0.2-0.3-0.3-0.5l-1.1-2.2c-0.3-0.6-0.6-1.3-0.7-1.9l-2-2.2c-0.3-0.3-0.5-0.6-0.7-0.9
	l-8.8-12.1c-0.5-0.6-0.8-1.3-1.2-2l-4.4-9.9c-0.9-2-1.1-4-0.8-6l-8.4-13.7c-0.4-0.6-0.7-1.3-1-2l-5.5-15.4c-0.4-1.2-0.6-2.4-0.6-3.7
	v-5c0-0.2,0-0.3,0-0.5V454c0-0.2,0-0.3,0-0.5v-5.1c0-0.7,0.1-1.4,0.2-2.2l2.2-11c0,0,0-0.1,0-0.1l-1.8-5.1c-0.4-1.2-0.6-2.4-0.6-3.7
	V411c0-0.8,0.1-1.5,0.2-2.3l3.3-15.4c0.2-0.9,0.5-1.8,0.9-2.6l1.9-3.7l-2.6-3c-0.2-0.2-0.3-0.4-0.4-0.5l-6.6-8.8
	c-0.4-0.5-0.7-1.1-1-1.7l-4.4-8.8c-0.4-0.7-0.6-1.5-0.8-2.2l-4.4-17.6c-0.2-0.9-0.3-1.8-0.3-2.7v-3.3l-0.4-0.6
	c-1.6-2.4-2.1-5.3-1.7-8l-4.7-4.7c-0.6-0.6-1-1.2-1.5-1.8l-9.9-15.4c-0.5-0.7-0.8-1.5-1.1-2.2l-5.5-15.4c-0.3-0.9-0.5-1.9-0.6-2.9
	L1,285.6c-0.6-1.4-1-3-1-4.6v-5.5c0-0.6,0.1-1.3,0.2-1.9L0,271.9c-0.1-0.9,0-1.8,0.1-2.7L2.4,257c0.1-0.7,0.3-1.3,0.5-1.9l-1.2-3.7
	c-0.3-0.9-0.5-1.8-0.5-2.7l0-0.4c-0.7-1.4-1.1-3.1-1.1-4.8V238c0-0.7,0.1-1.5,0.2-2.2L0,233.3c-0.1-1,0-2.1,0.2-3.1l3.3-15.4
	c0.3-1.2,0.7-2.4,1.4-3.5l4-6.4l1-11.8c0.1-1.1,0.4-2.2,0.8-3.3l5.5-13.2c0.3-0.6,0.6-1.3,1-1.9l8.8-13.2c0.1-0.2,0.2-0.3,0.4-0.5
	l0.3-0.4c0,0,0,0,0-0.1l4.4-17.6c0.2-0.8,0.5-1.5,0.8-2.2l4.4-8.8c0.3-0.6,0.6-1.1,1-1.7l13.2-17.6c0.5-0.6,1-1.2,1.6-1.7l8.8-7.7
	l9.9-8.8c0.3-0.3,0.6-0.5,1-0.8l11-7.7c0.3-0.2,0.5-0.3,0.8-0.5l26.5-15.4c0.4-0.2,0.8-0.4,1.2-0.6l15.3-6.5l16.4-7.6
	c0.3-0.1,0.5-0.2,0.8-0.3l17.6-6.6c0.2-0.1,0.5-0.2,0.8-0.3l37.5-11c0.1,0,0.2-0.1,0.3-0.1l41.9-11c0.2-0.1,0.4-0.1,0.6-0.1
	l22.1-4.4l46.4-8.9c0.2,0,0.4-0.1,0.6-0.1l24.2-3.3c0.2,0,0.3,0,0.5-0.1l24.2-2.2l50.8-4.4c0.2,0,0.3,0,0.5,0L462.4,0
	c0.2,0,0.3,0,0.5,0h78.3c0.2,0,0.3,0,0.5,0l25.4,1.1c0.2,0,0.3,0,0.5,0l76.1,6.7c0.2,0,0.3,0,0.5,0.1l24.2,3.3l23.2,3.3
	c0.2,0,0.4,0.1,0.5,0.1l46.3,8.8c0.1,0,0.1,0,0.2,0l20.9,4.4c0.2,0,0.4,0.1,0.5,0.1l20.9,5.5c0,0,0.1,0,0.1,0l19.8,5.5
	c0.2,0.1,0.5,0.1,0.7,0.2l18.5,6.5l18.5,5.4c0.5,0.2,1,0.4,1.5,0.6l16.4,7.6l15.3,6.5c0.3,0.1,0.6,0.3,0.9,0.4l14.2,7.7l13.1,6.5
	c0.5,0.3,1.1,0.6,1.5,0.9l12.1,8.8l10.9,7.7c0.3,0.2,0.6,0.5,0.9,0.7l8.8,7.7c0.2,0.2,0.4,0.3,0.5,0.5l8.8,8.8
	c0.4,0.4,0.7,0.8,1,1.2l6.6,8.8c0.4,0.5,0.7,1.1,1,1.7l8.8,17.6c0.4,0.7,0.6,1.5,0.8,2.2l2.2,8.8c0.1,0.6,0.2,1.1,0.3,1.7l8.2,9
	c0.5,0.5,0.9,1.1,1.3,1.8l9.9,16.5c0.4,0.7,0.7,1.4,1,2.2l5.5,16.5c0.3,0.9,0.5,1.8,0.5,2.7l0.5,8.3c0.4,1.1,0.6,2.3,0.6,3.5v5.5
	c0,1-0.1,2-0.4,2.9l-2.9,11.6l1.4,3.5c0.4,1.1,0.7,2.2,0.8,3.4l0.6,8.3c0.4,1.1,0.6,2.3,0.6,3.5v5.5c0,1.2-0.2,2.3-0.5,3.4l-2.6,9.7
	c0.5,1.1,0.8,2.3,0.9,3.6l1.1,14.3c0.1,0.8,0,1.7-0.1,2.5l-2.2,14.3c-0.1,0.8-0.3,1.5-0.6,2.3l-5.5,14.3c-0.4,0.9-0.9,1.8-1.5,2.6
	l-9.9,13.2c-0.1,0.2-0.3,0.3-0.4,0.5l-7.9,9.3l-0.7,4.2c-0.2,1.1-0.5,2.1-1,3.1l-8.8,17.7c-0.3,0.6-0.6,1.1-1,1.7l-6.6,8.8
	c-0.5,0.6-1,1.2-1.6,1.7l-1.5,1.3l1.7,9.4c0.2,1,0.2,2,0.1,2.9l-0.2,2.5c0.2,0.4,0.5,0.9,0.7,1.4l5.5,14.3c0.4,1,0.6,2,0.7,3.1
	l0.6,7.2c0.4,1.1,0.6,2.3,0.6,3.5v5.5c0,2.1-0.6,4-1.5,5.6l-2.3,7.5l2,4.9c0.4,1,0.7,2.1,0.7,3.2l0.6,7.3c0.4,1.1,0.5,2.2,0.5,3.4
	v3.6c0,0.4,0,0.8,0,1.2c0,0.7,0,1.5-0.1,2.2l-1.1,7.7c-0.3,2.4-1.5,4.6-3.1,6.2l-0.5,1.9c-0.2,0.9-0.6,1.7-1.1,2.5l-7.7,13.2
	c-0.3,0.5-0.7,1.1-1.1,1.6l-12.1,14.3c-0.4,0.4-0.8,0.9-1.2,1.2l-9.4,8.1c0,1.9-0.4,3.8-1.4,5.5l-4.4,7.7c-0.3,0.6-0.7,1.2-1.2,1.7
	l-6.6,7.7c0,0,0,0.1-0.1,0.1l-7.7,8.8c-0.5,0.5-1,1-1.5,1.4l-9.9,7.7c-0.1,0.1-0.3,0.2-0.4,0.3l-11,7.7c-0.3,0.2-0.7,0.4-1,0.6
	l-12,6.6l-13.1,7.6c-0.3,0.2-0.6,0.3-0.9,0.5l-14.3,6.6c-0.1,0-0.2,0.1-0.3,0.1l-15.4,6.6c-0.2,0.1-0.3,0.1-0.5,0.2l-17.6,6.6
	c-0.2,0.1-0.4,0.1-0.6,0.2l-17.6,5.5c-0.1,0-0.1,0-0.2,0.1l-18.7,5.5c-0.1,0-0.1,0-0.2,0l-19.8,5.5c-0.2,0.1-0.4,0.1-0.7,0.2
	l-41.9,8.8c-0.2,0-0.4,0.1-0.6,0.1l-22,3.3l-46.4,6.7c-0.2,0-0.4,0-0.6,0.1l-48.5,4.4c-0.2,0-0.3,0-0.5,0l-48.5,2.2
	C527.1,663.4,526.9,663.4,526.8,663.4z M438.1,603l87.6,2.2l42.4-1.1l41.6-3.3l40.4-3.3l39.2-5.4l38.2-6.5l35.8-7.6l33.6-9.7
	l29.2-9.7l26.7-10.7l22.3-11.7l18.8-11.5l14.1-12.1l10.9-12.9l6.5-11.2l0.5-1.6L924,489c-0.3,0.3-0.6,0.6-0.9,0.9l-15.5,13.3
	c-0.3,0.3-0.7,0.6-1.1,0.8l-19.8,13.2c-0.4,0.3-0.9,0.6-1.4,0.8l-23.1,11c-0.2,0.1-0.4,0.2-0.6,0.3l-3.2,1.3c-0.6,3.8-3.1,7.2-7,8.7
	l-8,3l-7,4c-4.4,2.5-9.9,1.6-13.3-1.9l-19.2,7.1c-0.3,0.1-0.7,0.2-1.1,0.3l-34.2,8.8c-0.2,0-0.3,0.1-0.5,0.1l-36.4,7.7
	c-0.1,0-0.3,0.1-0.4,0.1l-38.5,6.6c-0.1,0-0.2,0-0.3,0.1l-39.7,5.5c-0.1,0-0.2,0-0.3,0l-40.8,4.4c-0.2,0-0.4,0-0.6,0l-41.9,2.2
	c-0.1,0-0.2,0-0.3,0l-43,1.1c-0.1,0-0.2,0-0.3,0h-44.1c-0.2,0-0.4,0-0.5,0l-44.1-2.2c-0.1,0-0.2,0-0.3,0l-43-3.3c-0.1,0-0.2,0-0.3,0
	l-43-4.4c-0.2,0-0.5-0.1-0.7-0.1l-39.7-6.6c-0.1,0-0.2,0-0.3-0.1l-38.6-7.7c0,0-0.1,0-0.1,0l-36.4-7.7c-0.3-0.1-0.5-0.1-0.8-0.2
	l-34.2-9.9c-0.2-0.1-0.4-0.1-0.6-0.2l-17.1-6.1c-2.9,2.3-6.9,3-10.6,1.7l-17.6-6.6c-4-1.5-6.6-5.1-7-9l-7.7-3.3
	c-0.3-0.1-0.5-0.2-0.8-0.4l-25.4-13.2c-0.3-0.1-0.5-0.3-0.8-0.5l-20.9-13.2c-0.4-0.2-0.7-0.5-1-0.8l-17.7-14.3
	c-0.5-0.4-1-0.9-1.4-1.4l-4.7-5.4l0.8,2.4l7.7,12.5l12,13l16.7,13.6l19.9,13.6l24.4,11.7l28.3,12l30.1,11.8l33.5,8.6l36.1,8.8
	l38,7.6l39.3,5.5l42.7,5.5L438.1,603z M481.9,566.6h43.7l42.7-1.1l41.4-2.2l40.3-4.4l39.3-5.5l38.1-6.5l35.9-7.6l33.4-8.6L826,520
	l27.1-10.8l22.1-10.5l18.6-12.4l14.5-12.5l10.8-11.8l6.6-12.2l0.2-0.7l-7,8.5c-0.4,0.5-0.9,1-1.5,1.5l-13.2,11
	c-0.3,0.2-0.6,0.5-0.9,0.7l-16.5,11c-0.1,0.1-0.2,0.1-0.3,0.2l-17.6,11c-0.4,0.3-0.8,0.5-1.3,0.7l-22.1,10c-0.1,0-0.2,0.1-0.3,0.1
	l-0.3,0.1c-0.6,0.4-1.2,0.7-1.8,1l-7.7,3.3c-0.9,0.4-1.8,0.6-2.7,0.8l-11.8,4.8c-0.3,0.1-0.7,0.3-1,0.4l-25.4,7.7
	c-0.1,0-0.2,0-0.2,0.1l-27.6,7.7c-0.1,0-0.1,0-0.2,0.1l-29.8,7.7c-0.3,0.1-0.6,0.1-0.9,0.2l-64,11c-0.3,0-0.5,0.1-0.8,0.1L637,552
	l-34.2,3.3c-0.1,0-0.2,0-0.4,0l-35.3,2.2c-0.1,0-0.2,0-0.3,0l-36.4,1.1c-0.1,0-0.2,0-0.3,0h-36.4c-0.1,0-0.2,0-0.3,0l-35.3-1.1
	c-0.1,0-0.2,0-0.3,0l-35.3-2.2l-36.4-2.2c-0.2,0-0.5,0-0.7-0.1l-34.2-4.4c-0.1,0-0.3,0-0.4-0.1l-33.1-5.5c0,0-0.1,0-0.1,0l-30.9-5.5
	c-0.2,0-0.3-0.1-0.4-0.1l-29.8-6.6c-0.2,0-0.3-0.1-0.5-0.1l-28.7-7.7c-0.1,0-0.3-0.1-0.4-0.1l-20.9-6.6c-0.1,0-0.1,0-0.2-0.1
	l-19.8-6.6c-0.2-0.1-0.5-0.2-0.7-0.3l-18.7-7.7c-0.1,0-0.1-0.1-0.2-0.1l-17.5-7.7c-0.2-0.1-0.5-0.2-0.7-0.3
	c-0.3-0.1-0.5-0.3-0.8-0.5l-5.3-3.2L119,476.8c-0.5-0.3-1-0.6-1.5-1l-17.6-14.3c-0.3-0.2-0.6-0.5-0.8-0.8l-14.3-14.3
	c-0.5-0.5-0.9-1-1.3-1.5l-9.9-14.3c-0.5-0.8-1-1.6-1.3-2.5l-5.4-15.1c-1.2-1.8-1.9-3.9-1.9-6.1v-1.9l-0.6-0.5l-1.7,7.9v12.4
	l4.5,12.6l7.8,12.6l12,14l16.4,13.3l20,12.6l24.6,12.8l28,11.8l30.3,10.8l33.5,9.7l35.9,7.6l38.4,7.7l39.2,6.5l42.5,4.4l42.7,3.3
	L481.9,566.6z M493.9,536.8h36l36-1.1l34.9-2.2l34-3.3l33.7-3.2l63.1-10.9l29.2-7.6l27.3-7.7l24.7-7.5l23.6-9.7l21.2-9.6l16.9-10.5
	l15.9-10.6l12-10l8.6-10.5l5.7-10.5l3.6-10l0.1-1.6c-0.1-0.3-0.1-0.6-0.2-0.8l-7.1,5c-0.1,0.1-0.3,0.2-0.4,0.3l-12.2,7.7
	c-0.1,0.1-0.2,0.1-0.3,0.2l-13.2,7.7c-0.1,0.1-0.2,0.1-0.3,0.2l-14.3,7.7c-0.3,0.2-0.6,0.3-0.9,0.4l-15.5,6.6
	c-0.1,0-0.2,0.1-0.2,0.1l-16.5,6.6c-0.1,0.1-0.3,0.1-0.4,0.2l-37.5,13.2c-0.2,0.1-0.5,0.2-0.7,0.2l-19.8,5.5
	c-0.2,0.1-0.5,0.1-0.7,0.2l-20.7,4.3l-20.7,5.4c-0.2,0.1-0.5,0.1-0.7,0.2l-46.3,8.8c-0.2,0-0.3,0.1-0.5,0.1l-23.1,3.3l-24.3,3.3
	c-0.2,0-0.4,0-0.5,0.1l-50.7,4.4c-0.2,0-0.3,0-0.5,0l-50.7,2.2l-26.5,1.1c-0.1,0-0.3,0-0.4,0h-51.8c-0.2,0-0.3,0-0.5,0l-50.7-2.2
	c-0.2,0-0.3,0-0.5,0l-50.7-4.4c-0.2,0-0.4,0-0.5-0.1l-24.2-3.3l-24.3-3.3l-23.2-3.3c-0.2,0-0.3-0.1-0.5-0.1l-23.1-4.4
	c0,0-0.1,0-0.1,0l-22.1-4.4c-0.2,0-0.4-0.1-0.6-0.1l-41.9-11c-0.1,0-0.2-0.1-0.3-0.1l-18.7-5.5c-0.2-0.1-0.4-0.1-0.6-0.2l-18.7-6.6
	c-0.1,0-0.1,0-0.2-0.1l-17.6-6.6c-0.1,0-0.1-0.1-0.2-0.1l-16.5-6.6c-0.3-0.1-0.6-0.2-0.8-0.4l-27.8-13.9l2.5,3.7l13.2,13.2
	l16.5,13.4L153,471c0.1,0,0.1,0.1,0.2,0.1l4.9,2.9l16.9,7.4l18.3,7.5l19.4,6.5l20.6,6.5l28.2,7.6l29.3,6.5l30.6,5.5l32.8,5.5
	l33.6,4.3l36,2.2l35.1,2.2L493.9,536.8z M463.1,482.8h51.3l26.2-1.1l50.4-2.2l50.2-4.4l24-3.3l22.8-3.3l45.7-8.7l20.6-5.4
	c0.2,0,0.4-0.1,0.5-0.1l20.6-4.3l19.1-5.4l36.9-13l16.2-6.5l14.9-6.4l13.7-7.4l12.9-7.5l7.9-5l-21.9,9.9c-0.2,0.1-0.3,0.1-0.5,0.2
	l-0.2,0.1c-0.5,0.3-1.1,0.7-1.7,0.9l-17.6,7.7c-0.4,0.2-0.7,0.3-1.1,0.4l-15.1,5.4l-37.5,13.2c-0.2,0.1-0.5,0.2-0.7,0.2l-19.8,5.5
	c0,0-0.1,0-0.1,0l-20.9,5.5c-0.2,0-0.4,0.1-0.5,0.1l-20.9,4.4c-0.1,0-0.1,0-0.2,0l-46.3,8.8c-0.2,0-0.3,0.1-0.5,0.1l-23.1,3.3
	l-24.3,3.3c-0.2,0-0.4,0-0.5,0.1l-50.7,4.4c-0.2,0-0.3,0-0.5,0l-50.7,2.2l-26.5,1.1c-0.2,0-0.3,0-0.5,0h-51.8c-0.2,0-0.3,0-0.5,0
	l-50.7-2.2c-0.2,0-0.3,0-0.5,0l-25.4-2.2l-25.4-2.2c-0.2,0-0.4,0-0.5-0.1l-48.5-6.6l-23.2-3.3c-0.2,0-0.3-0.1-0.5-0.1l-23.1-4.4
	c-0.1,0-0.1,0-0.2,0l-22-4.4c-0.2,0-0.4-0.1-0.6-0.1l-41.9-11c-0.1,0-0.2-0.1-0.3-0.1l-18.7-5.5c-0.2-0.1-0.4-0.1-0.6-0.2l-18.7-6.6
	c-0.1,0-0.1,0-0.2-0.1l-1.2-0.5l-4.9-1.6c-0.2-0.1-0.3-0.1-0.5-0.2l-13.8-5.2l-3.9-1.1c-0.4-0.1-0.8-0.2-1.2-0.4
	c-0.4-0.2-0.8-0.3-1.1-0.5l-2.5-1.3l-4-1.5c-0.3-0.1-0.6-0.2-0.9-0.4l-23.1-11c-0.3-0.1-0.5-0.3-0.8-0.4L84,391.6
	c0.2,0.2,0.4,0.5,0.6,0.7l0.3,0.2c0,0,0.1,0.1,0.1,0.1l10.4,8.3l12.2,7.1l27.9,14l16,6.4L169,435l18.4,6.5l18.3,5.4l41.4,10.9
	l21.7,4.3l22.9,4.4l22.9,3.3l48.2,6.5l50.2,4.4L463.1,482.8z M477.3,450.8h40.3l40.5-2.2l39.5-2.2l38.3-3.3l38.1-4.4l37.1-6.5
	l35-6.6l32.6-7.6l31.5-8.7l29.2-9.7l27-10.8l23.5-10.7l20.2-11.7l19-12.7l13.2-11.1l11.3-13.4l2.3-3.1L944,336.6
	c-0.3,0.3-0.7,0.5-1,0.8l-20.9,14.3c-0.3,0.2-0.5,0.3-0.8,0.5L896,366.6c-0.3,0.2-0.6,0.3-0.9,0.5l-21.2,9.4
	c-0.6,3.6-2.9,6.8-6.5,8.3l-7.7,3.3c-0.2,0.1-0.3,0.1-0.5,0.2l-8.8,3.3c-3.8,1.4-7.9,0.6-10.8-1.8l-8,2.9c-0.1,0-0.2,0.1-0.3,0.1
	l-36.4,12.1c-0.3,0.1-0.5,0.2-0.8,0.2l-39.7,9.9c-0.2,0.1-0.4,0.1-0.7,0.1l-41.9,7.7l-44.2,7.7c-0.2,0-0.4,0.1-0.5,0.1l-44.1,5.5
	c-0.2,0-0.4,0-0.6,0.1l-46.3,3.3c-0.1,0-0.2,0-0.3,0l-47.4,2.2c-0.1,0-0.2,0-0.3,0l-47.4,1.1c-0.1,0-0.2,0-0.3,0H432
	c-0.2,0-0.3,0-0.5,0l-47.4-2.2c-0.2,0-0.4,0-0.5,0l-46.3-4.4c-0.1,0-0.2,0-0.3,0l-44.1-5.5c-0.1,0-0.3,0-0.4-0.1l-40.8-6.6
	c-0.1,0-0.2,0-0.3-0.1l-39.7-7.7c-0.2,0-0.5-0.1-0.7-0.2l-37.5-9.9c-0.2,0-0.4-0.1-0.6-0.2l-33.8-10.9l1.9,1l6.8,2.5l2.8,0.8
	c0.3,0.1,0.6,0.2,0.8,0.3l15.9,6l21.8,7l31.6,7.6l32.8,7.7l33.7,6.5l36,5.5l38.2,4.4l38.3,3.3l39.4,2.2L477.3,450.8z M432.3,421.1
	h48.1l47.1-1.1l47.1-2.2l45.9-3.3l43.5-5.4l43.8-7.7l41.5-7.6l38.9-9.7l35.8-11.9l32.6-12l28.9-12.9l24.5-13.8l20-13.7l16.4-14.4
	l11.9-14.9l4.7-9.4l-0.1,0.1c-0.4,0.5-0.9,1-1.3,1.4L944,298.1c-0.2,0.2-0.5,0.4-0.7,0.6l-20.9,15.4c-0.5,0.3-0.9,0.6-1.4,0.9
	l-25.4,13.2c-0.2,0.1-0.4,0.2-0.6,0.3l-21.2,9.4c-0.5,3.1-2.4,6-5.4,7.7l-7.7,4.4c-0.5,0.3-1,0.5-1.6,0.7l-8.8,3.3
	c-3.9,1.5-8.1,0.6-11-2l-7.5,3c-0.3,0.1-0.6,0.2-0.9,0.3l-36.4,11c-0.2,0.1-0.3,0.1-0.5,0.1l-39.7,9.9c-0.1,0-0.3,0.1-0.4,0.1
	l-41.9,8.9c-0.2,0-0.4,0.1-0.6,0.1l-44.1,6.6c-0.1,0-0.2,0-0.3,0l-44.1,5.5c-0.1,0-0.2,0-0.3,0l-46.3,4.4c-0.2,0-0.4,0-0.5,0
	l-47.4,2.2c-0.1,0-0.2,0-0.3,0l-47.4,1.1c-0.2,0-0.3,0-0.5,0l-48.5-1.1c-0.1,0-0.2,0-0.3,0l-47.4-2.2c-0.2,0-0.4,0-0.5,0l-46.3-4.4
	c-0.1,0-0.2,0-0.3,0l-44.1-5.5c-0.1,0-0.3,0-0.4-0.1l-40.8-6.6c-0.1,0-0.2,0-0.3-0.1l-39.7-7.7c-0.2,0-0.5-0.1-0.7-0.2l-37.5-9.9
	c-0.1,0-0.2,0-0.3-0.1l-34.2-9.9c-0.3-0.1-0.6-0.2-0.9-0.3l-2.1-0.8c-3.2,2.8-8,3.6-12.1,1.5l-8.5-4.3l-7.4-3.2
	c-3.5-1.5-5.8-4.6-6.5-8.1l-22.6-10.9c-0.2-0.1-0.5-0.2-0.7-0.4L55.1,318c-0.4-0.2-0.8-0.5-1.2-0.8l-18.7-14.3
	c-0.5-0.4-0.9-0.8-1.4-1.2l-7.7-8.3l1.3,3.7l8.6,13.4l13,13L66.7,337l22,13.6l26.7,11.7l30.3,11.9l33.6,10.8l36.8,9.8l39.2,7.6
	l40.4,6.6l43.7,5.5l45.9,4.4L432.3,421.1z M432.4,382.5l48.1,1.1l47-1.1l47-2.2l45.9-4.4l43.8-5.5l43.6-6.5l41.4-8.7l39.2-9.8
	l35.7-10.8l32.4-13l29.3-13l24.3-12.7l19.9-14.6l16.6-14.5l12-15l7.7-14.5l3.7-14.7l-0.9-13.4l-2.5-7.5v0.9c0,1.1-0.2,2.2-0.5,3.3
	l-0.7,8.6c-0.1,1-0.3,1.9-0.6,2.8l-5.5,15.4c-0.3,0.7-0.6,1.4-1,2l-8.8,14.4c-0.5,0.7-1,1.4-1.6,2l-14.3,14.3
	c-0.2,0.2-0.4,0.4-0.6,0.5l-16.5,14.3c-0.5,0.4-1,0.8-1.5,1.1l-22,13.2c-0.1,0.1-0.3,0.2-0.4,0.2l-24.2,13.2
	c-0.4,0.2-0.8,0.4-1.2,0.6l-27.5,11l-6.7,2.8c-0.5,0.3-1,0.5-1.6,0.7l-32,11c-0.2,0.1-0.4,0.1-0.6,0.2l-30.9,8.8
	c-0.2,0.1-0.4,0.1-0.6,0.2l-34.2,7.8c-0.1,0-0.2,0-0.3,0.1l-33.1,6.6c-0.2,0-0.3,0.1-0.5,0.1l-36.4,5.5c-0.1,0-0.2,0-0.4,0
	l-37.5,4.4c-0.1,0-0.2,0-0.3,0l-77.2,6.6c-0.2,0-0.4,0-0.6,0l-38.6,1.1c-0.1,0-0.2,0-0.3,0h-40.8c-0.1,0-0.2,0-0.3,0l-39.7-1.1
	c-0.1,0-0.2,0-0.3,0l-38.6-2.2c-0.1,0-0.2,0-0.3,0l-37.5-3.3c-0.1,0-0.2,0-0.3,0l-38.6-4.4c-0.1,0-0.3,0-0.4-0.1L275,359l-34.3-5.5
	c-0.3,0-0.5-0.1-0.8-0.2l-32-7.7c-0.1,0-0.2-0.1-0.3-0.1l-32-8.8c-0.1,0-0.2-0.1-0.3-0.1l-28.7-8.8c-0.2-0.1-0.4-0.1-0.6-0.2
	l-19.1-7.1c-0.8-0.1-1.6-0.4-2.3-0.7l-3.2-1.4l-1.8-0.7c-0.3-0.1-0.6-0.2-0.9-0.4l-23.1-11c-0.1-0.1-0.3-0.1-0.4-0.2l-20.9-11
	c-0.3-0.2-0.6-0.3-0.9-0.5l-18.7-12.1c-0.5-0.3-1-0.7-1.5-1.1l-14.3-13.2c-0.1-0.1-0.2-0.2-0.3-0.3l-12.1-12.1
	c-0.1-0.1-0.2-0.2-0.3-0.3l1.4,4.2l8.6,12.4l13.2,14.2l17.4,13.3l22.2,12.7l26.8,12.9l30,11.8l33.6,9.7l37,9.8l39.1,7.6l40.4,6.5
	l43.7,5.5l45.9,4.4L432.4,382.5z M467.4,353.9h40.5l38.1-1.1l76.7-6.6l37.1-4.4l35.9-5.4l32.7-6.5l33.8-7.7l30.3-8.7l30.9-10.6
	c0,0,0.1,0,0.1,0l7.7-3.3c0.1,0,0.1-0.1,0.2-0.1l27-10.8l23.5-12.8l21-12.6l15.5-13.5l13.1-13.1l7.6-12.3l1-2.8l-14.2,14.2
	c-0.4,0.4-0.9,0.9-1.5,1.2l-11,7.7c-0.1,0.1-0.3,0.2-0.4,0.3l-12.2,7.7c-0.1,0.1-0.2,0.1-0.3,0.2l-13.2,7.7
	c-0.1,0.1-0.2,0.1-0.3,0.2l-14.3,7.7c-0.3,0.2-0.6,0.3-0.9,0.4l-15.5,6.6c-0.1,0-0.2,0.1-0.2,0.1l-16.5,6.6
	c-0.1,0.1-0.3,0.1-0.4,0.2l-18.7,6.6c-0.2,0.1-0.4,0.1-0.6,0.2l-18.5,5.5l-19.7,6.6c-0.4,0.1-0.8,0.2-1.2,0.3l-20.7,4.4l-20.7,5.4
	c-0.2,0.1-0.5,0.1-0.7,0.2l-23.2,4.4c-0.2,0-0.3,0.1-0.5,0.1l-22.9,3.3l-22.9,4.4c-0.3,0.1-0.7,0.1-1.1,0.1l-24,2.2l-25.1,3.3
	c-0.2,0-0.3,0-0.5,0l-25.3,2.2c-0.2,0-0.3,0-0.5,0l-50.7,2.2l-26.5,1.1c-0.2,0-0.3,0-0.5,0h-51.8c-0.2,0-0.3,0-0.5,0l-50.7-2.2
	c-0.2,0-0.3,0-0.5,0l-50.7-4.4c-0.2,0-0.4,0-0.5-0.1l-48.5-6.6l-23.2-3.3c-0.2,0-0.3-0.1-0.5-0.1l-22.2-4.2c-0.3,0-0.7-0.1-1-0.2
	l-22.1-4.4c-0.2,0-0.4-0.1-0.6-0.1l-41.9-11c-0.1,0-0.2-0.1-0.3-0.1l-18.7-5.5c-0.2-0.1-0.4-0.1-0.6-0.2l-18.7-6.6
	c-0.1,0-0.1,0-0.2-0.1l-17.6-6.6c-0.1,0-0.1-0.1-0.2-0.1l-16.5-6.6c-0.3-0.1-0.6-0.2-0.8-0.4l-28.7-14.3c-0.2-0.1-0.4-0.2-0.6-0.3
	l-13.2-7.7c-0.5-0.3-0.9-0.6-1.3-0.9L71.5,240l-9.9-7.7c-0.4-0.3-0.7-0.6-1-0.9l-8.8-8.8c-0.2-0.2-0.4-0.4-0.6-0.6l-6.6-7.7
	c-0.2-0.2-0.3-0.4-0.4-0.5l-6.6-8.8c-0.4-0.5-0.7-1.1-1-1.7l-4.1-8.3l-0.7,1.6l-0.9,10.6l0.9,10.8l4.6,12l6.6,11.2l11,11l13.5,12.4
	l17.5,11.3l20.3,10.7l20.5,9.7l3.9,1.7l23.9,9l28.2,8.7l31.7,8.7l31.4,7.6l33.8,5.4l36,5.5l38.2,4.4l37.2,3.3l38.3,2.2L467.4,353.9z
	 M423.9,301l9.3,0.4c1-0.3,2.1-0.5,3.3-0.5h119c0.8,0,1.6,0.1,2.3,0.2l14.4-1.2c0.1,0,0.3,0,0.4,0l24-1.1l23.8-2.2l28.8-4V128.8
	H342.6v164.4l9.1,1.2l22.9,2.2l24.2,2.2L423.9,301z M315.4,289.3l5.4,0.8V137L189,214.8l126.2,74.4
	C315.3,289.2,315.3,289.3,315.4,289.3z M671.1,137v152.5l6.9-1l124.9-73.6L671.1,137z M223.4,268.3l24.9,6.9l-86.3-50.8
	c-0.8-0.5-1.6-1.1-2.3-1.8c-1-1-1.7-2.1-2.3-3.3c-0.6-1.4-1-2.9-1-4.4c0-1.5,0.3-3.1,1-4.6c0.5-1.2,1.3-2.3,2.2-3.2
	c0.7-0.7,1.5-1.3,2.4-1.8L326,108.5c0.9-0.5,1.8-1,2.8-1.2c1-0.3,2-0.4,3.1-0.4H660c1,0,2.1,0.1,3.1,0.4c1,0.3,1.9,0.7,2.8,1.2
	l163.9,96.8c0.9,0.5,1.7,1.1,2.4,1.8c0.9,0.9,1.7,2,2.2,3.2c0.7,1.5,1,3,1,4.5c0,1.5-0.3,3.1-1,4.5c-0.5,1.2-1.3,2.3-2.3,3.3
	c-0.7,0.7-1.5,1.3-2.3,1.7l-85.3,50.3l7.7-2c0.1,0,0.3-0.1,0.4-0.1l19.2-4.2l18.1-6.4c0.1,0,0.1,0,0.2-0.1l16.2-5.4l16.1-6.5
	l14.9-6.4l13.9-7.5c0.1-0.1,0.2-0.1,0.3-0.2l12.6-6.2l10-7l10.5-8.5l8.4-7.3l6.6-6.6l4.7-7.6l1.2-2.2l-3.8-5.3l-6.9-7.9L878.5,163
	l-23.4-14.9l-12.5-7.3l-30-12.9l-17-6.4l-37-10.9l-19.4-5.4l-20.6-4.3l-21.6-4.3l-21.8-3.3L652,90.1l-23.9-3.3l-48-4.4l-24-1.1
	l-50.4-2.2h-24.9l-24,1.1l-25.4,1.1l-24,1.1l-25.1,2.2l-22.8,2.2l-24,3.3l-22.8,3.3l-21.7,4.3l-41.6,8.7l-20.5,5.4l-18.5,5.4
	l-17.3,5.4l-17.1,6.4l-15.1,6.4L147,142l-13.7,7.4l-11.6,7.4l-10.3,7.2l-16.3,14.3l-5.7,7.5l-3.3,5.4l1.3,2.2l5.7,7.7l15.3,15.3
	l20.6,14.4l12.5,6.2c0.1,0.1,0.2,0.1,0.3,0.2l13.9,7.5l14.8,6.3l17.1,6.4l17.2,5.4L223.4,268.3z M75.5,215.5l4.9,3.8l-3.3-3.3
	c-0.4-0.4-0.7-0.8-1-1.2l-6.6-8.8c-0.3-0.3-0.5-0.7-0.7-1.1l-4.5-7.7c-0.3-0.5-0.6-1.1-0.8-1.6l-3.3-8.8c-0.1-0.4-0.3-0.8-0.4-1.2
	l-2.2-8.8c-0.1-0.4-0.2-0.9-0.2-1.3l-1.1-8.8c-0.1-1-0.1-1.9,0-2.9l1.1-7.7c0.1-0.8,0.3-1.5,0.6-2.3l6.6-17.7
	c0.3-0.9,0.8-1.7,1.3-2.5l5.5-7.7c0-0.1,0.1-0.1,0.2-0.2l6.1-8.2l-2.3,2l-8,7l-12,15.9l-3.4,6.9l-2.9,11.6c0.5,2.3,0.2,4.8-0.9,7
	v2.7l3.8,15.2l3.4,6.9l5.8,7.7l6.1,7.1L75.5,215.5z M927.5,196.2l-4.3,7.6c-0.1,0.1-0.1,0.3-0.2,0.4l-5.5,8.8
	c-0.2,0.4-0.5,0.8-0.8,1.1l11-11.1l5.5-6.4l7.6-15.3l1.6-6.3v-9.4c-1.2-2.5-1.4-5.3-0.6-7.9l-1-4L933,138l-5.6-7.4l-8-8l-7.7-6.7
	l6.4,6.4c0.6,0.6,1.1,1.2,1.5,1.9l5.5,8.8c0.4,0.6,0.7,1.3,1,2l3.2,8.6l3.2,7.5c0.4,0.9,0.7,1.9,0.8,3l1.1,8.8
	c0.1,0.4,0.1,0.9,0.1,1.4v8.8c0,0.9-0.1,1.8-0.3,2.6l-2.2,8.8c-0.1,0.4-0.2,0.8-0.4,1.2l-3.3,8.8C928.2,195,927.9,195.6,927.5,196.2
	z M480.5,57.3h25.4c0.2,0,0.3,0,0.5,0l50.7,2.2l24.3,1.1c0.2,0,0.3,0,0.5,0l48.5,4.4c0.2,0,0.3,0,0.5,0.1l24.2,3.3l23.2,3.3
	l22.1,3.3c0.2,0,0.4,0.1,0.5,0.1l22,4.4L744,84c0.2,0,0.5,0.1,0.7,0.2l19.8,5.5c0,0,0.1,0,0.1,0l37.5,11c0.3,0.1,0.5,0.2,0.7,0.2
	l17.6,6.6c0.2,0.1,0.3,0.1,0.5,0.2l30.9,13.2c0.4,0.2,0.8,0.4,1.2,0.6l13.2,7.7c0.1,0.1,0.3,0.1,0.4,0.2l24.3,15.5
	c0.5,0.3,0.9,0.6,1.3,1l17.6,15.4c0.4,0.3,0.7,0.7,1,1l1.7,2l-0.8-6.2l-2.7-6.3c-0.1-0.2-0.1-0.3-0.2-0.5l-2.9-7.8l-4.3-6.9
	l-6.6-6.6l-8.5-7.5c-0.2-0.2-0.4-0.3-0.5-0.5l-8-8l-10.8-6.8l-11.8-6.4c-0.1-0.1-0.2-0.1-0.3-0.2l-12.7-7.4l-30-12.9l-17-6.4
	l-37-10.9l-19.4-5.4l-20.5-4.3l-43.7-8.7l-22.6-3.2l-24-2.2c-0.2,0-0.3,0-0.5-0.1l-23.8-3.2l-23.7-1.1c-0.2,0-0.3,0-0.5,0l-24-2.2
	L531,31.8h-50.2l-24,1.1L431.4,34l-24,1.1l-25.1,2.2l-22.8,2.2l-24,3.3L312.6,46l-21.8,4.4c-0.1,0-0.3,0.1-0.4,0.1L270,53.7
	l-41.2,10.9L210.3,70L193,75.3l-17.1,6.4l-15.1,6.5L147,94.6l-13.7,7.4l-11.6,7.4l-10.3,7.2L95,130.9l-5.8,7.8l-4.6,6.4l-5.7,15.2
	l-0.5,3.9c0.4-0.6,0.9-1.1,1.4-1.5l17.6-15.4c0.3-0.3,0.6-0.5,0.9-0.7l11-7.7c0.1-0.1,0.3-0.2,0.4-0.3l12.1-7.7
	c0.2-0.1,0.5-0.3,0.7-0.4l14.3-7.7c0.2-0.1,0.4-0.2,0.6-0.3l14.3-6.6c0.1,0,0.2-0.1,0.3-0.1l15.4-6.6c0.2-0.1,0.3-0.1,0.5-0.2
	l17.6-6.6c0.2-0.1,0.4-0.1,0.6-0.2l17.6-5.5c0.1,0,0.1,0,0.2-0.1l18.7-5.5c0.1,0,0.2-0.1,0.3-0.1l21-5.5c0.2,0,0.4-0.1,0.5-0.1
	l41.9-8.8c0,0,0.1,0,0.1,0l22.1-4.4c0.2,0,0.4-0.1,0.6-0.1l23.2-3.3l24.3-3.3c0.1,0,0.3,0,0.4-0.1l23.1-2.2l25.4-2.2
	c0.2,0,0.3,0,0.5,0l24.2-1.1l25.4-1.1l24.2-1.1C480.2,57.3,480.4,57.3,480.5,57.3z"/>
</svg>
