<?xml version="1.0" encoding="utf-8"?>
<!-- Generator: Adobe Illustrator 23.0.6, SVG Export Plug-In . SVG Version: 6.00 Build 0)  -->
<svg version="1.1" id="Strahlregler" 	 y="0px" viewBox="0 0 1001.9 805.5" style="enable-background:new 0 0 1001.9 805.5;" xml:space="preserve">
<title>Strahlregler</title>
<path d="M542.8,805.5H459c-0.1,0-0.3,0-0.4,0l-55.2-2.2c-0.1,0-0.3,0-0.4,0l-27.6-2.2l-26.5-2.2c-0.2,0-0.3,0-0.5-0.1l-25.2-3.3
	l-25.1-2.2c-0.3,0-0.7-0.1-1-0.1l-23.9-4.4l-24-3.3c-0.2,0-0.4-0.1-0.7-0.1l-22.1-4.4c0,0-0.1,0-0.1,0l-21-4.4
	c-0.2,0-0.4-0.1-0.5-0.1l-21-5.5c-0.1,0-0.2-0.1-0.3-0.1l-18.8-5.5c-0.1,0-0.1,0-0.2-0.1l-17.7-5.5c-0.1,0-0.3-0.1-0.4-0.1
	l-15.5-5.5c-0.3-0.1-0.6-0.2-0.9-0.4l-14.3-6.6c-0.1,0-0.2-0.1-0.3-0.1l-13.2-6.6c-0.3-0.1-0.5-0.3-0.8-0.4l-11-6.6
	c-0.1-0.1-0.3-0.2-0.4-0.3l-10-6.6c-0.4-0.3-0.8-0.5-1.1-0.9l-7.7-6.6c-0.4-0.4-0.8-0.7-1.2-1.2l-6.6-7.7c-0.3-0.3-0.5-0.7-0.8-1
	l-4.4-6.6c-0.6-0.9-1.1-2-1.4-3.1l-2.2-7.7c-0.1-0.4-0.2-0.8-0.3-1.2l-1.1-6.4c-0.1-0.4-0.1-0.7-0.1-1.1c0-0.4,0-0.7,0-1.1v-89.7
	l-2.9-5L29.2,553c-0.7-1.2-1.2-2.5-1.5-3.8l-0.8-3.2l-1-2.9c-0.1-0.3-0.2-0.6-0.2-0.8l-1.1-4.4c-0.2-0.9-0.3-1.8-0.3-2.6V281.8
	l-1.8-6.3c-0.3-1-0.4-2-0.4-3v-6.8c0-0.3,0-0.6,0-0.9V213l-10-10c-0.7-0.7-1.3-1.5-1.8-2.3L5.9,193c-0.9-1.7-1.4-3.5-1.4-5.4v-2.2
	c0-2.1,0.6-4,1.6-5.7c-3.6-1.8-6-5.5-6-9.8v-32c0-1.4,0.3-2.8,0.8-4.1l0.4-3c0.1-0.5,0.2-1,0.3-1.5l2.2-7.7c0.2-0.8,0.6-1.7,1-2.4
	l4.4-7.7c0.2-0.3,0.4-0.6,0.6-0.9l5.5-7.7c0.4-0.5,0.8-1,1.2-1.4l7.8-7.7c0.2-0.2,0.3-0.3,0.5-0.5l8.8-7.7c0.5-0.4,1-0.8,1.6-1.2
	l11-6.6c0,0,0.1-0.1,0.1-0.1l13.2-7.7c0.3-0.2,0.6-0.3,0.9-0.5l14.4-6.6c0.2-0.1,0.4-0.2,0.5-0.2L91.9,56c0.2-0.1,0.4-0.1,0.6-0.2
	l36.4-12.1c0.2-0.1,0.4-0.1,0.5-0.2l19.9-5.5c0.1,0,0.2-0.1,0.3-0.1l22.1-5.5c0.2,0,0.3-0.1,0.5-0.1l22.1-4.4c0.1,0,0.1,0,0.2,0
	l24.3-4.4l50.8-8.8c0.2,0,0.3-0.1,0.5-0.1l26.5-3.3l27.7-3.3c0.2,0,0.3,0,0.5,0L382,3.4c0.1,0,0.3,0,0.4,0L441,1.2l29.8-1.1
	c0.1,0,0.3,0,0.4,0h28.8c0.3,0,0.7,0,1.1,0h29.8c0.1,0,0.3,0,0.4,0l59.6,2.2l28.7,1.1c0.1,0,0.3,0,0.4,0l29.8,2.2l27.7,2.3
	c0.1,0,0.3,0,0.4,0l27.6,3.3l26.5,3.3c0.1,0,0.3,0,0.4,0.1l26.5,4.4l25.5,4.4c0.1,0,0.1,0,0.2,0l46.4,8.8c0.2,0,0.4,0.1,0.6,0.1
	l22.1,5.5c0.1,0,0.2,0,0.3,0.1l19.9,5.5c0.2,0.1,0.5,0.1,0.7,0.2l18.6,6.6l17.5,5.5c0.3,0.1,0.7,0.2,1,0.4l15.5,6.6
	c0.1,0,0.2,0.1,0.3,0.1l14.3,6.6c0.3,0.1,0.6,0.3,0.9,0.5l13.2,7.7c0,0,0.1,0.1,0.1,0.1l11,6.6c0.4,0.2,0.7,0.5,1.1,0.7l9.9,7.7
	c0.4,0.3,0.7,0.6,1,0.9l7.7,7.7c0.4,0.4,0.8,0.9,1.2,1.4l5.5,7.7c0.2,0.3,0.4,0.6,0.6,0.9l4.4,7.7c0.4,0.8,0.8,1.6,1,2.4l2.2,7.7
	c0.3,1,0.4,2,0.4,3v4.7c0,0.3,0,0.5,0,0.8v32c0,3.7-1.9,7-4.7,9c0.9,1.6,1.4,3.4,1.4,5.4v2.2c0,2.3-0.7,4.5-2,6.4l-11,15.5
	c-0.3,0.5-0.7,0.9-1.2,1.4l-3.4,3.4v54c0,0.9-0.1,1.8-0.3,2.7l-1.9,7.6c0,0.2,0,0.5,0,0.7v253.6c0,0.7,0,1.3-0.1,2
	c-0.1,0.7-0.3,1.3-0.5,2l-0.5,1.4v2.6c0,1.2-0.2,2.3-0.6,3.5l-1.1,3.3c-0.2,0.5-0.4,1-0.6,1.5l-2.2,4.4c-0.3,0.6-0.6,1.1-1,1.6
	L950,590.5v90.8c0.1,0.8,0,1.6-0.1,2.5l-1.1,6.6c-0.1,0.9-0.4,1.7-0.7,2.5l-3.3,7.7c-0.3,0.6-0.6,1.2-1,1.8l-4.4,6.6
	c-0.1,0.1-0.1,0.2-0.2,0.3l-5.5,7.7c-0.5,0.7-1.1,1.4-1.8,1.9l-7.7,6.6c-0.3,0.3-0.7,0.6-1.1,0.8l-9.9,6.6c-0.3,0.2-0.5,0.3-0.8,0.5
	L888,746.7c-0.2,0.1-0.4,0.2-0.6,0.3l-14.3,6.6c-0.4,0.2-0.7,0.3-1.1,0.4l-16.5,5.5c-0.1,0-0.2,0-0.2,0.1l-17.8,5.5
	c-0.1,0-0.1,0-0.2,0l-18.8,5.5c-0.1,0-0.1,0-0.2,0l-19.9,5.5c-0.3,0.1-0.5,0.1-0.8,0.2l-44.1,8.8c-0.2,0-0.4,0.1-0.6,0.1l-23,3.3
	l-24.1,4.4c-0.3,0.1-0.7,0.1-1,0.1l-25.2,2.2l-26.3,3.3c-0.2,0-0.3,0-0.5,0l-26.5,2.2l-27.6,2.2c-0.1,0-0.3,0-0.4,0l-26.5,1.1
	l-28.7,1.1C543.1,805.5,543,805.5,542.8,805.5z M459.2,783.6h83.5l28.5-1.1l26.2-1.1l27.4-2.2L651,777l26.3-3.3c0.1,0,0.3,0,0.4,0
	l24.9-2.2l23.8-4.3c0.1,0,0.3,0,0.4-0.1l22.9-3.3l43.4-8.7l19.4-5.4l18.6-5.5l17.6-5.5l15.8-5.3l13.5-6.2l23.5-12.8l9-6l6.2-5.3
	l4.6-6.5l3.8-5.6l2.4-5.6l0.7-4.3v-77.6c-1.2-0.9-2.3-2.1-3-3.4c-0.8-1.3-1.2-2.8-1.4-4.4c0-0.4-0.1-0.8,0-1.2V446.8l-0.7,0.6
	c-0.3,0.3-0.7,0.5-1,0.8l-9.9,6.6c-0.3,0.2-0.5,0.3-0.8,0.5L899,462c-0.1,0.1-0.2,0.1-0.4,0.2l-13.2,6.6c-0.3,0.1-0.5,0.3-0.8,0.4
	l-4.1,1.7v133.9c0.2,1.9-0.1,3.8-1,5.6l-19.9,41.9c-0.2,0.5-0.5,1-0.8,1.4c-1.3,2-3.3,3.5-5.7,4.4l-9.7,3.2l-8.6,3.2
	c-0.5,0.2-1,0.3-1.5,0.4l-9.4,2.1l-9.4,3.1c-0.4,0.1-0.9,0.3-1.3,0.3l-21.5,4.3l-10.5,3.2c-0.4,0.1-0.8,0.2-1.2,0.3l-11.9,2.2
	c-0.4,0.1-0.8,0.1-1.2,0.2c-1.3,0.1-2.5,0-3.7-0.3c-1.4-0.4-2.7-1-3.9-1.9c-3.2-2.4-4.8-6.3-4.3-10.2V506.6l-9,1.8
	c-0.2,0-0.4,0.1-0.7,0.1l-24.3,3.3l-50.8,6.6c-0.2,0-0.3,0-0.5,0.1l-53,4.4l-27.6,2.2c-0.1,0-0.3,0-0.4,0l-18.2,0.7V651
	c0,0.2,0,0.3,0,0.5v40.4c0,6-4.9,11-11,11h-13.9l-13.9,1.1c-0.3,0-0.6,0-0.8,0h-58.5c-0.3,0-0.5,0-0.8,0l-15.1-1.1h-14c0,0,0,0,0,0
	c-6,0-11-4.9-11-11V651c0-0.2,0-0.3,0-0.5V525.8l-17.1-0.7c-0.1,0-0.3,0-0.4,0l-55.2-4.4l-26.5-2.2c-0.2,0-0.3,0-0.5-0.1l-25.4-3.3
	l-48.6-6.6c-0.2,0-0.4-0.1-0.6-0.1l-10.2-1.9v162.3c0.2,2.2-0.3,4.4-1.3,6.2c-0.7,1.2-1.6,2.3-2.6,3.2c0,0,0,0,0,0
	c-1.3,1-2.7,1.8-4.4,2.2c-1.2,0.3-2.4,0.4-3.7,0.3c-0.4,0-0.9-0.1-1.3-0.2l-10.8-2.2c-0.2,0-0.5-0.1-0.7-0.2l-11.8-3.2l-10.6-2.1
	c-0.1,0-0.1,0-0.2,0l-10-2.2c-0.4-0.1-0.7-0.2-1.1-0.3l-9.4-3.1l-9.4-2.1c-0.4-0.1-0.7-0.2-1.1-0.3l-9.9-3.3c-0.1,0-0.3-0.1-0.4-0.1
	l-8.8-3.3c-3.1-1.2-5.4-3.6-6.4-6.4l-20-39.9c-1.1-1.7-1.7-3.7-1.7-5.9V470.5l-3.4-1.5c0,0-0.1,0-0.1-0.1l-14.3-6.6
	c-0.4-0.2-0.7-0.4-1.1-0.6l-11-6.6c-0.1-0.1-0.3-0.2-0.4-0.3l-9.9-6.6c-0.2-0.1-0.4-0.2-0.5-0.4l-2.4-1.8v148.4c0,0.4,0,0.9-0.1,1.3
	c-0.2,1.6-0.7,3.1-1.4,4.4c-0.5,0.9-1.1,1.6-1.8,2.3V681l0.9,5.1l1.6,5.5l3.1,4.6l5.7,6.6l6.5,5.6l9.2,6.1l10.4,6.3l12.7,6.4
	l13.7,6.3l14.8,5.3l17.4,5.4l18.5,5.4l20.6,5.4l20.7,4.3l21.7,4.3l23.9,3.3c0.2,0,0.3,0,0.5,0.1l23.7,4.3l24.9,2.2
	c0.2,0,0.3,0,0.5,0.1l25.1,3.3l26.2,2.2l27.3,2.2L459.2,783.6z M472.7,682h57.7l13.9-1.1c0.3,0,0.6,0,0.8,0h3.4V651
	c0-0.2,0-0.3,0-0.5V515.8c0,0,0,0,0,0c0-0.3,0-0.6,0-0.9v-51.4c0-1.2,0.2-2.3,0.5-3.4c0,0,0,0,0,0c0,0,0,0,0,0c0,0,0,0,0,0
	c0,0,0,0,0,0c0.5-1.6,1.4-3,2.5-4.1c1.1-1.2,2.5-2.1,4.1-2.7c0,0,0,0,0,0c0,0,0,0,0,0c0,0,0,0,0,0c1.1-0.4,2.2-0.6,3.4-0.7l30.7-1.1
	l30.7-2.2l29.8-2.2l28.4-2.2l28.2-3.3l52.7-8.8l25.1-4.4c0.4-0.1,0.8-0.1,1.1-0.2c1.3-0.1,2.5,0,3.7,0.3c1.5,0.4,3,1.1,4.2,2.1
	c1.3,1.1,2.3,2.4,3,4c0.5,1.1,0.8,2.3,0.9,3.6c0,0.4,0,0.8,0,1.1v187.4c0,2-0.5,3.9-1.5,5.5l-10.5,21.6l0.1,0c0.3-0.1,0.7-0.2,1-0.3
	l21.3-4.3l9.3-3.1c0.4-0.1,0.7-0.2,1.1-0.3l9.2-2l8.1-3c0.1,0,0.3-0.1,0.4-0.1l5.5-1.8l16.8-35.5V463.7c0-0.2,0-0.3,0-0.5v-44.8
	c0-0.7,0-1.5,0.2-2.2c0.3-1.6,0.9-3.1,1.8-4.4c0.9-1.3,2.1-2.4,3.5-3.2c0.6-0.4,1.3-0.7,2-0.9l18.3-6.5l15.8-6.3l13.6-7.3l12.8-7.5
	l9.3-6.2l8.7-6.8l5-5.9l3.8-7.6c0.8-1.6,1.9-2.9,3.3-3.9v-36.9l-2.9,3.3c-0.6,0.7-1.4,1.4-2.2,1.9l-9.9,6.6c-0.1,0-0.1,0.1-0.2,0.1
	l-12.1,7.7c-0.2,0.1-0.4,0.3-0.6,0.4l-12.1,6.6c-0.2,0.1-0.4,0.2-0.7,0.3l-14.4,6.6c-0.3,0.1-0.6,0.3-0.9,0.4l-15.3,5.5l-16.4,6.5
	c-0.3,0.1-0.5,0.2-0.8,0.3l-17.7,5.5c-0.1,0-0.2,0.1-0.3,0.1l-19.9,5.5c-0.2,0.1-0.4,0.1-0.6,0.1l-19.9,4.4l-21.1,4.4
	c0,0-0.1,0-0.1,0l-22.1,4.4l-23.3,4.4c-0.2,0-0.4,0.1-0.6,0.1l-48.6,6.6c-0.2,0-0.4,0-0.5,0.1l-50.7,4.4l-53,4.4c-0.2,0-0.3,0-0.5,0
	l-27.6,1.1c-0.1,0-0.3,0-0.4,0h-27.4l-26.3,1.1c-0.3,0-0.6,0-0.9,0l-27.4-1.1h-27.3c-0.2,0-0.3,0-0.5,0l-26.5-1.1l-27.6-1.1
	c-0.2,0-0.3,0-0.5,0l-53-4.4L319,396c-0.2,0-0.4,0-0.5-0.1l-24.3-3.3l-24.3-3.3l-23.3-3.3c-0.2,0-0.3-0.1-0.5-0.1l-23.2-4.4
	c0,0-0.1,0-0.1,0l-22.1-4.4c-0.1,0-0.2,0-0.2,0l-19.8-4.4c-0.2,0-0.4-0.1-0.6-0.1l-19.9-5.5c-0.1,0-0.1,0-0.2,0l-18.8-5.5
	c-0.1,0-0.2-0.1-0.4-0.1l-16.6-5.5c-0.2-0.1-0.4-0.1-0.6-0.2l-16.6-6.6c-0.2-0.1-0.3-0.1-0.5-0.2l-14.4-6.6
	c-0.1-0.1-0.2-0.1-0.3-0.2l-13.2-6.6c-0.1-0.1-0.2-0.1-0.3-0.2l-12.1-6.6c-0.4-0.2-0.7-0.4-1.1-0.7l-11-7.7
	c-0.3-0.2-0.6-0.5-0.9-0.7l-7.2-6.3v37.6c0.6,0.6,1.2,1.3,1.6,2l5.1,8.1l5.6,6.5L66,374l10.1,6.1l13,7.6l13.6,7.3l15.9,6.3l17.3,6.5
	c0.7,0.2,1.3,0.5,1.9,0.9c1.4,0.8,2.6,1.9,3.5,3.2c0.9,1.3,1.5,2.8,1.8,4.3c0.1,0.7,0.2,1.4,0.2,2.1v184.6l18,35.9l4.5,1.7l9.2,3.1
	l9.4,2.1c0.4,0.1,0.7,0.2,1.1,0.3l9.4,3.1l9.3,2.1l10.9,2.2c0.2,0,0.5,0.1,0.7,0.2l0.3,0.1l-10.5-21.5c-1-1.6-1.5-3.6-1.5-5.6V439.3
	c0-0.7,0-1.4,0.2-2.1c1-6,6.7-10,12.7-8.9l25.4,4.4l26.4,4.4l27.3,4.4l28.3,3.3l28.5,2.2l59.4,4.4l30.6,1.1c1.2,0,2.3,0.3,3.4,0.7
	c0,0,0,0,0,0c0,0,0,0,0,0c0,0,0,0,0,0c1.6,0.6,3,1.5,4.1,2.7c1.1,1.2,2,2.6,2.5,4.1c0,0,0,0,0,0c0,0,0,0,0,0c0,0,0,0,0,0
	c0,0,0,0,0,0c0.4,1.1,0.5,2.2,0.5,3.4v51.4c0,0.3,0,0.6,0,0.9c0,0,0,0,0,0V651c0,0.2,0,0.3,0,0.5v29.4h3.4c0.3,0,0.5,0,0.8,0
	L472.7,682z M944.5,413.3c0.7,1.5,1.2,3.2,1.2,4.9v137.2l8.3-13.8c0,0,0,0,0-0.1l1.4-2.9l0.3-0.9v-2.6c0-1.2,0.2-2.3,0.6-3.5
	l0.5-1.6V385.5l-7.7,6c-0.2,0.2-0.4,0.3-0.7,0.5l-9.9,6.6c-0.2,0.1-0.4,0.2-0.6,0.3l-13.2,7.7c-0.1,0.1-0.2,0.1-0.3,0.2l-14.3,7.7
	c-0.4,0.2-0.7,0.4-1.1,0.5l-16.6,6.6c-0.1,0.1-0.3,0.1-0.4,0.2l-11.5,4v20.9l8.2-4.1l11.6-6.3l9-6l6.6-5.6l5.6-6.6l4.1-6.1
	c3.4-5,10.2-6.4,15.2-3C942.4,410.1,943.6,411.6,944.5,413.3z M48.8,543l7.5,12.2v-137c0-0.1,0-0.2,0-0.4c0,0,0,0,0,0c0,0,0,0,0,0
	c0-1.6,0.4-3,1-4.4c0.6-1.3,1.5-2.5,2.6-3.5c0,0,0,0,0,0c0,0,0,0,0,0c0.6-0.6,1.3-1,2-1.4c0,0,0,0,0,0c0,0,0,0,0,0
	c0.5-0.3,0.9-0.5,1.4-0.6c0,0,0,0,0,0c0,0,0,0,0,0c0,0,0,0,0,0c0,0,0,0,0,0c0,0,0,0,0,0c0,0,0,0,0,0c0,0,0,0,0,0c0,0,0,0,0,0
	c0.5-0.2,1-0.3,1.6-0.4c0,0,0,0,0,0c0.8-0.2,1.7-0.2,2.5-0.2c1.5,0.1,2.9,0.4,4.2,1c1.3,0.6,2.6,1.5,3.6,2.7
	c0.1,0.1,0.2,0.2,0.3,0.3l5.5,6.6c0.2,0.2,0.3,0.4,0.5,0.6l4.5,6.3l7.2,5.4l9.5,6.3l10.3,6.2l8.2,3.8v-20.7l-10.6-4
	c-0.1,0-0.1-0.1-0.2-0.1L94,415.1c-0.4-0.2-0.8-0.3-1.1-0.5l-14.3-7.7c-0.1-0.1-0.2-0.1-0.3-0.2L65,399c0,0-0.1-0.1-0.1-0.1l-11-6.6
	c-0.6-0.3-1.1-0.7-1.6-1.1l-6.1-5.4v148.1l0.7,2.7l1,2.9c0.1,0.3,0.2,0.6,0.2,0.8L48.8,543z M570.4,474v29.9l17.1-0.7l27.4-2.2
	l52.7-4.4l50.5-6.6l23.9-3.3l21.7-4.3c0.9-0.2,1.7-0.2,2.6-0.2c4.3,0.1,8,2.7,9.6,6.5v-36.6l-12.6,2.2l-53.1,8.9
	c-0.2,0-0.4,0.1-0.6,0.1l-28.7,3.3c-0.1,0-0.3,0-0.4,0l-28.7,2.2l-29.8,2.2l-30.9,2.2c-0.1,0-0.3,0-0.4,0L570.4,474z M415.5,503.3
	l16,0.6V474l-20.3-0.7c-0.1,0-0.3,0-0.4,0l-59.6-4.4l-28.7-2.2c-0.1,0-0.3,0-0.4,0l-28.7-3.3c-0.2,0-0.3,0-0.5-0.1l-27.6-4.4
	l-26.6-4.5l-12.6-2.2v36.7c0-0.1,0.1-0.2,0.1-0.3c0.7-1.4,1.7-2.7,2.8-3.7c1.2-1.1,2.7-1.8,4.4-2.3c1.2-0.3,2.5-0.4,3.8-0.3
	c0.4,0,0.8,0.1,1.2,0.2l22.7,4.3l48.3,6.6l25.1,3.3l26.2,2.2L415.5,503.3z M452.7,382.9H480c0.1,0,0.3,0,0.4,0l27.1,1.1l26-1.1
	c0.2,0,0.3,0,0.5,0h27.4l27.1-1.1l52.7-4.4l50.4-4.4l48-6.5l22.9-4.4l21.9-4.4l20.9-4.4l19.5-4.3l19.4-5.4l17.1-5.3l16.2-6.5
	c0.1-0.1,0.3-0.1,0.4-0.1l15-5.4l13.6-6.3l11.5-6.3l11.7-7.5l8.6-5.8l6.7-7.7l6-7.1l4.3-6.8l1.7-6.1l1.8-7.3v-36.1l-4.8,3.4
	c-0.3,0.2-0.7,0.5-1.1,0.7l-12.2,6.6c-0.1,0.1-0.2,0.1-0.3,0.2l-13.2,6.6c-0.4,0.2-0.8,0.4-1.2,0.5l-15.4,5.5l-8.8,3.3
	c0,0,0,0-0.1,0c-1.5,1-3.2,1.6-5.1,1.8l-17.1,6c-0.2,0.1-0.4,0.1-0.5,0.2l-18.8,5.5c-0.1,0-0.2,0.1-0.3,0.1l-21,5.5c0,0-0.1,0-0.1,0
	l-22.1,5.5c-0.2,0-0.4,0.1-0.6,0.1l-23.1,4.4c0,0-0.1,0-0.1,0l-24.2,4.4c-0.2,0-0.4,0.1-0.5,0.1l-25.2,3.3l-26.3,4.4
	c-0.1,0-0.3,0-0.4,0.1l-26.5,3.3c-0.2,0-0.3,0-0.5,0l-27.6,2.2l-57.4,4.4c-0.1,0-0.3,0-0.4,0l-28.7,1.1l-29.8,1.1
	c-0.1,0-0.3,0-0.4,0h-88.3c-0.1,0-0.3,0-0.4,0l-29.8-1.1l-28.7-1.1c-0.1,0-0.3,0-0.4,0l-57.4-4.4l-27.6-2.2c-0.2,0-0.3,0-0.5,0
	l-26.5-3.3c-0.1,0-0.3,0-0.4-0.1l-26.3-4.4l-25.2-3.3c-0.2,0-0.4-0.1-0.5-0.1l-24.2-4.4l-23.3-4.4c-0.2,0-0.5-0.1-0.7-0.2l-42-11
	c-0.2,0-0.3-0.1-0.5-0.1l-16-5.1c-0.9,0-1.7-0.2-2.6-0.5l-14.3-4.4c-0.1,0-0.2-0.1-0.3-0.1l-16.5-5.5c-0.3-0.1-0.6-0.2-0.8-0.3
	l-15.5-6.6c-0.2-0.1-0.4-0.2-0.6-0.3l-26.5-13.2c-0.4-0.2-0.8-0.4-1.2-0.7l-3.9-2.6v32.4c0,0.3,0,0.6,0,0.9v7.3l0.2,0.7
	c1.1,1.6,1.9,3.6,2,5.7l2.7,4.8l4.9,6.9l5.8,6.8l7.8,6.8l10,7l11.4,6.2l12.9,6.4l14,6.4l16,6.4l16.1,5.4l18.5,5.4l19.5,5.4l19.4,4.3
	l21.9,4.4l22.9,4.4l22.9,3.3l24.2,3.3l24,3.3l25.1,2.2l52.7,4.4L452.7,382.9z M457,288h87.9l29.6-1.1l28.5-1.1l57.2-4.4l27.4-2.2
	l26-3.3l26.3-4.4c0.1,0,0.3,0,0.4-0.1l25.1-3.3l23.9-4.3l22.8-4.4l21.7-5.4l20.8-5.5l18.3-5.4l18.5-6.5c0.6-0.2,1.2-0.4,1.8-0.5
	c0.4-0.2,0.8-0.4,1.3-0.6l8.8-3.3c0.1,0,0.1,0,0.2-0.1l14.8-5.3l12.5-6.2l11.5-6.2l10.5-7.4c0.1-0.1,0.1-0.1,0.2-0.2l9-6l6.3-6.3
	l8.2-11.5l-2.1,2.1c-0.4,0.4-0.9,0.8-1.4,1.2l-11,7.7c-0.3,0.2-0.7,0.5-1,0.7l-12.1,6.6c-0.1,0.1-0.2,0.1-0.4,0.2l-13.2,6.6
	c-0.2,0.1-0.4,0.2-0.6,0.3l-15.5,6.6c-0.1,0-0.2,0.1-0.3,0.1l-16.5,6.6c-0.1,0-0.1,0.1-0.2,0.1l-17.7,6.6c-0.3,0.1-0.6,0.2-0.9,0.3
	l-19.9,5.5c0,0-0.1,0-0.2,0l-21,5.5c0,0-0.1,0-0.1,0l-22.1,5.5c-0.2,0-0.4,0.1-0.6,0.1l-23.2,4.4c-0.1,0-0.1,0-0.2,0l-50.8,8.8
	c-0.2,0-0.3,0.1-0.5,0.1l-53,6.6c-0.2,0-0.3,0-0.5,0.1l-28.7,2.2l-27.6,2.2l-29.9,2.2c-0.1,0-0.3,0-0.4,0l-28.7,1.1l-29.7,1.2
	l-29.8,1.1c-0.1,0-0.3,0-0.4,0h-29.8c-0.1,0-0.3,0-0.4,0l-89.4-3.3c-0.1,0-0.3,0-0.4,0L339,268l-27.6-2.2c-0.1,0-0.3,0-0.4,0
	l-27.6-3.3l-26.5-3.3c-0.2,0-0.3,0-0.5-0.1l-25.4-4.4l-24.4-4.4l-23.3-4.4c-0.2,0-0.4-0.1-0.6-0.1l-22.1-5.5c0,0-0.1,0-0.1,0
	l-21-5.5c-0.1,0-0.1,0-0.2,0l-19.9-5.5c-0.2-0.1-0.5-0.1-0.7-0.2l-18.8-6.6c-0.1,0-0.3-0.1-0.4-0.2L83,215.4c-0.1,0-0.2-0.1-0.3-0.1
	l-15.4-6.7c-0.2-0.1-0.4-0.2-0.5-0.3l-13.2-6.6c-0.1-0.1-0.2-0.1-0.4-0.2L41,194.9c-0.5-0.3-1-0.6-1.5-1l-9.9-7.7
	c-0.2-0.1-0.3-0.3-0.5-0.4l-3-2.6c0.1,0.5,0.1,0.9,0.2,1.4l2.3,4l12.8,12.8l9.1,7.1l9,6L85,227.2l14.8,6.3l16,5.3l12.7,3.9
	c0.9,0,1.8,0.2,2.7,0.5l17.3,5.5l41.4,10.9l22.8,4.3l23.9,4.3l25.2,3.3c0.1,0,0.3,0,0.4,0.1l26.3,4.4l26,3.3l27.3,2.2l57.1,4.4
	l28.5,1.1L457,288z M313.3,244l0.9,0.1l-35.4-4.8c-0.2,0-0.4-0.1-0.7-0.1l-44.1-8.8c-0.1,0-0.1,0-0.2,0l-39.7-8.8
	c-0.3-0.1-0.6-0.1-0.9-0.2l-17.7-5.5c-0.1,0-0.1,0-0.2-0.1l-16.6-5.5c-0.3-0.1-0.6-0.2-0.8-0.3l-15.5-6.6l-13.2-5.5
	c-0.5-0.2-1-0.4-1.4-0.7l-22-13.3c-0.5-0.3-1-0.7-1.5-1.1l-7.7-6.6c-0.4-0.4-0.8-0.8-1.2-1.2l-6.6-7.7c0,0-0.1-0.1-0.1-0.1l-5.5-6.6
	c-0.5-0.6-1-1.3-1.3-2l-3.4-6.6c-0.6-1.1-0.9-2.2-1.1-3.5l-1.1-7.7c-0.1-0.5-0.1-1-0.1-1.5v-6.6c0-1.7,0.4-3.4,1.1-4.9l3.2-6.4
	l3.2-7.4c0.4-1,1-1.9,1.7-2.7l5.5-6.6c0.4-0.5,0.8-0.9,1.3-1.3l7.7-6.6c0.3-0.3,0.7-0.6,1.1-0.8l9.9-6.6c0.1-0.1,0.3-0.2,0.4-0.3
	l11-6.6c0.1-0.1,0.3-0.2,0.4-0.2l12.1-6.6c0.4-0.2,0.9-0.4,1.3-0.6l14.2-5.4l15.3-6.5c0.3-0.1,0.7-0.3,1-0.4l17.7-5.5
	c0.3-0.1,0.5-0.1,0.8-0.2l18.5-4.4l19.6-5.5c0.2-0.1,0.5-0.1,0.7-0.2l21-4.4c0,0,0.1,0,0.1,0l22.1-4.4c0.2,0,0.4-0.1,0.6-0.1
	l23.2-3.3l24.4-3.3l-16.1,1.9L273,36.2l-50.5,8.8l-24.1,4.4l-21.7,4.4L155,59.1l-19.5,5.4l-35.9,12l-16,6.4l-13.6,6.3l-12.7,7.4
	l-10.1,6.1l-7.8,6.8l-6.9,6.8l-4.7,6.5l-3.5,6.1l-1.6,5.7l-0.7,4.7l1.3,4.5l2.7,5.4l3.7,6.6l5.4,6.3l8,7l9,7l11.2,6.1l12.8,6.4
	l15,6.5l16.2,6.5l18.2,6.4l19.4,5.4l20.9,5.5l21.7,5.4l22.9,4.4l24.2,4.4l25.1,4.4l26.2,3.3L313.3,244z M859.5,203.1l-15.4,6.6
	c-0.3,0.1-0.6,0.2-0.8,0.3l-16.6,5.5c-0.1,0-0.1,0-0.2,0.1l-17.7,5.5c-0.3,0.1-0.5,0.1-0.8,0.2l-18.8,4.4c-0.1,0-0.2,0-0.3,0.1
	l-42,8.8c-0.1,0-0.1,0-0.2,0l-23.2,4.4c-0.2,0-0.3,0.1-0.5,0.1l-23.2,3.3l-8.8,1.2l50.9-6.4l50.4-8.8l22.8-4.3l21.7-5.4l20.9-5.5
	l19.3-5.4l17.1-6.4l16.3-6.5l15-6.5l12.8-6.4l11.4-6.2l9.7-6.8l6.8-6.8l6-7l4.7-6.6l2.1-4.3l0.7-5.2v-5.4l-1.4-5l-3.5-6.1l-4.7-6.5
	l-6.6-6.6l-8.9-6.9l-10.4-6.2l-12.7-7.4l-13.7-6.3l-14.8-6.3l-17.1-5.4c-0.1,0-0.3-0.1-0.4-0.1l-18.4-6.5L848,59.1l-21.6-5.4
	l-46-8.8l-25.3-4.4l-26.1-4.3L695.5,32l16.6,2.3l23.2,3.3c0.2,0,0.4,0.1,0.6,0.1l22.1,4.4c0,0,0.1,0,0.1,0l21,4.4
	c0.2,0,0.5,0.1,0.7,0.2l19.7,5.5l18.5,4.4c0.3,0.1,0.6,0.2,0.9,0.3l16.5,5.5c0.3,0.1,0.6,0.2,0.9,0.3l15.3,6.5l14.2,5.4
	c0.3,0.1,0.7,0.3,1,0.4l13.2,6.6c0.3,0.1,0.5,0.3,0.8,0.4l11,6.6c0.3,0.2,0.6,0.4,0.9,0.6l8.9,6.6c0.2,0.2,0.4,0.3,0.6,0.5l7.7,6.6
	c0.5,0.4,0.9,0.8,1.3,1.3l5.5,6.6c0.4,0.5,0.8,1,1.1,1.6l4.4,7.7c0.4,0.6,0.6,1.3,0.9,2l2.2,6.6c0.4,1.1,0.6,2.3,0.6,3.5v6.6
	c0,0.5,0,1-0.1,1.5l-1.1,7.7c-0.2,1.2-0.5,2.3-1,3.3l-3.3,6.6c-0.2,0.4-0.4,0.8-0.7,1.2l-4.5,6.6c-0.2,0.4-0.5,0.7-0.8,1l-6.6,7.7
	c-0.5,0.6-1.1,1.2-1.7,1.6l-8.8,6.6c-0.2,0.1-0.3,0.2-0.5,0.3l-9.9,6.6c-0.3,0.2-0.5,0.3-0.8,0.5l-12.1,6.6c-0.3,0.2-0.7,0.3-1,0.5
	L859.5,203.1z M519.3,192.2c0.2,0.1,0.3,0.2,0.5,0.3l5.5,3.3c1.2,0.7,2.3,1.7,3.1,2.8l3.3,4.4c0.9,1.2,1.5,2.5,1.9,3.9l1.1,4.4
	c0.4,1.6,0.4,3.2,0.1,4.8l-1.1,5.5c-0.5,2.6-2,5-4.2,6.6l-4.4,3.3c-0.5,0.4-1.1,0.8-1.7,1.1l-2.1,1l20-0.8c0.2,0,0.3,0,0.5,0h5.8
	c-0.5-0.4-1-0.8-1.4-1.2l-4.4-4.4c-1.4-1.4-2.4-3.1-2.9-5.1l-1.1-4.4c-0.4-1.6-0.4-3.2-0.1-4.8l1.1-5.5c0.5-2.6,2-5,4.2-6.6l4.4-3.3
	c0.5-0.4,1.1-0.7,1.7-1l3.8-1.9c0.1-0.1,0.3-0.2,0.4-0.2l-4.9-3c-0.8-0.5-1.5-1-2.1-1.7l-4.4-4.4c-1.5-1.5-2.6-3.5-3-5.6l-1.1-5.5
	c-0.3-1.6-0.3-3.2,0.1-4.8l1.1-4.4c0.5-1.9,1.5-3.7,2.9-5.1l4.4-4.4c1.2-1.2,2.7-2.1,4.3-2.6l2-0.7c-0.8-0.4-1.5-0.8-2.1-1.3
	l-5.5-4.4c-0.7-0.6-1.4-1.2-1.9-2l-3.3-4.4c-1.4-1.9-2.2-4.2-2.2-6.6v-5.5c0-1.7,0.4-3.4,1.2-4.9l2.2-4.4c0.9-1.7,2.1-3.1,3.7-4.2
	l3.3-2.2c1.3-0.9,2.8-1.4,4.2-1.7l-0.8-0.4c-0.7-0.3-1.3-0.8-1.9-1.2l-5.5-4.4c-1.2-1-2.2-2.2-3-3.7l-2.2-4.4
	c-0.8-1.5-1.2-3.2-1.2-4.9V86c0-2.9,1.2-5.7,3.2-7.7l3.3-3.3c0.8-0.8,1.8-1.5,2.9-2.1l-1.7-1.3c-0.4-0.3-0.8-0.6-1.2-1l-3.3-3.3
	c-1.6-1.6-2.6-3.6-3-5.8l-7-1.8c-0.8,0.8-1.7,1.4-2.7,1.9l-4.4,2.2c-0.7,0.4-1.5,0.6-2.3,0.8l-0.1,0c0.2,0.1,0.5,0.3,0.7,0.5
	l4.4,3.3c0.4,0.3,0.8,0.6,1.2,1l4.4,4.4c2.1,2.1,3.2,4.8,3.2,7.8v5.5c0,1.7-0.4,3.3-1.1,4.8l-2.1,4.4c-0.8,1.5-1.9,2.9-3.3,3.9
	l-4.4,3.3c-0.5,0.4-1.1,0.7-1.7,1l-2.8,1.4l1.4,0.5c1.6,0.5,3.1,1.4,4.3,2.6l4.4,4.4c0.8,0.8,1.5,1.8,2.1,2.9l2.2,4.4
	c0.8,1.5,1.2,3.2,1.2,4.9v5.5c0,2.4-0.8,4.7-2.2,6.6l-3.3,4.4c-0.8,1.1-1.9,2.1-3.1,2.8l-5.5,3.3c-0.4,0.3-0.9,0.5-1.3,0.7l1.9,0.8
	c1.4,0.5,2.6,1.4,3.7,2.4l4.4,4.4c0.8,0.8,1.5,1.8,2.1,2.9l2.2,4.4c0.8,1.5,1.2,3.2,1.2,4.9v5.5c0,2.3-0.7,4.6-2.1,6.5l-3.3,4.5
	c-0.9,1.2-1.9,2.1-3.2,2.9l-5.5,3.3C520.4,191.7,519.9,192,519.3,192.2z M455.4,232.9h4.7c0.1,0,0.3,0,0.4,0l20,0.8l-2.1-1.1
	c-1-0.5-2-1.2-2.8-2l-3.4-3.3c-0.9-0.8-1.6-1.8-2.1-2.9L468,220c-1.1-2.2-1.4-4.7-0.9-7.1l1.1-5.5c0.3-1.6,1-3.1,2-4.4l3.3-4.4
	c0.6-0.8,1.3-1.6,2.2-2.2l4.4-3.3c0.7-0.5,1.4-0.9,2.2-1.3l-4.5-2.7c-0.8-0.5-1.5-1-2.1-1.6l-4.4-4.4c-1.4-1.4-2.4-3.2-2.9-5.1
	l-1.1-4.4c-0.4-1.6-0.4-3.2-0.1-4.8l1.1-5.5c0.4-2.1,1.5-4,3-5.6l4.4-4.4c0.9-0.9,1.8-1.6,2.9-2.1l4.2-2c-0.9-0.4-1.8-0.8-2.6-1.4
	l-4.4-3.3c-0.8-0.6-1.6-1.4-2.2-2.2l-3.3-4.4c-0.9-1.2-1.5-2.5-1.9-3.9l-1.1-4.4c-0.6-2.2-0.4-4.6,0.5-6.7l2.2-5.5
	c0.6-1.4,1.4-2.6,2.4-3.7l3.3-3.3c1-1,2.3-1.9,3.7-2.4l3.3-1.3l-0.5-0.2c-1.2-0.4-2.4-1-3.4-1.8l-5.5-4.4c-0.9-0.7-1.7-1.5-2.3-2.5
	l-2.2-3.3c-1.2-1.8-1.8-3.9-1.8-6.1v-5.5c0-2.4,0.8-4.7,2.2-6.6l3.3-4.4c0.6-0.7,1.2-1.4,1.9-2l5.5-4.4c0.3-0.3,0.7-0.5,1-0.7
	c-1.2-0.3-2.4-0.8-3.5-1.5l-2.8-1.8l-1.6-0.8c-0.4-0.2-0.8-0.4-1.2-0.7l-7.4,1.8c-0.3,1.4-0.8,2.8-1.6,4l-2.2,3.3
	c-0.9,1.3-2.1,2.5-3.5,3.3l-1.5,0.9c0.9,0.5,1.7,1.1,2.4,1.8l3.3,3.2c1.5,1.4,2.5,3.2,3,5.2l1.1,4.4c0.7,2.8,0.3,5.8-1.2,8.3
	l-3.3,5.5c-0.5,0.8-1,1.5-1.7,2.1l-4.4,4.4c-0.8,0.8-1.8,1.5-2.8,2l-0.9,0.4c0.5,0.3,1,0.6,1.4,0.9l4.4,3.3c0.4,0.3,0.8,0.6,1.2,1
	l3.3,3.3c2.1,2.1,3.2,4.8,3.2,7.8v5.5c0,1.7-0.4,3.4-1.2,4.9l-2.2,4.4c-0.7,1.4-1.7,2.7-2.9,3.6l-5.5,4.4c-0.4,0.3-0.8,0.6-1.2,0.8
	l-2.5,1.5l2.5,0.8c1.1,0.4,2.1,0.9,3.1,1.6l4.4,3.3c1.6,1.2,2.9,2.8,3.6,4.7l2.2,5.5c1.2,2.9,1,6.2-0.4,9l-2.2,4.4
	c-0.3,0.6-0.6,1.1-1,1.7l-3.3,4.4c-0.6,0.7-1.2,1.4-1.9,2l-5.5,4.4c-0.2,0.1-0.4,0.3-0.5,0.4l1.6,0.5c1.6,0.5,3.1,1.4,4.3,2.6
	l4.4,4.4c0.8,0.8,1.5,1.8,2,2.8l2.2,4.4c1.1,2.2,1.4,4.7,0.9,7l-1.1,5.5c-0.4,2.1-1.5,4.1-3,5.6l-4.4,4.4
	C456.4,232.1,455.9,232.5,455.4,232.9z M392.6,230.1l8.2,0.3l-2.4-3.2c-1.9-2.5-2.6-5.7-2-8.7l1.1-5.5c0.3-1.6,1-3.1,2-4.4l3.3-4.4
	c0.6-0.7,1.2-1.4,1.9-2l4.7-3.7c0.6-0.6,1.3-1.2,2.1-1.6l-0.1,0c-1.1-0.4-2.2-0.9-3.1-1.6l-3.9-2.9c-0.6-0.4-1.2-0.9-1.7-1.4
	l-2.2-2.2c-1.4-1.4-2.4-3.2-2.9-5.1l-1.1-4.4c-0.6-2.2-0.4-4.6,0.5-6.7l2.2-5.5c0.7-1.8,1.9-3.3,3.3-4.5l5.5-4.4
	c0.4-0.3,0.8-0.6,1.2-0.8l2.3-1.4l-2.9-1.2c-0.9-0.4-1.7-0.8-2.5-1.4l-4.4-3.3c-2-1.5-3.4-3.7-4-6.1l-1.1-4.4
	c-0.6-2.6-0.3-5.3,0.9-7.6l2.2-4.3c0.3-0.7,0.7-1.3,1.2-1.9l3.9-4.9c0.8-1.1,1.8-2.1,3-3l0.9-0.6c-0.3-0.1-0.6-0.2-0.8-0.4l-4.4-2.2
	c-2.9-1.4-5-4.1-5.8-7.2l-1.1-4.4c-0.7-3-0.2-6.1,1.5-8.7l2.2-3.3c0.1-0.2,0.2-0.3,0.3-0.5l2.9-3.9c0.1-0.1,0.2-0.3,0.3-0.4
	c-2.3-1-4.3-2.8-5.4-5.1l-1.1-2.2c-0.3-0.6-0.5-1.1-0.7-1.7l-2.9,0.7c0.2,0.5,0.4,1,0.6,1.5c0.9,2.8,0.7,5.8-0.6,8.4l-1.1,2.2
	c-0.5,1-1.2,2-2,2.8l-2.3,2.3c1,0.7,1.9,1.6,2.5,2.7l2.2,3.3c1.9,2.8,2.4,6.3,1.3,9.6l-1.1,3.3c-0.4,1.1-0.9,2.2-1.6,3.1l-3.3,4.4
	c-0.6,0.7-1.2,1.4-1.9,2l-3.1,2.5c0,0,0.1,0,0.1,0.1l4.4,2.2c2.8,1.4,4.9,4,5.7,7.1l1.1,4.4c0.4,1.8,0.4,3.6,0,5.3l-1.1,4.4
	c-0.4,1.5-1.1,2.9-2.1,4.2L387,159c-1,1.2-2.2,2.2-3.7,3l-2,1l3.1,1.5c1.1,0.5,2,1.2,2.9,2.1l3.3,3.3c1.5,1.5,2.6,3.5,3,5.6l1.1,5.5
	c0.6,3.1-0.1,6.2-2,8.7l-3.3,4.4c-0.3,0.4-0.7,0.8-1,1.2l-4.4,4.4c-0.8,0.8-1.8,1.5-2.8,2l-1.5,0.8l0,0c0.8,0.3,1.5,0.6,2.2,1
	l5.5,3.3c1.8,1.1,3.2,2.6,4.2,4.5l2.2,4.4c1.2,2.3,1.5,5,0.8,7.6l-1.1,4.4C393.3,228.6,393,229.4,392.6,230.1z M591.1,196.6
	c0.9,0.5,1.8,1.1,2.6,1.9l8.8,8.8c2.1,2.1,3.2,4.8,3.2,7.7v4.4c0,1.4-0.3,2.8-0.8,4.1l-2.2,5.5c-0.2,0.4-0.4,0.9-0.6,1.3l7.2-0.3
	c-0.8-1.5-1.2-3.3-1.2-5v-4.4c0-1.2,0.2-2.3,0.6-3.4l1-3.1c0.3-0.9,0.7-1.7,1.1-2.5c0.5-0.8,1.1-1.5,1.7-2.1l3.2-3.2
	c1.1-1.1,2.3-1.9,3.7-2.4l3.6-1.4l-1.8-1.1c-0.4-0.3-0.8-0.5-1.2-0.8l-5.5-4.4c-1.2-1-2.3-2.2-3-3.7l-2.2-4.4
	c-0.8-1.5-1.1-3.2-1.1-4.9v-5.5c0-2.9,1.2-5.7,3.2-7.7l3.3-3.3c1-1.1,2.3-1.9,3.7-2.4l2.9-1.2l-2.3-1.4c-1.1-0.7-2.1-1.5-2.9-2.5
	l-4.4-5.5c-1-1.2-1.7-2.7-2.1-4.2l-1.1-4.4c-0.4-1.7-0.4-3.6,0-5.3l1.1-4.4c0.8-3.1,2.9-5.7,5.7-7.1l3.7-1.8
	c-1.1-0.7-2.1-1.5-2.9-2.5l-4.4-5.5c-0.8-1-1.4-2.2-1.8-3.4l-1.1-3.3c-0.7-2.2-0.7-4.7,0-6.9l1.1-3.3c0.8-2.4,2.4-4.4,4.5-5.7
	l-2.9-2.9c-2.1-2.1-3.2-4.8-3.2-7.7v-2.2c0-1.7,0.4-3.4,1.1-4.9l-3.5-0.8c-0.4,4-2.9,7.6-6.7,9.1l3.2,4c0.8,1,1.4,2.1,1.8,3.4
	l1.1,3.3c0.7,2,0.7,4.1,0.2,6.2l-1.1,4.4c-0.7,2.6-2.3,4.9-4.6,6.4l-3.3,2.2c-0.8,0.6-1.8,1-2.7,1.3l0.6,0.4
	c0.6,0.4,1.1,0.9,1.7,1.4l4.4,4.4c0.8,0.8,1.5,1.8,2.1,2.9l2.2,4.4c0.8,1.5,1.2,3.2,1.2,4.9v4.4c0,2.9-1.2,5.7-3.2,7.7l-4.4,4.4
	c-1.1,1.1-2.3,1.9-3.7,2.4l-3.1,1.2l1.7,0.9c1,0.5,2,1.2,2.8,2l4.4,4.4c0.8,0.8,1.5,1.8,2.1,2.9l2.2,4.4c0.8,1.5,1.2,3.2,1.2,4.9
	v5.5c0,2.9-1.2,5.7-3.2,7.7l-3.3,3.3c-0.8,0.8-1.8,1.5-2.8,2.1L591.1,196.6z M639.5,227l2.7,0.9l5.4-0.5l4.1-0.5l-0.5-0.5l-4.1-2.1
	l-6.2-1.8l-4.3-0.7l-4.7,0.7l-1,0.4l2.1,1.2L639.5,227z M355.4,227.4l4.4,0.4c0.2-0.1,0.4-0.1,0.6-0.2l3.2-0.8l4.5-2.3l2.5-2
	l-2.8-0.9h-3.3l-6,1.7l-5,1.7l-1.7,1.1l-0.8,0.6L355.4,227.4z M303.1,220.5l24.2,3.3c0.1-0.2,0.1-0.4,0.2-0.6l2.2-5.5
	c0.7-1.8,1.9-3.3,3.4-4.5l5.4-4.3c0.1-0.1,0.3-0.2,0.4-0.3c0.2-0.1,0.4-0.3,0.5-0.4l0.1,0c-2-0.5-3.8-1.5-5.2-2.9l-3.3-3.3
	c-0.8-0.8-1.5-1.8-2.1-2.8l-2.2-4.4c-1.5-3.1-1.5-6.7,0-9.8l2.2-4.4c0.3-0.6,0.7-1.2,1.1-1.8l1.8-2.7c0.6-0.9,1.4-1.8,2.2-2.5
	l4.8-3.8l-1.4-0.5c-0.9-0.3-1.8-0.7-2.6-1.3l-3.3-2.2c-3.1-2-4.9-5.5-4.9-9.1v-4.4c0-1.7,0.4-3.4,1.2-4.9l2.2-4.4
	c0.5-1.1,1.2-2,2.1-2.9l3.2-3.2c-1.2-0.5-2.3-1.3-3.2-2.2l-2.2-2.2c-2-2.1-3.2-4.8-3.2-7.7v-3.3c0-1.7,0.4-3.4,1.2-4.9l2.2-4.4
	c0.5-0.9,1-1.8,1.7-2.5c-3.1-2-5.1-5.5-5.1-9.2v-2.2c0-1.5,0.3-3,0.9-4.3l-3.3,0.7c-0.2,2.1-0.9,4.1-2.2,5.7
	c2.2,2.9,2.8,6.6,1.7,10.1l-1.1,3.3c-0.5,1.6-1.4,3.1-2.6,4.3l-1.2,1.2c1.4,1,2.5,2.3,3.2,3.9l1.1,2.2c1.3,2.6,1.5,5.6,0.6,8.4
	l-1.1,3.3c-0.4,1.1-0.9,2.1-1.6,3.1l-3.3,4.4c-0.6,0.8-1.2,1.4-1.9,2l1.5,1c1.2,0.8,2.2,1.8,3,3l2.2,3.3c1.9,2.8,2.4,6.3,1.3,9.6
	l-1.1,3.3c-0.3,0.7-0.6,1.5-1,2.1l-3.3,5.5c-0.8,1.4-1.9,2.6-3.3,3.5l-1.9,1.3c0.4,0.2,0.8,0.5,1.2,0.8l4.4,3.3
	c1.8,1.3,3.1,3.2,3.8,5.3l1.1,3.3c0.6,1.8,0.7,3.8,0.4,5.6l-1.1,5.5c-0.4,2.1-1.5,4.1-3,5.6l-4.4,4.4c-0.5,0.5-1.1,1-1.7,1.4
	l-6.6,4.4c-0.9,0.6-2,1.1-3.1,1.4L303.1,220.5z M663.2,207.9c0.8,0.5,1.6,1,2.2,1.7l4.4,4.4c0.6,0.6,1.2,1.3,1.6,2.1l3.3,5.5
	c0.4,0.7,0.7,1.3,1,2.1l24.5-3.4l-1.7-0.7c-0.2-0.1-0.4-0.2-0.5-0.3l-6.6-3.3c-1.1-0.5-2-1.2-2.8-2.1l-4.4-4.4
	c-0.6-0.6-1.2-1.3-1.6-2.1l-3.3-5.5c-1.7-2.7-2-6.1-1-9.1l1.1-3.3c0.5-1.6,1.4-3,2.5-4.2l3.2-3.3c1.2-1.3,2.7-2.2,4.4-2.7l0.6-0.2
	l-5-4c-0.7-0.6-1.4-1.2-1.9-2l-3.3-4.4c-2-2.6-2.7-6-1.9-9.2l1.1-4.4c0.7-2.6,2.3-4.9,4.5-6.4l3.3-2.2c0.1,0,0.1-0.1,0.2-0.1
	c-0.3-0.2-0.5-0.4-0.8-0.7l-4.4-4.4c-1.2-1.2-2.1-2.7-2.6-4.3l-1.1-3.3c-1.3-3.9-0.3-8.3,2.6-11.2l2.2-2.2c0.2-0.2,0.5-0.5,0.7-0.7
	l-0.7-0.5c-1.8-1.3-3.1-3.2-3.8-5.3l-1.1-3.3c-1.2-3.5-0.5-7.2,1.6-10.1c-1.3-1.7-2.1-3.8-2.2-5.9l-2.1-0.5c0.5,1.3,0.8,2.7,0.8,4.1
	v2.2c0,4.1-2.3,7.9-6,9.8l2.7,3.6c0.7,0.9,1.2,2,1.6,3.1l1.1,3.3c1.3,3.9,0.3,8.3-2.6,11.2l-2.2,2.2c-1.3,1.3-2.9,2.3-4.7,2.8l3.8,3
	c1.2,1,2.2,2.2,2.9,3.6l2.2,4.4c1.2,2.3,1.5,5,0.8,7.6l-1.1,4.4c-0.7,2.7-2.3,5-4.7,6.5l-3.3,2.2c-0.3,0.2-0.7,0.4-1,0.6l-1.4,0.7
	c-0.4,0.2-0.8,0.4-1.2,0.6l4.5,3.6c0.3,0.3,0.6,0.5,0.9,0.8l3.3,3.3c1.4,1.4,2.4,3.2,2.9,5.1l1.1,4.4c0.4,1.8,0.4,3.6,0,5.3
	l-1.1,4.4c-0.6,2.4-2,4.6-4,6.1l-4.4,3.3C665.5,207,664.4,207.5,663.2,207.9z M423.3,219.6h5.2l6-0.9l4.5-1.5l3.5-2.1l-0.4-0.4
	l-3.4-1.1l-4.1-0.7l-5.1,0.7l-7,2.3l-2.9,2.3l0.4,0.3L423.3,219.6z M574.6,219.6h5.2l3-1l-2.7-2.7l-3.9-1.3l-6-1.7h-3.3l-4.1,1.4
	l-2,1l0.1,0.1l3.3,2l4.5,1.5L574.6,219.6z M497.4,216.3h6l5.2-0.8l3.7-1.8l-0.2-0.2l-2.9-1.8l-3.5-1.4l-4.9-0.7l-5.2,0.7l-4.1,1.4
	L490,213l-0.4,0.6l0.2,0.2l3.6,1.8L497.4,216.3z M736.7,188.4c1.3,0.9,2.4,2,3.2,3.4l3.3,5.5c0.1,0.2,0.3,0.5,0.4,0.7l2.2,4.4
	c1.3,2.6,1.5,5.5,0.6,8.2l-0.6,1.8l27.6-5.8l-0.9-0.4c-0.2-0.1-0.4-0.2-0.6-0.3l-6.6-3.3c-0.4-0.2-0.8-0.4-1.2-0.7l-6.6-4.4
	c-1-0.7-1.9-1.5-2.7-2.5l-3.3-4.4c-0.7-0.9-1.3-2-1.6-3.1l-1.1-3.3c-1.1-3.2-0.6-6.7,1.3-9.5l2.2-3.3c1-1.5,2.4-2.8,4-3.6l-0.7-0.5
	c-0.3-0.3-0.6-0.5-0.9-0.8l-3.3-3.3c-2.1-2.1-3.2-4.8-3.2-7.7v-3.3c0-3.7,1.9-7.2,5-9.2l-1.8-1.8c-2.1-2.1-3.2-4.8-3.2-7.7v-2.2
	c0-2.5,0.8-4.8,2.2-6.6c-1.4-1.9-2.2-4.2-2.2-6.6v-1.1c0-1.8,0.4-3.5,1.2-4.9l-2.6-0.6c-0.2,2.2-1.1,4.2-2.4,5.9
	c0.1,0.1,0.1,0.2,0.2,0.4l1.1,2.2c1.3,2.6,1.5,5.7,0.6,8.5c-0.9,2.6-2.8,4.8-5.2,6.1c0.2,0.3,0.4,0.5,0.6,0.8l2.2,3.3
	c0.2,0.4,0.5,0.7,0.7,1.1l1.1,2.2c2.1,4.2,1.3,9.3-2,12.7l-2.2,2.2c-0.7,0.7-1.6,1.4-2.5,1.9c0.5,0.4,0.9,0.9,1.3,1.5l3.3,4.4
	c0.9,1.2,1.5,2.5,1.9,3.9l1.1,4.4c0.9,3.7-0.2,7.7-2.9,10.4l-2.2,2.2c-0.8,0.8-1.8,1.5-2.8,2L736.7,188.4z M238.4,208.8l18.4,3.7
	c-0.5-1.3-0.8-2.6-0.8-4v-4.4c0-2.4,0.8-4.7,2.1-6.5l2-2.9c0.6-1,1.4-1.8,2.3-2.5l3.7-2.9c-2.5-0.7-4.6-2.3-6-4.4l-2.2-3.3
	c-1.2-1.8-1.8-3.9-1.8-6.1v-3.3c0-1.7,0.4-3.4,1.1-4.9l2.2-4.4c0.9-1.7,2.1-3.2,3.7-4.2l0.4-0.2c-0.7-0.5-1.4-1-2.1-1.6l-2.2-2.2
	c-2-2.1-3.2-4.8-3.2-7.7v-2.2c0-2.2,0.6-4.3,1.8-6.1l2.2-3.3c0.3-0.5,0.6-0.9,1-1.3c-3.1-2-5-5.5-5-9.2v-2.2c0-2.4,0.8-4.7,2.2-6.6
	c-1-1.3-1.7-2.9-2-4.5l-3.6,0.9c1.5,3,1.4,6.6-0.1,9.7l-1.1,2.2c-0.1,0.1-0.1,0.2-0.2,0.3c1.6,1.9,2.5,4.3,2.5,6.9v1.1
	c0,1.2-0.2,2.4-0.6,3.5l-1.1,3.3c-0.5,1.6-1.4,3.1-2.6,4.3c0.8,0.8,1.5,1.8,2,2.8l1.1,2.2c0.8,1.5,1.2,3.2,1.2,4.9v3.3
	c0,3.4-1.6,6.7-4.4,8.8l-3.7,2.8l2.1,1.4c1.6,1,2.8,2.5,3.7,4.2l1.1,2.1c1.2,2.4,1.5,5.1,0.8,7.6l-1.1,4.4c-0.5,1.9-1.5,3.7-2.9,5.1
	l-4.4,4.4c-0.5,0.5-1.1,1-1.7,1.4l-6.6,4.4c-0.6,0.4-1.2,0.7-1.8,1l-6,2.6L238.4,208.8z M713.7,202.3l2.2,0.3l-3.4-1.4l-4.2-1.2
	L713.7,202.3z M292.2,200.3l-4,1.7l1.9-0.6c0.1,0,0.3-0.1,0.4-0.1l5.7-1.6L292.2,200.3z M182.1,194.8l3.3,1V193
	c0-2.9,1.1-5.7,3.2-7.7l3.3-3.3c0.2-0.2,0.4-0.4,0.7-0.6l-1.2-0.6c-3.7-1.9-6-5.6-6-9.8v-2.2c0-2.2,0.6-4.3,1.8-6.1l1.8-2.7
	c0.4-0.6,0.8-1.2,1.2-1.7c-0.2-0.2-0.4-0.3-0.5-0.5l-1.1-1.1c-3.3-3.3-4.2-8.4-2.1-12.6l1.1-2.2c0.2-0.4,0.4-0.7,0.6-1
	c-0.9-1-1.7-2.3-2.2-3.6l-5.8,3.2l-7.6,5.7l-5.6,5.6l-3.3,4.1l-2.3,4.5l-0.8,3.3c-1.5,5.9-7.4,9.4-13.3,7.9
	c-5.9-1.5-9.4-7.4-7.9-13.3l1.1-4.4c0.2-0.8,0.5-1.5,0.8-2.2l3.3-6.6c0.3-0.7,0.8-1.3,1.2-2l4.4-5.5c0.3-0.3,0.5-0.6,0.8-0.9
	l6.6-6.6c0.4-0.4,0.8-0.7,1.2-1l8.8-6.6c0.4-0.3,0.8-0.6,1.3-0.8l9.9-5.5l12.2-6.7c0.3-0.2,0.7-0.4,1.1-0.5l13.2-5.5
	c0.4-0.2,0.8-0.3,1.2-0.4l15.2-4.4l16.3-5.4c0.3-0.1,0.5-0.2,0.8-0.2l17.3-4.3l2.9-1c0.6-0.2,1.1-0.3,1.7-0.4l16.1-3.8l4.7-1.3
	c0.5-0.1,1-0.2,1.4-0.3l7-1l7-2c0.5-0.1,1-0.2,1.4-0.3l2.6-0.4l0.9-0.2c1.6-1,3.4-1.6,5.4-1.7c0.8-0.4,1.6-0.7,2.5-0.9l36.4-8.1
	l4.5-1.5c0.7-0.2,1.4-0.4,2.1-0.5l3.8-0.5l1.4-0.3l7.6-2.2c0.4-0.1,0.8-0.2,1.2-0.3l1.7-0.3c1.8-0.8,3.6-1.1,5.4-0.9l1.6-0.3
	c1.1-0.8,2.3-1.3,3.7-1.7l36.4-8.8c1.3-0.3,2.6-0.4,3.9-0.2l1.8-0.6c0.7-0.2,1.4-0.4,2.2-0.5l7.9-1l3.5-1.5c0.8-0.3,1.6-0.6,2.5-0.7
	l5.8-1l2.1-0.7c0.4-0.2,0.9-0.3,1.3-0.4l2.3-0.5l-55.3,2.3l-26.3,2.2l-25.1,2.2L293.9,56l-22.8,3.3l-21.7,4.3l-20.6,4.3l-19.5,5.4
	c-0.1,0-0.3,0.1-0.4,0.1l-18.4,4.3L173.7,83l-15,6.4c-0.1,0.1-0.2,0.1-0.4,0.1l-13.7,5.3l-11.3,6.2l-10.6,6.4l-9.2,6.1l-6.5,5.6
	l-3.9,4.7l-2.7,6.3c-0.1,0.2-0.2,0.4-0.3,0.6l-2.2,4.4v3.3l0.7,5.1l2,3.9l4.7,5.6l6,7l6.4,5.5l20.5,12.4l12.5,5.2l15.1,6.5
	L182.1,194.8z M809.3,181.6l0.9,0.7c0.9,0.7,1.7,1.5,2.3,2.5l2.2,3.3c1.2,1.8,1.8,3.9,1.8,6.1v1.6l3.4-1.1l16-5.3l15-6.4
	c0,0,0.1,0,0.1,0l12.7-5.3l11.2-6.1l9.3-6.2l7.6-5.7l5.4-6.3l3.7-5.5l2.2-4.4l0.7-5.2v-4.1l-1.3-3.9l-3.4-6l-4.3-5.2l-6.7-5.8
	l-8.1-6.1l-10.2-6.1l-12.4-6.2l-13.9-5.3c-0.1,0-0.3-0.1-0.4-0.2l-15-6.4l-15.6-5.2l-18.3-4.3c-0.1,0-0.3-0.1-0.4-0.1l-19.5-5.4
	l-20.6-4.3l-21.7-4.3L709.1,56l-24.2-3.3l-25.1-3.3l-25.1-2.2l-26.2-2.2L553,42.8l2.2,0.5l5.3,1c0.5,0.1,0.9,0.2,1.3,0.4l6.2,2.1
	l8.4,2.1c0.1,0,0.2,0.1,0.4,0.1l3.9,1.1c0.9-0.3,1.8-0.4,2.7-0.4c1,0,2,0.1,3.1,0.3l37,8.7c0.5,0.1,0.9,0.2,1.4,0.4
	c0.5,0.2,1,0.4,1.5,0.7l0.5,0.3l5,0.8c0.6,0.1,1.1,0.2,1.7,0.4l6.2,2.1l8.4,2.1c0.1,0,0.2,0.1,0.4,0.1l2.4,0.7
	c0.8,0,1.5,0.1,2.3,0.2l5.5,1.1c0.2,0,0.3,0.1,0.5,0.1l4.4,1.1c0.3,0.1,0.6,0.2,0.8,0.2l0.1,0l27.5,6.3c4.3,1,7.4,4.3,8.3,8.3
	l2.1,0.3c0.3,0,0.6,0.1,0.9,0.2l4.4,1.1c0.1,0,0.1,0,0.2,0c2.6-2.9,6.7-4.4,10.7-3.4l23,5.5c0.1,0,0.2,0.1,0.3,0.1l22.1,5.5
	c0.3,0.1,0.5,0.1,0.8,0.2l16.4,5.5l14.2,4.4c0.3,0.1,0.7,0.2,1,0.4l13.2,5.5c0.4,0.1,0.7,0.3,1,0.5l22.2,12.2
	c0.4,0.2,0.9,0.5,1.3,0.8l8.8,6.6c0.4,0.3,0.8,0.6,1.2,1l12.1,12.1c0.8,0.8,1.5,1.8,2.1,2.9l3.3,6.6c0.4,0.8,0.7,1.5,0.9,2.4l1,4.4
	c1.4,5.9-2.2,11.8-8.1,13.2c-5.9,1.4-11.8-2.2-13.2-8.1l-0.8-3.2l-1.9-3.9l-10.3-10.3l-7.6-5.7l-5-2.7c-0.5,1.2-1.2,2.3-2.2,3.3
	l1.2,1.8c2.9,4.4,2.3,10.2-1.4,13.9l-1.1,1.1c-0.2,0.2-0.3,0.3-0.5,0.5c0.3,0.4,0.7,0.8,0.9,1.2l2.2,3.3c2.1,3.3,2.3,7.4,0.6,10.9
	l-1.1,2.2c-0.9,1.7-2.1,3.1-3.7,4.2L809.3,181.6z M648.5,187.6h1.9l-0.9-0.7l-4.7-2.3l-5.3-1.5h-6.4l3.5,2.1l5.6,1.6L648.5,187.6z
	 M351.5,187.6h2.9l5.1-0.9l6.1-1.8l3.9-2h-7l-4.5,1.5l-5.9,2.5L351.5,187.6z M572.3,177.7h5l4.1-0.7l1.1-0.6l-0.9-0.9l-4.3-2.2
	l-4.9-1.6l-5.1-0.7l-4.1,0.7l-3.1,1l0.6,0.6l3,1.8l2.8,0.7c0.3,0.1,0.6,0.1,0.8,0.2L572.3,177.7z M423.3,177.7h5.2l6-0.9l3.8-1.3
	l2.9-2.3l0.4-0.6l-2.9-1l-4.1-0.7l-5.1,0.7l-4.5,1.5l-3.9,2.3l-1.2,0.9l0.1,0.1L423.3,177.7z M493.9,173.3H506l4.9-1.4l1.9-1.1
	l-1.5-1.5l-2.3-0.9l-4.5-0.8h-6l-5.2,0.7l-3.5,1.7l-0.4,0.4l0.7,0.7l3.6,2.1L493.9,173.3z M355.3,150.1h0.6l5.3-1.5l5.4-2.7
	l-4.4,1.2L355.3,150.1z M641.5,148.5l4.2,1.2l-6.3-2.7l-4.5-1.5h-0.2l0.4,0.2L641.5,148.5z M573.1,135.8h8.5l-0.4-0.4l-4.3-2.9
	l-5.5-1.6l-4.2-0.7l-6.2,1l1.6,1.3l4.5,1.5L573.1,135.8z M420.7,135.7H431l4.9-1.4l3.6-2.2l1.9-1.5l-3.2-0.5l-10.3,1.7l-5.6,2.4
	l-1,0.7L420.7,135.7z M495,130.2h11.9l3.8-1.3l2.1-1.3l-1.2-1.2l-3.4-1.1l-4.9-0.8h-5.3l-5.7,1.6l-2.8,1.1l0.4,0.6l1.7,1.3
	L495,130.2z M572.7,96.3l1.7,0.2l-3.4-1.5l-2.2-0.7L572.7,96.3z M434.7,93.3l-5,2.5c-0.2,0.1-0.4,0.2-0.6,0.3l-0.9,0.4l1.3-0.2
	l6.1-2.6L437,93L434.7,93.3z M496.3,87.2h12l3.4-1.7l0.3-0.3l-2-1.5l-4.1-1.4l-4.9-0.8h-4.6l-4.3,1.8l-2.5,2l1,0.8l0.7,0.2
	L496.3,87.2z"/>
</svg>
