<svg xmlns="http://www.w3.org/2000/svg" xmlns:xlink="http://www.w3.org/1999/xlink" viewBox="0 0 100 100"><defs><style>.cls-1,.cls-11,.cls-14,.cls-9{fill:none;}.cls-10,.cls-12,.cls-2,.cls-8{fill:#fff;}.cls-3{clip-path:url(#clip-path);}.cls-13,.cls-15,.cls-4{fill:#b3b3b3;}.cls-5{fill:#81cff4;}.cls-6{fill:#1d1d1b;}.cls-7{fill:#e20613;}.cls-10,.cls-13,.cls-15,.cls-16,.cls-8,.cls-9{stroke:#1d1d1b;}.cls-11,.cls-12,.cls-13,.cls-15,.cls-16,.cls-8,.cls-9{stroke-width:0.87px;}.cls-10{stroke-width:0.69px;}.cls-11,.cls-12{stroke:#000;stroke-linecap:round;}.cls-14{stroke:#e20613;stroke-width:0.21px;}.cls-15{stroke-linejoin:round;}.cls-16{fill:#4d4d4d;}</style><clipPath id="clip-path"><path class="cls-1" d="M100,50A50,50,0,1,1,50,0,50,50,0,0,1,100,50Z"/></clipPath></defs><title>np_kreisPictosWeb_100x100px_190726</title><g id="weisser_hg"><path class="cls-2" d="M100,50A50,50,0,1,1,50,0,50,50,0,0,1,100,50Z"/></g><g id="illu"><g class="cls-3"><rect x="18.38" y="-13.11" width="63.25" height="53.86"/><polygon class="cls-4" points="78.38 39.06 73.53 43.13 73.53 118.01 26.47 118.01 26.47 43.92 21.7 39.85 21.7 -13.14 78.38 -13.14 78.38 39.06"/><path class="cls-5" d="M31.61,62.42a1.19,1.19,0,1,1-1.18-1.18A1.18,1.18,0,0,1,31.61,62.42Z"/><path class="cls-5" d="M31.61,66.75a1.19,1.19,0,1,1-1.18-1.18A1.18,1.18,0,0,1,31.61,66.75Z"/><path class="cls-2" d="M31.61,71.07a1.19,1.19,0,1,1-1.18-1.18A1.18,1.18,0,0,1,31.61,71.07Z"/><path class="cls-2" d="M31.61,75.4a1.19,1.19,0,1,1-1.18-1.18A1.18,1.18,0,0,1,31.61,75.4Z"/><path class="cls-2" d="M31.61,79.73a1.19,1.19,0,1,1-1.18-1.18A1.18,1.18,0,0,1,31.61,79.73Z"/><path class="cls-2" d="M31.61,84.06a1.19,1.19,0,1,1-1.18-1.18A1.18,1.18,0,0,1,31.61,84.06Z"/><path class="cls-5" d="M38.12,62.42a1.19,1.19,0,0,1-1.19,1.18,1.18,1.18,0,1,1,1.19-1.18Z"/><path class="cls-5" d="M38.12,66.75a1.19,1.19,0,0,1-1.19,1.18,1.18,1.18,0,1,1,1.19-1.18Z"/><path class="cls-2" d="M38.12,71.07a1.19,1.19,0,0,1-1.19,1.18,1.18,1.18,0,0,1,0-2.36A1.19,1.19,0,0,1,38.12,71.07Z"/><path class="cls-2" d="M38.12,75.4a1.18,1.18,0,0,1-1.19,1.18,1.18,1.18,0,0,1,0-2.36A1.19,1.19,0,0,1,38.12,75.4Z"/><path class="cls-2" d="M38.12,79.73a1.19,1.19,0,0,1-1.19,1.18,1.18,1.18,0,0,1,0-2.36A1.19,1.19,0,0,1,38.12,79.73Z"/><path class="cls-2" d="M38.12,84.06a1.19,1.19,0,0,1-1.19,1.18,1.18,1.18,0,0,1,0-2.36A1.19,1.19,0,0,1,38.12,84.06Z"/><path class="cls-5" d="M44.62,62.42a1.18,1.18,0,1,1-1.18-1.18A1.18,1.18,0,0,1,44.62,62.42Z"/><path class="cls-5" d="M44.62,66.75a1.18,1.18,0,1,1-1.18-1.18A1.18,1.18,0,0,1,44.62,66.75Z"/><path class="cls-5" d="M44.62,71.07a1.18,1.18,0,1,1-1.18-1.18A1.18,1.18,0,0,1,44.62,71.07Z"/><path class="cls-2" d="M44.62,75.4a1.18,1.18,0,1,1-1.18-1.18A1.17,1.17,0,0,1,44.62,75.4Z"/><path class="cls-2" d="M44.62,79.73a1.18,1.18,0,1,1-1.18-1.18A1.18,1.18,0,0,1,44.62,79.73Z"/><path class="cls-2" d="M44.62,84.06a1.18,1.18,0,1,1-1.18-1.18A1.18,1.18,0,0,1,44.62,84.06Z"/><path class="cls-5" d="M51.13,62.42A1.18,1.18,0,1,1,50,61.24,1.18,1.18,0,0,1,51.13,62.42Z"/><path class="cls-5" d="M51.13,66.75A1.18,1.18,0,1,1,50,65.57,1.18,1.18,0,0,1,51.13,66.75Z"/><path class="cls-5" d="M51.13,71.07A1.18,1.18,0,1,1,50,69.89,1.18,1.18,0,0,1,51.13,71.07Z"/><path class="cls-5" d="M51.13,75.4A1.18,1.18,0,1,1,50,74.22,1.17,1.17,0,0,1,51.13,75.4Z"/><path class="cls-5" d="M51.13,79.73A1.18,1.18,0,1,1,50,78.55,1.18,1.18,0,0,1,51.13,79.73Z"/><path class="cls-5" d="M51.13,84.06A1.18,1.18,0,1,1,50,82.88,1.18,1.18,0,0,1,51.13,84.06Z"/><path class="cls-5" d="M57.65,62.42a1.18,1.18,0,1,1-1.18-1.18A1.18,1.18,0,0,1,57.65,62.42Z"/><path class="cls-5" d="M57.65,66.75a1.18,1.18,0,1,1-1.18-1.18A1.18,1.18,0,0,1,57.65,66.75Z"/><path class="cls-5" d="M57.65,71.07a1.18,1.18,0,1,1-1.18-1.18A1.18,1.18,0,0,1,57.65,71.07Z"/><path class="cls-2" d="M57.65,75.4a1.18,1.18,0,1,1-1.18-1.18A1.18,1.18,0,0,1,57.65,75.4Z"/><path class="cls-2" d="M57.65,79.73a1.18,1.18,0,1,1-1.18-1.18A1.18,1.18,0,0,1,57.65,79.73Z"/><path class="cls-2" d="M57.65,84.06a1.18,1.18,0,1,1-1.18-1.18A1.18,1.18,0,0,1,57.65,84.06Z"/><path class="cls-5" d="M64.16,62.42A1.18,1.18,0,1,1,63,61.24,1.18,1.18,0,0,1,64.16,62.42Z"/><path class="cls-5" d="M64.16,66.75A1.18,1.18,0,1,1,63,65.57,1.18,1.18,0,0,1,64.16,66.75Z"/><path class="cls-2" d="M64.16,71.07A1.18,1.18,0,1,1,63,69.89,1.18,1.18,0,0,1,64.16,71.07Z"/><path class="cls-2" d="M64.16,75.4A1.18,1.18,0,1,1,63,74.22,1.18,1.18,0,0,1,64.16,75.4Z"/><path class="cls-2" d="M64.16,79.73A1.18,1.18,0,1,1,63,78.55,1.18,1.18,0,0,1,64.16,79.73Z"/><path class="cls-2" d="M64.16,84.06A1.18,1.18,0,1,1,63,82.88,1.18,1.18,0,0,1,64.16,84.06Z"/><path class="cls-5" d="M70.68,62.42a1.19,1.19,0,0,1-1.2,1.18,1.18,1.18,0,0,1,0-2.36A1.19,1.19,0,0,1,70.68,62.42Z"/><path class="cls-5" d="M70.68,66.75a1.19,1.19,0,0,1-1.2,1.18,1.18,1.18,0,0,1,0-2.36A1.19,1.19,0,0,1,70.68,66.75Z"/><path class="cls-2" d="M70.68,71.07a1.19,1.19,0,0,1-1.2,1.18,1.18,1.18,0,0,1,0-2.36A1.19,1.19,0,0,1,70.68,71.07Z"/><path class="cls-2" d="M70.68,75.4a1.19,1.19,0,0,1-1.2,1.18,1.18,1.18,0,0,1,0-2.36A1.19,1.19,0,0,1,70.68,75.4Z"/><path class="cls-2" d="M70.68,79.73a1.19,1.19,0,0,1-1.2,1.18,1.18,1.18,0,0,1,0-2.36A1.19,1.19,0,0,1,70.68,79.73Z"/><path class="cls-2" d="M70.68,84.06a1.19,1.19,0,0,1-1.2,1.18,1.18,1.18,0,0,1,0-2.36A1.19,1.19,0,0,1,70.68,84.06Z"/><path class="cls-6" d="M61.14,73.07A1.18,1.18,0,1,1,60,71.89,1.18,1.18,0,0,1,61.14,73.07Z"/><path class="cls-6" d="M45.7,74.31a1.18,1.18,0,1,1-1.18-1.18A1.18,1.18,0,0,1,45.7,74.31Z"/><polygon class="cls-7" points="53.27 77.56 53.27 64.38 46.73 64.38 46.73 77.56 34.05 77.56 50 86.8 66.64 77.56 53.27 77.56"/><path class="cls-6" d="M35.29,70.78a1.18,1.18,0,1,1-1.17-1.18A1.17,1.17,0,0,1,35.29,70.78Z"/><path class="cls-8" d="M18.38,45.78v7.36c0,11.71,12.18,19.55,31.62,19.55s31.63-7.84,31.63-19.55V45.78"/><path class="cls-9" d="M79.18,40.44c0,8.76-13.06,15.85-29.18,15.85S20.82,49.2,20.82,40.44"/><path class="cls-9" d="M79.18,38c0,8.76-13.06,15.85-29.18,15.85S20.82,46,20.82,38"/><path class="cls-9" d="M21.12,36C21.12,44.67,34,51.3,50,51.3S78.89,44.67,78.89,36"/><path class="cls-6" d="M50.41,80.59a1.18,1.18,0,1,1-1.18-1.18A1.18,1.18,0,0,1,50.41,80.59Z"/><path class="cls-6" d="M41.34,75.08a1.18,1.18,0,1,1-1.18-1.18A1.18,1.18,0,0,1,41.34,75.08Z"/><path class="cls-6" d="M52.86,76.22a1.18,1.18,0,0,1-2.36,0,1.18,1.18,0,0,1,2.36,0Z"/><path class="cls-6" d="M78.31,35.28C78.31,26.8,65.64,19.9,50,19.9S21.68,26.8,21.68,35.28A9.74,9.74,0,0,0,24,41.35a8.25,8.25,0,0,1-.63-3.1c0-8,11.94-14.48,26.66-14.48s26.66,6.48,26.66,14.48a8.06,8.06,0,0,1-.63,3.1A9.73,9.73,0,0,0,78.31,35.28Z"/><path class="cls-10" d="M50,48.46c11.67,0,21.7-3.83,26-9.31a8.06,8.06,0,0,0,.63-3.1c0-8-11.93-14.48-26.66-14.48S23.36,28.05,23.36,36.05a8.06,8.06,0,0,0,.63,3.1C28.33,44.63,38.35,48.46,50,48.46Zm0-22.62c11.29,0,20.51,4.8,21.12,10.85C70.53,42.74,61.31,47.54,50,47.54s-20.51-4.8-21.13-10.85C29.51,30.64,38.72,25.84,50,25.84Z"/><path class="cls-2" d="M17,35.54,18.37,32c0,3,3.08,4,3.08,4L21,40.48s-2.57,1.27-2.57,5.69Z"/><path class="cls-11" d="M21,40.48s-2.57,1.27-2.57,5.69"/><polygon class="cls-6" points="21.71 33.7 23.01 33.88 23.1 38.45 21.45 36.04 21.71 33.7"/><path class="cls-2" d="M83,35.54,81.63,32a4.39,4.39,0,0,1-2.58,4v4.44s2.56,1.27,2.56,5.69Z"/><path class="cls-12" d="M79.05,40.48s2.56,1.27,2.56,5.69"/><polygon class="cls-6" points="78.29 33.7 77 33.88 76.9 38.45 78.55 36.04 78.29 33.7"/><path class="cls-6" d="M23.4,34.11c0-7.45,11.91-13.49,26.6-13.49s26.6,6,26.6,13.49S64.69,47.61,50,47.61,23.4,41.57,23.4,34.11ZM50,48.58c15.75,0,28.52-6.47,28.52-14.47S65.75,19.65,50,19.65,21.48,26.13,21.48,34.11,34.25,48.58,50,48.58Z"/><path class="cls-6" d="M78.52,33.44l-3.29,6.74-8.45,5.2L55.64,47.92l-12-.05L33.56,45.48l-8-4.79-4.06-7.25,0,3.13C21.47,44.56,34.23,51,50,51S78.5,44.56,78.5,36.57Z"/><path class="cls-13" d="M50,25.91c-12,0-21.79,5.1-22.44,11.52C28.21,43.86,38,49,50,49s21.79-5.1,22.43-11.53C71.79,31,62,25.91,50,25.91Z"/><path class="cls-6" d="M43.54,33.48a1.18,1.18,0,1,1-1.18-1.18A1.18,1.18,0,0,1,43.54,33.48Z"/><path class="cls-9" d="M27.53,36.75c0-6.74,10.06-12.2,22.47-12.2S72.47,30,72.47,36.75,62.41,49,50,49,27.53,43.49,27.53,36.75Z"/><path class="cls-6" d="M41,35.47a1.18,1.18,0,1,1-1.18-1.18A1.18,1.18,0,0,1,41,35.47Z"/><path class="cls-6" d="M60.45,40.24a1.19,1.19,0,1,1-1.18-1.18A1.18,1.18,0,0,1,60.45,40.24Z"/><path class="cls-6" d="M61.5,36.23a1.18,1.18,0,1,1-1.18-1.18A1.18,1.18,0,0,1,61.5,36.23Z"/><path class="cls-13" d="M59.76,38c0,2.65-4.37,4.79-9.76,4.79S40.24,40.67,40.24,38V36.24H59.76Z"/><path class="cls-6" d="M58.89,33.13A1.18,1.18,0,1,1,57.71,32,1.18,1.18,0,0,1,58.89,33.13Z"/><path class="cls-13" d="M40.24,36.24c0-2.65,4.37-4.79,9.76-4.79s9.76,2.14,9.76,4.79S55.39,41,50,41,40.24,38.89,40.24,36.24Z"/><path class="cls-14" d="M45.41,35.72c0-1.25,2.06-2.26,4.59-2.26s4.59,1,4.59,2.26S52.54,38,50,38,45.41,37,45.41,35.72Z"/><path class="cls-15" d="M46.36,37.09A7,7,0,0,0,50,38a7.15,7.15,0,0,0,3.56-.83V31.49s.16-4.61-3.6-4.61-3.6,4.61-3.6,4.61Z"/><path class="cls-16" d="M45.41,35.73a1.75,1.75,0,0,0,1,1.37V34.35A1.75,1.75,0,0,0,45.41,35.73Zm8.15-1.43v2.85a1.78,1.78,0,0,0,1-1.42A1.77,1.77,0,0,0,53.56,34.3Z"/><path class="cls-13" d="M47.2,44V42.61a13.94,13.94,0,0,1-3.83-1.08C43.71,42.64,45.19,43.58,47.2,44Zm5.59-1.42V44c2-.45,3.49-1.39,3.84-2.5A14.12,14.12,0,0,1,52.79,42.61Z"/><path class="cls-13" d="M47.2,44a13.17,13.17,0,0,0,5.59,0V42.61a19.18,19.18,0,0,1-2.79.2,19.42,19.42,0,0,1-2.8-.2Z"/><path class="cls-6" d="M50.72,44.32H49.54a6.9,6.9,0,0,1-1.17-.1c0-.52.52-.83,1.17-.83A1.08,1.08,0,0,1,50.72,44.32Z"/><path class="cls-6" d="M38.55,36.85a1.18,1.18,0,1,1-1.18-1.18A1.18,1.18,0,0,1,38.55,36.85Z"/><path class="cls-6" d="M37,39.06a1.18,1.18,0,1,1-1.19-1.18A1.18,1.18,0,0,1,37,39.06Z"/><path class="cls-6" d="M41,40.46a1.18,1.18,0,1,1-1.18-1.19A1.17,1.17,0,0,1,41,40.46Z"/><path class="cls-6" d="M38.83,40.8a1.18,1.18,0,1,1-1.18-1.18A1.18,1.18,0,0,1,38.83,40.8Z"/><path class="cls-6" d="M42.93,42.26a1.18,1.18,0,1,1-1.18-1.19A1.18,1.18,0,0,1,42.93,42.26Z"/><path class="cls-6" d="M43.64,43.78A1.18,1.18,0,0,1,42.46,45a1.18,1.18,0,0,1,0-2.36A1.18,1.18,0,0,1,43.64,43.78Z"/><path class="cls-6" d="M39.85,43.93a1.18,1.18,0,0,1-2.36,0,1.18,1.18,0,0,1,2.36,0Z"/><path class="cls-6" d="M46.87,43.84a1.18,1.18,0,1,1-1.18-1.18A1.18,1.18,0,0,1,46.87,43.84Z"/><path class="cls-6" d="M47.87,46.07a1.18,1.18,0,1,1-1.18-1.18A1.18,1.18,0,0,1,47.87,46.07Z"/><path class="cls-6" d="M54.61,44.37a1.18,1.18,0,1,1-1.18-1.18A1.18,1.18,0,0,1,54.61,44.37Z"/><path class="cls-6" d="M57.74,44.84A1.18,1.18,0,0,1,56.57,46a1.19,1.19,0,1,1,0-2.37A1.18,1.18,0,0,1,57.74,44.84Z"/><path class="cls-6" d="M58.43,42.69a1.18,1.18,0,1,1-1.18-1.18A1.18,1.18,0,0,1,58.43,42.69Z"/><path class="cls-6" d="M64.34,36.74a1.18,1.18,0,1,1-1.17-1.18A1.18,1.18,0,0,1,64.34,36.74Z"/><path class="cls-6" d="M62.61,38.64a1.18,1.18,0,1,1-1.18-1.19A1.18,1.18,0,0,1,62.61,38.64Z"/><path class="cls-6" d="M63.66,40.28a1.18,1.18,0,1,1-1.18-1.18A1.18,1.18,0,0,1,63.66,40.28Z"/><path class="cls-6" d="M65.15,42.21A1.17,1.17,0,0,1,64,43.39,1.18,1.18,0,1,1,64,41,1.17,1.17,0,0,1,65.15,42.21Z"/><path class="cls-6" d="M61,42a1.18,1.18,0,0,1-1.18,1.18,1.18,1.18,0,1,1,0-2.36A1.18,1.18,0,0,1,61,42Z"/><path class="cls-6" d="M61.83,43.58a1.18,1.18,0,1,1-1.18-1.19A1.17,1.17,0,0,1,61.83,43.58Z"/><path class="cls-7" d="M32.87-13.15V35c0,.81.13,4,3.32,4L34.6,40.86l6.81,0-3.33-4.35L37,37.88s-2.26.2-2.26-3.21v-47.8Z"/><path class="cls-7" d="M67.08-13.15V35c0,.81-.13,4-3.33,4l1.6,1.92-6.81,0,3.33-4.35,1.06,1.35s2.25.2,2.25-3.21v-47.8Z"/><path class="cls-2" d="M31.61,88.39a1.19,1.19,0,1,1-1.18-1.18A1.18,1.18,0,0,1,31.61,88.39Z"/><path class="cls-2" d="M31.61,92.72a1.19,1.19,0,1,1-1.18-1.18A1.18,1.18,0,0,1,31.61,92.72Z"/><path class="cls-2" d="M31.61,97.05a1.19,1.19,0,1,1-1.18-1.19A1.18,1.18,0,0,1,31.61,97.05Z"/><path class="cls-2" d="M38.12,88.39a1.19,1.19,0,0,1-1.19,1.18,1.18,1.18,0,1,1,1.19-1.18Z"/><path class="cls-2" d="M38.12,92.72a1.19,1.19,0,0,1-1.19,1.18,1.18,1.18,0,0,1,0-2.36A1.19,1.19,0,0,1,38.12,92.72Z"/><path class="cls-2" d="M38.12,97.05a1.19,1.19,0,0,1-1.19,1.18,1.19,1.19,0,0,1,0-2.37A1.19,1.19,0,0,1,38.12,97.05Z"/><path class="cls-2" d="M44.62,88.39a1.18,1.18,0,1,1-1.18-1.18A1.18,1.18,0,0,1,44.62,88.39Z"/><path class="cls-2" d="M44.62,92.72a1.18,1.18,0,1,1-1.18-1.18A1.18,1.18,0,0,1,44.62,92.72Z"/><path class="cls-2" d="M44.62,97.05a1.18,1.18,0,1,1-1.18-1.19A1.18,1.18,0,0,1,44.62,97.05Z"/><path class="cls-2" d="M51.13,88.39A1.18,1.18,0,1,1,50,87.21,1.18,1.18,0,0,1,51.13,88.39Z"/><path class="cls-2" d="M51.13,92.72A1.18,1.18,0,1,1,50,91.54,1.18,1.18,0,0,1,51.13,92.72Z"/><path class="cls-2" d="M51.13,97.05A1.18,1.18,0,1,1,50,95.86,1.18,1.18,0,0,1,51.13,97.05Z"/><path class="cls-2" d="M57.65,88.39a1.18,1.18,0,1,1-1.18-1.18A1.18,1.18,0,0,1,57.65,88.39Z"/><path class="cls-2" d="M57.65,92.72a1.18,1.18,0,1,1-1.18-1.18A1.18,1.18,0,0,1,57.65,92.72Z"/><path class="cls-2" d="M57.65,97.05a1.18,1.18,0,1,1-1.18-1.19A1.18,1.18,0,0,1,57.65,97.05Z"/><path class="cls-2" d="M64.16,88.39A1.18,1.18,0,1,1,63,87.21,1.18,1.18,0,0,1,64.16,88.39Z"/><path class="cls-2" d="M64.16,92.72A1.18,1.18,0,1,1,63,91.54,1.18,1.18,0,0,1,64.16,92.72Z"/><path class="cls-2" d="M64.16,97.05A1.18,1.18,0,1,1,63,95.86,1.18,1.18,0,0,1,64.16,97.05Z"/><path class="cls-2" d="M70.68,88.39a1.19,1.19,0,0,1-1.2,1.18,1.18,1.18,0,0,1,0-2.36A1.19,1.19,0,0,1,70.68,88.39Z"/><path class="cls-2" d="M70.68,92.72a1.19,1.19,0,0,1-1.2,1.18,1.18,1.18,0,0,1,0-2.36A1.19,1.19,0,0,1,70.68,92.72Z"/><path class="cls-2" d="M70.68,97.05a1.19,1.19,0,0,1-1.2,1.18,1.19,1.19,0,0,1,0-2.37A1.19,1.19,0,0,1,70.68,97.05Z"/></g></g><g id="obererRING"><path class="cls-6" d="M50,1.8A48.2,48.2,0,1,1,1.8,50,48.25,48.25,0,0,1,50,1.8M50,0a50,50,0,1,0,50,50A50,50,0,0,0,50,0Z"/></g></svg>
