<?xml version="1.0" encoding="utf-8"?>
<!-- Generator: Adobe Illustrator 23.0.6, SVG Export Plug-In . SVG Version: 6.00 Build 0)  -->
<svg version="1.1" id="Kugelgelenke" 	 y="0px" viewBox="0 0 867.2 1001.5" style="enable-background:new 0 0 867.2 1001.5;" xml:space="preserve">
<title>Kugelgelenke</title>
<path d="M842.4,363.7c-1.3,0-2.5-0.2-3.8-0.7c-5.6-2.1-8.4-8.3-6.3-13.8l9.3-24.8l3.1-25.7c-0.4,0-0.8,0.1-1.3,0.1
	c-5.9,0-10.7-4.8-10.7-10.7V263c0-5.9,4.8-10.7,10.7-10.7s10.7,4.8,10.7,10.7v17.6c1.1-0.2,2.3-0.3,3.5-0.2c5.9,0.7,10.1,6.1,9.4,12
	l-4.3,35.6c0,0.3-0.1,0.5-0.1,0.8c-0.1,0.8-0.4,1.5-0.7,2.3l-9.6,25.7C850.8,361,846.7,363.7,842.4,363.7z M161.3,94
	c-1.2,0-2.3-0.2-3.5-0.6c-5.6-1.9-8.6-8.1-6.6-13.7l9.7-28c0.3-0.9,0.7-1.8,1.3-2.7c0,0,0,0,0,0c0.6-0.8,1.2-1.6,2-2.2l34.4-30.1
	c0.7-0.7,1.6-1.2,2.5-1.7c0.9-0.4,1.8-0.7,2.8-0.9L262,2.4c5.8-1.2,11.5,2.6,12.7,8.4c1.2,5.8-2.6,11.5-8.4,12.7l-55.7,11.3
	l-30.4,26.6l-8.8,25.5C169.9,91.2,165.7,94,161.3,94z"/>
<path d="M848.9,283.5c-3.8,0-7.4-2-9.4-5.5L820,243.4c-2.9-5.2-1.1-11.7,4.1-14.6c5.2-2.9,11.7-1.1,14.6,4.1l19.5,34.7
	c2.9,5.2,1.1,11.7-4.1,14.6C852.5,283.1,850.7,283.5,848.9,283.5z"/>
<path d="M440.6,1001.5h-79c-0.1,0-0.3,0-0.4,0l-52-2.2c-0.1,0-0.3,0-0.4,0l-26-2.2l-23.9-2.2l-24.9-2.2c-0.2,0-0.4,0-0.6-0.1
	l-45.5-6.5c-0.2,0-0.4-0.1-0.6-0.1l-21.7-4.3c0,0-0.1,0-0.1,0l-20.6-4.3c0,0-0.1,0-0.1,0l-19.5-4.3c-0.2-0.1-0.5-0.1-0.7-0.2
	l-18.4-5.4c-0.1,0-0.2-0.1-0.4-0.1l-32.5-10.8c-0.2-0.1-0.3-0.1-0.5-0.2l-14.1-5.4c-0.4-0.2-0.9-0.4-1.3-0.6l-11.8-6.4l-10.6-5.3
	c-0.6-0.3-1.1-0.6-1.6-1l-8.7-6.5c-0.2-0.1-0.4-0.3-0.5-0.4l-7.6-6.5c-0.4-0.4-0.8-0.8-1.2-1.2l-6.5-7.6c-0.6-0.7-1.1-1.4-1.4-2.2
	l-3.2-6.5c-0.2-0.5-0.4-0.9-0.6-1.4l-2.2-6.5c-0.1-0.4-0.3-0.9-0.3-1.3l-1-5c-0.1-0.6-0.2-1.2-0.3-1.9c0-0.3,0-0.6,0-0.8v-239
	c0-0.1,0-0.2,0-0.3c0,0,0,0,0,0c0,0,0,0,0,0c0-0.6,0.1-1.1,0.2-1.7l1-6.3c0.1-0.9,0.4-1.7,0.7-2.5l3.2-7.6c0.3-0.6,0.6-1.2,0.9-1.7
	l4.3-6.5c0.2-0.3,0.4-0.6,0.7-0.9l5.2-6.2c0.4-0.5,0.9-1,1.4-1.5l25.6-22.8V375c0-0.2,0-0.3,0-0.5v-6.5c0-0.6,0-1.2,0.1-1.8l1.1-6.5
	c0.2-1,0.5-2.1,1-3l3.2-6.5c0.4-0.7,0.8-1.5,1.4-2.1l5.4-6.5c0.2-0.2,0.4-0.5,0.6-0.7l3.2-3.2c0.1-0.1,0.2-0.2,0.3-0.3l7.9-7.9
	c0.3-0.4,0.7-0.7,1-1l4.9-4.9c1.1-1.1,2.5-2,3.9-2.5l5.3-4.6c0.4-0.4,0.9-0.7,1.3-1l8.6-5.3c0,0,0.1,0,0.1-0.1l10.8-6.5
	c0.4-0.3,0.9-0.5,1.4-0.7l13-5.4c0.3-0.1,0.6-0.2,1-0.4L133,293l14.9-5.3c0.3-0.1,0.7-0.2,1-0.3l17.3-4.3c0.1,0,0.1,0,0.2,0
	l36.8-8.7c0.3-0.1,0.5-0.1,0.8-0.2l20.6-3.3l21.8-3.3c0.2,0,0.3,0,0.5-0.1l21.3-2.1l10.9-1.8l7.9-4.3l3.8-10.4l-6.6-3.4
	c-0.1,0-0.1-0.1-0.2-0.1l-21.7-11.9c-0.3-0.1-0.5-0.3-0.8-0.5l-19.3-12.9l-19.3-11.8c-0.3-0.2-0.5-0.3-0.7-0.5l-16.2-11.9
	c-0.2-0.1-0.4-0.3-0.6-0.5l-14.1-11.9l-12.9-10.8c-0.4-0.3-0.8-0.7-1.1-1.1l-9.8-10.8c-0.2-0.2-0.3-0.4-0.5-0.6l-7.6-9.8
	c-0.2-0.2-0.3-0.4-0.5-0.6l-6.5-9.7c-0.5-0.7-0.8-1.4-1.1-2.2l-3.2-8.7c-0.3-0.7-0.5-1.5-0.6-2.3l-1.1-7.6c-0.2-1.5-0.1-3,0.3-4.5
	l2.2-7.6c0.2-0.7,0.4-1.3,0.8-1.9l-1.9-7.7c-0.5-1.8-0.4-3.7,0.1-5.5l0.8-2.9c-0.4-2.2-0.1-4.5,1-6.6l2.2-4.3
	c1.5-3.1,4.4-5.1,7.5-5.7l-0.8-3.1c-0.3-1.3-0.4-2.7-0.2-4.1l1.1-7.4c0-0.2,0.1-0.5,0.1-0.7c0-0.2,0.1-0.5,0.2-0.7l1-4.2
	c1.4-5.8,7.3-9.3,13-7.8c5.8,1.4,9.3,7.3,7.8,13l-0.9,3.8l-0.7,5l2.4,9.5l7.3,12.8l13.9,14.8l18.7,15.6l24.3,18l28.8,18.1l34.2,20.3
	l26,13l-7-3.9l-18.3-9.7c-0.2-0.1-0.5-0.2-0.7-0.4l-17.2-10.8l-16.2-9.7c-0.2-0.1-0.5-0.3-0.7-0.5L260.1,143l-14-9.7
	c-0.1-0.1-0.2-0.2-0.3-0.2l-13-9.7c-0.3-0.2-0.5-0.4-0.8-0.6l-10.8-9.8c-0.1-0.1-0.3-0.2-0.4-0.4l-8.7-8.7c-0.2-0.2-0.3-0.3-0.4-0.5
	l-8.7-9.8c-0.3-0.3-0.5-0.6-0.7-0.9l-5.4-7.6c-0.1-0.2-0.2-0.4-0.4-0.5l-5.4-8.7c-0.5-0.7-0.8-1.5-1.1-2.3l-2.2-6.5
	c0-0.1-0.1-0.3-0.1-0.4l-2.2-7.6c-0.4-1.5-0.5-3.1-0.3-4.7l1.1-6.5c0.2-1.1,0.5-2.1,1-3.1l0.8-1.5l7.3-21.9c1.9-5.6,8-8.7,13.6-6.8
	c5.6,1.9,8.7,8,6.8,13.6L208.3,51c-0.2,0.7-0.5,1.3-0.8,1.9l-0.1,0.3l-0.4,2.5l1.4,5l1.7,5.1l4.6,7.3l4.9,6.8l8.1,9.1l8.2,8.2
	l10.3,9.2l12.5,9.3l13.9,9.6c0,0,0.1,0.1,0.1,0.1l14.8,10.6l15.9,9.5c0.1,0,0.1,0.1,0.2,0.1l17,10.6l18.1,9.6c0.1,0,0.1,0.1,0.2,0.1
	l19.2,10.7l20.3,9.6c0.1,0,0.1,0.1,0.2,0.1l21.5,10.7l21.4,9.6l22.5,9.6l22.5,8.6c0.1,0.1,0.3,0.1,0.4,0.2l22.3,9.5l23.3,7.4
	c0.1,0,0.3,0.1,0.4,0.1l23.7,8.6l45.1,15l23.4,6.4l21.5,5.4l22.6,5.4l40.8,8.6l19.3,3.2c0,0,0.1,0,0.1,0l17.8,3.1l17.8,1l30.8,2
	l13.2-0.9l11.8-1.1l9.5-1l8.2-2.7l6.3-2.7l4.8-3.2l2.6-2.6l2.6-4.3c1.3-2.1,3.1-3.6,5.3-4.5c-2.7-4.8-1.3-11,3.4-14.1
	c4.9-3.3,11.6-2,14.9,2.9l2.2,3.2c0.3,0.4,0.5,0.8,0.7,1.2l4.3,8.7c0.5,1.1,0.9,2.3,1,3.5l1.1,8.7c0.1,0.9,0.1,1.9,0,2.8l-1.1,7.6
	c-0.1,0.9-0.4,1.8-0.8,2.7l-3.2,7.6c-0.5,1.3-1.3,2.4-2.3,3.4l-0.7,0.7c0,0,0.1,0.1,0.1,0.1c4.9,3.3,6.3,10,3,14.9l-1.6,2.4
	l-0.9,1.8c-0.2,0.4-0.4,0.8-0.7,1.1l-6.5,9.8c-0.2,0.3-0.4,0.6-0.6,0.8c1.2,2.3,1.7,5,1,7.7l-1.1,4.3c-0.3,1.1-0.7,2.2-1.3,3.1
	c-0.4,1.1-0.9,2.1-1.7,3l-7.6,9.7c-0.9,1.2-2,2.1-3.3,2.8l-11.9,6.5c-0.5,0.3-1,0.5-1.5,0.7l-15.2,5.4c-0.8,0.3-1.6,0.5-2.4,0.6
	l-9.6,1.1c0,0,0,0-0.1,0l-17.3,2.2c-1.3,0.2-2.6,0.1-3.8-0.2l-3.2,0.2c-0.3,0-0.5,0-0.8,0h-13.1V593l24.7,22.8
	c0.2,0.2,0.4,0.4,0.6,0.6l6.2,6.2c0.5,0.5,1,1.1,1.3,1.6l4.3,6.5c0.6,0.9,1.1,1.9,1.4,3l2.2,7.6c0.1,0.4,0.2,0.8,0.3,1.2l1.1,6.3
	c0.1,0.6,0.2,1.3,0.2,2v238.6c0,0.2,0,0.4,0,0.7v5.4c0,1.2-0.2,2.3-0.6,3.4l-2.2,6.5c-0.3,0.9-0.7,1.8-1.2,2.5l-4.3,6.5
	c-0.1,0.1-0.1,0.2-0.2,0.3l-5.4,7.6c-0.5,0.7-1.1,1.4-1.8,1.9l-7.6,6.5c-0.3,0.3-0.7,0.5-1,0.8l-9.7,6.5c-0.4,0.2-0.8,0.5-1.2,0.7
	l-10.7,5.3l-11.7,6.4c-0.4,0.2-0.8,0.4-1.3,0.6l-14.1,5.4c-0.1,0-0.2,0.1-0.2,0.1l-15.2,5.4c-0.1,0-0.3,0.1-0.4,0.1l-34.6,10.8
	c-0.3,0.1-0.6,0.2-0.9,0.2l-19.5,4.3c0,0-0.1,0-0.1,0l-20.6,4.3c0,0-0.1,0-0.1,0l-21.6,4.3c-0.2,0-0.4,0.1-0.6,0.1l-22.7,3.2
	l-23.9,3.3c-0.2,0-0.3,0-0.5,0.1l-23.8,2.2l-49.9,4.4c-0.2,0-0.3,0-0.5,0l-52,2.2C440.9,1001.5,440.7,1001.5,440.6,1001.5z
	 M361.8,980h78.6l51.5-2.2l49.6-4.3l23.5-2.1l23.6-3.2L611,965l21.3-4.3l20.5-4.3l19-4.2l34-10.6l14.9-5.3l13.3-5.1l11.3-6.2
	c0.1-0.1,0.2-0.1,0.3-0.2l10.2-5.1l8.6-5.8l6.1-5.2l4.5-6.4l3.4-5.2l1.2-3.5v-3c0-0.2,0-0.4,0-0.7V689.2l-4.9,4.3
	c-0.4,0.3-0.7,0.6-1.1,0.9l-9.8,6.5c-0.5,0.3-1,0.6-1.5,0.8l-11.7,5.3l-12.8,6.4c-0.3,0.2-0.6,0.3-0.9,0.4l-14.1,5.4
	c-0.2,0.1-0.3,0.1-0.5,0.2l-16.2,5.4c-0.1,0-0.2,0.1-0.4,0.1l-36.8,10.8c-0.3,0.1-0.6,0.2-0.8,0.2l-20.6,4.3l-21.8,4.4
	c-0.2,0-0.4,0.1-0.6,0.1l-45.5,6.5c0,0-0.1,0-0.1,0l-24.9,3.2c-0.2,0-0.3,0-0.5,0l-15.1,1.3v48.8c0,0,0,0,0,0.1c0,0.4,0,0.9,0,1.3
	c-0.2,5.7-4.8,10.2-10.5,10.3l-26.4,2.1l-28.2,2.2c-0.1,0-0.3,0-0.4,0l-29.2,1.1c-0.1,0-0.3,0-0.4,0h-86.6c-0.1,0-0.3,0-0.4,0
	l-28.2-1.1c-0.1,0-0.3,0-0.4,0l-56.2-4.3c-1.2-0.1-2.3-0.3-3.3-0.7c-1.5-0.6-2.8-1.5-3.8-2.6c0,0,0,0,0,0c0,0,0,0,0,0
	c-1.1-1.2-1.9-2.6-2.4-4.1c-0.3-1-0.5-2.2-0.5-3.3v-49.6l-15.1-1.3c-0.2,0-0.3,0-0.5-0.1l-47.7-6.5l-22.8-3.3
	c-0.2,0-0.5-0.1-0.7-0.1l-41.1-8.7c-0.2,0-0.4-0.1-0.7-0.2l-19.5-5.4c-0.1,0-0.2-0.1-0.3-0.1l-17.3-5.4c-0.1,0-0.1,0-0.2-0.1
	l-16.2-5.4c-0.1,0-0.1,0-0.2-0.1l-15.2-5.4c-0.4-0.1-0.8-0.3-1.2-0.5l-12.8-6.4l-11.7-5.3c-0.5-0.2-1-0.5-1.5-0.8l-9.7-6.5
	c-0.6-0.4-1.1-0.8-1.6-1.3l-4.4-4.4V889l0.7,3.7l1.7,5.1l2.3,4.6l5.1,5.9l6.7,5.7l7.6,5.7l10,5c0.1,0.1,0.2,0.1,0.3,0.2l11.3,6.2
	l13.2,5.1l32.1,10.7l17.9,5.3l19.1,4.2l20.5,4.3l21.3,4.3l44.9,6.4l24.6,2.1l23.8,2.2l25.7,2.1L361.8,980z M283.5,794.8h234v-40.7
	l-23.1-6.4l-30.7-6.4l-30.5-4.2l-30.5-1l-27.4,1.1l-28.6,3.1l-26.5,4.3l-27.4,6.3l-9.4,2.9V794.8z M402.8,714.7c0.1,0,0.2,0,0.4,0
	l31.4,1.1c0.4,0,0.7,0,1.1,0.1l31.4,4.3c0.2,0,0.5,0.1,0.7,0.1l31.4,6.5c0.2,0,0.5,0.1,0.7,0.2l29.5,8.1l22.7-2l24.6-3.2l45.1-6.4
	l21.4-4.3l20.1-4.2l36.2-10.7l15.8-5.3l13.4-5.1l12.5-6.3c0.1-0.1,0.2-0.1,0.4-0.2l11.1-5.1l8.4-5.6l7.9-6.9l5.5-5.5l2.9-4.4
	l1.4-4.2l0.7-5l-0.7-4.3l-1.5-5.4l-2.8-4.2l-5.7-5.7l-12.3-11.4l-0.2,0.6c-0.2,0.5-0.4,1-0.6,1.4l-3.2,6.5c-0.2,0.4-0.4,0.8-0.7,1.2
	l-4.3,6.5c-0.4,0.6-0.8,1.1-1.3,1.6l-6.5,6.5c-0.4,0.4-0.7,0.7-1.1,1l-8.7,6.5c-0.5,0.4-1.1,0.7-1.6,1l-21.7,10.8
	c-0.3,0.2-0.6,0.3-1,0.4l-28.1,10.8c-0.2,0.1-0.3,0.1-0.5,0.2l-16.2,5.4c-0.3,0.1-0.5,0.2-0.8,0.2l-17.3,4.3c-0.1,0-0.2,0-0.3,0.1
	l-39,8.7c-0.2,0.1-0.5,0.1-0.7,0.1l-43.3,6.5c-0.2,0-0.4,0.1-0.6,0.1l-45.5,4.3l-25,2.2c-0.1,0-0.3,0-0.4,0l-23.8,1.1l-49.8,2.1
	c-0.2,0-0.3,0-0.5,0h-24.9c-0.2,0-0.3,0-0.5,0l-74.7-3.2c-0.2,0-0.3,0-0.5,0l-47.6-4.3l-22.7-2.1c-0.2,0-0.4,0-0.6-0.1l-21.7-3.2
	l-20.7-3.3c-0.2,0-0.4-0.1-0.5-0.1l-20.6-4.3c-0.1,0-0.2,0-0.2-0.1l-18.4-4.3c0,0-0.1,0-0.1,0l-17.3-4.3c-0.3-0.1-0.5-0.1-0.8-0.2
	l-16.2-5.4c-0.1,0-0.2-0.1-0.2-0.1l-15.2-5.5c-0.2-0.1-0.3-0.1-0.5-0.2l-13-5.4c-0.1,0-0.2-0.1-0.3-0.1l-11.9-5.4
	c-0.3-0.1-0.5-0.2-0.8-0.4l-9.7-5.4c-0.4-0.2-0.8-0.5-1.2-0.8l-8.7-6.5c-0.4-0.3-0.8-0.6-1.1-1l-6.5-6.5c-0.2-0.2-0.4-0.5-0.6-0.7
	l-5.4-6.5c-0.5-0.6-1-1.3-1.4-2.1l-3.2-6.5c-0.3-0.5-0.5-1.1-0.7-1.7l-12.2,10.9l-4.6,5.5l-3.5,5.2l-2.4,5.5l-0.6,3.6l0.6,4.2
	l2.2,4.3l3.4,5L40.3,677l8.1,5.4l11.1,5c0.1,0.1,0.2,0.1,0.4,0.2l12.4,6.2l14.4,5.2l16,5.4l17.1,5.3l19,5.3l40.5,8.5l22.4,3.2
	l47.3,6.4l22.5,2l15.3-4.8c0.3-0.1,0.5-0.2,0.8-0.2l28.1-6.5c0.2-0.1,0.5-0.1,0.7-0.1l27.1-4.4c0.2,0,0.4-0.1,0.5-0.1l29.2-3.2
	c0.3,0,0.5,0,0.8-0.1l28.2-1.1C402.5,714.7,402.6,714.7,402.8,714.7z M388.9,688.7h24.5l49.6-2.1l23.6-1.1l24.7-2.2l45.1-4.3
	l42.6-6.4l38.5-8.5l16.8-4.2l15.6-5.2l27.4-10.6l20.3-10.2l7.3-5.5l5.2-5.2l3.4-5l2.6-5.2l1.4-4.1v-11.2c0,0,0,0,0-0.1V405.2
	l-2.8,2.4c-0.3,0.3-0.7,0.5-1,0.8l-9.8,6.5c-0.4,0.2-0.8,0.5-1.2,0.7l-10.8,5.4c-0.1,0.1-0.2,0.1-0.4,0.2l-11.9,5.4
	c-0.2,0.1-0.4,0.2-0.6,0.2l-14.1,5.4c-0.2,0.1-0.3,0.1-0.5,0.2l-16.2,5.4c-0.2,0.1-0.4,0.1-0.6,0.2l-16.2,4.3
	c-0.1,0-0.2,0.1-0.3,0.1l-18.4,4.3c0,0-0.1,0-0.1,0l-19.5,4.3c0,0-0.1,0-0.1,0l-20.6,4.3c-0.2,0-0.4,0.1-0.6,0.1l-21.7,3.2
	c-0.2,0-0.3,0-0.5,0.1l-21.5,2.2l-23.6,3.2c-0.1,0-0.3,0-0.4,0l-22.7,2.2c-0.2,0-0.4,0-0.6,0l-74.7,3.2c-0.2,0-0.3,0-0.5,0h-49.8
	c-0.2,0-0.3,0-0.5,0l-49.8-2.2l-23.8-1.1c-0.2,0-0.3,0-0.5,0l-23.8-2.2c-0.2,0-0.4,0-0.5-0.1l-22.5-3.2l-22.5-2.1
	c-0.2,0-0.4,0-0.6-0.1l-21.7-3.2c-0.2,0-0.4-0.1-0.6-0.1l-20.6-4.3c-0.1,0-0.2,0-0.2-0.1l-36.8-8.7c0,0-0.1,0-0.1,0l-17.3-4.3
	c-0.3-0.1-0.7-0.2-1-0.3l-15.2-5.4c-0.1,0-0.2-0.1-0.2-0.1l-14.1-5.4c-0.1,0-0.2-0.1-0.3-0.1l-13-5.4c-0.2-0.1-0.4-0.2-0.7-0.3
	l-10.8-5.4c-0.6-0.3-1.1-0.6-1.6-1l-8.7-6.5c-0.2-0.1-0.4-0.3-0.5-0.4l-2.8-2.4v192.4c0,0,0,0.1,0,0.1v11.9c0,0.1,0,0.2,0,0.3
	l0.7,3.9l2,3.9l4.3,5.2l5.6,5.6l7.5,5.6l8.7,4.8l11.4,5.2l12.6,5.2l14.8,5.3l15.7,5.2l16.9,4.2l18.2,4.3l20.2,4.2l20.3,3.2l21.3,3.2
	l22.4,2.1l47.4,4.3L388.9,688.7z M559.7,416.7l-16.3,3.1c0,0-0.1,0-0.1,0l-17.2,3l16.2-1.5l21.4-3.2l20.5-3.2l19.1-3.2l19.1-4.2
	l16.8-4.2l15.9-5.3c0.1,0,0.2-0.1,0.2-0.1l13.6-4.2l12.4-5.1l3.3-1.5l-5-0.8c-0.1,0-0.3,0-0.4-0.1l-29.6-5.9
	c-0.2,0.3-0.5,0.5-0.7,0.8l-1.1,1.1c-0.5,0.5-1.1,1-1.7,1.4l-13,8.7c-0.4,0.2-0.8,0.5-1.2,0.7l-8.7,4.3c-0.3,0.1-0.5,0.3-0.8,0.4
	l-18,7.2c-1,0.8-2.2,1.4-3.6,1.8l-22.8,6.5c-0.3,0.1-0.6,0.1-0.8,0.2l-13.1,2.6c-1.3,0.5-2.7,0.8-4.1,0.8
	C559.7,416.7,559.7,416.7,559.7,416.7z M260,421.3l14,1.3l-16.1-2.8c-0.1,0-0.2,0-0.2,0l-32.5-6.5c-0.3-0.1-0.6-0.1-0.8-0.2
	l-15.2-4.3c-0.1,0-0.1,0-0.2-0.1l-14.1-4.3c-1.4-0.4-2.6-1.1-3.6-1.9l-4.2-1.4c-0.3-0.1-0.6-0.2-1-0.4l-9.8-4.3
	c-0.1-0.1-0.3-0.1-0.4-0.2l-8.7-4.3c-0.4-0.2-0.8-0.4-1.2-0.7l-6.5-4.3c-0.3-0.2-0.5-0.4-0.7-0.5l-5.4-4.3c-0.7-0.6-1.3-1.2-1.9-2
	l-6.5-8.6c-0.7-0.9-1.2-2-1.6-3.1l-1.1-3.2c-0.4-1.1-0.5-2.2-0.5-3.4v-1.1c0-5.5,4.2-10.1,9.6-10.7c0,0,0.1-0.1,0.1-0.1l4.2-3.2
	l5.3-4.2c0.8-0.6,1.6-1.1,2.5-1.5l7.3-3.1l8.4-4.2c0.3-0.1,0.5-0.3,0.8-0.4l10.8-4.3c0.3-0.1,0.6-0.2,0.9-0.3l10.7-3.2l2.5-0.8
	l4.3-5.4c0.2-0.3,0.5-0.6,0.8-0.9l15.1-15.1c0.1-0.1,0.2-0.2,0.3-0.3l13.4-12.4l-11,1.6l-20.1,3.2l-36.4,8.6l-16.7,4.2l-14.7,5.2
	c-0.2,0.1-0.3,0.1-0.5,0.2l-13.6,4.2l-11.8,4.9l-10.1,6.1l-7.9,4.9l-6.9,6c0,0-0.1,0.1-0.1,0.1l-4.8,4l-1.9,3.8l-1.7,5l-0.7,3.9
	l0.5,2.7l1.8,3l4.6,5.5l5.3,5.3l7.6,4.8c0.1,0.1,0.2,0.1,0.3,0.2l9,6l11,5l12.3,5.1l14.6,4.2c0.2,0,0.3,0.1,0.5,0.1l15.8,5.3
	l16.9,4.2l18,4.2l40.7,6.5L260,421.3z M400.6,409.3h21.3l20.3-1.1l21.7-1.1l19.2-1.1l17.2-1.8l-11.6-3.1c-0.2-0.1-0.4-0.1-0.6-0.2
	l-16.1-5.4l-17.2-5.4c-0.3-0.1-0.5-0.2-0.8-0.3l-16.1-6.5l-17.2-6.4c-0.1,0-0.1-0.1-0.2-0.1l-16.2-6.5c-0.1,0-0.2-0.1-0.2-0.1
	l-15.2-6.5c-0.2-0.1-0.4-0.2-0.6-0.3L373,356c-0.1,0-0.2-0.1-0.3-0.1l-28.2-15.2c-0.2-0.1-0.4-0.2-0.6-0.4l-11.9-7.5
	c-0.1-0.1-0.3-0.2-0.4-0.3l-10.7-7.5l-9.7-6.4c-0.6-0.4-1.2-0.9-1.7-1.4l-19.5-19.5c-0.8-0.8-1.5-1.8-2-2.8l-4.5-9l-12.5,7.8
	l-16.5,11.3l-14.4,13.4L225.6,333l-3.5,4.3c-0.8,2-2.1,3.7-3.9,4.9l-5,6.2L201.9,365l-8.2,15.5l0.7,0.3l9.3,3.1
	c1.1,0.4,2.2,0.9,3.1,1.6l8.5,2.6l14.6,4.2l32,6.4l17.9,3.2l38.3,4.3l62.2,3.2H400.6z M88.9,396.8l5.3,2.7l-6-4l-6.7-4.2L88.9,396.8
	z M718.2,391.6c-0.1,0.1-0.2,0.2-0.3,0.3l-2.2,2.2c-0.6,0.6-1.3,1.2-2.1,1.6l-3.8,2.3l2.6-1.3l7.4-4.9L718.2,391.6z M541.1,392.2
	l13.8,2.1c0,0,0.1,0,0.1,0l4,0.7l13.4-2.7l18.9-5.4c0.4-0.2,0.8-0.4,1.3-0.6l21.2-8.5l7.1-3.6l-9.5-2.2c-0.1,0-0.3-0.1-0.4-0.1
	l-47.6-13c-0.1,0-0.2-0.1-0.3-0.1l-24.9-7.6c-0.3-0.1-0.6-0.2-0.8-0.3l-23.1-7.4c-0.1,0-0.2-0.1-0.3-0.1l-24.9-8.7
	c-0.1,0-0.1,0-0.2-0.1l-46.6-17.3c0,0-0.1,0-0.1,0L414,306.7c-0.1,0-0.2-0.1-0.3-0.1l-28.2-11.9c0,0-0.1,0-0.1-0.1l-27.1-11.9
	c0,0-0.1,0-0.1-0.1l-26-11.9c-0.2-0.1-0.3-0.2-0.5-0.2L309.8,259l-6.4,17.5c-0.1,0.2-0.2,0.4-0.3,0.7l3.3,6.6l17.5,17.6l8.9,5.9
	c0.1,0,0.1,0.1,0.2,0.1l10.6,7.4l11.4,7.2l27.7,14.9l14.7,7.4l14.7,6.3l16,6.4l17.2,6.4c0.1,0,0.1,0.1,0.2,0.1l15.8,6.3l16.9,5.3
	c0.1,0,0.1,0,0.2,0.1l15.9,5.3l31.9,8.5L541.1,392.2z M68.6,379.3l2.4,2.4c-0.1-0.1-0.2-0.2-0.3-0.3l-5.1-6.1l0.2,0.5L68.6,379.3z
	 M757.2,373.6h14.4l13.5-1l18.1-2l13.2-4.7l7.8-4.2l-4.1,1.5c-0.6,0.2-1.2,0.4-1.9,0.5l-19.5,3.2c-0.4,0.1-0.8,0.1-1.2,0.1
	l-20.6,1.1c-0.3,0-0.7,0-1,0l-24.9-1.1c-0.2,0-0.4,0-0.6,0l-33.6-3.2c-0.1,0-0.3,0-0.4-0.1l-39-5.4c-0.2,0-0.3,0-0.5-0.1l-41.2-7.6
	c-0.2,0-0.4-0.1-0.6-0.1l-44.4-10.8c-0.2,0-0.3-0.1-0.5-0.1l-44.4-13l-43.4-13c-0.2-0.1-0.4-0.1-0.6-0.2L457.6,297l-44.4-16.2
	c-0.2-0.1-0.3-0.1-0.5-0.2l-43.3-18.4c-0.1-0.1-0.3-0.1-0.4-0.2l-41.1-19.5c-0.1-0.1-0.3-0.1-0.4-0.2l-39-20.6
	c-0.1,0-0.2-0.1-0.3-0.1l-33.4-18.8l18.2,12.2l21.2,11.6l47.3,24.7l25.7,11.8l26.9,11.9l27.9,11.8l27.9,10.7l46.4,17.2l24.7,8.6
	l23.7,7.5c0.2,0.1,0.4,0.1,0.6,0.2l24.1,7.3l47.3,12.9l23.5,5.3l43,8.6l20.1,3.2l19.2,2.1l18.2,2.1L757.2,373.6z M171.9,369.2
	l2.5,1.7l7.9-14.9l-2.2,1.1c-0.2,0.1-0.4,0.2-0.6,0.3l-6.2,2.7l-4.3,3.4c-0.1,0.1-0.2,0.1-0.3,0.2l-1.6,1.2l0.8,1.1L171.9,369.2z
	 M752.2,345.5l24.1,1l19.5-1l18-3l13.5-4.8l8.8-4.8l0.3-0.5l-2.6,1.2c-0.8,0.4-1.7,0.6-2.6,0.8l-13,2.2c0,0-0.1,0-0.1,0l-14.1,2.2
	c-0.3,0-0.6,0.1-0.9,0.1l-16.2,1.1c-0.2,0-0.5,0-0.7,0h-18.4c-0.2,0-0.4,0-0.6,0l-19.5-1.1c-0.2,0-0.3,0-0.5,0l-21.7-2.2
	c-0.1,0-0.3,0-0.4,0l-23.8-3.2c-0.1,0-0.3,0-0.4-0.1l-24.9-4.3c-0.1,0-0.3-0.1-0.4-0.1l-24.9-5.4c0,0-0.1,0-0.1,0l-42.2-9.7
	c-0.1,0-0.3-0.1-0.4-0.1l-43.3-11.9c-0.3-0.1-0.6-0.2-0.9-0.3l-6.8-1.9c-0.1,0-0.3-0.1-0.4-0.1l-43.3-14.1c-0.1,0-0.1,0-0.2,0
	L468.5,270c-0.1,0-0.3-0.1-0.4-0.2l-44.4-17.3c-0.1,0-0.2-0.1-0.3-0.1L380.2,234c-0.1-0.1-0.3-0.1-0.4-0.2l-41.1-19.5
	c-0.1,0-0.1-0.1-0.2-0.1l-39-19.5c-0.2-0.1-0.5-0.2-0.7-0.4l-34.7-20.6c-0.1,0-0.2-0.1-0.2-0.1l-29.2-18.4c-0.2-0.1-0.4-0.3-0.7-0.5
	L209,136.4c-0.2-0.1-0.3-0.3-0.5-0.4l-12.2-10.2c-1.3-0.5-2.6-1.3-3.6-2.4l-4.1-4.1c-0.2-0.2-0.4-0.4-0.5-0.5l0,0l-7.3-7.3
	c-0.8-0.8-1.4-1.6-1.9-2.6l-5.9-6.4c-0.6-0.6-1.1-1.3-1.5-2l-1.8-3.1l1.2,4.9c0.4,0.7,0.6,1.5,0.8,2.3l7.8,12.2l13.1,14.1l18.8,16.7
	l24.2,17.9l28.7,18.1l34.3,19.3l38.7,20.4l40.7,19.3l42.9,18.2l44.1,16.1l44,16.1l43,12.9l44.1,12.9l43.9,10.7l40.6,7.5l38.5,5.4
	L752.2,345.5z M234.4,190.2l11.8,7.2l-14-8.8L234.4,190.2z M754.7,290c-0.1,0-0.1,0-0.2,0h-3c-0.2,0-0.5,0-0.7,0l-16.2-1.1
	c-0.2,0-0.4,0-0.6-0.1l-17.3-2.2l-18.3-2.1c-0.2,0-0.3,0-0.5-0.1l-19.5-3.2c-0.2,0-0.4-0.1-0.6-0.1l-19.4-4.3l-20.5-4.3
	c-0.1,0-0.3-0.1-0.4-0.1l-21.7-5.4c-0.2,0-0.3-0.1-0.5-0.1l-21.6-6.5l-22.7-6.5c-0.2,0-0.3-0.1-0.4-0.1L502.2,231
	c-0.2-0.1-0.4-0.1-0.6-0.2l-21.6-8.6l-22.7-8.6c-0.2-0.1-0.4-0.2-0.6-0.2l-43.2-19.5c-0.1,0-0.1-0.1-0.2-0.1l-41.1-19.5
	c-0.1-0.1-0.3-0.1-0.4-0.2l-36.9-19.5c-0.2-0.1-0.4-0.2-0.7-0.4l-6.5-4.1c-2.2-0.5-4.3-1.8-5.9-3.7l-4.9-3l-16.2-9.7
	c-0.1-0.1-0.2-0.1-0.3-0.2l-15.1-9.7c-0.2-0.1-0.4-0.3-0.7-0.5l-13-9.8c-0.1-0.1-0.3-0.2-0.4-0.3l-4.4-3.6c-2.3-0.8-4.3-2.5-5.6-4.6
	l-1.9-1.5l-10.8-8.6c-0.3-0.2-0.6-0.5-0.9-0.8l-8.7-8.7c-0.2-0.2-0.3-0.3-0.5-0.5l-7.6-8.7c-0.2-0.2-0.4-0.4-0.5-0.6l-6.5-8.7
	c-0.5-0.7-0.9-1.4-1.3-2.2l-3.1-7.3l-3.1-6.2c-0.5-1-0.8-2-1-3l-1.1-6.5c-0.2-1.2-0.2-2.4,0-3.5l1.1-6.5c0.2-1.3,0.7-2.6,1.4-3.8
	l3.2-5.4c0.2-0.3,0.4-0.6,0.6-0.9l3.2-4.3c0.7-1,1.6-1.8,2.6-2.5l6.5-4.3c0.5-0.4,1.1-0.7,1.7-0.9l7.6-3.2c0.5-0.2,1.1-0.4,1.6-0.6
	l8.7-2.2c0.2,0,0.3-0.1,0.5-0.1l10.8-2.2c0.4-0.1,0.8-0.1,1.1-0.2L277.2,0c0.3,0,0.7,0,1,0h28.1c0.5,0,1,0,1.4,0.1l15.9,2.1
	l16.9,1.1c0.4,0,0.8,0.1,1.2,0.1l36.8,6.5c0.1,0,0.2,0,0.3,0.1l41.1,8.7c0.1,0,0.3,0.1,0.4,0.1l21.7,5.4c0.2,0,0.3,0.1,0.5,0.1
	l21.6,6.5l22.7,6.5c0,0,0.1,0,0.1,0l21.6,6.5c0.1,0,0.2,0.1,0.3,0.1l22.5,7.5c0.2,0.1,0.5,0.1,0.7,0.2l68.2,26c0.1,0,0.1,0,0.2,0.1
	l21.7,8.7c0.1,0.1,0.3,0.1,0.4,0.2l21.7,9.7c0.1,0,0.1,0.1,0.2,0.1l20.5,9.7c0.1,0,0.1,0.1,0.2,0.1l19.5,9.7
	c0.1,0.1,0.3,0.1,0.4,0.2l19.4,10.8l18.3,9.7c0.1,0,0.2,0.1,0.2,0.1l17.3,9.7c0.1,0.1,0.2,0.1,0.3,0.2l16.2,9.8
	c0.2,0.1,0.4,0.2,0.6,0.4l28.2,19.5c0.2,0.2,0.5,0.3,0.7,0.5l11.9,9.8c0.1,0.1,0.3,0.2,0.4,0.3l10.8,9.7c0.1,0.1,0.3,0.3,0.4,0.4
	l8.7,8.7c0.2,0.2,0.3,0.3,0.5,0.5l7.6,8.7c0.2,0.3,0.5,0.5,0.7,0.8l5.4,7.6c0.2,0.3,0.4,0.6,0.6,0.9l4.3,7.6
	c0.2,0.3,0.4,0.7,0.5,1.1l3.3,7.6c0.6,1.3,0.9,2.8,0.9,4.3v11.9c0,1.9-0.5,3.9-1.5,5.5l-3.2,5.4c-0.5,0.8-1,1.5-1.6,2.1l-4.3,4.3
	c-0.3,0.3-0.6,0.5-0.9,0.8l-5.4,4.3c-0.8,0.6-1.6,1.1-2.5,1.5l-7.6,3.2c-0.5,0.2-1.1,0.4-1.6,0.5l-8.7,2.2c-0.2,0-0.3,0.1-0.5,0.1
	l-10.8,2.2c-0.4,0.1-0.8,0.1-1.1,0.2l-11.9,1.1c-0.3,0-0.6,0-1,0h-4.1c-0.1,0-0.3,0-0.4,0h-20.2C754.8,290,754.7,290,754.7,290z
	 M736.2,267.5l10.5,0.7l-0.3-1.3l-1.5-4.5l-3.4-5.2l-4.8-6.7l-10.5-10.5l-7.4,19.7c-0.2,1.9-0.9,3.8-2,5.4l2.3,0.3L736.2,267.5z
	 M731.3,200l4.7,3.4c0.2,0.1,0.3,0.2,0.5,0.4l10.8,8.7c0.1,0.1,0.3,0.2,0.4,0.4l9.7,8.7c0.2,0.1,0.3,0.3,0.4,0.4l7.6,7.6
	c0.4,0.4,0.7,0.7,1,1.1l6.5,8.7c0,0.1,0.1,0.1,0.1,0.2l5.4,7.6c0.5,0.6,0.8,1.3,1.1,2l3.2,7.6c0.1,0.3,0.2,0.6,0.3,0.8l2.2,6.5
	c0.2,0.5,0.3,1.1,0.4,1.6l0.4,2.3l3.8-0.3l10-2l7.6-1.9l5.5-2.3l3.8-3l3-3l1-1.7v-6.7l-2.2-5l-3.8-6.6l-4.8-6.7l-7-8l-8.2-8.2
	l-10.4-9.4l-11.4-9.3l-27.5-19.1l-15.8-9.5l-17.1-9.6l-18.3-9.7c-0.1,0-0.1-0.1-0.2-0.1L674.9,135l-19.2-9.6l-20.3-9.6l-21.4-9.6
	l-21.4-8.6l-67.9-25.9l-22.4-7.5L481,57.9l-22.7-6.5c0,0-0.1,0-0.1,0l-21.4-6.4l-21.3-5.3L374.7,31l-36-6.4l-16.7-1
	c-0.3,0-0.5,0-0.8-0.1l-15.5-2.1h-26.9l-10.9,1l-10,2l-7.6,1.9l-5.9,2.5l-4.1,2.8l-1.8,2.4l-1.9,3.2L236,40l0.5,3.1l2.5,5.1
	c0.1,0.2,0.2,0.4,0.3,0.6l2.7,6.4l5.5,7.3l6.3,7.2c0.1-0.1,0.2-0.1,0.2-0.2l5.4-4.3c0.6-0.5,1.2-0.9,1.9-1.2l8.7-4.3
	c0.7-0.3,1.4-0.6,2.2-0.8l8.7-2.2c0.1,0,0.2,0,0.3-0.1l9.8-2.2c0.4-0.1,0.9-0.2,1.4-0.2l11.9-1.1c0.3,0,0.6,0,1,0h26
	c0.4,0,0.7,0,1.1,0.1l7,0.7l0.5-0.3c0.8-0.5,1.7-0.8,2.5-1.1l7.6-2.2c0.5-0.2,1.1-0.3,1.6-0.3l8.7-1.1c0.1,0,0.1,0,0.2,0l9.7-1.1
	c0.7-0.1,1.4-0.1,2.2,0l11.4,1h12.5c0.5,0,1.1,0,1.6,0.1l28.2,4.3c0.2,0,0.3,0.1,0.5,0.1l32.4,6.5c0.2,0,0.3,0.1,0.5,0.1l17.3,4.3
	c0.1,0,0.3,0.1,0.4,0.1L514,75.2c0.2,0.1,0.5,0.2,0.7,0.2l17.3,6.5c0.1,0.1,0.3,0.1,0.4,0.2l36.2,12.8c0.2,0.1,0.5,0.2,0.7,0.3
	l52,22.8c0.3,0.2,0.7,0.3,1,0.5l14.9,8.5l14.9,7.4c0.3,0.1,0.6,0.3,0.8,0.5l14,8.6L680,151c0.1,0.1,0.2,0.1,0.3,0.2l11.9,7.5
	c0.5,0.3,1,0.7,1.4,1.1l9.4,8.4l8.3,6.2c0.6,0.5,1.2,1,1.7,1.6l6.5,7.6c0,0,0.1,0.1,0.1,0.1l5.4,6.5c0.2,0.3,0.5,0.6,0.7,0.9
	l4.3,6.5c0.4,0.6,0.8,1.3,1,2L731.3,200z M642.3,251.5l20.4,4.3c0,0,0.1,0,0.1,0l18.6,4.1c0.3,0,0.5,0,0.8,0h1.9l6.7-1.7l3.9-1.6
	l2.9-1.7l0.3-0.4c0.1-0.3,0.2-0.6,0.3-1l4.8-12.6c-0.4,0.1-0.8,0.2-1.2,0.2l-9.8,1.1c-0.4,0-0.8,0.1-1.2,0.1H668c-0.3,0-0.6,0-0.9,0
	l-13-1.1c-0.2,0-0.4,0-0.6-0.1l-15.2-2.2c-0.2,0-0.5-0.1-0.7-0.1l-15.1-3.2l-16.2-3.2c-0.2,0-0.3-0.1-0.5-0.1l-34.6-8.7
	c-0.2-0.1-0.4-0.1-0.6-0.2l-17.2-5.4l-18.3-5.4c-0.2-0.1-0.4-0.1-0.5-0.2l-36.8-13c-0.2-0.1-0.5-0.2-0.7-0.3l-17.2-7.5l-18.3-7.5
	c-0.2-0.1-0.3-0.1-0.5-0.2l-16.2-7.6c-0.2-0.1-0.3-0.2-0.5-0.3l-16-8.5l-16-7.5c-0.2-0.1-0.4-0.2-0.5-0.3l-14.1-7.6
	c-0.3-0.2-0.6-0.3-0.9-0.5l-12.7-8.5l-12.7-7.4c-0.3-0.1-0.5-0.3-0.7-0.5l-10.8-7.6c-0.3-0.2-0.6-0.5-0.9-0.7l-8.7-7.6
	c-0.2-0.2-0.4-0.3-0.5-0.5l-7.6-7.6c-0.2-0.2-0.4-0.4-0.6-0.6l-6.5-7.6c0,0-0.1-0.1-0.1-0.1l-0.4-0.4l-4.5,11.8v3.5l0.5,2.5l2.2,3.6
	l4.3,6.4l8.2,5.1l36.3,19.2l40.8,19.3l42.9,19.3l22.4,8.5c0.1,0,0.1,0,0.2,0.1l21.4,8.6l67.7,22.6l22.5,6.4c0,0,0.1,0,0.1,0
	l21.4,6.4L642.3,251.5z M711.2,207.9c-0.1,0.5-0.1,0.9-0.3,1.4l-1.1,4.3c-0.3,1.2-0.8,2.3-1.5,3.3l1.1-0.4l1.7-1.3l1-1.4l0.2-0.9
	v-1.5c-0.4-0.9-0.7-1.8-0.9-2.7l-0.1-0.2L711.2,207.9z M663.7,203.6l8.6,6.4c0.2,0.2,0.4,0.3,0.6,0.5l3.5-0.4l6.5-0.9l3.9-1.3
	l2.3-1.7l0.6-0.6l0-0.2v-2l-0.8-2l-3.3-4.1l-5-6l-5.9-5.9l-8-7L646,163.8l-25.3-14.8l-14.6-7.3l-14.9-6.4c-0.1,0-0.2-0.1-0.3-0.1
	l-32.1-15l-16.7-6.2L526,109c-0.5-0.1-1.1-0.3-1.6-0.5l-15.6-6.2l-16.6-4.2c-0.3-0.1-0.5-0.1-0.8-0.2l-15.6-5.2l-15.6-3.1
	c0,0-0.1,0-0.1,0L430,83L416.6,81l-11.1-1H385l-6.9,0.9l-5.2,1.7l-3.8,1.5l-1.1,0.8v0.6l0.5,2.5l2.1,3.6l3.6,5.4l3.7,3.7h11.7
	c0.3,0,0.6,0,0.9,0l13,1.1c0.3,0,0.5,0.1,0.8,0.1l28.1,4.4c0.2,0,0.4,0.1,0.6,0.1l15.2,3.2c0.2,0,0.3,0.1,0.5,0.1l16.2,4.3l17.2,4.2
	c0.3,0.1,0.6,0.1,0.8,0.2l16.1,5.4l17.1,5.4c0.2,0,0.3,0.1,0.5,0.1c0,0,0,0,0,0c0.1,0,0.2,0.1,0.3,0.1l17.3,6.5
	c0.1,0,0.1,0.1,0.2,0.1l16.1,6.5l17.2,6.4c0.3,0.1,0.5,0.2,0.8,0.3l16.2,7.6c0.1,0,0.2,0.1,0.3,0.1l15.2,7.6c0.1,0,0.2,0.1,0.3,0.1
	l28.2,15.2c0.1,0.1,0.2,0.1,0.3,0.2l13,7.6c0.3,0.1,0.5,0.3,0.7,0.5l10.8,7.6c0.1,0.1,0.3,0.2,0.4,0.3L663.7,203.6z M605.3,203.8
	l14.4,2.1c0,0,0.1,0,0.1,0l13.7,2.1l-2.8-1.9l-12.5-7.3l-27.8-15l-14.9-7.4l-15.7-7.3l-16.9-6.3c-0.1,0-0.1-0.1-0.2-0.1l-16.1-6.5
	l-16.9-6.4l-17-5.3c-0.1,0-0.1,0-0.2-0.1l-15.8-5.3l-16.9-4.2c-0.1,0-0.1,0-0.2-0.1l-16-4.3l-14.6-3.1l-21.9-3.4l9.8,6.2l27.7,14.9
	l14.7,7.4l14.9,6.4c0.1,0,0.2,0.1,0.3,0.1l15.9,7.4l34.3,12.8c0.1,0,0.1,0.1,0.2,0.1l15.9,6.3l16.6,5.2l17,4.3c0.1,0,0.1,0,0.2,0
	l16.2,4.3c0.1,0,0.1,0,0.2,0.1L605.3,203.8z M297.3,105.9l11.3,7.2v-0.6c0-1.4,0.3-2.8,0.8-4.1l7.9-20.9h-6.6l-8.6,1.9
	c-0.4,0.1-0.8,0.1-1.1,0.2l-7.8,0.9l-9.8,4.9l1.4,1.2L297.3,105.9z M344.6,77.9l1.9,4.9v-0.6c0-1.7,0.4-3.3,1.1-4.8l2.2-4.3
	c0.1-0.2,0.2-0.4,0.3-0.5l-0.5,0.1l-0.5,0.3c-0.8,0.7-1.8,1.3-2.8,1.8l-0.8,0.8l-0.7,1.5L344.6,77.9z"/>
<path d="M597.7,407c-4.3,0-8.3-2.6-10-6.8c-2.2-5.5,0.5-11.8,6-14l5.4-2.2c0.1,0,0.2-0.1,0.3-0.1l11.8-4.3l9.8-3.9l7.6-4.7l7.3-5.2
	c1.8-1.3,4-2,6.2-2h1.1c5.9,0,10.7,4.8,10.7,10.7c0,4.9-3.3,9.1-7.8,10.3l-5.3,3.8c-0.2,0.1-0.4,0.3-0.5,0.4l-8.7,5.4
	c-0.5,0.3-1.1,0.6-1.7,0.9l-10.8,4.3c-0.1,0-0.2,0.1-0.3,0.1l-11.8,4.3l-5.3,2.1C600.3,406.7,599,407,597.7,407z M198.1,404.8
	c-1.2,0-2.5-0.2-3.7-0.6l-11.9-4.3c-0.1,0-0.2-0.1-0.3-0.1l-10.8-4.3c-0.6-0.2-1.2-0.5-1.7-0.9l-8.7-5.4c-0.2-0.1-0.4-0.2-0.5-0.4
	l-7.6-5.4c-0.5-0.3-0.9-0.7-1.4-1.2l-5.4-5.4c-0.3-0.3-0.5-0.6-0.8-0.9l-4.3-5.4c-0.7-0.8-1.2-1.7-1.6-2.7l-2.2-5.4
	c-0.5-1.3-0.8-2.6-0.8-4v-5.4c0-0.7,0.1-1.4,0.2-2.1l1.1-5.4c0.2-1.2,0.7-2.4,1.3-3.4l3.2-5.4c0.2-0.4,0.5-0.8,0.8-1.2l4.3-5.4
	c0.5-0.6,1-1.1,1.5-1.6l6.5-5.4c0.6-0.5,1.3-1,2.1-1.4l8.5-4.2l9.5-5.3c0.5-0.3,1-0.5,1.5-0.7l11.9-4.3c0.1,0,0.2-0.1,0.3-0.1
	l13-4.3c0.1,0,0.2-0.1,0.2-0.1l14.1-4.3c0.1,0,0.1,0,0.2-0.1l15.2-4.3c0.3-0.1,0.6-0.1,0.9-0.2l5.4-1.1c5.8-1.2,11.5,2.6,12.6,8.4
	s-2.6,11.5-8.4,12.6l-5,1l-14.6,4.2l-13.8,4.3l-12.7,4.2l-11,4l-9,5c-0.1,0.1-0.3,0.1-0.4,0.2l-7.5,3.8l-4.7,3.9l-3.2,4l-1.9,3.2
	l-0.5,2.5v2.3l0.8,2l3,3.7l4.4,4.4l6.6,4.7l7.6,4.7l9.8,3.9l11.8,4.3c5.6,2,8.5,8.2,6.4,13.8C206.6,402.1,202.5,404.8,198.1,404.8z"
	/>
</svg>
