<?xml version="1.0" encoding="utf-8"?>
<!-- Generator: Adobe Illustrator 24.1.0, SVG Export Plug-In . SVG Version: 6.00 Build 0)  -->
<svg version="1.1" 	 viewBox="0 0 80 80" style="enable-background:new 0 0 80 80;" xml:space="preserve">
<style type="text/css">
	.st0{fill:#F2F2F0;}
	.st1{fill:none;stroke:#4A4A4A;stroke-width:2;stroke-linecap:round;stroke-linejoin:round;}
	.st2{fill:none;stroke:#4A4A4A;stroke-width:2;stroke-linecap:round;stroke-linejoin:round;stroke-miterlimit:10;}
	.st3{fill:none;stroke:#4A4A4A;stroke-width:2;stroke-linecap:round;stroke-linejoin:round;stroke-dasharray:3.4068,3.4068;}
	.st4{fill:none;stroke:#4A4A4A;stroke-width:2;stroke-linecap:round;stroke-linejoin:round;stroke-dasharray:3.22585,3.22585;}
	.st5{fill:none;stroke:#534F4E;stroke-width:2;stroke-linecap:round;stroke-linejoin:round;}
	.st6{fill:none;stroke:#534F4E;stroke-width:2;stroke-linecap:round;stroke-linejoin:round;stroke-miterlimit:10;}
	.st7{fill:#534F4E;}
	.st8{fill:none;stroke:#534F4E;stroke-width:2;stroke-linejoin:round;stroke-miterlimit:10;}
	.st9{fill:none;stroke:#534F4E;stroke-width:2;stroke-miterlimit:10;}
	.st10{fill:none;stroke:#000000;stroke-width:2.5;stroke-linecap:round;stroke-linejoin:round;stroke-miterlimit:10;}
	.st11{fill:#F2F2F0;stroke:#534F4E;stroke-width:2;stroke-linecap:round;stroke-linejoin:round;stroke-miterlimit:10;}
	.st12{fill:#F2F2F0;stroke:#534F4E;stroke-width:2;stroke-linecap:round;stroke-linejoin:round;}
	.st13{fill:#FFFFFF;stroke:#534F4E;stroke-width:2;stroke-linecap:round;stroke-linejoin:round;}
	.st14{fill:none;stroke:#534F4E;stroke-width:2;stroke-linecap:round;stroke-miterlimit:10;}
	.st15{fill:none;stroke:#534F4E;stroke-width:1.12243;stroke-miterlimit:10;}
	.st16{stroke:#534F4E;stroke-miterlimit:10;}
	.st17{fill:none;stroke:#534F4E;stroke-width:2;stroke-linecap:round;stroke-linejoin:round;stroke-dasharray:3.4068,3.4068;}
	.st18{fill:none;stroke:#534F4E;stroke-width:2;stroke-linecap:round;stroke-linejoin:round;stroke-dasharray:3.22585,3.22585;}
	.st19{fill:none;stroke:#534F4E;stroke-width:2.35866;stroke-linecap:round;stroke-linejoin:round;stroke-miterlimit:10;}
	.st20{fill:#534F4E;stroke:#534F4E;stroke-width:2;stroke-miterlimit:10;}
	.st21{fill:#534F4E;stroke:#534F4E;stroke-width:2;stroke-linecap:round;stroke-miterlimit:10;}
	.st22{fill:none;stroke:#534F4E;stroke-width:2.82782;stroke-linecap:round;stroke-linejoin:round;}
	
		.st23{fill:none;stroke:#534F4E;stroke-width:2.82782;stroke-linecap:round;stroke-linejoin:round;stroke-dasharray:0.05581,5.02265;}
</style>
<g id="BildHG">
</g>
<g id="_x38_0pxFlaeche">
</g>
<g id="Icon">
	<g>
		<line class="st2" x1="17.81133" y1="57.88666" x2="14.97733" y2="63.76066"/>
		<line class="st2" x1="62.84263" y1="57.88666" x2="65.67653" y2="63.76066"/>
		<path class="st2" d="M70.19804,37.10722v7.39765c0,8.25-6.75,15-15,15H25.45783c-8.25,0-15-6.75-15-15v-7.39765"/>
		<path class="st2" d="M37.33358,31.71283h35.76271c1.18829,0,2.16034,0.99961,2.16034,2.21893v0.37024
			c0,1.22004-0.97205,2.21828-2.16034,2.21828H37.09268"/>
		<path class="st2" d="M19.22123,36.52029H7.13093c-1.18828,0-2.16034-0.99824-2.16034-2.21828v-0.37024
			c0-1.21932,0.97205-2.21893,2.16034-2.21893h12.15034"/>
		<path class="st2" d="M37.09453,28.46024v20.6899h-14.1611v-18.0059c0-1.6357,1.3379-2.9746,2.97361-2.9746h10.12209
			c1.375,0,3.4961,0.0332,3.4961,2.9463"/>
		<line class="st2" x1="23.22543" y1="46.08539" x2="36.78793" y2="46.08539"/>
		<g>
			<g>
				
					<rect x="68.92036" y="25.48164" transform="matrix(-1 -4.585189e-11 4.585189e-11 -1 140.65736 57.19448)" class="st2" width="2.81665" height="6.23119"/>
			</g>
		</g>
		<path class="st2" d="M61.06699,18.02299c0-2.8701,2.0839-5.2178,4.6308-5.2178l0,0c2.5479,0,4.6309,2.3477,4.6309,5.2178v6.93414"
			/>
	</g>
</g>
<g id="Ebene_3">
</g>
<g id="bestehende_x5F_icons">
</g>
</svg>
