<svg xmlns="http://www.w3.org/2000/svg" viewBox="0 0 100 100"><defs><style>.cls-1{fill:#fff;}.cls-2{fill:none;stroke:#000;stroke-linejoin:round;stroke-width:1.8px;}.cls-3{fill:#1d1d1b;}</style></defs><title>np_kreisPictosWeb_100x100px_190726</title><g id="weisser_hg"><path class="cls-1" d="M100,50A50,50,0,1,1,50,0,50,50,0,0,1,100,50Z"/></g><g id="illu"><polygon class="cls-2" points="23.86 37.64 58.6 20.94 75.99 29.48 75.99 70.75 41.23 87.44 23.86 78.92 23.86 37.64"/><line class="cls-2" x1="41.23" y1="46.16" x2="41.23" y2="87.58"/><line class="cls-2" x1="75.99" y1="29.5" x2="41.23" y2="46.19"/><line class="cls-2" x1="23.86" y1="37.65" x2="41.23" y2="46.19"/><polygon class="cls-2" points="23.86 37.64 58.6 20.94 58.6 7.78 58.6 7.79 23.86 24.47 23.86 24.43 23.86 37.77 23.86 37.64"/><path class="cls-2" d="M44.14,19.42c-.36-.81-1-1.09-1.66-.75A4.1,4.1,0,0,0,40.77,21l-2,1a2.56,2.56,0,0,0-1,2.15v.24c0,.92.42,1.45,1,1.18l2-1a1.17,1.17,0,0,0,1.67.73A3.9,3.9,0,0,0,44.09,23l2-1a2.57,2.57,0,0,0,1-2.15v-.24c0-.93-.42-1.44-1-1.18Z"/><path d="M57.38,56.31h0L55.05,59c-.13.14-.23.15-.23,0V56.36A.54.54,0,0,1,55,56l2.41-2.9a1.11,1.11,0,0,1,.38-.31l2.38-1.15c.13-.06.21,0,.21.11v14a.36.36,0,0,1-.21.31L57.6,67.27c-.13.06-.22,0-.22-.11Z"/></g><g id="obererRING"><path class="cls-3" d="M50,1.8A48.2,48.2,0,1,1,1.8,50,48.25,48.25,0,0,1,50,1.8M50,0a50,50,0,1,0,50,50A50,50,0,0,0,50,0Z"/></g></svg>
