<svg xmlns="http://www.w3.org/2000/svg" viewBox="0 0 100 100"><defs><style>.cls-1{fill:#fff;}.cls-2{fill:none;stroke:#000;stroke-linejoin:round;stroke-width:1.8px;}.cls-3{fill:#1d1d1b;}</style></defs><title>np_kreisPictosWeb_100x100px_190726</title><g id="weisser_hg"><path class="cls-1" d="M100,50A50,50,0,1,1,50,0,50,50,0,0,1,100,50Z"/></g><g id="illu"><polygon class="cls-2" points="23.93 26.28 58.68 9.58 76.06 18.12 76.06 73 41.3 89.69 23.93 81.17 23.93 26.28"/><line class="cls-2" x1="41.3" y1="34.8" x2="41.3" y2="89.82"/><line class="cls-2" x1="76.07" y1="18.14" x2="41.3" y2="34.83"/><line class="cls-2" x1="23.93" y1="26.29" x2="41.3" y2="34.83"/><path d="M57.46,51.61l0,0-2.29,2.68c-.13.14-.24.15-.24,0V51.67A.59.59,0,0,1,55,51.3l2.42-2.91a1,1,0,0,1,.38-.31l2.38-1.14c.12-.06.21,0,.21.11V61a.38.38,0,0,1-.21.32l-2.55,1.22c-.13.07-.21,0-.21-.1Z"/></g><g id="obererRING"><path class="cls-3" d="M50,1.8A48.2,48.2,0,1,1,1.8,50,48.25,48.25,0,0,1,50,1.8M50,0a50,50,0,1,0,50,50A50,50,0,0,0,50,0Z"/></g></svg>
