<svg xmlns="http://www.w3.org/2000/svg" viewBox="0 0 100 100"><defs><style>.cls-1,.cls-2{fill:#fff;}.cls-2{stroke:#000;stroke-linejoin:round;stroke-width:1.8px;}.cls-3{fill:#1d1d1b;}</style></defs><title>np_kreisPictosWeb_100x100px_190726</title><g id="weisser_hg"><path class="cls-1" d="M100,50A50,50,0,1,1,50,0,50,50,0,0,1,100,50Z"/></g><g id="illu"><polygon class="cls-2" points="60.11 80.17 12.45 57.06 12.45 54.98 88.02 64.51 88.02 66.6 60.11 80.17"/><polygon class="cls-2" points="60.11 76.01 12.45 52.9 12.45 50.82 88.02 60.35 88.02 62.43 60.11 76.01"/><polygon class="cls-2" points="60.11 71.85 12.45 48.74 12.45 46.66 88.02 56.18 88.02 58.28 60.11 71.85"/><polygon class="cls-2" points="60.11 67.69 12.45 44.58 12.45 42.49 88.02 52.02 88.02 54.1 60.11 67.69"/><polygon class="cls-2" points="60.11 63.52 12.45 40.42 12.45 38.34 88.02 47.86 88.02 49.95 60.11 63.52"/><polygon class="cls-2" points="60.11 59.36 12.45 36.26 40.37 22.81 88.02 45.79 60.11 59.36"/><polygon class="cls-2" points="39.1 49.18 66.94 35.62 61.38 32.94 33.34 46.39 33.34 67.23 39.09 70.03 39.09 49.18 39.1 49.18"/><line class="cls-2" x1="60.26" y1="80.17" x2="60.26" y2="59.32"/><path d="M31.74,41.62c-.11-.06-.16-.1-.18-.19l-.85-5.09A1.63,1.63,0,0,0,29.66,35a3.55,3.55,0,0,0-3,0c-.92.45-.93,1,0,1.56q.18.09-.06.18L24,37.62a.46.46,0,0,1-.4,0c-1.72-1-1.82-2.52.79-3.79a9.59,9.59,0,0,1,8-.13,2.86,2.86,0,0,1,1.89,2.28l.6,3.8h0l4.75-2.3a.47.47,0,0,1,.4,0l1.95,1c.12.06.12.14,0,.2L34,42.53a.47.47,0,0,1-.4,0Z"/><path d="M38,34c-3-1.48-3.5-1.83-3.89-2.22-1.17-1.12-.8-2.31,1.34-3.35a10,10,0,0,1,6.84-.63,21.85,21.85,0,0,1,4.49,1.93c3,1.47,3.5,1.82,3.9,2.21,1.16,1.13.79,2.31-1.34,3.35a10,10,0,0,1-6.84.63A21.44,21.44,0,0,1,38,34Zm9,.14c.7-.34.89-.72.47-1.12-.24-.24-.59-.45-3.54-1.91a23.66,23.66,0,0,0-3.86-1.75,3.32,3.32,0,0,0-2.29.23c-.71.35-.88.71-.46,1.11.23.24.59.45,3.54,1.91a23.87,23.87,0,0,0,3.85,1.75A3.27,3.27,0,0,0,47,34.12Z"/></g><g id="obererRING"><path class="cls-3" d="M50,1.8A48.2,48.2,0,1,1,1.8,50,48.25,48.25,0,0,1,50,1.8M50,0a50,50,0,1,0,50,50A50,50,0,0,0,50,0Z"/></g></svg>
