<svg xmlns="http://www.w3.org/2000/svg" viewBox="0 0 100 100"><defs><style>.cls-1,.cls-2{fill:#fff;}.cls-2{stroke:#000;stroke-linejoin:round;stroke-width:1.8px;}.cls-3{fill:#1d1d1b;}</style></defs><title>np_kreisPictosWeb_100x100px_190726</title><g id="weisser_hg"><path class="cls-1" d="M100,50A50,50,0,1,1,50,0,50,50,0,0,1,100,50Z"/></g><g id="illu"><polygon class="cls-2" points="60.11 80.17 12.45 57.06 12.45 54.98 88.02 64.51 88.02 66.6 60.11 80.17"/><polygon class="cls-2" points="60.11 76.01 12.45 52.9 12.45 50.82 88.02 60.35 88.02 62.43 60.11 76.01"/><polygon class="cls-2" points="60.11 71.85 12.45 48.74 12.45 46.66 88.02 56.18 88.02 58.28 60.11 71.85"/><polygon class="cls-2" points="60.11 67.69 12.45 44.58 12.45 42.49 88.02 52.02 88.02 54.1 60.11 67.69"/><polygon class="cls-2" points="60.11 63.52 12.45 40.42 12.45 38.34 88.02 47.86 88.02 49.95 60.11 63.52"/><polygon class="cls-2" points="60.11 59.36 12.45 36.26 40.37 22.81 88.02 45.79 60.11 59.36"/><polygon class="cls-2" points="39.1 49.18 66.94 35.62 61.38 32.94 33.34 46.39 33.34 67.23 39.09 70.03 39.09 49.18 39.1 49.18"/><line class="cls-2" x1="60.26" y1="80.17" x2="60.26" y2="59.32"/><path d="M31.74,41.74c-.11-.06-.16-.1-.17-.19l-.86-5.09a1.63,1.63,0,0,0-1.05-1.31,3.55,3.55,0,0,0-3,0c-.92.44-.93,1,0,1.56.12,0,.1.12-.06.18L24,37.74a.46.46,0,0,1-.4,0c-1.72-1-1.82-2.52.79-3.79a9.59,9.59,0,0,1,8-.14,2.89,2.89,0,0,1,1.89,2.28l.6,3.8,0,0,4.75-2.31a.47.47,0,0,1,.4,0l1.95,1c.12.06.12.14,0,.2L34,42.64a.47.47,0,0,1-.4,0Z"/><path d="M42.19,35.74l1.74-1.25a.45.45,0,0,1,.4,0A4.07,4.07,0,0,0,47,34.23c.68-.32.9-.75.47-1.16a4.24,4.24,0,0,0-1.15-.72,6,6,0,0,0-1.48-.57A3.36,3.36,0,0,0,42.5,32c-.74.37-.8.76-.6,1.06.07.09.08.15-.06.22l-2.14,1a.47.47,0,0,1-.4,0l-7.4-3.66c-.12-.05-.11-.13,0-.19l7.58-3.69a.47.47,0,0,1,.4,0l2,1c.12.06.12.13,0,.19l-5.2,2.54c-.08,0-.08.07,0,.12l2.64,1.3.06,0c0-.31.39-.8,1.41-1.3A8.46,8.46,0,0,1,46.51,30a11.78,11.78,0,0,1,2.58,1,7,7,0,0,1,1.8,1.18c1.1,1.07.43,2.24-1.5,3.19a9.62,9.62,0,0,1-7.14.56C42.13,35.89,42.09,35.81,42.19,35.74Z"/></g><g id="obererRING"><path class="cls-3" d="M50,1.8A48.2,48.2,0,1,1,1.8,50,48.25,48.25,0,0,1,50,1.8M50,0a50,50,0,1,0,50,50A50,50,0,0,0,50,0Z"/></g></svg>
