<svg xmlns="http://www.w3.org/2000/svg" viewBox="0 0 100 100"><defs><style>.cls-1,.cls-2{fill:#fff;}.cls-2{stroke:#000;stroke-linejoin:round;stroke-width:1.8px;}.cls-3{fill:#1d1d1b;}</style></defs><title>np_kreisPictosWeb_100x100px_190726</title><g id="weisser_hg"><path class="cls-1" d="M100,50A50,50,0,1,1,50,0,50,50,0,0,1,100,50Z"/></g><g id="illu"><polygon class="cls-2" points="60.11 80.17 12.45 57.06 12.45 54.98 88.02 64.51 88.02 66.6 60.11 80.17"/><polygon class="cls-2" points="60.11 76.01 12.45 52.9 12.45 50.82 88.02 60.35 88.02 62.43 60.11 76.01"/><polygon class="cls-2" points="60.11 71.85 12.45 48.74 12.45 46.66 88.02 56.18 88.02 58.28 60.11 71.85"/><polygon class="cls-2" points="60.11 67.69 12.45 44.58 12.45 42.49 88.02 52.02 88.02 54.1 60.11 67.69"/><polygon class="cls-2" points="60.11 63.52 12.45 40.42 12.45 38.34 88.02 47.86 88.02 49.95 60.11 63.52"/><polygon class="cls-2" points="60.11 59.36 12.45 36.26 40.37 22.81 88.02 45.79 60.11 59.36"/><polygon class="cls-2" points="39.1 49.18 66.94 35.62 61.38 32.94 33.34 46.39 33.34 67.23 39.09 70.03 39.09 49.18 39.1 49.18"/><line class="cls-2" x1="60.26" y1="80.17" x2="60.26" y2="59.32"/><path d="M27.79,35.4l0,0-.69,1.77c0,.1-.18.13-.34.05L24.26,36c-.11-.06-.15-.12-.13-.21l.65-1.9q0-.14.24-.24l2.24-1.09a.45.45,0,0,1,.39,0L40.71,39c.12.06.12.14,0,.2l-2.4,1.16a.45.45,0,0,1-.39,0Z"/><path d="M36.82,34.54c-3-1.48-3.5-1.83-3.9-2.22C31.76,31.2,32.13,30,34.27,29a10,10,0,0,1,6.84-.63,22.1,22.1,0,0,1,4.49,1.93c3,1.47,3.5,1.83,3.9,2.22,1.16,1.12.79,2.3-1.35,3.34a10,10,0,0,1-6.84.63A21.73,21.73,0,0,1,36.82,34.54Zm9,.14c.7-.34.88-.72.46-1.12-.23-.24-.58-.45-3.53-1.91a22.26,22.26,0,0,0-3.86-1.74,3.21,3.21,0,0,0-2.29.22c-.72.35-.88.71-.47,1.11.24.24.6.45,3.54,1.91a23,23,0,0,0,3.86,1.75A3.22,3.22,0,0,0,45.82,34.68Z"/></g><g id="obererRING"><path class="cls-3" d="M50,1.8A48.2,48.2,0,1,1,1.8,50,48.25,48.25,0,0,1,50,1.8M50,0a50,50,0,1,0,50,50A50,50,0,0,0,50,0Z"/></g></svg>
