<svg xmlns="http://www.w3.org/2000/svg" viewBox="0 0 100 100"><defs><style>.cls-1,.cls-2,.cls-3,.cls-4{fill:#fff;}.cls-2,.cls-3,.cls-4{stroke:#000;stroke-width:1.8px;}.cls-2,.cls-4{stroke-linejoin:round;}.cls-4{stroke-linecap:round;}.cls-5{fill:#1d1d1b;}</style></defs><title>np_kreisPictosWeb_100x100px_190726</title><g id="weisser_hg"><path class="cls-1" d="M100,50A50,50,0,1,1,50,0,50,50,0,0,1,100,50Z"/></g><g id="illu"><rect x="60.22" y="82.03" width="4.52" height="7.35" transform="translate(-25.21 26.04) rotate(-19.68)"/><path class="cls-2" d="M40.69,47.89c0,19.39-4.36,32.91-4.54,33.44l5.23,1.88c1.62-2.55.8-4.82,1.89-8.25,1.81-5.76,1.94-19.71,1.94-27.07,0-9.81-.42-27-3.44-33.63-1.31-2.89-4-2.72-5.58-4.52-1.1.45-2.06,1.88-3.64,2.46C35,14.4,40.69,32.47,40.69,47.89Z"/><path class="cls-3" d="M38.84,8.29l2.07,3.93a.64.64,0,0,1-.27.87l-6.38,3.36a.64.64,0,0,1-.87-.27l-2.07-3.94Z"/><path class="cls-2" d="M47.17,84.4c1.44-7.28,1.19-23.93,1.19-35.41,0-9.43,1.07-24.58.12-30.86-.43-2.8,0-5.84-.61-7.7l-8.32,1.23a15.74,15.74,0,0,1,.93,2.78C41.89,20,43.84,36.81,43.83,49c0,9.25-.57,24.21-1.47,30.17-.19,1.23-.39,2.33-.69,4.21Z"/><rect x="39.94" y="85.09" width="7.36" height="4.52" transform="translate(-49.31 117.29) rotate(-81.32)"/><path class="cls-3" d="M45.81,6.05l1,4.34a.64.64,0,0,1-.48.77l-7,1.64a.65.65,0,0,1-.78-.48L37.54,8Z"/><path class="cls-2" d="M66.8,12.2c-1.59-.58-2.54-2-3.64-2.46-1.56,1.8-4.27,1.63-5.58,4.52-3,6.67-3.44,23.82-3.45,33.63,0,7.36.14,21.31,1.95,27.07,1.09,3.43.27,5.7,1.89,8.25l5.22-1.88c-.17-.53-4.53-14-4.53-33.44C58.66,32.47,64.37,14.4,66.8,12.2Z"/><path class="cls-3" d="M60.51,8.29l-2.07,3.93a.64.64,0,0,0,.27.87l6.38,3.36a.64.64,0,0,0,.87-.27L68,12.24Z"/><path class="cls-2" d="M52.18,84.4C50.73,77.12,51,60.47,51,49c0-9.43-1.07-24.58-.12-30.86.43-2.8,0-5.84.61-7.7l8.32,1.23a15.74,15.74,0,0,0-.93,2.78C57.46,20,55.51,36.81,55.51,49c0,9.25.58,24.21,1.48,30.17.19,1.23.39,2.33.69,4.21Z"/><path class="cls-3" d="M53.54,6.05l-1,4.34a.64.64,0,0,0,.48.77l7,1.64a.65.65,0,0,0,.78-.48l1-4.33Z"/><rect x="47.72" y="84.34" width="4.52" height="7.35"/><rect x="53.94" y="83.67" width="4.52" height="7.36" transform="translate(-12.53 9.47) rotate(-8.67)"/><rect class="cls-2" x="47.17" y="10.43" width="5.61" height="74.04"/><path class="cls-3" d="M54.22,5.26V9.71a.64.64,0,0,1-.64.64H46.36a.64.64,0,0,1-.63-.64V5.26Z"/><rect x="33.79" y="83.44" width="7.35" height="4.52" transform="translate(-55.85 92.09) rotate(-70.3)"/><rect class="cls-4" x="38.88" y="36.6" width="22.18" height="21.98"/><path d="M43.86,43.27h0L41.36,45c-.13.09-.25,0-.25-.13V42a.36.36,0,0,1,.16-.32l2.59-1.86a.62.62,0,0,1,.41-.14h2.54a.23.23,0,0,1,.23.23v15a.21.21,0,0,1-.23.22H44.08a.2.2,0,0,1-.22-.22Z"/><path d="M48.9,47.4c0-3.42.12-4.13.35-4.81a4.48,4.48,0,0,1,4.65-3.16,4.48,4.48,0,0,1,4.65,3.16c.23.68.34,1.39.34,4.81s-.11,4.14-.34,4.82a4.48,4.48,0,0,1-4.65,3.15,4.47,4.47,0,0,1-4.65-3.15C49,51.54,48.9,50.83,48.9,47.4Zm5,5.29a1.47,1.47,0,0,0,1.56-1c.14-.41.19-.86.19-4.25s0-3.83-.19-4.24a1.69,1.69,0,0,0-3.13,0c-.13.41-.18.86-.18,4.24s.05,3.84.18,4.25A1.47,1.47,0,0,0,53.9,52.69Z"/></g><g id="obererRING"><path class="cls-5" d="M50,1.8A48.2,48.2,0,1,1,1.8,50,48.25,48.25,0,0,1,50,1.8M50,0a50,50,0,1,0,50,50A50,50,0,0,0,50,0Z"/></g></svg>
