<?xml version="1.0" encoding="utf-8"?>
<!-- Generator: Adobe Illustrator 23.0.6, SVG Export Plug-In . SVG Version: 6.00 Build 0)  -->
<svg version="1.1" id="Adapter" 	 viewBox="0 0 813 995.7" style="enable-background:new 0 0 813 995.7;" xml:space="preserve">
<title>Bypass-Ventile</title>
<path d="M434.2,995.7h-49.1c-0.1,0-0.3,0-0.4,0l-25-1c-0.2,0-0.3,0-0.5,0l-24-2.1c-0.1,0-0.3,0-0.4,0l-24-3.1l-23.1-3.1
	c-0.1,0-0.3,0-0.4-0.1l-23-4.2c-0.1,0-0.3-0.1-0.4-0.1l-23-5.2c0,0-0.1,0-0.1,0l-21.9-5.2c-0.2,0-0.4-0.1-0.6-0.2l-20.9-6.3
	c-0.2-0.1-0.4-0.1-0.6-0.2l-19.8-7.3c-0.1-0.1-0.3-0.1-0.4-0.2l-19.8-8.4c-0.1,0-0.1-0.1-0.2-0.1l-18.8-8.3
	c-0.1-0.1-0.3-0.1-0.4-0.2l-16.7-8.3c-0.2-0.1-0.3-0.2-0.4-0.2l-16.7-9.4c-0.3-0.2-0.6-0.4-0.9-0.6l-14.6-10.5
	c-0.1-0.1-0.2-0.1-0.3-0.2l-13.7-10.4c-0.2-0.2-0.5-0.4-0.7-0.6l-12.5-11.5c-0.2-0.2-0.5-0.4-0.7-0.7l-10.4-11.5
	c-0.1-0.1-0.2-0.3-0.4-0.4l-9.4-11.5c-0.3-0.4-0.7-0.9-0.9-1.3l-7.3-12.5c-0.1-0.1-0.1-0.2-0.2-0.3l-6.3-11.5
	c-0.2-0.3-0.3-0.6-0.5-1l-5.2-12.5c-0.2-0.5-0.4-1.1-0.5-1.7l-3.1-13.6c-0.1-0.5-0.2-1-0.2-1.5l-1-12.2l-0.9-6.9
	c0-0.3-0.1-0.5-0.1-0.8c0-0.3,0-0.6,0-0.9v-57.2c0-0.2,0-0.3,0-0.5l-0.8-3.4c-0.1-0.5-0.2-1-0.2-1.5l-1-12.4c0-0.2,0-0.4,0-0.5
	c0-0.2,0-0.4,0-0.6V311c0-0.4,0-0.9,0.1-1.3l-9.9-83.4l-0.4-1.5c-0.1-0.6-0.2-1.2-0.3-1.8l-1-13.6c-0.1-0.7,0-1.5,0.1-2.2l1-12.9
	c0-0.6,0.1-1.2,0.3-1.8l3.1-12.5c0-0.2,0.1-0.4,0.2-0.5L8.8,166c0.2-0.5,0.4-1.1,0.6-1.6l6.3-12.5c0.1-0.2,0.2-0.4,0.3-0.6l7.3-12.5
	c0.2-0.3,0.4-0.7,0.7-1l9.4-12.5c0.2-0.3,0.4-0.5,0.7-0.8l11.5-12.5c0.2-0.2,0.4-0.4,0.6-0.6l12.5-11.5c0.3-0.3,0.6-0.5,1-0.8
	l14.6-10.4l15.5-11.4c0.3-0.3,0.7-0.5,1.1-0.7l16.7-9.4c0.1-0.1,0.3-0.2,0.4-0.2l18.8-9.4c0.1,0,0.1-0.1,0.2-0.1l19.8-9.4
	c0.2-0.1,0.4-0.2,0.6-0.3l20.9-8.4c0.2-0.1,0.4-0.1,0.6-0.2l21.9-7.3c0.2-0.1,0.4-0.1,0.5-0.2l46-12.5c0.2-0.1,0.4-0.1,0.6-0.1
	l25.1-5.2c0.1,0,0.2,0,0.3-0.1l24-4.2c0,0,0.1,0,0.1,0l26.1-4.2c0.3,0,0.5-0.1,0.8-0.1l52.2-4.2c0.1,0,0.3,0,0.4,0l26.1-1
	c0.1,0,0.3,0,0.4,0h27.1c0.1,0,0.3,0,0.4,0l26.1,1c0.1,0,0.3,0,0.4,0l52.2,4.2c0.3,0,0.6,0.1,0.9,0.1l50.1,8.4c0.1,0,0.3,0,0.4,0.1
	l25.1,5.2c0.2,0,0.4,0.1,0.6,0.1l46,12.5c0.2,0.1,0.4,0.1,0.5,0.2l21.9,7.3c0.2,0.1,0.4,0.1,0.6,0.2l20.9,8.4
	c0.2,0.1,0.4,0.2,0.6,0.3l19.8,9.4c0.1,0.1,0.3,0.1,0.4,0.2L723,76.4c0.4,0.2,0.9,0.5,1.3,0.8l15.6,11.4L754.4,99
	c0.3,0.2,0.7,0.5,1,0.8l12.5,11.5c0.3,0.3,0.7,0.7,1,1l10.4,12.5c0.1,0.1,0.2,0.3,0.3,0.4l9.4,12.5c0.1,0.2,0.2,0.3,0.3,0.5
	l8.3,12.5c0.2,0.4,0.5,0.7,0.6,1.1l6.3,12.5c0.3,0.5,0.5,1,0.6,1.6l4.2,13.6c0.1,0.2,0.1,0.4,0.1,0.5l3.1,12.5
	c0.2,0.8,0.3,1.7,0.3,2.5v24.2c0,0.5,0,1.1,0,1.6v1.3c0,0.8-0.1,1.7-0.3,2.5l-0.3,1l-10.9,92.1v394c0,0.2,0,0.4,0,0.7v5.6
	c0,0.3,0,0.5,0,0.8l-1,13.6c0,0,0,0,0,0v55.6c0,0.5,0,1.1-0.1,1.6c0.2,1,0.2,2.1,0,3.1l-2.1,13.6c0,0,0,0.1,0,0.1l-2.1,12.5
	c-0.1,0.5-0.2,1.1-0.4,1.6l-4.2,12.5c-0.2,0.5-0.3,0.9-0.6,1.4l-6.3,12.5c-0.2,0.4-0.4,0.7-0.6,1.1l-16.7,25c-0.3,0.4-0.6,0.8-1,1.2
	l-10.4,11.5c-0.2,0.2-0.4,0.5-0.7,0.7L742.9,898c-0.2,0.2-0.5,0.4-0.7,0.6L728.6,909c-0.1,0.1-0.2,0.1-0.3,0.2l-14.6,10.4
	c-0.2,0.2-0.5,0.3-0.7,0.5l-15.7,9.4c-0.1,0.1-0.2,0.1-0.3,0.2l-16.7,9.4c-0.3,0.2-0.6,0.3-0.9,0.4l-18.8,8.3l-18.6,8.3
	c-0.4,0.2-0.7,0.3-1.1,0.4l-19.7,6.2l-20.7,7.3c-0.3,0.1-0.7,0.2-1,0.3l-21.9,5.2c0,0-0.1,0-0.1,0l-23,5.2c-0.1,0-0.3,0.1-0.4,0.1
	l-46,8.3c-0.2,0-0.3,0.1-0.5,0.1l-24,3.1c-0.1,0-0.3,0-0.4,0l-24,2.1c-0.2,0-0.3,0-0.5,0l-24,1C434.5,995.7,434.4,995.7,434.2,995.7
	z M385.4,975H434l23.5-1l23.5-2.1l23.5-3.1l45.5-8.3l22.7-5.2l21.4-5.1l20.4-7.1c0.1,0,0.2-0.1,0.3-0.1l19.3-6.1l18.1-8.1l18.4-8.2
	l16.2-9.1l15.2-9.1l14.1-10.1l13.1-10l11.9-10.9l9.6-10.6l15.9-23.9l5.7-11.3l3.7-11l1.9-11.7l1.5-9.7c-0.8-2.5-0.7-5.3,0.5-7.7
	v-6.3l-6.5,8.6c-0.2,0.3-0.4,0.5-0.6,0.7l-10.4,11.5c-0.1,0.1-0.2,0.2-0.3,0.4l-11.5,11.5c-0.2,0.2-0.4,0.4-0.6,0.6l-13.6,11.5
	c-0.2,0.2-0.4,0.4-0.7,0.5L721,835.1c-0.1,0.1-0.2,0.1-0.3,0.2L705,845.8c-0.3,0.2-0.6,0.4-0.9,0.5l-17.7,9.4
	c-0.1,0-0.1,0.1-0.2,0.1l-18.8,9.4c-0.3,0.1-0.5,0.2-0.8,0.4l-20.9,8.4c-0.1,0.1-0.3,0.1-0.4,0.2l-20.9,7.3c0,0-0.1,0-0.2,0.1
	l-21.9,7.3c-0.3,0.1-0.6,0.2-1,0.3l-22.8,5.2l-22.8,6.2c-0.3,0.1-0.7,0.2-1,0.2l-25.1,4.2c-0.1,0-0.3,0-0.4,0.1l-50,6.3
	c-0.2,0-0.3,0-0.5,0l-26.1,2.1c-0.1,0-0.3,0-0.4,0l-25,1c-0.1,0-0.3,0-0.4,0h-52.2c-0.3,0-0.6,0-0.8,0l-26.1-2.1l-25.1-2.1
	c-0.1,0-0.3,0-0.4,0l-25-3.1c-0.1,0-0.3,0-0.4-0.1l-25-4.2c-0.2,0-0.3-0.1-0.5-0.1l-24-5.2l-23.1-5.2c-0.3-0.1-0.6-0.1-0.8-0.2
	l-23-7.3c0,0-0.1,0-0.1,0l-22-7.3c-0.1,0-0.2-0.1-0.3-0.1l-19.8-7.3c-0.1-0.1-0.3-0.1-0.4-0.2l-19.8-8.3c-0.3-0.1-0.6-0.2-0.8-0.4
	l-17.7-9.4c-0.1-0.1-0.3-0.1-0.4-0.2l-17.8-10.4c-0.2-0.1-0.3-0.2-0.5-0.3L85,830.1c-0.2-0.1-0.4-0.3-0.6-0.4l-13.6-10.4
	c-0.2-0.2-0.5-0.4-0.7-0.6l-12.5-11.5c-0.1-0.1-0.2-0.2-0.3-0.3l-11.5-11.5c-0.3-0.3-0.7-0.7-1-1.1l-9.4-12.5
	c-0.2-0.3-0.5-0.7-0.7-1l-0.5-0.9v7.5l0.9,6.6c0,0.2,0,0.4,0.1,0.6l0.9,11.8l2.8,12l4.7,11.2l5.9,10.9l6.8,11.7l8.7,10.6l9.9,10.9
	l11.8,10.8l13.2,10l14.1,10.1l16,9l16.3,8.1l18.5,8.2l19.5,8.2l19.3,7.1l20.3,6.1l21.6,5.1l22.7,5.2l22.6,4.1l22.8,3.1l23.7,3.1
	l23.5,2.1L385.4,975z M375.1,893.6h51.6l24.6-1l25.7-2.1l49.6-6.2l24.3-4l22.5-6.1c0.1,0,0.3-0.1,0.4-0.1l22.5-5.1l21.4-7.1
	l20.6-7.2l20.3-8.1l18.3-9.2l17.2-9.1l15.1-10.1l14.1-10.1l12.9-10.9l11-11l10-10.9l8.6-11.4l5.7-11.4l4.9-11.8l3.5-10.5
	c0-0.6,0.1-1.1,0.2-1.6l0.8-10.7v-5.9c0-0.2,0-0.4,0-0.7V372l-7.5,9.9c-0.2,0.2-0.4,0.5-0.6,0.7l-10.4,11.5
	c-0.1,0.1-0.2,0.2-0.3,0.4L750.5,406c-0.2,0.2-0.4,0.4-0.6,0.6L736.2,418c-0.2,0.2-0.4,0.4-0.7,0.5L721,429
	c-0.1,0.1-0.2,0.1-0.3,0.2L705,439.6c-0.3,0.2-0.6,0.4-0.9,0.5l-17.7,9.4c-0.2,0.1-0.4,0.2-0.6,0.3l-18.8,8.4
	c-0.1,0.1-0.2,0.1-0.4,0.2l-41.8,16.7c-0.3,0.1-0.7,0.2-1,0.3l-21.9,6.3c0,0-0.1,0-0.1,0l-23,6.3c-0.1,0-0.3,0.1-0.4,0.1l-23,5.2
	c-0.2,0-0.4,0.1-0.6,0.1l-50.1,8.3c-0.1,0-0.3,0-0.4,0.1l-25,3.1c-0.2,0-0.3,0-0.5,0l-26.1,2.1c-0.1,0-0.3,0-0.4,0l-25,1
	c-0.1,0-0.3,0-0.4,0h-26.1c-0.1,0-0.3,0-0.4,0l-52.2-2c-0.3,0-0.6,0-0.9-0.1l-50.1-6.3c-0.1,0-0.3,0-0.4-0.1l-25-4.2l-24.1-4.2
	c-0.3-0.1-0.6-0.1-1-0.2l-46-12.5c-0.2-0.1-0.4-0.1-0.5-0.2l-22-7.3c-0.3-0.1-0.5-0.2-0.7-0.3l-39.6-16.7c-0.3-0.1-0.6-0.2-0.8-0.4
	L101.5,435c-0.3-0.2-0.6-0.3-0.9-0.5L85,424c-0.3-0.2-0.6-0.5-0.9-0.7l-13.6-11.5L58,401.4c-0.4-0.3-0.7-0.6-1-1L45.5,388
	c-0.1-0.1-0.3-0.3-0.4-0.4L35.7,376c-0.3-0.4-0.7-0.9-0.9-1.3l-2.6-4.5v341.2l1,11.4l2.9,12.4l3.8,11.4l5.8,11.6l6.8,11.7l8.6,11.5
	l10.8,10.8l12,11l12.9,10l15.1,10.1l17.3,10.2l17.1,9.1l19.2,8.1l19.4,7.2l21.8,7.2l22.5,7.1l22.6,5.1l23.7,5.1l24.5,4.1l24.6,3.1
	l24.8,2.1L375.1,893.6z M401,487.4h25.7l24.6-1l25.7-2.1l24.6-3.1l49.6-8.3l22.5-5.1l22.7-6.2l21.4-6.1l41.1-16.4l18.3-8.1l17-9
	l15.1-10.1l14.1-10.1l12.9-10.9l11-11l10-11l8.6-11.3l5.7-11.4l4.9-11.7l3.8-12.3l0.8-5.9V311c0-1.8,0.5-3.5,1.3-4.9l2.4-20.4
	l-4.9,6.5c-0.1,0.1-0.2,0.3-0.3,0.4l-10.4,12.5c-0.3,0.4-0.6,0.7-1,1l-12.5,11.5c-0.3,0.3-0.6,0.5-1,0.8l-14.6,10.4l-15.6,11.4
	c-0.4,0.3-0.8,0.6-1.2,0.8l-17.5,9.4l-17.6,10.3c-0.4,0.2-0.8,0.4-1.2,0.6l-19.8,8.4c-0.1,0-0.1,0-0.2,0.1l-20.9,8.4
	c-0.2,0.1-0.4,0.1-0.6,0.2l-21.9,7.3c0,0-0.1,0-0.1,0l-23,7.3c-0.3,0.1-0.6,0.2-0.8,0.2l-23,5.2c-0.1,0-0.1,0-0.2,0l-25.1,5.2
	c-0.1,0-0.3,0.1-0.4,0.1l-50.1,8.4c-0.3,0-0.6,0.1-0.9,0.1l-26,2l-26.1,2.1c-0.1,0-0.3,0-0.4,0l-26.1,1c-0.1,0-0.3,0-0.4,0h-27.1
	c-0.1,0-0.3,0-0.4,0l-26.1-1c-0.1,0-0.3,0-0.4,0l-52.2-4.2c-0.3,0-0.5-0.1-0.8-0.1l-26.1-4.2c0,0-0.1,0-0.1,0l-24-4.2
	c-0.1,0-0.2,0-0.3-0.1l-25.1-5.2c-0.1,0-0.1,0-0.2,0l-23-5.2c-0.3-0.1-0.6-0.1-0.8-0.2l-23-7.3c0,0-0.1,0-0.1,0l-21.9-7.3
	c-0.2-0.1-0.4-0.1-0.6-0.2l-20.9-8.4c-0.1,0-0.1,0-0.2-0.1l-19.8-8.4c-0.3-0.1-0.7-0.3-1-0.5l-18.8-10.4l-16.8-9.4
	c-0.4-0.2-0.7-0.4-1-0.7l-15.6-11.5l-14.6-10.4c-0.3-0.2-0.7-0.5-1-0.8l-12.5-11.5c-0.2-0.2-0.4-0.4-0.6-0.6L34,292.9
	c-0.2-0.2-0.4-0.5-0.6-0.8l-3.6-4.8l3.4,28.6c0,0.2,0.1,0.5,0.1,0.7c0,0.1,0,0.2,0,0.3l2.8,11.1l3.8,12.5l5.7,11.5l6.7,11.5
	l8.7,10.6L71.8,386l12,10L97,407.1l14.7,9.8l34.6,18.3l38.8,16.3l21.3,7.1l45.3,12.3l23.5,4.1l24.7,4.1l49.4,6.2L401,487.4z
	 M393.7,396.6h26.7l25.7-1l25.9-2.1l25.6-2l49.4-8.2l24.8-5.2l22.5-5.1l22.5-7.2l21.6-7.2l20.5-8.2l19.1-8.1l17.2-10.1
	c0.1-0.1,0.2-0.1,0.4-0.2l17.1-9.1l15.1-11c0,0,0.1-0.1,0.1-0.1l14.1-10.1l11.5-10.6l9.8-11.8l9.1-12.1l7.8-11.8l5.6-11.2l3.8-12.4
	l2.5-10l0.3-2.2v-23.4l-2.8-11l-3.8-12.5l-5.6-11.2l-7.8-11.8l-9.1-12.1l-9.8-11.8l-11.5-10.6l-14.1-10.1c0,0-0.1-0.1-0.1-0.1
	l-15-11L678,76l-19.3-9.2l-20.3-8.1L617,51.6l-45.4-12.4L547,34.1l-49.4-8.2l-51.5-4.1l-25.7-1h-26.7l-25.7,1l-51.6,4.1L290.8,30
	l-23.8,4.1l-24.6,5.1L197,51.6l-21.4,7.1l-20.3,8.1L135.9,76l-18.5,9.2l-15.9,9l-15.1,11.1c0,0-0.1,0.1-0.1,0.1l-14.1,10.1
	l-11.7,10.8l-10.8,11.8l-8.7,11.6l-6.8,11.7l-5.7,11.5l-3.9,12.5l-2.9,11.4l-0.9,12.1l0.6,8.6c0.1,0.5,0.2,1,0.3,1.5l0.4,3.6
	l2.4,9.5l3.8,12.5l5.8,11.4l6.8,11.7l8.7,11.6l10.8,11.8l11.7,10.7l14.1,10.1c0,0,0.1,0.1,0.1,0.1l15.2,11.1l16.2,9.1l18.2,10.1
	l19.2,8.1l20.5,8.2l21.6,7.2l22.5,7.2l22.5,5.1l24.8,5.2l23.8,4.1l25.6,4.1l51.6,4.1L393.7,396.6z M412.3,357.9h-21.9
	c-0.3,0-0.7,0-1,0l-21.7-2.1l-21.7-1c-0.4,0-0.7-0.1-1.1-0.1l-20.9-3.1c-0.2,0-0.3-0.1-0.5-0.1l-20.9-4.2c0,0-0.1,0-0.1,0l-19.8-4.2
	c-0.2,0-0.3-0.1-0.5-0.1l-19.8-5.2c-0.3-0.1-0.5-0.2-0.8-0.2l-35.5-12.5c-0.2-0.1-0.5-0.2-0.7-0.3l-16.7-7.3c-0.3-0.1-0.7-0.3-1-0.5
	l-14.6-8.3c-0.1-0.1-0.2-0.1-0.3-0.2l-13.6-8.4c-0.3-0.2-0.5-0.3-0.8-0.5l-12.5-9.4c-0.1-0.1-0.2-0.2-0.3-0.3l-11.5-9.4
	c-0.4-0.3-0.8-0.7-1.1-1.1l-9.4-10.4c-0.2-0.2-0.3-0.4-0.5-0.6l-7.3-9.4c-0.3-0.4-0.6-0.9-0.9-1.4l-6.3-11.5
	c-0.2-0.4-0.4-0.7-0.5-1.1l-4.2-10.4c-0.1-0.3-0.2-0.6-0.3-0.9l-3.1-10.4c-0.3-1-0.4-2-0.4-3v-21.9c0-0.9,0.1-1.8,0.4-2.7l3.1-11.5
	c0.1-0.4,0.2-0.8,0.4-1.1l4.2-10.5c0.2-0.5,0.4-1,0.7-1.5l6.3-10.4c0.1-0.2,0.3-0.4,0.4-0.6l7.3-10.4c0.2-0.3,0.5-0.7,0.8-1
	l9.4-10.4c0.4-0.4,0.7-0.8,1.1-1.1l11.5-9.4c0.1-0.1,0.2-0.2,0.3-0.3l12.5-9.4c0.3-0.2,0.5-0.4,0.8-0.5l13.6-8.4
	c0.1-0.1,0.2-0.1,0.3-0.2l14.6-8.3c0.3-0.2,0.6-0.3,1-0.5l16.7-7.3c0.2-0.1,0.5-0.2,0.7-0.3l35.5-12.5c0.3-0.1,0.5-0.2,0.8-0.2
	l19.8-5.2c0.1,0,0.3-0.1,0.4-0.1l17.2-3.8l0.2-0.2c0.3-0.3,0.7-0.5,1-0.8l9.4-6.3c0.4-0.2,0.7-0.5,1.1-0.6l10.4-5.2
	c0.4-0.2,0.7-0.3,1.1-0.5l11.5-4.2c0.1,0,0.2-0.1,0.3-0.1l12.5-4.2c0.3-0.1,0.6-0.2,0.9-0.3l13.6-3.1c0.2-0.1,0.5-0.1,0.8-0.1
	l13.6-2.1c0.3,0,0.6-0.1,0.9-0.1l14.6-1c0.2,0,0.5,0,0.7,0h29.2c0.2,0,0.5,0,0.7,0l14.6,1c0.3,0,0.6,0.1,0.9,0.1l13.6,2.1
	c0.3,0,0.5,0.1,0.8,0.1l13.6,3.1c0.3,0.1,0.6,0.2,0.9,0.3l12.5,4.2c0.1,0,0.2,0.1,0.3,0.1L491,57c0.4,0.1,0.7,0.3,1.1,0.5l10.4,5.2
	c0.5,0.3,1.1,0.6,1.6,1l8.7,6.6l28,6.2c0.3,0.1,0.6,0.1,0.9,0.2l19.8,6.3c0.1,0,0.2,0.1,0.3,0.1l17.8,6.2c0.2,0.1,0.5,0.2,0.7,0.3
	l16.7,7.3c0.1,0,0.2,0.1,0.2,0.1l15.6,7.3c0.3,0.1,0.5,0.3,0.8,0.4l14.6,8.4c0.4,0.2,0.7,0.4,1.1,0.7l25.1,18.8
	c0.4,0.3,0.8,0.6,1.1,1l9.4,9.4c0.3,0.3,0.5,0.6,0.8,0.9l8.3,10.4c0.1,0.2,0.3,0.3,0.4,0.5l7.3,10.4c0.3,0.4,0.6,0.9,0.8,1.3
	l5.2,10.4c0.3,0.5,0.5,1.1,0.7,1.7l3.1,10.4c0.1,0.4,0.2,0.7,0.3,1.1l2.1,11.5c0.1,0.6,0.2,1.2,0.2,1.8v10.5c0,0.6-0.1,1.2-0.2,1.8
	l-2.1,11.5c-0.1,0.4-0.2,0.8-0.3,1.1l-3.1,10.4c-0.1,0.4-0.3,0.9-0.5,1.3l-5.2,11.5c-0.3,0.6-0.6,1.1-0.9,1.7l-7.3,10.4
	c-0.2,0.3-0.5,0.6-0.7,0.9l-8.3,9.4l-9.4,10.5c-0.4,0.5-0.9,1-1.5,1.4l-12.5,9.4c-0.2,0.1-0.3,0.2-0.5,0.3l-12.5,8.3
	c-0.2,0.1-0.4,0.3-0.6,0.4l-14.6,8.4c-0.2,0.1-0.5,0.3-0.8,0.4l-15.7,7.3c-0.1,0-0.2,0.1-0.2,0.1l-16.7,7.3
	c-0.2,0.1-0.5,0.2-0.7,0.3l-17.7,6.3c-0.1,0-0.2,0.1-0.3,0.1l-19.8,6.3c-0.3,0.1-0.6,0.2-0.9,0.2l-18.8,4.1c-0.1,0-0.1,0-0.2,0
	l-20.9,4.2c-0.2,0-0.3,0.1-0.5,0.1l-20.9,3.1l-22,3.1c-0.3,0-0.7,0.1-1,0.1l-21.9,1l-21.9,1C412.6,357.9,412.4,357.9,412.3,357.9z
	 M390.8,337.1H412l21.7-1l21.5-1l21.4-3.1l20.6-3.1l20.5-4.1l18.2-4l19.2-6.1l17.2-6.1l16.2-7.1l15.1-7.1l13.9-8l12-8l11.5-8.6
	l8.7-9.7l7.9-8.9l6.4-9.2l4.5-10l2.8-9.2l1.8-10v-8.6l-1.8-10l-2.7-9l-4.5-9l-6.7-9.5l-7.8-9.7l-8.5-8.5l-23.9-18l-13.7-7.8
	l-15.1-7.1l-16.2-7.1l-17.2-6l-19.3-6.1l-0.6-0.1l1.7,6.1c0.1,0.5,0.2,1,0.3,1.4l0.8,6.1c0.2,0.8,0.3,1.7,0.3,2.6v96
	c0,0.3,0,0.6,0,0.9v4.3c0,1.5-0.3,3.1-1,4.4V312c0,5.7-4.6,10.4-10.4,10.4s-10.4-4.6-10.4-10.4v-96c0-1.5,0.3-3.1,1-4.4v-2.9
	c0-0.3,0-0.6,0-0.9v-56.4l-5.4,4c-0.2,0.2-0.5,0.3-0.7,0.5l-8.4,5.2c-0.3,0.2-0.6,0.3-0.9,0.5l-10.4,5.2c-0.4,0.2-0.7,0.3-1.1,0.5
	l-11.5,4.2c-0.1,0-0.2,0.1-0.3,0.1l-12.5,4.2c-0.3,0.1-0.6,0.2-0.9,0.3l-13.6,3.1c-0.2,0.1-0.5,0.1-0.8,0.1l-13.6,2.1
	c-0.3,0-0.6,0.1-0.9,0.1l-29.2,2c-0.5,0-0.9,0-1.4,0l-29.2-2c-0.3,0-0.6-0.1-0.9-0.1l-13.6-2.1c-0.3,0-0.5-0.1-0.8-0.1l-13.6-3.1
	c-0.3-0.1-0.6-0.2-0.9-0.3l-12.5-4.1c-0.1,0-0.2-0.1-0.3-0.1l-11.5-4.2c-0.4-0.1-0.7-0.3-1.1-0.5l-10.4-5.2
	c-0.1-0.1-0.3-0.1-0.4-0.2l-9.4-5.2c-0.6-0.3-1.2-0.7-1.7-1.2l-3.8-3.2v142.6c0,5.7-4.6,10.4-10.4,10.4s-10.4-4.6-10.4-10.4V112.8
	c0-0.8,0.1-1.7,0.3-2.5l0.9-6.4c0.1-0.5,0.2-1,0.3-1.4l1.6-5.7l-10.5,2.8l-34.7,12.3l-15.9,6.9l-14,8l-13,8l-12,9l-10.7,8.8
	l-8.4,9.4l-6.7,9.6l-5.6,9.4l-3.7,9.2l-2.6,9.6v19l2.6,8.5l3.8,9.4l5.6,10.2l6.6,8.4l8.6,9.6l10.7,8.8l12,9l13,8l14,8l15.9,6.9
	l34.7,12.3l19.2,5l19.5,4.1l20.6,4.1l20.1,3l21.4,1c0.2,0,0.3,0,0.5,0L390.8,337.1z M378.9,160.8l28.1,1.9l28.1-1.9l12.8-2l12.7-2.9
	l11.9-4l10.8-3.9l9.5-4.7l7.6-4.7l6.7-5l8.6-12l1.3-3.9l0.7-4.9l-0.7-5.2l-1.4-4.9l-4-5.5l-4.2-5l-15-11.2l-9-4.5l-10.8-3.9l-11.9-4
	l-12.7-2.9l-12.8-2l-13.8-0.9h-28.5l-13.8,0.9l-12.8,2l-12.7,2.9l-11.9,4l-10.8,3.9l-9.3,4.7l-8.3,5.6l-6.5,5.6l-5,5l-2.9,5
	l-1.5,5.4l-0.7,5.3l0.7,4.8l1.5,4.4l3.2,5.6l5.1,6l5.9,5.1l8.3,4.6l9.7,4.9l10.8,3.9l11.9,3.9l12.7,2.9L378.9,160.8z"/>
</svg>
