<svg xmlns="http://www.w3.org/2000/svg" viewBox="0 0 100 100"><defs><style>.cls-1{fill:#fff;}.cls-2{fill:none;stroke:#000;stroke-linejoin:round;stroke-width:1.8px;}.cls-3{fill:#1d1d1b;}</style></defs><title>np_kreisPictosWeb_100x100px_190726</title><g id="weisser_hg"><path class="cls-1" d="M100,50A50,50,0,1,1,50,0,50,50,0,0,1,100,50Z"/></g><g id="illu"><rect class="cls-2" x="22.83" y="16.68" width="54.25" height="66.75"/><path class="cls-2" d="M52.57,21.39a3.1,3.1,0,0,0-5.25,0H44.18A1.55,1.55,0,0,0,42.63,23v.22a1.54,1.54,0,0,0,1.55,1.55h3.14a3.1,3.1,0,0,0,5.25,0h3.15a1.54,1.54,0,0,0,1.56-1.55V23a1.55,1.55,0,0,0-1.56-1.56Z"/><path d="M48.85,48.63H48.8l-2.48,1.53c-.14.08-.25,0-.25-.12V47.47a.32.32,0,0,1,.16-.29l2.62-1.7a.69.69,0,0,1,.41-.12h2.57a.21.21,0,0,1,.23.21V59.22a.21.21,0,0,1-.23.21H49.08a.21.21,0,0,1-.23-.21Z"/></g><g id="obererRING"><path class="cls-3" d="M50,1.8A48.2,48.2,0,1,1,1.8,50,48.25,48.25,0,0,1,50,1.8M50,0a50,50,0,1,0,50,50A50,50,0,0,0,50,0Z"/></g></svg>
