<?xml version="1.0" encoding="utf-8"?>
<!-- Generator: Adobe Illustrator 23.0.6, SVG Export Plug-In . SVG Version: 6.00 Build 0)  -->
<svg version="1.1" id="Rückflussverhinderer2" 	 x="0px" y="0px" viewBox="0 0 753.7 1004.9" style="enable-background:new 0 0 753.7 1004.9;" xml:space="preserve">
<style type="text/css">
	.st0{fill-rule:evenodd;clip-rule:evenodd;}
</style>
<title>Rückflussverhinderer2</title>
<path d="M356.7,474.3c0,0-0.1,0-0.1,0c-0.1,0-0.2,0-0.2,0l-79-7.5c-0.2,0-0.3,0-0.5-0.1l-79.1-16.3c-0.3-0.1-0.6-0.2-0.9-0.3
	l-92.4-39.9c-0.4-0.1-0.8-0.4-1.2-0.7L33,346.6c-0.2-0.1-0.3-0.3-0.5-0.5c-0.1-0.2-0.3-0.4-0.4-0.6l-15-31.3
	c-0.1-0.1-0.1-0.2-0.2-0.4c0-0.1-0.1-0.2-0.1-0.4l-7.4-29.6c-0.2-0.4-0.3-0.9-0.3-1.4l1.3-30.1c0-0.2,0-0.3,0-0.5
	c0-0.2,0.1-0.3,0.1-0.5l10-31.3c0.1-0.4,0.3-0.7,0.6-1.1l3.2-6.4c0.4-1.4,1.6-2.3,3.1-2.3c0.6,0,1.2,0.2,1.7,0.5
	c1.2,0.7,1.7,2,1.5,3.3v9.5c0,0,0,0,0,0c0,0,0,0,0,0v28l24.4,39.1l27.2,29.7l49.6,32.3l59.8,22.4l37.5,10l28.8,6.3
	c0.1,0,0.2,0.1,0.3,0.1l67.2,9.9l62.4,2.5l73.7-7.5l115-27.5l76.2-37.5l41.7-31.9l13.3-27.8c0.1-0.2,0.1-0.3,0.2-0.5l8.6-17.1
	l6.2-38.5c0.3-1.7,1.9-2.9,3.7-2.7c0.4,0.1,0.8,0.2,1.2,0.4c0.6,0.3,1.1,0.9,1.3,1.5l11.3,27.6c0.1,0.1,0.1,0.3,0.2,0.4
	c0,0.2,0.1,0.3,0.1,0.5l3.8,28.8c0,0.2,0,0.4,0,0.6c0,0.2,0,0.4-0.1,0.6l-6.3,35c0,0.2-0.1,0.3-0.1,0.5c-0.1,0.2-0.1,0.3-0.2,0.5
	L719,348c-0.1,0.2-0.2,0.3-0.3,0.5c-0.1,0.1-0.2,0.3-0.3,0.4l-28.8,31.3c-0.1,0.1-0.2,0.2-0.3,0.3c-0.1,0.1-0.2,0.2-0.3,0.2
	l-41.4,28.9c-0.2,0.1-0.4,0.3-0.7,0.4l-47.4,25c-0.1,0.1-0.2,0.1-0.3,0.2c-0.1,0-0.2,0.1-0.2,0.1l-59,18.9c-0.2,0.1-0.4,0.1-0.6,0.1
	L472,467.8c-0.2,0.1-0.4,0.1-0.6,0.1l-46.1,5c-0.2,0-0.4,0.1-0.6,0.1l-67.8,1.3C356.8,474.3,356.8,474.3,356.7,474.3z M278,460.3
	l78.9,7.5l67.3-1.2c0,0,0,0,0.1,0l46.1-5c0,0,0,0,0.1,0l67.8-13.8l58.5-18.7l47.5-25l40.9-28.5l28.3-30.8l18.5-38.1l6.1-34.3
	l-3.7-28l-6.9-16.8l-4.5,27.7c0,0.2-0.1,0.4-0.1,0.5c-0.1,0.2-0.1,0.4-0.2,0.5l-8.6,17.1c0,0.1-0.1,0.3-0.2,0.4l-13.8,28.8
	c-0.1,0.2-0.3,0.5-0.4,0.7c-0.2,0.2-0.4,0.4-0.6,0.6l-42.7,32.6c-0.3,0.2-0.7,0.4-1,0.5l-76.1,37.4c-0.1,0.1-0.3,0.1-0.4,0.2
	c-0.1,0-0.3,0.1-0.4,0.1l-115.4,27.6c-0.1,0-0.2,0-0.2,0.1c-0.1,0-0.2,0-0.3,0l-74.1,7.5c-0.1,0-0.2,0-0.4,0c0,0-0.1,0-0.1,0
	l-62.8-2.5c-0.2,0-0.4,0-0.6-0.1l-67.6-10c-0.3,0-0.5-0.1-0.8-0.2l-28.3-6.2c0,0-0.1,0-0.1,0c0,0,0,0,0,0c0,0,0,0-0.1,0l-37.6-10
	c-0.1,0-0.1,0-0.2-0.1c-0.1,0-0.1,0-0.2-0.1l-60.2-22.6c-0.1,0-0.3-0.1-0.4-0.2c-0.1-0.1-0.2-0.1-0.4-0.2l-50.1-32.6
	c-0.1-0.1-0.3-0.2-0.4-0.3c-0.1-0.1-0.2-0.2-0.3-0.3l-27.3-29.8c-0.2-0.2-0.4-0.4-0.6-0.7l-25.1-40.2c-0.2-0.3-0.3-0.6-0.4-0.9
	c0,0,0,0,0,0c-0.1-0.3-0.1-0.6-0.1-0.9v-22.7L16.9,253l-1.3,29.1l7.4,29.6l14.7,30.5l69.5,62l92.3,39.9L278,460.3z"/>
<polygon class="st0" points="325.3,404.5 388.1,407 462.3,399.4 577.8,371.8 654.5,334.1 697.2,301.4 711,272.5 719.8,254.9 
	726.1,216 737.4,243.6 741.2,272.5 734.9,307.7 716,346.7 687.2,378.1 645.7,407 598,432.1 538.9,451 471,464.8 424.6,469.8 
	356.7,471 277.6,463.5 198.4,447.2 105.4,407 35.1,344.2 20,312.8 12.5,282.6 13.7,252.4 23.8,221 27.5,213.5 27.5,223.5 
	27.5,252.4 52.7,292.6 80.3,322.8 130.6,355.5 190.9,378.1 228.6,388.1 257.5,394.4 "/>
<path d="M545.2,762c-1.3,0-2.6-0.8-3-2.2c-0.6-1.7,0.3-3.5,2-4.1l3-1l0.7-0.7c1.2-1.3,3.3-1.3,4.5,0c1.3,1.2,1.3,3.3,0,4.5l-1.2,1.3
	c-0.4,0.4-0.8,0.6-1.3,0.8l-3.8,1.3C545.9,761.9,545.5,762,545.2,762z M207.2,762c-0.5,0-1-0.1-1.4-0.3l-2.5-1.3
	c-0.3-0.2-0.6-0.4-0.8-0.6l-1.2-1.3c-1.2-1.3-1.2-3.3,0-4.5c1.3-1.2,3.3-1.2,4.5,0l0.9,0.9l2,1c1.6,0.8,2.2,2.7,1.4,4.3
	C209.5,761.3,208.4,762,207.2,762z M556.5,287c-0.8,0-1.6-0.3-2.3-0.9l-2.4-2.4L532.2,269l-14.8-7.4c-1.6-0.8-2.2-2.7-1.5-4.3
	c0.8-1.6,2.7-2.2,4.3-1.5l2.5,1.2l12.6,6.3c0.2,0.1,0.3,0.2,0.5,0.3l20.1,15.1c0.1,0.1,0.2,0.2,0.3,0.3l2.5,2.5
	c1.3,1.2,1.3,3.3,0,4.5C558.1,286.7,557.3,287,556.5,287z M197.1,287c-0.8,0-1.6-0.3-2.3-0.9c-1.3-1.3-1.2-3.3,0-4.5l6.3-6.3
	c0.1-0.1,0.2-0.2,0.3-0.3l10.1-7.5c0.2-0.1,0.3-0.2,0.5-0.3l12.5-6.2l11.2-6.2c1.5-0.9,3.5-0.3,4.4,1.2c0.9,1.5,0.3,3.5-1.2,4.4
	l-11.3,6.3c0,0-0.1,0-0.1,0.1l-12.3,6.2l-9.6,7.2l-6.1,6.1C198.8,286.7,198,287,197.1,287z"/>
<path d="M614.3,1004.9c-0.9,0-1.9-0.1-2.8-0.3c-1.1-0.2-2.1-0.6-3-1.1l-113.4-57.3l-11,4c-0.4,0.1-0.8,0.3-1.2,0.4l-15,3.7
	c0,0-0.1,0-0.1,0l-15.1,3.6l-15,3.7c-0.4,0.1-0.7,0.2-1.1,0.2l-16.3,2.5c-0.3,0-0.6,0.1-0.9,0.1l-32.7,2.5c-0.3,0-0.6,0-1,0h-16.3
	c-0.3,0-0.6,0-1,0l-32.7-2.5c-0.3,0-0.6-0.1-0.9-0.1l-16.3-2.5c-0.1,0-0.1,0-0.2,0l-15.1-2.5c-0.3-0.1-0.7-0.1-1-0.2l-15.1-3.8
	c-0.3-0.1-0.6-0.2-0.9-0.3l-15.1-5c-0.1,0-0.2-0.1-0.3-0.1l-11.5-4.2l-114.1,57.6c-0.9,0.5-1.9,0.9-3,1.1c-1.5,0.4-3,0.4-4.5,0.2
	c-1.8-0.2-3.5-0.9-4.9-1.8c-1.5-0.9-2.8-2.2-3.8-3.7c-0.8-1.2-1.4-2.6-1.7-4c-0.3-1.1-0.4-2.2-0.3-3.2l3.7-275.1l-7.4-3.2
	c-0.3-0.1-0.7-0.3-1-0.5l-16.4-8.8c-0.3-0.2-0.7-0.4-1-0.6l-15.1-10c-0.1-0.1-0.3-0.2-0.4-0.3l-13.8-10c-0.2-0.1-0.3-0.2-0.5-0.3
	l-12.6-10c-0.2-0.1-0.3-0.3-0.5-0.4l-11.3-10c-0.6-0.5-1.1-1.1-1.6-1.7l-8.8-11.3c-0.2-0.2-0.4-0.5-0.5-0.7l-7.5-11.3
	c-0.3-0.4-0.5-0.9-0.8-1.3l-6.3-12.6c-0.1-0.2-0.2-0.4-0.3-0.5l-5-11.3c-0.4-0.8-0.6-1.7-0.8-2.6l-2.5-12.7c-0.1-0.3-0.1-0.7-0.2-1
	l-1.2-11.3c-0.1-0.5-0.1-0.9-0.1-1.4V580c0-0.3,0-0.6,0-0.9V467.3c0-0.3,0-0.6,0-0.9v-1.6c0-0.1,0-0.2,0-0.3c0-0.3,0-0.6,0-0.9
	V334.3l-0.8-1.3c-0.3-0.6-0.6-1.2-0.9-1.8l-5-12.6c-0.1-0.3-0.3-0.7-0.4-1L4.3,305c-0.1-0.4-0.2-0.8-0.3-1.1l-2.5-12.6
	c-0.1-0.4-0.1-0.8-0.2-1.2l-1.3-12.6c0-0.4-0.1-0.8-0.1-1.2v-13.8c0-0.4,0-0.8,0.1-1.2l1.3-13.8c0.1-0.8,0.2-1.6,0.5-2.4l3.8-12.6
	c0.1-0.2,0.1-0.4,0.2-0.7l5-13.8c0.2-0.7,0.5-1.3,0.9-1.9l3.3-5.9v-16.8c0-0.3,0-0.6,0-0.9v-4.2c0-0.4,0-0.8,0.1-1.2l1.2-12.6
	c0.1-0.9,0.3-1.8,0.6-2.7l3.7-11.2l3.7-12.4c0.3-0.9,0.6-1.7,1-2.5l6.3-11.3c0.2-0.3,0.3-0.6,0.5-0.9l7.5-11.3
	c0.2-0.3,0.3-0.5,0.5-0.7l8.8-11.3c0.2-0.2,0.3-0.4,0.5-0.6l10-11.3c0.3-0.4,0.7-0.7,1.1-1.1l11.3-10c0.3-0.3,0.6-0.5,0.9-0.7
	l13.8-10.1l13.9-10c0.3-0.2,0.7-0.5,1-0.7l15.1-8.8c0.3-0.2,0.7-0.4,1.1-0.6l16.3-7.5c0.1,0,0.2-0.1,0.3-0.1l35.2-15.1
	c0.3-0.1,0.6-0.3,1-0.4l18.8-6.3c0.1,0,0.2-0.1,0.2-0.1l20.1-6.3c0.2-0.1,0.5-0.1,0.7-0.2l20.1-5c0.3-0.1,0.6-0.1,0.8-0.2L295.5,4
	c0.5-0.1,1-0.1,1.5-0.2L364.8,0c0.2,0,0.5,0,0.7,0h22.6c0.2,0,0.5,0,0.7,0L434,2.5c0.2,0,0.5,0,0.7,0.1l22.6,2.5c0,0,0.1,0,0.1,0
	l21.4,2.6c0.2,0,0.5,0.1,0.7,0.1l42.7,7.5c0.3,0.1,0.6,0.1,0.8,0.2l20.1,5c0.2,0.1,0.5,0.1,0.7,0.2l20.1,6.3c0.1,0,0.2,0,0.2,0.1
	l18.8,6.3c0.3,0.1,0.6,0.2,1,0.4l35.2,15.1c0.3,0.1,0.7,0.3,1,0.5l16.3,8.8c0.1,0.1,0.2,0.1,0.4,0.2L652,67c0.1,0.1,0.3,0.2,0.4,0.3
	l13.8,8.8c0.4,0.2,0.7,0.5,1.1,0.8l25.2,20.1c0.6,0.5,1.1,1,1.6,1.5l10,11.3c0.2,0.2,0.3,0.4,0.5,0.6l8.8,11.3
	c0.4,0.5,0.7,1,1.1,1.6l6.3,11.3l6.3,11.4c0.2,0.3,0.3,0.6,0.5,1l5,11.3c0.3,0.8,0.6,1.5,0.8,2.3l2.5,11.3c0.1,0.5,0.2,1,0.2,1.5
	l1.2,11.9l1.1,5.4c0.1,0.5,0.2,1,0.2,1.5c0,0.5,0.1,1,0.1,1.5v16.9l5,10c0.4,0.7,0.7,1.5,0.9,2.3l3.8,13.8c0.1,0.3,0.1,0.6,0.2,0.8
	l2.5,12.6l2.5,12.6c0.2,0.8,0.2,1.6,0.2,2.4v13.8c0,0.8-0.1,1.6-0.2,2.4l-2.5,12.5l-2.5,13.7c-0.1,0.8-0.4,1.6-0.7,2.4l-5,12.6
	c-0.1,0.2-0.2,0.4-0.2,0.5l-3.9,8.5v132c0,0.3,0,0.6,0,0.9c0,0.5,0,1,0,1.5c0.1,0.5,0.1,0.9,0.1,1.4v111.5c0,0.8,0,1.5-0.2,2.3
	c-0.1,0.8-0.3,1.5-0.6,2.3l-0.5,1.5v9.3c0,1.2-0.2,2.4-0.5,3.6l-3.8,12.6c0,0.1-0.1,0.2-0.1,0.4l-3.8,11.3c-0.2,0.6-0.4,1.1-0.7,1.6
	l-6.3,12.6c-0.4,0.7-0.8,1.4-1.3,2.1l-17.6,22.6c-0.5,0.6-1,1.2-1.6,1.7L679,682.6c-0.3,0.3-0.6,0.5-0.9,0.8l-13.8,10
	c-0.1,0.1-0.2,0.2-0.3,0.2l-15,10.2c-0.3,0.2-0.7,0.5-1.1,0.6l-16.3,8.8c-0.3,0.2-0.7,0.3-1,0.5l-7.4,3.2l3.7,275.2
	c0,1.1-0.1,2.2-0.3,3.2c-0.3,1.5-0.9,2.8-1.7,4c-1,1.5-2.3,2.8-3.8,3.7c-1.5,0.9-3.2,1.6-5,1.8
	C615.4,1004.9,614.8,1004.9,614.3,1004.9z M155.3,728.6l-3.2,243.5l88.3-44.6l-31.3-107.3c0-0.2-0.1-0.3-0.1-0.5
	c-0.1-0.2-0.1-0.4-0.1-0.6l-6.3-28.8c-0.2-0.7-0.2-1.4-0.3-2.2l-0.7-17.3c-4-1-7.3-4-8.7-7.8c-0.4-0.7-0.8-1.3-1.1-2
	c-0.6-1.4-0.9-3-0.9-4.6c0,0,0,0,0,0c0,0,0,0,0,0c0,0,0,0,0,0c0,0,0,0,0,0c0,0,0,0,0,0c0,0,0,0,0,0c0,0,0,0,0,0c0,0,0,0,0,0v-15.9
	l-31.4-9.8c-0.6-0.2-1.3-0.4-1.9-0.7L155.3,728.6z M512.1,926.9l89.4,45.2l-3.2-244l-3.9,1.8c-0.4,0.2-0.9,0.4-1.3,0.5l-18.8,6.3
	c-0.1,0-0.3,0.1-0.4,0.1l-11.6,3.4l-0.8,16.3v2.2c0,6-4.3,11.1-10,12.2l-1.4,17.6c0,0.6-0.1,1.1-0.2,1.7l-6.3,28.8
	c0,0.2-0.1,0.4-0.1,0.6c0,0.2-0.1,0.3-0.1,0.5L512.1,926.9z M369.8,942.1h15.4l31.7-2.4l15.3-2.4l14.5-3.6c0,0,0.1,0,0.1,0l15.1-3.6
	l14.3-3.6l10.6-3.8c0.2-0.2,0.5-0.4,0.7-0.6l31.7-108.6l6-27.6l2.4-31.6c0.1-1.3,0.3-2.5,0.8-3.7c0.1-0.2,0.2-0.4,0.3-0.6l-20.1,3.5
	l-22.4,4.9c-0.5,0.1-0.9,0.2-1.4,0.2l-71.6,7.5c-0.4,0-0.9,0.1-1.3,0.1h-71.6c-0.4,0-0.9,0-1.3-0.1l-47.7-5l-22.7-2.5
	c-0.4,0-0.9-0.1-1.3-0.2l-22.3-4.9l-20.1-3.4c0.1,0.3,0.3,0.7,0.4,1c0.4,1.2,0.6,2.4,0.6,3.6l1.2,31.3l6,27.4l31.4,107.7
	c0.2,0.1,0.3,0.2,0.5,0.3c0.1,0,0.3,0.1,0.4,0.1l13.7,4.9l14.5,4.8l14.1,3.5l14.5,2.4l15.8,2.4L369.8,942.1z M341,741.3h70.3
	l70.3-7.4l21.9-4.8c0.2,0,0.3-0.1,0.5-0.1l20.7-3.6l41.8-12.3l18-6l18.2-8.5c0.1-0.1,0.2-0.1,0.4-0.2l0.3-0.1
	c1.3-0.9,2.9-1.6,4.5-1.9l12.2-5.2l15.3-8.2l14.4-9.7l13.2-9.5l21.3-18.9l16.1-20.7l5.3-10.7l3.4-10.3l3.2-10.6v-9.5
	c0-1.4,0.2-2.7,0.7-4l0.6-1.8v-42.5l-10.4,13.3c-0.5,0.6-1,1.2-1.6,1.7l-22.6,20c-0.3,0.3-0.6,0.5-0.9,0.7l-13.8,10.1
	c-0.2,0.1-0.3,0.2-0.5,0.3l-15.1,10c-0.3,0.2-0.6,0.4-1,0.6l-16.3,8.8c-0.1,0.1-0.2,0.1-0.3,0.2l-17.6,8.8c-0.3,0.2-0.6,0.3-0.9,0.4
	l-18.8,7.5c-0.2,0.1-0.4,0.2-0.7,0.2l-18.8,6.3c-0.1,0-0.3,0.1-0.4,0.1l-42.7,12.6c-0.2,0.1-0.4,0.1-0.7,0.2l-21.4,5
	c-0.3,0.1-0.5,0.1-0.8,0.2l-22.6,3.8c-0.2,0-0.5,0.1-0.7,0.1l-71.6,7.5c-0.4,0-0.9,0.1-1.3,0.1h-71.6c-0.4,0-0.9,0-1.3-0.1l-47.7-5
	l-22.7-2.5c-0.2,0-0.4-0.1-0.7-0.1l-22.6-3.8c-0.2,0-0.4-0.1-0.6-0.1l-22.6-5c-0.3-0.1-0.6-0.1-0.8-0.2l-21.4-6.3
	c-0.1,0-0.1,0-0.2-0.1l-40.2-12.6c-0.4-0.1-0.9-0.3-1.3-0.5l-17.6-7.7c-0.2-0.1-0.4-0.2-0.6-0.3l-17.6-8.8c-0.1-0.1-0.2-0.1-0.3-0.2
	l-16.3-8.8c-0.3-0.2-0.7-0.4-1-0.6l-15.1-10c-0.2-0.1-0.3-0.2-0.4-0.3l-13.8-10.1c-0.1-0.1-0.3-0.2-0.4-0.3l-12.6-10
	c-0.2-0.1-0.3-0.3-0.5-0.4l-11.3-10c-0.6-0.5-1.1-1.1-1.6-1.7l-8.8-11.3c-0.1-0.1-0.2-0.3-0.3-0.4v42.2c0,0.3,0,0.6,0,0.9v3.1
	l1.1,10.1l2.1,10.8l4.3,9.8l5.8,11.6l6.9,10.3l7.8,10l10.2,9.1l12.1,9.6l13.4,9.7l14.4,9.6l15.4,8.3l12.1,5.2c1.7,0.3,3.2,1,4.6,2
	l0.4,0.2c0.2,0.1,0.4,0.2,0.7,0.3l16.7,8.3l38.2,12c0.6,0.1,1.2,0.3,1.8,0.5l19.7,5.8l21.8,3.6c0.2,0,0.4,0.1,0.6,0.1l22,4.9l22,2.4
	L341,741.3z M341.1,628.2h70.3l70.6-7.4l21.9-3.6l20.6-4.8l42.2-12.4l18.2-6.1l18-7.2l17-8.5l15.7-8.4l14.4-9.5l13.1-9.6l21.3-18.8
	l16.1-20.7l5.3-10.7l3.5-10.5l3.1-9.5v-10.6c0-1,0.1-2,0.4-3l0.9-3.6v-93.8l-20.2,20.2c-0.3,0.3-0.7,0.6-1,0.9l-12.6,10.1
	c-0.3,0.2-0.6,0.4-0.9,0.6l-15.1,10c-0.1,0.1-0.3,0.2-0.4,0.3l-16.3,10c-0.2,0.1-0.4,0.2-0.6,0.3l-16.3,8.8
	c-0.1,0.1-0.2,0.1-0.3,0.2l-17.6,8.8c-0.3,0.2-0.6,0.3-0.9,0.4l-18.8,7.5c-0.3,0.1-0.6,0.2-0.9,0.3l-40.2,12.6
	c-0.2,0.1-0.5,0.1-0.7,0.2l-20.1,5c-0.1,0-0.1,0-0.2,0l-21.4,5c-0.3,0.1-0.5,0.1-0.8,0.2l-22.5,3.8l-21.3,3.8
	c-0.3,0-0.5,0.1-0.8,0.1l-22.6,2.5c-0.2,0-0.5,0-0.7,0.1l-23.9,1.2l-22.6,1.3c-0.2,0-0.5,0-0.7,0h-46.5c-0.2,0-0.5,0-0.7,0
	l-22.6-1.3c-0.2,0-0.5,0-0.7-0.1l-45.2-5c-0.3,0-0.6-0.1-0.8-0.1l-21.4-3.8c-0.2,0-0.3-0.1-0.5-0.1l-22.6-5c-0.1,0-0.2,0-0.3-0.1
	l-20-5l-21.3-5c-0.5-0.1-1-0.3-1.5-0.5l-19.9-7.5l-18.6-6.2c-0.6-0.2-1.1-0.4-1.6-0.7l-35.2-17.6c-0.1-0.1-0.2-0.1-0.3-0.2L97,416.7
	c-0.3-0.2-0.7-0.4-1-0.6L80.9,406c-0.1-0.1-0.3-0.2-0.4-0.3l-13.8-10c-0.4-0.3-0.7-0.5-1-0.8l-12.6-11.3c-0.2-0.1-0.3-0.3-0.5-0.5
	l-11.3-11.3c-0.4-0.4-0.7-0.8-1-1.2l-0.3-0.4v93.2c0,0.1,0,0.2,0,0.3c0,0.3,0,0.6,0,0.9v4.4l1.1,11.2l2.1,9.4l4.4,9.9l5.8,11.6
	l6.9,10.3l7.8,10l10.2,9l12.1,9.6l13.4,9.7l14.4,9.5l15.7,8.4l17.1,8.6l16.7,7.3l39.5,12.3l20.9,6.2l21.9,4.8l22,3.7l22.3,2.5
	L341.1,628.2z M347,458.6h45.8l22.3-1.2l23.5-1.2l21.9-2.4l21-3.7c0,0,0.1,0,0.1,0l22.2-3.7l20.9-4.9l19.7-4.9l39.4-12.3l17.9-7.2
	l17-8.5l15.9-8.5l15.8-9.7l14.4-9.6l11.6-9.3l22.6-22.6l7.9-11.3l6.9-11.7l5.9-12.9l4.4-11.1l2.3-12.6c0-0.1,0-0.1,0-0.2l2.3-11.4
	v-11.4l-2.2-11.4l-2.4-12.1l-2-7.5c-4.9-1.7-8.3-6.3-8.3-11.8v-9.8c0-0.2,0-0.4,0-0.5v-18.6l-1-5c-0.1-0.4-0.1-0.8-0.2-1.2
	l-1.2-11.8l-2.1-9.4l-4.3-9.7l-11.8-21.3l-8-10.2l-9-10.2l-23.9-19l-13.1-8.3l-14.7-8.6l-15.7-8.4l-34.2-14.6l-18.2-6.1l-19.6-6.1
	l-19.3-4.8l-42-7.4l-21-2.5l-22.2-2.5l-44.5-2.4h-21.9l-66.8,3.7l-62.9,11.1l-19.3,4.8l-19.6,6.1L179,56.8l-34.6,14.8l-15.6,7.2
	l-14,8.2l-13.3,9.6l-13.3,9.7l-10.3,9.1l-9.3,10.4l-8.3,10.6l-7,10.5l-5.4,9.7L44.5,168c0,0.1-0.1,0.2-0.1,0.3l-3.3,10L40,189v4.4
	c0,0.3,0,0.6,0,0.9v18.4c0,0.6,0,1.2,0,1.8v9.2c0,5.7-3.8,10.5-9,12l-1.6,4.5l-3.3,11.1l-1.2,12v12.6l1.1,11.3l2.3,11.4l3.4,11.5
	l4.4,11.1l0.5,0.9c1.1,1.2,2,2.7,2.6,4.3l3.7,6.1l8.4,11.9l8.1,10.5L70,365.3l11.8,10.6l13.1,9.5l14.4,9.6l15.7,8.4l34.2,17.1l18,6
	c0.1,0,0.3,0.1,0.4,0.2L197,434l20.6,4.8c0.1,0,0.1,0,0.2,0l20,5l22.2,4.9l20.7,3.7l44.5,4.9L347,458.6z M392,330.2h-41.5
	c-0.5,0-1,0-1.5-0.1l-21-2.5l-19.8-1.2c-0.5,0-1-0.1-1.5-0.2l-40.2-7.5c0,0-0.1,0-0.1,0l-18.9-3.8c-0.5-0.1-1-0.2-1.5-0.4l-18.6-6.2
	l-17.3-4.9c-0.6-0.2-1.2-0.4-1.8-0.7l-16.1-7.4l-14.9-6.2c-0.7-0.3-1.3-0.6-1.9-1l-13.5-8.6l-13.5-7.3c-0.6-0.3-1.2-0.7-1.7-1.1
	l-11.3-8.8c-0.4-0.3-0.8-0.7-1.2-1.1l-10.1-10.2l-8.8-8.7c-0.4-0.4-0.8-0.9-1.1-1.3l-7.5-10c-0.5-0.6-0.9-1.3-1.2-2l-5-10.1
	c-0.1-0.2-0.2-0.3-0.2-0.5l-5-11.3c-0.5-1.1-0.8-2.3-1-3.5l-2.5-20c-0.2-1.3-0.1-2.7,0.1-3.9l1.2-10.5c0-0.1,0-0.1,0-0.2l1.2-10.1
	c0.2-1.4,0.6-2.8,1.2-4l4.9-9.7l4.9-11c0.5-1.1,1.1-2.1,1.9-3.1l7.5-8.8c0,0,0.1-0.1,0.1-0.1l8.8-10c0.4-0.4,0.7-0.8,1.2-1.1l10-8.8
	c0.2-0.2,0.4-0.3,0.6-0.5l11.3-8.8c0.3-0.2,0.6-0.5,1-0.7l13.8-8.8c0.2-0.1,0.5-0.3,0.7-0.4l13.8-7.5c0.1-0.1,0.3-0.1,0.4-0.2
	l15.1-7.5c0.4-0.2,0.7-0.3,1.1-0.5l16.3-6.3c0.1,0,0.2-0.1,0.3-0.1l17.6-6.3c0.3-0.1,0.7-0.2,1-0.3l37.7-10c0.3-0.1,0.6-0.1,0.9-0.2
	l20.1-3.7c0.2,0,0.5-0.1,0.7-0.1l40.2-5c0.3,0,0.5-0.1,0.8-0.1l42.7-2.5c0.2,0,0.5,0,0.7,0h20.1c0.2,0,0.5,0,0.7,0L414,34
	c0.2,0,0.5,0,0.7,0.1l21.4,2.5l40.3,5.1c0.5,0.1,1.1,0.2,1.6,0.3l37.7,10c0.1,0,0.1,0,0.2,0.1l17.6,5c0.3,0.1,0.5,0.2,0.8,0.3
	l17.6,6.3c0.3,0.1,0.7,0.3,1,0.4l16.3,7.5c0.3,0.1,0.5,0.2,0.7,0.4l13.8,7.5l13.9,7.7c0.4,0.2,0.7,0.4,1.1,0.7l12.6,8.8
	c0.2,0.1,0.3,0.2,0.5,0.4l11.3,8.8c0.6,0.5,1.2,1,1.7,1.6l17.6,20c0.4,0.5,0.9,1.1,1.2,1.6l6.3,10c0.2,0.3,0.4,0.7,0.6,1l5,10
	c0.4,0.8,0.7,1.7,0.9,2.6l2.5,10.1c0.1,0.5,0.2,1,0.3,1.5l1.2,10c0.1,0.5,0.1,1,0.1,1.5v11.5c0,0.5,0,1-0.1,1.5l-1.2,10
	c-0.1,0.5-0.2,1-0.3,1.5l-2.5,10.1c-0.2,0.7-0.4,1.4-0.7,2l-5,11.3c-0.2,0.5-0.5,1.1-0.8,1.6l-6.3,10c-0.5,0.8-1.1,1.5-1.7,2.2
	l-8.5,8.5l-8.5,9.7c-0.5,0.6-1.1,1.2-1.8,1.6l-11.3,8.7c-0.1,0.1-0.3,0.2-0.5,0.3l-12.6,8.8c-0.4,0.3-0.8,0.5-1.2,0.7L570,291
	c-0.2,0.1-0.5,0.3-0.8,0.4l-5.3,2.4c-1.4,1.1-3,1.8-4.7,2.2l-6.3,2.9c-0.3,0.2-0.7,0.3-1,0.4l-35.2,12.6c-0.6,0.2-1.2,0.4-1.7,0.5
	l-18.5,3.7L478,321c-0.5,0.1-1.1,0.2-1.6,0.3l-19.7,2.5l-19.7,3.7c-0.5,0.1-1,0.2-1.6,0.2l-42.7,2.5
	C392.4,330.2,392.2,330.2,392,330.2z M351.2,305.3h40.4l41.5-2.5l19.3-3.6c0.3,0,0.5-0.1,0.8-0.1l19.3-2.4l18-4.8
	c0.2-0.1,0.5-0.1,0.8-0.2l18-3.6L532,280l-4.4-2.9l-11.9-5.9c-0.4-0.2-0.8-0.4-1.2-0.7c-0.2-0.1-0.5-0.2-0.7-0.3l-11.3-5l-11.7-5.3
	c-1.2-0.2-2.3-0.5-3.4-1l-58-19.7c-6.5-2.2-10-9.3-7.8-15.8c2.2-6.5,9.3-10,15.8-7.8l57.4,19.5c1.4,0.1,2.8,0.5,4,1.1l13.8,6.3l9,4
	c2.5,0.3,5,1.5,7,3.4l10.8,5.4c0.5,0.2,0.9,0.5,1.3,0.8l11.3,7.5c0.7,0.5,1.3,1,1.9,1.6l4.1,4.1l0.3-0.2l26.6-14.5l11.8-8.2
	l10.2-7.8l8-9.1c0.2-0.2,0.4-0.4,0.5-0.6l7.8-7.8l5.1-8l4.2-9.5l2.1-8.3l1.1-8.5v-9.9l-1.1-8.5l-2-8l-4.1-8.2l-5.4-8.7L607,124.8
	l-10.1-7.9l-11.8-8.2l-13.3-7.4L558.4,94l-15.5-7.1l-16.7-6L509.2,76l-36.8-9.8l-39.3-4.9l-20.9-2.5l-20.6-1.2h-19.4l-41.9,2.5
	L290.8,65l-19.3,3.6l-36.8,9.7l-17,6.1l-15.6,6l-14.3,7.2l-13.3,7.2l-13,8.2l-10.6,8.2l-9.2,8l-8.2,9.3l-6.3,7.3l-4.3,9.6
	c-0.1,0.2-0.2,0.4-0.3,0.5l-4,8.1l-1,7.9l-1.1,10l2.1,16.6l4.1,9.4l4.4,8.8l6.3,8.4l8.2,8.2l9.6,9.7l9.9,7.7l12.9,7.1
	c0.2,0.1,0.5,0.3,0.7,0.4l12.9,8.2l6.3,2.6l19.9-13.2c0.2-0.1,0.3-0.2,0.5-0.3l12.6-7.5c0.3-0.2,0.5-0.3,0.8-0.5l2.5-1.3
	c0.5-0.2,1-0.5,1.5-0.6c0.8-0.5,1.6-0.9,2.4-1.2l13.5-4.9l7.5-3.2c0.6-0.3,1.2-0.6,1.9-0.8l59-20.1c6.5-2.2,13.6,1.3,15.8,7.8
	c2.2,6.5-1.3,13.6-7.8,15.8l-58,19.8c0,0-0.1,0-0.1,0l-8.8,3.8c-0.2,0.1-0.4,0.2-0.7,0.3l-11.4,4.1c-1.8,1.5-3.8,2.4-5.9,2.7
	l-11.7,7l-6,4l12.8,3.6c0.2,0.1,0.4,0.1,0.5,0.2l18.1,6l18.1,3.6l39.4,7.4l19.3,1.2c0.2,0,0.5,0,0.7,0.1L351.2,305.3z"/>
<path d="M407,655.9h-49c-0.3,0-0.6,0-0.9,0l-47.7-2.5c-0.7,0-1.3-0.1-2-0.2l-22.1-3.7l-23.3-2.5c-0.7-0.1-1.3-0.2-2-0.3l-22.6-5
	c-0.1,0-0.1,0-0.2,0l-42.7-10c-0.4-0.1-0.8-0.2-1.3-0.3L173,625c-0.4-0.1-0.9-0.3-1.3-0.5l-18.9-7.5l-18.9-7.7
	c-0.4-0.2-0.9-0.4-1.3-0.6l-17.6-8.8c-0.3-0.2-0.7-0.4-1-0.5L99,590.6c-0.3-0.2-0.6-0.4-0.9-0.5l-15.1-10c-0.2-0.1-0.4-0.3-0.6-0.4
	l-13.8-10c-0.5-0.3-0.9-0.7-1.3-1.1l-11.3-10c-0.3-0.2-0.5-0.5-0.8-0.8l-11.3-11.3c-0.5-0.5-1-1.1-1.5-1.7l-8.8-11.3
	c-0.3-0.3-0.5-0.7-0.8-1.1l-7.5-11.3c-0.6-0.9-1.1-1.7-1.5-2.7l-5-11.3c-0.3-0.7-0.6-1.4-0.8-2.1l-3.8-12.6
	c-0.1-0.4-0.2-0.8-0.3-1.2L11.4,480c-0.2-0.7-0.3-1.4-0.3-2.1l-1.3-12.6c-1-9.8,6.1-18.5,15.9-19.5c9.8-1,18.5,6.1,19.5,15.9
	l1.2,11.5l2.2,9.6l3.3,10.9l3.9,8.9l6.3,9.5l7.7,9.9L80,532.2l10.3,9.1l12.8,9.3l14.3,9.5l14.1,8.3l16.4,8.2l18.2,7.4l18.1,7.3
	l18.8,5.9l42,9.8l21.5,4.8l22.9,2.4c0.4,0,0.7,0.1,1.1,0.1l21.6,3.6l46.3,2.4h47.6l23-2.3c0.3,0,0.6-0.1,0.9-0.1l22.9-1.2l43.8-7.3
	l22-4.9l20.8-4.9l20.6-6l18-6l17.7-7.1l34-17l13.8-8l12.8-9.3l11.5-9.1l19.3-19.4l6-9l5.7-11.3l4.5-10.1l2.9-8.6l1-10.6
	c0.1-0.6,0.1-1.2,0.3-1.7l1.2-6.3c1.9-9.6,11.3-15.9,20.9-14c9.6,1.9,15.9,11.3,14,20.9l-1.1,5.4l-1.1,11.7
	c-0.1,1.3-0.4,2.6-0.8,3.9l-3.8,11.3c-0.2,0.5-0.4,1.1-0.6,1.6l-5,11.3c-0.1,0.3-0.2,0.5-0.4,0.8l-6.4,12.7
	c-0.3,0.6-0.7,1.3-1.1,1.9l-7.5,11.3c-0.6,1-1.4,1.9-2.2,2.7l-10,10.1l-11.4,11.3c-0.5,0.5-1,0.9-1.5,1.3l-12.6,10
	c-0.2,0.2-0.4,0.3-0.6,0.5l-13.8,10.1c-0.5,0.4-1,0.7-1.5,1l-15.1,8.8c-0.3,0.2-0.7,0.4-1,0.5l-35.2,17.6c-0.4,0.2-0.9,0.4-1.3,0.6
	l-18.8,7.5c-0.3,0.1-0.7,0.3-1,0.4l-18.8,6.3c-0.2,0.1-0.4,0.1-0.6,0.2l-21.4,6.3c-0.3,0.1-0.6,0.2-1,0.3l-21.4,5
	c-0.1,0-0.1,0-0.2,0l-22.6,5c-0.3,0.1-0.6,0.1-0.9,0.2l-45.2,7.5c-0.7,0.1-1.3,0.2-2,0.2l-23.4,1.2l-23.4,2.4
	C408.2,655.8,407.6,655.9,407,655.9z M409.5,422.3h-67.9c-0.7,0-1.4,0-2.1-0.1l-20.8-2.5l-22-1.2c-0.6,0-1.3-0.1-1.9-0.2l-22.6-3.8
	c-0.1,0-0.1,0-0.2,0l-21.4-3.8c-0.1,0-0.1,0-0.2,0l-20.1-3.8c-0.3,0-0.5-0.1-0.8-0.2l-21.4-5c-0.5-0.1-1.1-0.3-1.6-0.4l-37.7-12.6
	c-0.3-0.1-0.6-0.2-1-0.4l-18.8-7.5c-0.1-0.1-0.3-0.1-0.4-0.2l-17.6-7.5c-0.3-0.1-0.6-0.3-1-0.4l-15.1-7.5c-0.5-0.2-0.9-0.5-1.4-0.8
	l-16.3-10c-0.1,0-0.2-0.1-0.2-0.1l-13.8-8.8c-0.5-0.3-1.1-0.7-1.6-1.1l-12.6-10c-0.2-0.2-0.5-0.4-0.7-0.6l-11.3-10
	c-0.5-0.5-1-1-1.5-1.5l-10-11.3l-8.9-10.1c-0.5-0.6-1-1.2-1.4-1.9l-7.5-11.3c-0.4-0.6-0.8-1.3-1.1-1.9L20.4,273
	c-0.4-0.8-0.7-1.5-1-2.3L11.9,248c-0.4-1.2-0.7-2.5-0.8-3.8l-1.3-12.6c-0.1-0.6-0.1-1.2-0.1-1.8v-6.3c0-9.8,8-17.8,17.8-17.8
	s17.8,8,17.8,17.8v5.4l1,9.7l6.5,19.6l5.2,10.4l6.3,9.4l8,9.1l9.3,10.5l10.2,9l11.4,9.2l12.9,8.2l15.6,9.6l13.9,7l16.9,7.2l18.2,7.3
	l36.4,12.1l20.2,4.7l19.6,3.7l21.2,3.7l21.6,3.6l21.6,1.2c0.4,0,0.8,0.1,1.1,0.1l20.3,2.5h65.8l21.6-2.4c0.3,0,0.6-0.1,1-0.1
	l21.6-1.2l20.3-3.6c0.1,0,0.1,0,0.2,0l22.4-3.7l19.5-3.7l20.2-4.7l54.5-18.2l31.3-15.6l15-8.1l12.5-9.1l11.9-9.5l10.6-9.4l10.2-10.2
	l7.7-9.9l6.3-9.5l4.2-9.6l4.3-10.9l2-8.9l1.1-10.6v-4.1c0-9.8,8-17.8,17.8-17.8s17.8,8,17.8,17.8v5c0,0.6,0,1.2-0.1,1.8l-1.3,12.6
	c-0.1,0.7-0.2,1.3-0.3,2l-2.5,11.3c-0.2,0.9-0.5,1.8-0.8,2.7l-5,12.6c-0.1,0.2-0.2,0.4-0.3,0.6l-5,11.3c-0.4,0.9-0.9,1.8-1.5,2.7
	l-7.5,11.3c-0.2,0.4-0.5,0.7-0.8,1.1l-8.8,11.3c-0.5,0.6-0.9,1.1-1.5,1.7l-11.3,11.3c-0.2,0.2-0.5,0.5-0.8,0.7l-11.3,10
	c-0.2,0.2-0.5,0.4-0.7,0.6l-12.6,10.1c-0.2,0.2-0.4,0.3-0.6,0.5l-13.8,10c-0.6,0.5-1.3,0.9-2,1.3l-16.3,8.8
	c-0.2,0.1-0.3,0.2-0.5,0.3l-32.7,16.3c-0.8,0.4-1.5,0.7-2.3,1l-56.5,18.9c-0.5,0.2-1,0.3-1.6,0.4l-21.4,5c-0.3,0.1-0.5,0.1-0.8,0.2
	l-20.1,3.8c-0.1,0-0.2,0-0.4,0.1l-22.5,3.8l-21.3,3.8c-0.7,0.1-1.4,0.2-2.1,0.2l-22.1,1.2l-22.1,2.5
	C410.8,422.2,410.1,422.3,409.5,422.3z M304,251.4c-6.5,0-12.8-3.6-15.9-9.8c-4.4-8.8-0.9-19.5,7.9-23.9l2.5-1.3
	c0.6-0.3,1.1-0.5,1.7-0.8l20.1-7.5c0.9-0.3,1.8-0.6,2.8-0.8l12.4-2.5l11.1-2.5c0.7-0.2,1.4-0.3,2.1-0.3l12.6-1.3
	c0.6-0.1,1.2-0.1,1.8-0.1h26.4c0.6,0,1.2,0,1.8,0.1l12.6,1.3c0.6,0.1,1.1,0.1,1.7,0.3l12.6,2.5c0.1,0,0.2,0.1,0.4,0.1l11.3,2.5
	c0.6,0.1,1.2,0.3,1.8,0.5l11.3,3.8c0.5,0.2,0.9,0.3,1.4,0.5l6,2.6c8.4,1.4,14.8,8.7,14.8,17.6c0,9.8-8,17.8-17.8,17.8h-1.3
	c-2.4,0-4.8-0.5-7-1.4l-8.1-3.5l-9.7-3.2l-10.2-2.3l-11.5-2.3l-10.8-1.1h-24.6l-10.6,1.1l-10.3,2.3c-0.1,0-0.2,0.1-0.4,0.1
	l-11.2,2.2l-17.9,6.7l-1.7,0.8C309.4,250.8,306.6,251.4,304,251.4z"/>
<path d="M389.4,334.3H363c-0.6,0-1.2,0-1.8-0.1l-12.6-1.3c-0.7-0.1-1.4-0.2-2.1-0.3l-11.1-2.5l-12.4-2.5c-0.9-0.2-1.9-0.5-2.8-0.8
	l-20.1-7.5c-0.9-0.3-1.7-0.7-2.6-1.2l-8.8-5c-0.8-0.5-1.6-1-2.3-1.5l-6.3-5c-0.5-0.4-1-0.9-1.5-1.3l-6.3-6.3c-1-1-1.9-2.2-2.7-3.4
	l-3.8-6.3c-0.5-0.8-0.9-1.7-1.3-2.6l-2.5-6.3c-0.4-1-0.7-2-0.9-3.1l-1.2-5.9c-0.3-1.3-0.4-2.6-0.4-3.9c0-1.3,0.1-2.6,0.4-3.9
	l1.2-5.9c0.2-1.1,0.5-2.1,0.9-3.1l2.5-6.3c0.4-0.9,0.8-1.7,1.3-2.6l3.8-6.3c0.7-1.2,1.6-2.4,2.7-3.4l6.3-6.3c0.5-0.5,1-0.9,1.5-1.4
	l6.3-5c0.6-0.5,1.2-0.9,1.9-1.3l6.3-3.8c8.4-5.1,19.4-2.3,24.4,6.1c5.1,8.4,2.3,19.4-6.1,24.4l-5.3,3.2l-4.6,3.6l-4,4l-1.9,3.2
	l-1.4,3.4l-0.2,1.2l0.2,1.2l1.4,3.5l1.9,3.2l4,4l4.4,3.5l6.4,3.6l17.4,6.5l11.2,2.2c0.1,0,0.2,0.1,0.4,0.1l10.3,2.3l10.6,1.1h24.6
	l10.8-1.1l11.5-2.3l10.2-2.3l9.7-3.2l7.2-3.1l7.4-4.2l5.5-3.7l3.5-3.5l1.9-3.2l1.4-3.4l0.2-1.2l-0.2-1.2l-1.4-3.4l-1.9-3.2l-3.5-3.5
	l-13.6-9c-8.2-5.4-10.4-16.5-5-24.7c5.4-8.2,16.5-10.4,24.7-5l15.1,10c1,0.7,1.9,1.4,2.8,2.3l6.3,6.3c1,1,1.9,2.2,2.7,3.4l3.8,6.3
	c0.5,0.8,0.9,1.7,1.3,2.6l2.5,6.3c0.4,1,0.7,2,0.9,3.1l1.3,6.3c0.5,2.3,0.5,4.7,0,7l-1.3,6.3c-0.2,1.1-0.5,2.1-0.9,3.1l-2.5,6.3
	c-0.4,0.9-0.8,1.7-1.3,2.6l-3.8,6.3c-0.7,1.2-1.6,2.4-2.7,3.4l-6.3,6.3c-0.8,0.8-1.8,1.6-2.8,2.2l-7.5,5c-0.3,0.2-0.7,0.4-1,0.6
	l-8.8,5c-0.6,0.3-1.1,0.6-1.7,0.8l-8.8,3.8c-0.5,0.2-1,0.4-1.5,0.6l-11.3,3.8c-0.6,0.2-1.2,0.4-1.8,0.5l-11.3,2.5
	c-0.1,0-0.2,0.1-0.4,0.1l-12.6,2.5c-0.6,0.1-1.1,0.2-1.7,0.3l-12.6,1.3C390.6,334.3,390,334.3,389.4,334.3z"/>
</svg>
