<?xml version="1.0" encoding="utf-8"?>
<!-- Generator: Adobe Illustrator 23.0.2, SVG Export Plug-In . SVG Version: 6.00 Build 0)  -->
<svg version="1.1" id="Ebene_1" 	 viewBox="0 0 30 30" style="enable-background:new 0 0 30 30;" xml:space="preserve">
<title>Icons/cross</title>
<desc>Created with Sketch.</desc>
<g>
	<path id="XMLID_732_" d="M28.4,26.6c0.6,0.6,0.6,1.5,0,2.1c-0.3,0.3-0.7,0.4-1,0.4s-0.8-0.1-1-0.4L15,17.1L3.9,28.7
		c-0.3,0.3-0.7,0.4-1,0.4s-0.8-0.1-1-0.4c-0.6-0.6-0.6-1.5,0-2.1L12.9,15L1.8,3.8c-0.6-0.6-0.6-1.5,0-2.1s1.5-0.6,2.1,0L15,12.9
		L26.3,1.7c0.6-0.6,1.5-0.6,2.1,0s0.6,1.5,0,2.1L17.1,15L28.4,26.6z"/>
</g>
</svg>
