<?xml version="1.0" encoding="utf-8"?>
<!-- Generator: Adobe Illustrator 23.0.6, SVG Export Plug-In . SVG Version: 6.00 Build 0)  -->
<svg version="1.1" id="Ebene_1" 	 viewBox="0 0 415.1 1013.7" style="enable-background:new 0 0 415.1 1013.7;" xml:space="preserve">
<title>MT_ 18000420000-1 schwarz</title>
<path d="M207.6,765.8L207.6,765.8l-34.1-0.9l-33.2-2.5l-29.8-4.3L88.3,753l-19.7-6l-13.7-6l-12.2-6.1l-9-9.1l-5.3-8l-1.8-11
	l1.8-10.1l5.3-8l1.8,1.2l1.5-1.5l2,2l1.6,2.4l4.7,4.7l3.2,1.6l4.1,2.5l4.4,1.8l4,2.4l4.9,1.6l6.1,1.8l5.8,2.5l5.8,1.7l6.6,1.6
	l6.9,0.9l15.1,3.4l7.7,0.9l7.5,1.7l25.3,2.5l9.3,0.8l8.4,0.8l18.7,0l9.2,0.8h18.5l9.4-0.8h17.7l9.2-0.8l33.8-3.4l8.6-1.7l7.5-0.8
	l7.5-1.7l7-1.7l7.5-0.8l5.8-1.6l6.7-1.7l5.9-2.5l10-3.3l5.1-2.6l4-1.6l3.5-2.6l3.1-1.5l4.7-4.7l1.9-2.7l1.7-1.7l1.5,1.5l1.8-1.2
	l5.3,8l1.8,10.1l-1.8,10.9l-4.6,8.3l-10.8,9l-12.1,6.9l-14.6,6l-18,5.1l-25.5,5.1l-29,4.3l-31.5,2.5L207.6,765.8z M173.8,760.7
	l33.8,0.8l32.1-0.8l31.2-2.5l28.7-4.2l25.3-5.1l17.6-5l14.2-5.8l11.6-6.6l9.7-8.1l3.9-7l1.6-9.4l-1.6-8.5l-3.3-5l-1.6,2.3l-5.3,5.3
	l-3.5,1.8l-3.5,2.6l-4.4,1.8l-5.3,2.6l-10.1,3.4l-6.2,2.6l-6.8,1.7l-6.2,1.7l-7.5,0.8l-6.6,1.7l-7.9,1.7l-7.5,0.8l-8.6,1.7
	l-33.9,3.4l-9.5,0.9h-17.7l-9.4,0.8l-18.9,0l-9.2-0.8l-18.8,0l-8.5-0.8l-9.3-0.8l-25.7-2.6l-7.5-1.7l-7.7-0.9L96.1,720l-6.9-0.9
	l-6.8-1.7l-6.3-1.8l-5.8-2.5l-5.8-1.7l-5.4-1.8l-4.3-2.6l-4.4-1.8l-4.2-2.5l-3.6-1.8l-5.6-5.7l-1.3-2l-3.3,5l-1.6,8.5l1.6,9.3
	l4.7,7.1l8.1,8.1l11.5,5.7l13.4,5.9l19.3,5.9l21.9,5.1l29.5,4.2L173.8,760.7z M207.6,624.3L207.6,624.3l-33.2-0.8l-30.7-2.6
	l-28.8-4.2l-22.4-4.3l-18.8-6l-13-5.3l-11.3-7l-8.8-7.9L36,577l-1.8-10l1.9-10.1l5.3-8l1.8,1.2h2.2v1.3l0.6,1.9l3,4.5l2.5,1.7
	l2.3,2.3l3.4,1.7l3.2,2.4l4.1,1.7l5,2.5l4.1,1.6l23.6,6.8l6.7,1.7l7.5,1.7l7.8,0.9l7.5,1.7l7.5,0.8l8.4,0.8l7.7,0.9l8.5,0.8l9.2,0.8
	l8.6,0l8.4,0.8h44.7l9.4-0.9h8.4l33.8-3.4l7.5-0.8l7.8-1.7l7.5-0.8l20.2-5.1l11.8-3.4l9.9-3.3l4.3-2.6l4.1-1.6l4.1-2.5l2.4-1.6
	l3.2-2.4l1.4-1.4l3.1-4.7l0.6-1.9v-1.3h2.2l1.8-1.2l5.3,7.9l2.8,10.1l-1.9,10.2l-5.5,9.1l-9.1,8.1l-12.1,6.9l-14.6,6l-16.3,5.1
	l-25.4,5.1l-27.4,4.3l-30.5,1.7L207.6,624.3z M174.6,619.1l32.9,0.8l30.5-0.8l30.4-1.7l27-4.2l25.2-5l15.9-5l14.2-5.9l11.6-6.6
	l8.1-7.3l4.7-7.9l1.5-8.5l-2.3-8.5l-2.1-3.2l-3.7,5.5l-1.9,1.9l-3.5,2.6l-2.5,1.7l-4.6,2.8l-4.1,1.6l-4.3,2.6l-10.4,3.5l-12,3.4
	l-20.7,5.2l-7.5,0.8l-7.8,1.7l-7.6,0.9l-34.1,3.4H239l-9.4,0.9l-45.1,0l-8.4-0.8l-8.6,0l-9.3-0.8l-8.5-0.9l-7.7-0.9l-8.4-0.8
	l-7.9-0.9l-7.5-1.7l-7.8-0.9l-7.6-1.7l-6.8-1.7l-24-6.9l-4.4-1.8l-5-2.5l-4.4-1.8l-3.5-2.6l-3.5-1.8l-2.6-2.6l-2.7-1.8l-3.7-5.5
	l-2.1,3.1l-1.5,8.5l1.6,8.6l3.9,7.8l8,7.2l10.7,6.6l12.5,5l18.5,5.9l21.9,4.2l28.7,4.2L174.6,619.1z"/>
<path d="M371.2,551.7c-3.1,0-6.1-1.7-7.5-4.6l-5.9-11.9c-2.1-4.2-0.4-9.2,3.8-11.3c4.2-2.1,9.2-0.4,11.3,3.8l5.9,11.9
	c2.1,4.2,0.4,9.2-3.8,11.3C373.7,551.4,372.5,551.7,371.2,551.7z M43.1,551.7c-1.3,0-2.5-0.3-3.8-0.9c-4.2-2.1-5.8-7.1-3.8-11.3
	l5.9-11.9c2.1-4.2,7.1-5.8,11.3-3.8c4.2,2.1,5.8,7.1,3.8,11.3L50.6,547C49.2,550,46.2,551.7,43.1,551.7z"/>
<path d="M233,1013.6h-45.8c-0.3,0-0.6,0-0.9,0l-30.5-1.7c-0.3,0-0.7,0-1-0.1l-14.4-1.7c0,0-0.1,0-0.1,0l-27.1-3.4
	c-0.4-0.1-0.8-0.1-1.2-0.2l-12.7-2.5c-0.2,0-0.3-0.1-0.5-0.1l-11-2.5c-0.4-0.1-0.8-0.2-1.2-0.3l-10.7-3.3l-9.1-2.5
	c-0.6-0.2-1.2-0.4-1.8-0.6l-8.6-3.4c-0.4-0.2-0.9-0.4-1.3-0.6l-6.8-3.4c-0.8-0.4-1.5-0.8-2.3-1.4l-5.9-4.2c-0.2-0.2-0.5-0.4-0.7-0.5
	l-4.2-3.4c-1-0.8-1.9-1.7-2.6-2.6l-3.4-4.2c-1-1.3-1.9-2.7-2.5-4.2l-1.7-4.2c-0.8-2-1.2-4.1-1.2-6.3v-2.5c0-0.4,0-0.8,0-1.2V903
	c0-0.4,0-0.8,0-1.2v-4.2c0-2.1,0.4-4.3,1.2-6.3l1.7-4.2c0.5-1.4,1.3-2.7,2.2-3.8l2.3-3l1.5-2.2c0.9-1.4,2-2.6,3.3-3.6l1.9-1.7
	L37,872l-3.5-2.8c-2.3-1.8-4-4.2-5.1-6.9l-3.4-8.4c-0.6-1.6-1-3.2-1.2-4.9c-0.2-0.1-0.4-0.3-0.6-0.4l-5.9-4.2
	c-0.3-0.2-0.7-0.5-1-0.8l-5.1-4.2c-1.5-1.2-2.7-2.7-3.7-4.3l-5.1-8.5c-1.6-2.6-2.4-5.6-2.4-8.6v-1.2c0-0.4,0-0.9,0-1.3v-60.2
	c0-1.1,0.1-2.2,0.3-3.3l0.8-4.2c0.4-1.9,1.1-3.7,2.1-5.4l2.5-4.2c0.7-1.2,1.6-2.3,2.5-3.2l4.2-4.2c0.8-0.8,1.6-1.5,2.6-2.1l1.9-1.3
	c0,0,0,0,0-0.1l-2.5-5.1c-0.8-1.5-1.3-3.1-1.6-4.8l-0.9-5.1c-0.2-0.9-0.2-1.8-0.2-2.8v-5.9c0-1.8,0.3-3.6,0.9-5.3l1.7-5.1
	c0.3-0.8,0.6-1.5,0.9-2.2l2.5-5c0-0.1,0-0.1,0-0.2v-3.4c0-1.1,0.1-2.2,0.3-3.3l0.9-4.2c0.5-2.6,1.7-5.1,3.3-7.1l3.4-4.3
	c0.4-0.5,0.8-1,1.2-1.4l1.7-1.7c0.6-0.6,1.2-1.1,1.8-1.6c0.9-1.2,1.9-2.2,3-3.1l3.5-2.8l3.6-3.6c1.3-1.3,2.8-2.3,4.4-3.2l13.6-6.8
	c0.6-0.3,1.2-0.5,1.8-0.8l0.5-0.2l-7.5-3.4c-1-0.5-2-1-3-1.7l-5.7-4.1l-4.9-3.2c-0.9-0.6-1.8-1.3-2.6-2.1l-3.4-3.4
	c-1.6-1.6-2.9-3.5-3.7-5.6l-1.7-4.2c-0.4-1-0.7-2-0.9-3l-0.8-3.9c-0.1-0.6-0.2-1.3-0.3-2c-0.1-0.7-0.1-1.3-0.1-2v-8.5l-1.4-2.1
	c-0.6-1-1.2-2-1.6-3.1l-1.7-4.2c-0.5-1.2-0.8-2.5-1-3.9l-0.9-5.9c-0.1-0.8-0.2-1.6-0.2-2.4v-5.1c0-0.9,0.1-1.9,0.2-2.8l0.9-5.1
	c0.3-1.7,0.8-3.3,1.6-4.8l2.6-5.1c0.3-0.6,0.7-1.2,1-1.8l0.6-0.8v-0.8c0-5.2,2.3-9.8,6-12.9c0.3-4.2,2.1-8.4,5.5-11.5l8.5-7.6
	c0.9-0.8,1.8-1.5,2.8-2.1c0.8-0.7,1.6-1.4,2.5-2l5.1-3.4c0.6-0.4,1.2-0.7,1.8-1l6.8-3.4c0.2-0.1,0.5-0.2,0.7-0.3l2.8-1.3L66,495
	c-1.3-1.3-2.4-2.8-3.2-4.4l-1.7-3.4c-0.7-1.3-1.1-2.7-1.4-4.2l-0.9-4.2c-0.2-1.2-0.4-2.5-0.3-3.7v-4.5l-1.7-0.9
	c-0.8-0.4-1.5-0.9-2.2-1.5l-4.2-3.4c-1-0.8-1.8-1.7-2.6-2.6l-3.4-4.2c-0.7-0.9-1.4-1.9-1.9-3l-1.7-3.4c-0.6-1.1-1-2.3-1.3-3.4
	l-0.5-2c-0.6-1.7-0.9-3.5-0.9-5.4v-28c0-4.1,1.4-7.8,3.8-10.7c0.5-2.2,1.5-4.3,2.9-6.2l2.5-3.4c0.6-0.9,1.4-1.7,2.2-2.4l2-2
	c1.3-1.3,2.8-2.3,4.3-3.1l3.6-3c0.8-0.6,1.6-1.2,2.4-1.7l5.9-3.4c1-0.5,2-1,3-1.3l7.4-2.5l9.1-3.3c0.4-0.2,0.9-0.3,1.3-0.4l9.3-2.5
	c0.2-0.1,0.4-0.1,0.6-0.2l2.2-0.5V135.5c0-4.1,1.5-7.8,3.9-10.7c0.8-3.4,2.7-6.6,5.6-9l5.1-4.2c0.3-0.2,0.6-0.5,0.9-0.7
	c0.4-0.3,0.8-0.6,1.2-0.8l8.5-5.1c0.9-0.5,1.8-1,2.7-1.3l6.8-2.5c0.6-0.2,1.2-0.4,1.8-0.6l6.8-1.7c0.3-0.1,0.5-0.1,0.8-0.2l8.5-1.7
	c0.1,0,0.2,0,0.3-0.1l10.7-1.9v-2.7c0-2.6,0.6-5.1,1.7-7.3V23.6c0-3,0.8-5.9,2.2-8.3c0.8-1.9,2-3.7,3.6-5.3l0.9-0.9
	c1.8-1.8,3.9-3.1,6.2-3.9c1.6-1,3.3-1.7,5.1-2.2l3.4-0.8c0.4-0.1,0.8-0.2,1.3-0.3l5.1-0.9c0.1,0,0.3,0,0.4-0.1l5.9-0.9
	c0.8-0.1,1.6-0.2,2.4-0.2h11c0.9,0,1.9,0.1,2.8,0.2l5.1,0.9l0,0l5.1,0.9c0.4,0.1,0.8,0.2,1.3,0.3l3.4,0.8c1.9,0.5,3.7,1.3,5.3,2.3
	l2,1.3c1.1,0.7,2.2,1.5,3.1,2.5l0.8,0.9c1.5,1.5,2.7,3.3,3.5,5.1l0.1,0.2c1.4,2.5,2.2,5.3,2.2,8.3v60.6c1.6,2.6,2.6,5.6,2.6,8.9V95
	l1.2,0.2c0.2,0,0.3,0.1,0.5,0.1l17,3.4c0.1,0,0.2,0,0.3,0.1l7.6,1.7c1,0.2,2,0.6,3,1l5.9,2.5c0.3,0.1,0.6,0.3,0.9,0.4l5.1,2.5
	c0.9,0.5,1.8,1,2.6,1.6l0.8,0.6c1.9,0.8,3.7,2,5.3,3.6l4.2,4.2c2.3,2.3,3.8,5,4.5,7.9c2.4,2.9,3.9,6.7,3.9,10.7v230.7l2.3,0.5
	c0.1,0,0.2,0,0.3,0.1l10.2,2.5c0.7,0.2,1.5,0.4,2.2,0.7l8,3.2l7.2,2.4c0.7,0.2,1.5,0.6,2.2,0.9l6.8,3.4c1.2,0.6,2.3,1.3,3.3,2.1
	l3.5,2.9c1.6,0.8,3.1,1.9,4.4,3.2l2.5,2.5c1.8,1.8,3.1,3.9,3.9,6.1c1.1,1.6,1.8,3.4,2.3,5.3c2.4,2.9,3.8,6.6,3.8,10.7v28
	c0,0,0,0,0,0s0,0,0,0v3.4c0,2.6-0.6,5.2-1.8,7.5l-1.7,3.4c-0.5,1.1-1.2,2-1.9,3l-3.4,4.2c-0.8,1-1.7,1.9-2.6,2.6l-4.2,3.4
	c-0.7,0.5-1.4,1-2.2,1.5l-1.7,1v4.7c0,1.7-0.3,3.4-0.7,4.9l-0.5,2.6c-0.5,2.5-1.5,4.8-3,6.8l-2.5,3.4c-0.5,0.6-1,1.2-1.6,1.8
	l-2.8,2.8l2.9,1.3c0.2,0.1,0.5,0.2,0.7,0.3l6.8,3.4c0.3,0.1,0.6,0.3,0.8,0.4l5.9,3.4c1.3,0.7,2.5,1.7,3.5,2.7l2.8,2.8l7.6,6.8
	c3.5,3.1,5.3,7.3,5.6,11.6c3.6,3.1,5.9,7.7,5.9,12.8v0.1c0.6,0.8,1.1,1.7,1.6,2.6l2.5,5.1c0.8,1.5,1.3,3.1,1.6,4.8l0.8,5.1
	c0,0.1,0,0.3,0.1,0.4l0.9,5.9c0.2,1.7,0.2,3.5-0.1,5.2l-0.9,5.1c-0.3,1.7-0.8,3.3-1.6,4.8l-2.5,5.1c-0.2,0.4-0.4,0.7-0.6,1.1
	l-1.8,3.1v12.9c0,3.1-0.8,6.1-2.4,8.7l-2.6,4.2c-0.7,1.2-1.6,2.3-2.5,3.2l-3.4,3.4c-0.8,0.8-1.6,1.5-2.6,2.1l-4.9,3.2l-5.7,4.1
	c-0.9,0.7-1.9,1.2-3,1.7l-7.5,3.3l1.1,0.4c0.2,0.1,0.4,0.2,0.6,0.2l7.6,3.4c0.5,0.2,1,0.5,1.5,0.8l5.9,3.4c0.9,0.5,1.7,1,2.4,1.7
	l5.1,4.2c0.4,0.3,0.8,0.7,1.1,1l3.4,3.4c0.5,0.5,1.1,1.1,1.5,1.7l1.9,1.2c2.1,1.4,3.8,3.2,5.1,5.3l2.5,4.2c0.5,0.8,0.9,1.6,1.2,2.4
	l1.7,4.2c0.8,2,1.2,4.1,1.2,6.2v3.4c0,0.6,0,1.2-0.1,1.8l0,0l2.6,5.1c0.7,1.5,1.3,3.1,1.5,4.7l0.8,5.1c0.2,0.9,0.2,1.8,0.2,2.8v5.9
	c0,0.9-0.1,1.9-0.2,2.8l-0.8,5.1c-0.3,2.1-1.1,4.1-2.2,5.9l-1.3,2.2l2.1,1.4c1.4,1,2.7,2.1,3.8,3.5l3.4,4.2c0.5,0.6,0.9,1.2,1.3,1.9
	l2.5,4.2c1,1.6,1.7,3.5,2.1,5.3l0.1,0.5c1.2,2.3,1.9,5,1.9,7.9V815c0,1,0,2-0.2,3.1c-0.2,1-0.4,2-0.8,3l-0.7,2.2
	c-0.1,0.3-0.2,0.7-0.4,1l-1.7,4.2c-0.6,1.5-1.4,3-2.5,4.2l-3.4,4.2c-0.4,0.5-0.8,1-1.2,1.4l-4.2,4.2c-0.7,0.7-1.4,1.3-2.1,1.8
	l-5.9,4.2c-0.5,0.3-0.9,0.6-1.4,0.9c0,2.1-0.4,4.2-1.2,6.1l-1.7,4.2c-0.3,0.8-0.7,1.6-1.2,2.4l-2.5,4.2c-1,1.6-2.2,3.1-3.7,4.3
	l-3.1,2.6l1.9,1.7c0.5,0.5,1,0.9,1.4,1.5c0.4,0.4,0.8,0.9,1.2,1.4l3.4,4.2c1,1.3,1.9,2.7,2.5,4.2l1.7,4.2c0.8,2,1.2,4.1,1.2,6.3v1.4
	c0,0.4,0,0.8,0,1.2v54.2c0,0.2,0,0.4,0,0.6v1.1c0,1.1-0.1,2.2-0.3,3.3l-0.9,4.2c-0.5,2.5-1.5,4.8-3,6.8l-2.5,3.4
	c-0.5,0.6-1,1.2-1.6,1.8L378,979c-0.8,0.8-1.6,1.5-2.6,2.1l-5.1,3.4c-0.6,0.4-1.2,0.7-1.8,1l-6.8,3.4c-0.2,0.1-0.5,0.2-0.7,0.3
	l-7.7,3.4c-0.3,0.2-0.7,0.3-1.1,0.4l-9.3,3.4c-0.1,0.1-0.3,0.1-0.4,0.2l-10.2,3.4c-0.5,0.2-1,0.3-1.5,0.4l-11,2.6
	c-0.2,0-0.3,0.1-0.5,0.1l-12.7,2.5c-0.4,0.1-0.7,0.1-1.1,0.2l-12.3,1.6l-13.1,2.5c-0.7,0.1-1.4,0.2-2.1,0.3l-13.9,0.8l-13.9,1.6
	c-0.3,0-0.7,0.1-1,0.1l-15.3,0.9C233.6,1013.6,233.3,1013.6,233,1013.6z M187.7,980h44.8l14.3-0.8l13.9-1.6c0.3,0,0.6-0.1,1-0.1
	l13.4-0.8l12.5-2.3c0.3-0.1,0.6-0.1,0.9-0.1l12.2-1.6l11.9-2.4l10-2.3l9.2-3.1l8.6-3.1l6.8-3l5.5-2.7l2.8-1.9l1.5-1.5v-15.7
	l-3.5,1.6c-0.4,0.2-0.7,0.3-1.1,0.4l-9.3,3.4c-0.6,0.2-1.1,0.4-1.7,0.5l-10.2,2.5c-0.1,0-0.2,0-0.3,0.1l-11,2.5
	c-0.2,0-0.3,0.1-0.5,0.1l-25.4,5.1c-0.4,0.1-0.8,0.1-1.2,0.2l-13.6,1.7c0,0-0.1,0-0.1,0l-14.4,1.7c-0.3,0-0.6,0.1-1,0.1l-14.4,0.9
	l-30.6,1.7c-0.3,0-0.6,0-0.9,0h-15.3c-0.3,0-0.6,0-0.9,0l-45.8-2.5l-14.5-0.9c-0.4,0-0.7-0.1-1.1-0.1l-13.6-1.7
	c-0.3,0-0.7-0.1-1-0.2l-13.6-2.6c-0.1,0-0.1,0-0.2,0l-12.7-2.5c-0.2,0-0.3-0.1-0.5-0.1l-22-5.1c-0.7-0.2-1.3-0.3-1.9-0.6l-9.3-3.4
	c-0.2-0.1-0.3-0.1-0.5-0.2l-7.5-3v15.8l0.2,0.2l2.4,1.9l4.5,3.2l4.9,2.5l7,2.8l8.4,2.3c0.2,0,0.4,0.1,0.5,0.2l10.4,3.2L106,971
	l11.9,2.4l26.4,3.3l13.8,1.6L187.7,980z M202.9,925.7h14.3l30-1.7l13.9-0.8l13.8-1.6l12.9-1.6l24.6-4.9l10.6-2.5l9.2-2.3l7.9-2.9
	l6.7-3l4.7-2.3l3.6-3c0.1,0,0.1-0.1,0.2-0.1l-9.9-8.9l-2.9,1.2c-0.6,0.2-1.2,0.4-1.8,0.6l-9.3,2.5c-0.1,0-0.3,0.1-0.4,0.1
	c-0.9,0.4-1.8,0.7-2.8,0.9l-11,2.6c-0.1,0-0.2,0-0.3,0.1l-11.9,2.5c-0.4,0.1-0.9,0.2-1.3,0.2l-12.7,1.7c0,0-0.1,0-0.1,0l-27.1,3.4
	c-0.4,0-0.7,0.1-1.1,0.1l-44.1,2.5c-0.3,0-0.7,0-1,0h-30.6c-0.3,0-0.7,0-1,0l-28.8-1.7c-0.3,0-0.6,0-1-0.1L142,905c0,0-0.1,0-0.1,0
	l-13.6-1.7c0,0-0.1,0-0.1,0l-12.7-1.7c-0.4,0-0.7-0.1-1.1-0.2l-10.9-2.2c-1.4,0-2.8-0.1-4.3-0.5l-10.2-2.5c-0.1,0-0.2-0.1-0.4-0.1
	l-9.3-2.5c-0.4-0.1-0.9-0.3-1.3-0.4l-9.1-3.3l-9.7,8.8L59,899l1.2,1.2l3.6,2l5.7,2.9l7.7,3l8.1,3l20.8,4.8l12.4,2.5l13,2.4l12.5,1.6
	l44.3,2.5L202.9,925.7z M199.5,847.7h15.2l32.7-1.7l14.8-0.8l15.6-1.7l28.2-3.3l12.9-2.4l12-2.4l11.2-3.2c0.2,0,0.4-0.1,0.5-0.1
	l9-2.2l9-3.8c0.1,0,0.1-0.1,0.2-0.1l7.8-3.1l5-2.5l3.7-2.7l2.6-2.6l1.3-1.6l0.4-1v-17.1l-8.3,3.3c-0.3,0.1-0.6,0.2-0.9,0.3
	l-20.4,6.8c-0.2,0.1-0.4,0.1-0.7,0.2l-11.9,3.4c-0.4,0.1-0.9,0.2-1.3,0.3l-12.7,2.5c-0.1,0-0.1,0-0.2,0l-13.6,2.6
	c-0.4,0.1-0.8,0.1-1.1,0.2l-28.8,3.4c-0.1,0-0.1,0-0.2,0l-16.1,1.7c-0.3,0-0.6,0.1-0.8,0.1l-31.4,1.7c-0.3,0-0.6,0-0.9,0H183
	c-0.3,0-0.6,0-0.9,0l-32.2-1.7c-0.3,0-0.7,0-1-0.1l-30.5-3.4l-14.5-1.7c-0.5-0.1-0.9-0.1-1.3-0.2l-25.4-5.1
	c-0.4-0.1-0.9-0.2-1.3-0.3L64,806.2c-0.1,0-0.2-0.1-0.3-0.1l-11-3.4c-0.3-0.1-0.5-0.2-0.8-0.3l-9.3-3.4c-0.1-0.1-0.3-0.1-0.4-0.2
	l-8.4-3.3v17.7l1.3,2.1l2.4,2l4.3,3.1l5,2.5l7.8,3.1c0.2,0.1,0.5,0.2,0.7,0.3l7.8,3.5l9.4,2.2c0.3,0.1,0.5,0.1,0.8,0.2l11.2,3.2
	l24.1,4.9l13.7,1.6l30,3.3L199.5,847.7z M198.7,746.9h14.3l13.9-0.8c0.3,0,0.7,0,1,0h13.9l13.4-0.8l26.5-3.3l12.2-1.6l12.4-2.5
	l-8.3,1l-13.7,1.7l-28.9,3.4c-0.3,0-0.7,0.1-1,0.1l-30.5,1.7c-0.3,0-0.6,0-0.9,0h-31.4c-0.3,0-0.6,0-0.9,0L160,744
	c-0.3,0-0.7,0-1-0.1l-28.9-3.4l-13.6-1.7c-0.1,0-0.1,0-0.2,0l-12.7-1.7c-0.4,0-0.7-0.1-1.1-0.2l-7.1-1.4l0.1,0l9.8,2.3l11.9,1.6
	c0.4,0,0.7,0.1,1.1,0.2l12.1,2.4l12.4,1.6l13,0.8L198.7,746.9z M192.8,702.8h29.6l12.5-0.7v-13.5c0-0.3,0-0.5,0-0.8v-28.5h-54.5
	v28.5c0,0.3,0,0.5,0,0.8v13.5L192.8,702.8z M297.7,658c2.4,2.9,3.9,6.7,3.9,10.7v3.4c0,3.3-1,6.6-2.8,9.4L297,684
	c-0.6,0.9-1.3,1.8-2.1,2.5l-3.4,3.4c-1,1-2.1,1.8-3.3,2.6L284,695c-0.4,0.2-0.7,0.4-1.1,0.6l-5.1,2.5c-0.7,0.4-1.4,0.7-2.2,0.9
	l-0.1,0l3.7-0.4l12.9-1.6l12-2.4l11.5-2.5l9.3-2.3l9.1-3l7.7-3.1l6.6-2.9l4.7-2.7l1.7-1.1l-2.4-2l-3.9-2.2l-6.6-2.9l-7.1-2.9
	l-9.1-2.3c-0.4-0.1-0.8-0.2-1.2-0.4l-9.3-3.1l-10.5-2.2L297.7,658z M123,697.1l15.4,1.9c-0.7-0.2-1.3-0.5-1.9-0.8l-5.1-2.5
	c-0.4-0.2-0.8-0.4-1.1-0.6l-4.2-2.5c-1.2-0.7-2.3-1.6-3.3-2.6l-2.5-2.5c-1.3-1.3-2.3-2.7-3.1-4.3l-1.7-3.4c-0.4-0.7-0.7-1.5-0.9-2.3
	l-0.8-2.5c-0.6-1.7-0.9-3.5-0.9-5.3v-0.8c0-4,1.4-7.7,3.8-10.6l-5.9,0.9l-10.7,2.3l-10.3,3.2c-0.2,0.1-0.3,0.1-0.5,0.2l-8.7,2.4
	l-7.8,2.8l-10.3,5.1l-2.2,2.2l1.4,1.1l11.1,5.5l16.8,6.1l9.9,2.3l11.6,2.5L123,697.1z M146,665.2l0.6,0.4v-8.9l-6.1-0.7
	C143.3,658.3,145.3,661.6,146,665.2z M268.5,656.7v7.6c0.9-3.3,2.7-6.1,5.2-8.3l-4.7,0.6c0,0-0.1,0-0.1,0L268.5,656.7z M192.8,557.8
	h28.7l13.2-0.8v-49.4c0-4.6,1.8-8.7,4.7-11.7l-8.9,0.5l-15.3,0.9c-0.3,0-0.6,0-0.9,0h-14.4c-0.3,0-0.7,0-1,0l-23.3-1.4
	c3.2,3.3,5,7.9,4.7,12.8c0,0.3-0.1,0.7-0.1,1v41.4c0,0.5,0.1,1,0.1,1.4s0,1-0.1,1.4v3.1L192.8,557.8z M268.4,537.7l5.1,0.7
	c7.4,1.1,13,6.8,14.2,13.8l0.9-0.1l11.1-2.4l10.7-2.5l9.2-2.3l7.9-2.9l6.8-3l6-3l3-1.7l-3-1.7l-6-3l-6.1-2.7l-8.1-2.2
	c-0.3-0.1-0.6-0.2-0.9-0.3l-9.5-3.1l-9.2-2.1l-5.1-0.5l-4.2,1c-0.5,0.1-1,0.2-1.5,0.3l-11,1.7c-0.1,0-0.2,0-0.3,0l-10.1,1.3V537.7z
	 M126.4,552.1l0.2,0c1.2-7,6.8-12.6,14.2-13.7l5.8-0.8v-14.4l-10.1-1.4c-0.1,0-0.1,0-0.2,0l-11-1.7c-0.4-0.1-0.8-0.1-1.2-0.2
	l-4.9-1.1l-5.5,0.6l-9.2,2.1l-9.4,3.1c-0.3,0.1-0.6,0.2-0.9,0.3l-8.1,2.2l-6.1,2.7l-5.5,2.8l-2.9,2l2.9,1.9l5.5,2.8l6.7,3l7.9,2.9
	l9.2,2.3l10.6,2.5L126.4,552.1z M187,422.2h11.3c0.4,0,0.7,0,1.1,0l11.6,0.8l10.7-0.8c0.4,0,0.8,0,1.2,0h11.4l10.6-0.8l10.3-1.6
	c0.4-0.1,0.8-0.1,1.3-0.1l10.1-0.8l7.8-1.4l6.2-1.7c-0.4-1.5-0.7-3.1-0.7-4.8V160.1l-3.5,1.3c-0.9,0.3-1.7,0.6-2.6,0.7l-16.9,3.4
	c-0.1,0-0.2,0-0.3,0.1l-9.3,1.7c-0.5,0.1-1.1,0.2-1.6,0.2l-20.3,1.7c-0.5,0-0.9,0.1-1.4,0.1h-32.2c-0.4,0-0.9,0-1.3-0.1l-11-0.9
	c0,0-0.1,0-0.1,0l-10.2-0.9c-0.5,0-1.1-0.1-1.6-0.2l-9.3-1.7c-0.1,0-0.2,0-0.3-0.1l-8.5-1.7c-0.1,0-0.2,0-0.3-0.1l-7.6-1.7
	c-0.8-0.2-1.5-0.4-2.3-0.7l-4.4-1.7V411c0,1.8-0.3,3.5-0.8,5l2.1,0.6l7.8,1.4l9.4,0.8c0.4,0,0.8,0.1,1.2,0.1l10.3,1.6L187,422.2z
	 M199.8,83.1h2.7c0.7,0,1.4,0,2.1,0.1l4.5,0.6l5.3-0.8V46.3h-14.7V83.1z"/>
</svg>
