<?xml version="1.0" encoding="UTF-8"?>
<svg width="19px" height="20px" viewBox="0 0 19 20" version="1.1" xmlns="http://www.w3.org/2000/svg" xmlns:xlink="http://www.w3.org/1999/xlink">
    <title>Icons/doc</title>
    <g>
        <path d="M18.4782609,7.95652173 C18.7826087,8.26086956 18.7826087,8.73913043 18.4782609,9.04347826 L9.82608696,17.6739131 C8.39130434,19.1304348 6.76086955,19.8913044 5.19565216,19.8913044 C4.80434781,19.8913044 4.41304346,19.8478261 4.02173911,19.7391305 C2.49999997,19.326087 1.32608693,18.1521739 0.913043448,16.5652174 C0.391304316,14.6086957 1.08695649,12.4782609 2.84782606,10.7173913 L12.5,1.08695649 C14.0652174,-0.478260904 16.2391305,0.0217390972 17.5,1.28260867 C19.2173913,2.99999998 18.7391305,5.02173911 17.5869565,6.17391303 L7.86956521,15.8695652 C6.58695651,17.1521739 5.13043477,17.0652174 4.39130433,16.3043478 C3.65217389,15.5434783 3.56521737,14.1304348 4.84782607,12.826087 L11.4130435,6.26086955 C11.7173913,5.95652173 12.1956522,5.95652173 12.5,6.26086955 C12.8043478,6.56521738 12.8043478,7.04347825 12.5,7.34782608 L5.89130433,13.9130435 C5.32608694,14.4782609 5.23913042,15.0217391 5.43478259,15.2391305 C5.6521739,15.4565218 6.19565216,15.3695652 6.76086955,14.8043478 L16.4782609,5.08695651 C17.4565218,4.10869563 17.0434783,2.99999998 16.3913044,2.34782606 C15.6521739,1.60869562 14.4565218,1.23913041 13.5434783,2.17391302 L3.93478259,11.8043478 C2.56521737,13.1739131 1.99999997,14.7608696 2.39130432,16.1739131 C2.67391302,17.2173913 3.43478259,18 4.43478259,18.2608696 C5.78260868,18.6304348 7.32608695,18.0217392 8.76086956,16.5869565 L17.4130435,7.9347826 C17.6956522,7.67391304 18.1739131,7.67391304 18.4782609,7.95652173 L18.4782609,7.95652173 Z" id="XMLID_228_"></path>
    </g>
</svg>
