<?xml version="1.0" encoding="utf-8"?>
<!-- Generator: Adobe Illustrator 23.0.6, SVG Export Plug-In . SVG Version: 6.00 Build 0)  -->
<svg version="1.1" id="Schläuche" 	 viewBox="0 0 998.1 758.1" style="enable-background:new 0 0 998.1 758.1;" xml:space="preserve">
<title>Schläuche</title>
<path d="M85.3,482.9l-10.2-28.8l-8.3-28.7l-4.7-25.7l-2.8-25.3l-0.9-24.7l18.1-0.7l0.9,24.3l2.7,24l4.4,23.9l8,27.6l9.9,28
	L85.3,482.9z M152,455.8l-7.5-19.9l-5.6-19.6l-4.6-19.6l-2.8-23.7l-1.8-22.8l18-1.4l1.8,22.6l2.6,22.1l4.4,18.5l5.3,18.6l7.2,18.8
	L152,455.8z M905.1,380.3h-20.9l-10.4-2.1l-4.3-1.1l-6-2.4l-3.1-2l-3.7-1.8l-3.2-2.1l10-15.1l2.3,1.5l3.6,1.8l2.4,1.6l3.1,1.3
	l2.8,0.7l8,1.6h17.4l3.5-0.7l3.9-1l3.4-0.7l5.7-2.9l5.1-3.4l10,15.1l-5.9,4l-8.9,4.4l-5.5,1.1l-3.9,1L905.1,380.3z M108.4,269H97.6
	l-15-3l-3.4-0.9l-6.1-1.2l-3.7-2.5l-3.6-1.8l-3.2-2.1l10.1-15.1l2.3,1.5l3.7,1.8l1.7,1.1l3.2,0.7l3.5,0.9l12.6,2.5h7.5l4.6-0.8
	l4.2-0.8l3.9-1l4.4-0.9l2.5-0.6l2.3-1.1l5-3.3l10.1,15.1l-5.9,4l-5,2.5l-5,1.2l-4.3,0.9l-3.9,1l-4.8,1L108.4,269z"/>
<path d="M534.6,758.2c-0.6,0-1.1-0.1-1.7-0.2l-76.8-6.3c-1.1,0.1-2.1,0-3.2-0.3l-30.4-2.5c-1-0.1-1.9-0.3-2.7-0.7l-23.3-7.5
	c-1.6,0-3.1-0.5-4.5-1.4c-0.3-0.1-0.6-0.2-0.9-0.4l-31-10c-1.7,0-3.4-0.6-4.9-1.6L323.4,717c-2.5,0.1-4.9-0.7-6.8-2.6l-60-31.8
	c-0.9-0.3-1.7-0.8-2.4-1.5l-86.5-72.9c-0.3-0.2-0.6-0.5-0.8-0.7c-0.3-0.3-0.5-0.5-0.7-0.8l-44.5-56.3c-0.2-0.3-0.4-0.5-0.6-0.8
	c-0.2-0.3-0.3-0.6-0.5-0.8l-34.6-64.6c-0.5-1-0.8-2-1-3c-1.7-3.4-1.1-7.6,1.7-10.5c3.5-3.5,9.3-3.5,12.8,0l4.4,4.4l11.7-11.9l-36-36
	c-3.5,2.2-8.2,1.8-11.2-1.2c-3.1-3.1-3.5-7.8-1.3-11.3l-0.6-0.6c-3.5-3.5-3.5-9.3,0-12.8c3.5-3.5,9.3-3.5,12.8,0l24.7,24.7
	l11.5-11.3l-36.2-36.2l-4.6,4.6c-3.5,3.5-9.3,3.5-12.8,0c-3.5-3.5-3.5-9.3,0-12.8l4.6-4.6l-5.5-5.5c-2.4-2.4-3.1-5.7-2.4-8.7
	c-0.2-0.7-0.3-1.5-0.3-2.3v-20c0,0,0-0.1,0-0.1v-23.7c0,0,0,0,0-0.1v-25.5c0,0,0,0,0,0v-23.7c0,0,0,0,0-0.1v-6.4c0-5,4.1-9,9-9
	s9,4.1,9,9v2.6l9.1,9.1c0,0,0.1,0.1,0.1,0.1c0,0,0.1,0.1,0.1,0.1l18.1,18.1l11.8-11.8l-3.6-3.6c-3.5-3.5-3.5-9.3,0-12.8
	s9.3-3.5,12.8,0l3.6,3.6l1-1v-4.5c0-5,4.1-9,9-9s9,4.1,9,9v7.2c0.1,0.6,0.1,1.3,0,1.9v47.4c0,0,0,0,0,0v42.9c0,0.4,0,0.9-0.1,1.3
	c1.8,3.4,1.2,7.7-1.6,10.5l-10.5,10.5c-0.1,0.2-0.3,0.3-0.4,0.5c-0.2,0.2-0.4,0.4-0.6,0.5l-17.7,17.7l11.7,11.7l9.3-9.1
	c3.6-3.5,9.3-3.4,12.8,0.1c3.5,3.6,3.4,9.3-0.1,12.8l-14.2,13.9c-0.4,0.6-0.8,1.1-1.3,1.6c-0.5,0.5-1.1,1-1.7,1.4l-16.4,16.1
	l11.5,11.5l19.4-19.7c3.5-3.6,9.2-3.6,12.8-0.1c1.8,1.8,2.7,4.1,2.7,6.4l0.1,0.1c2.2,2.2,3,5.3,2.5,8.1c1,0.7,1.9,1.7,2.6,2.8
	l42.2,72.8l1.2,1.1c0.9,0.4,1.8,1,2.6,1.8c0.7,0.7,1.2,1.4,1.6,2.2l72.2,68.9l27.5,15.8c1.7,0.3,3.3,1.2,4.6,2.5
	c0.1,0.1,0.2,0.2,0.3,0.4l27.5,15.8c0.8,0.3,1.7,0.8,2.4,1.4l8.8,5.1l60.7,17c0.2,0,0.4,0.1,0.6,0.2l34.5,9.6
	c2.3-0.3,4.7,0.3,6.7,1.9l3.1,0.9l17.7,0.4c1.9-0.6,4-0.6,5.9,0.1l61.8,1.3l26.2-5c0.8-0.3,1.6-0.4,2.4-0.5l27-5.2
	c1.8-1,3.8-1.4,5.7-1.1l22.5-4.3l16.7-7.2c1.6-1.4,3.5-2.2,5.5-2.3l28.1-12c1.7-1.6,3.8-2.5,6-2.6l12.3-5.3l41-28.6
	c0.2-0.3,0.5-0.6,0.8-0.9c1.1-1.1,2.3-1.8,3.7-2.2l4.1-2.8l15-15.9c0.4-1,1.1-1.9,1.9-2.7c0.7-0.7,1.5-1.2,2.3-1.7l20.1-21.3
	c0.3-0.5,0.7-1,1.1-1.4c0.5-0.5,1-0.9,1.5-1.3l3.3-3.5l28.2-47.7l2-6c0.1-1.4,0.6-2.8,1.3-4l9.6-29.3c-0.1-2.3,0.6-4.6,2.1-6.4
	l5.3-16.3l0.8-9.7c-0.1-1.2,0-2.4,0.3-3.6l2.4-29.2c0-0.1,0-0.1,0-0.2v-19c0-0.1,0-0.3,0-0.4v-2.5c0,0,0-0.1,0-0.1v-3.6
	c0-5,4.1-9,9-9c5,0,9,4,9,8.9l16.7,16.7l13.7-13c3.6-3.5,9.3-3.3,12.8,0.3c3.5,3.6,3.3,9.3-0.3,12.8l-13.4,12.8l11.5,11.5l11.9-11.7
	l0.2-3.2c0-0.2,0-0.3,0-0.5v-25.6c0-5,4.1-9,9-9s9,4.1,9,9v24.5c0.1,0.5,0.1,1.1,0,1.6l-0.3,4.6c0.4,1.7,0.3,3.6-0.3,5.3l-2.1,34.7
	c0,0.3,0,0.7-0.1,1c0,0.3-0.1,0.6-0.2,0.9l-15.5,63.7c-0.2,1-0.6,1.9-1.2,2.8l-5.5,10.9c-0.3,0.8-0.6,1.5-1.1,2.2l-15.1,29.8
	c-0.3,1.4-1,2.7-1.9,3.8l-15.1,29.9c-0.2,0.5-0.5,1-0.8,1.4c-0.1,0.2-0.3,0.4-0.5,0.6l-46.3,56.3c-0.2,0.3-0.4,0.5-0.7,0.8
	c-0.3,0.3-0.5,0.5-0.8,0.7l-49.9,40.8c-0.3,0.2-0.6,0.4-0.9,0.7c-0.3,0.2-0.6,0.4-0.9,0.5l-52.3,28.2l-0.1,0.1
	c-1.4,1.4-3.1,2.3-4.9,2.6l-5.2,2.8c-0.7,0.6-1.5,1-2.4,1.3l-14.1,7.6c-0.3,0.2-0.6,0.3-0.9,0.5c-0.3,0.1-0.6,0.2-0.9,0.3l-17.8,5.8
	c-0.8,0.4-1.6,0.7-2.5,0.8l-55.3,18c-0.7,0.2-1.4,0.4-2.1,0.4l-85.3,10.9C535.4,758.1,535,758.2,534.6,758.2z M513.8,738.3l9,0.7
	l31.6-31.6l-11.5-11.3l-35.7,35.7L513.8,738.3z M555.6,731.7l5,4.9l20.8-2.7l-14.2-13.9L555.6,731.7z M459.5,733.8l26.2,2.1
	l-16.1-15.8l-11.8,11.8L459.5,733.8z M425.2,731l7.3,0.6l24.2-24.2l-11.8-11.6l-31.1,31.5L425.2,731z M640.3,695.9L604.8,731
	l13.7-1.8l17.4-5.7l16-16.1L640.3,695.9z M380.6,703.5l15.8,15.8l11.8-11.9L391,690.3c-0.1-0.1-0.3-0.2-0.4-0.4
	c-0.2-0.2-0.4-0.4-0.6-0.7l-17.7-17.7l-11.8,11.8l15.4,15.4c0.9,0.4,1.8,1,2.6,1.7C379.3,701.3,380.1,702.4,380.6,703.5z
	 M477.9,702.9l16.4,16.2l11.6-11.6l-17.3-17.3c-0.2-0.2-0.4-0.3-0.5-0.5s-0.3-0.3-0.5-0.5l-5.6-5.6l-18.8-0.4c-1,0-2-0.2-2.9-0.5
	l-2.1-0.6l-0.7,0.7l16.3,16.1c0.8,0.4,1.6,1,2.3,1.7C476.9,701.3,477.5,702.1,477.9,702.9z M575.4,702.7l16.2,15.9l11.6-11.4
	l-15.4-15.4c-1.1-0.4-2-1.1-2.9-1.9c-0.9-0.9-1.5-1.8-1.9-2.9l-6.5-6.5l-19.8,3.8l15.1,14.8c0.8,0.4,1.5,0.9,2.2,1.6
	C574.5,701.3,575,702,575.4,702.7z M673.4,703.5l5.9,5.9l13.2-4.3l4-2.2l-11.2-11.2c-1.1-0.4-2-1.1-2.9-1.9s-1.5-1.8-1.9-2.9
	l-15.4-15.4l-11.9,11.8l15.5,15.5c1,0.4,2,1.1,2.8,1.9C672.4,701.5,673,702.5,673.4,703.5z M340.3,703.5l17.7,5.7l1.3-1.4
	l-11.6-11.6L340.3,703.5z M508.2,684.2l10.5,10.5l10.1-10.1L508.2,684.2z M312,683.3l11.4,11.4l36-36l-5.9-5.8
	c-0.4-0.1-0.9-0.3-1.3-0.4c-0.4-0.2-0.8-0.4-1.2-0.6l-4.8-2.8L312,683.3z M409.5,683.2l11.3,11.3l17.6-17.9l-17.8-5L409.5,683.2z
	 M604.5,682.9l11.6,11.6l28.7-28.4l-3.9,1.7c-0.7,0.4-1.5,0.6-2.3,0.8l-24.3,4.7L604.5,682.9z M702.1,682.9l11.1,11.1l3.2-1.7
	l33.2-33.9l-11.4-11.4L702.1,682.9z M274.4,671.6l0.5,0.3l-0.4-0.4L274.4,671.6z M281.2,652.5l18,18l11.4-11.4l-36-36l-11.4,11.4
	l17.5,17.5c0.1,0.1,0.2,0.2,0.2,0.2S281.1,652.5,281.2,652.5z M389.2,662.9l7.6,7.6l4.1-4.3L389.2,662.9z M673.1,653.9l16.2,16.2
	l11.4-11.4l-11.6-11.6L673.1,653.9z M246.6,651.1l12.4,10.4l2.8-2.8l-11.4-11.4L246.6,651.1z M750.9,634.1l24.7,24.7l12.5-10.2
	l-25.9-25.9L750.9,634.1z M311.5,634.5l11.8,11.8l6.6-6.6l-15-8.6L311.5,634.5z M707,639.4l6.5,6.5l17.7-17.7
	c0.2-0.2,0.3-0.4,0.5-0.5c0.2-0.2,0.3-0.3,0.5-0.5l13.7-13.7L712.2,637c-0.6,0.5-1.3,0.8-2,1.1L707,639.4z M220.3,629l12.4,10.4
	l8.9-8.9c0.4-1,1.1-2,1.9-2.8c0.8-0.8,1.8-1.5,2.8-1.9l15.4-15.4l-11.7-11.7L234,615c-0.4,0.6-0.8,1.2-1.4,1.8
	c-0.5,0.5-1,0.9-1.6,1.3L220.3,629z M799.2,634.1l3,3l17.1-14l18.3-22.2l-2.5-2.6l-15.6,15.6c-0.4,1.1-1.1,2-1.9,2.9
	c-0.9,0.9-1.8,1.5-2.9,2L799.2,634.1z M765,599.9l21.4,21.4l11.4-11.4l-17.3-17.2c-0.2-0.2-0.4-0.3-0.6-0.5
	c-0.2-0.2-0.3-0.4-0.5-0.5l-3.4-3.4L765,599.9z M179.8,594.9l26.6,22.4l6.9-7l-17.8-17.8c-0.1-0.1-0.3-0.2-0.4-0.4s-0.2-0.2-0.4-0.4
	L177.1,574l-7.5,7.9L179.8,594.9z M214.4,585.7l11.6,11.6l16.7-17c0.3-0.4,0.6-0.7,0.9-1c0.3-0.3,0.6-0.6,0.9-0.8l0.2-0.2L233,567.1
	L214.4,585.7z M799.3,585.7l11.4,11.4l36.5-36.5l-11.4-11.4L799.3,585.7z M847.9,585.5l1.3,1.3l10.9-13.2l-0.1-0.1L847.9,585.5z
	 M183.8,555.2l17.7,17.7l11.8-11.8l-36.3-35.8l-11.6,11.6l17.3,17.3c0.1,0.1,0.3,0.2,0.4,0.3C183.4,554.7,183.6,555,183.8,555.2z
	 M147.9,554.5l10.3,13.1l6.1-6.4l-11.5-11.5L147.9,554.5z M848.5,536.4l21.3,21.3l7.6-15.1l-17.6-17.6L848.5,536.4z M839.1,504.3
	l-23.2,39.1l31.2-31.2L839.1,504.3z M136.2,539.7l0.4,0.5l7.4-7.4c0.4-1,1.1-1.9,1.9-2.8c0.8-0.8,1.8-1.5,2.8-1.9l15.6-15.6
	l-11.7-11.5l-16.5,16.8c-0.3,0.5-0.7,0.9-1.1,1.3c-0.4,0.4-0.8,0.7-1.2,1l-5.3,5.4L136.2,539.7z M848.1,487.6l36,36l5.9-5.9l3.9-7.8
	l-14.1-13.9c-0.8-0.4-1.5-0.9-2.2-1.6c-0.6-0.6-1.1-1.3-1.5-2l-16.6-16.3L848.1,487.6z M165.3,488.1l12.8,12.6l-9.4-16.1
	L165.3,488.1z M116.7,488l11.8,11.8l16.1-16.4c0.4-0.6,0.8-1.2,1.3-1.7c0.5-0.5,1.1-1,1.7-1.3l11.7-11.9l-6.6-11.4
	c-0.8-1.4-1.2-2.9-1.2-4.5l-15,15.2c-0.4,0.7-0.9,1.4-1.5,2c-0.6,0.6-1.2,1.1-1.9,1.5L116.7,488z M897.2,487.7l5.3,5.2l0.5-0.9
	l3.2-13.4L897.2,487.7z M858.5,449.6l25.8,25.4l11.6-11.6L864,431.6l-0.1,0.7c-0.1,1.1-0.4,2.1-0.8,3L858.5,449.6z M897,438.9
	l11.8,11.8l5.8-5.8l3.6-14.7l0.8-12.7l-2.3,2.3c-0.4,0.6-0.8,1.2-1.4,1.7c-0.6,0.6-1.2,1.1-1.9,1.5L897,438.9z M866,407.9l18.2,18.2
	l11.5-11.3l-17.4-17.4c-0.2-0.2-0.5-0.4-0.7-0.6c-0.1-0.1-0.2-0.3-0.3-0.4l-9.6-9.6c0,0.3,0,0.5,0,0.8L866,407.9z M86.5,360.2
	l17.5,17.4l11.8-11.8L99.6,350c-0.7-0.4-1.4-0.9-2-1.5c-0.6-0.6-1.2-1.3-1.6-2l-16.6-16.4l-2.9,2.9v16.3c0,0.3,0,0.5,0,0.8l8.5,8.5
	c0.3,0.2,0.6,0.5,0.8,0.7C86,359.6,86.3,359.9,86.5,360.2z M117,341.7l11.6,11.4l1.4-1.4c-0.2-0.7-0.3-1.5-0.3-2.3v-20.7L117,341.7z
	 M76.5,301.8l27.6,27.2l11.5-11.8L79.3,281l-2.8,2.8V301.8z M116.7,292.8l11.4,11.4l1.4-1.4V280L116.7,292.8z"/>
<path d="M535.5,758.1h-32.8c-0.3,0-0.5,0-0.8,0l-32.8-2.7c-0.2,0-0.3,0-0.5-0.1l-32.9-4.6c-0.2,0-0.4-0.1-0.5-0.1l-32-6.4
	c-0.2,0-0.3-0.1-0.5-0.1l-32-8.2c-0.3-0.1-0.5-0.1-0.8-0.2l-31-11c-0.2-0.1-0.5-0.2-0.7-0.3l-30.1-13.7c-0.1-0.1-0.3-0.1-0.4-0.2
	L279.5,696c-0.2-0.1-0.4-0.2-0.6-0.4l-14.6-9.1c-0.1-0.1-0.2-0.1-0.3-0.2l-21.6-13.5c-0.2-0.1-0.5-0.3-0.7-0.5l-26.5-20.1
	c-0.1-0.1-0.3-0.2-0.4-0.3L189.3,630c-0.2-0.1-0.3-0.3-0.5-0.5L166,606.7c-0.2-0.2-0.3-0.3-0.5-0.5l-21-24.6
	c-0.1-0.1-0.2-0.3-0.4-0.4L125,555.6c-0.2-0.2-0.3-0.4-0.5-0.7l-16.4-26.5c-0.1-0.2-0.2-0.4-0.4-0.6l-14.6-28.3
	c-0.1-0.1-0.1-0.2-0.1-0.3l-7.1-15c-0.3-0.5-0.5-1-0.7-1.5l-10-29.2c0-0.1-0.1-0.3-0.1-0.4L67,424.9c-0.1-0.3-0.1-0.5-0.2-0.8
	l-5.5-28.3c-0.1-0.4-0.1-0.8-0.1-1.1l-1.8-28.3l-0.9-16.3c0-0.2,0-0.5,0-0.7c0,0,0-0.1,0-0.1v-95.9l-2.6-3.2
	c-0.7-0.8-1.2-1.8-1.5-2.8l-1.8-5.3c-0.2-0.5-0.3-1.1-0.4-1.6c-0.1-0.6-0.1-1.1-0.1-1.7v-6.9c0-0.3,0-0.6,0-0.9
	c0-0.3,0.1-0.6,0.1-0.9l0.9-5.3c0.2-1.1,0.5-2.1,1.1-3l1-1.8c-0.4-0.7-0.7-1.4-0.9-2.2l-1.8-6.4c-0.2-0.8-0.3-1.6-0.4-2.4
	c0-0.3,0-0.6,0-1v-5.5c0-3,1.5-5.7,3.7-7.3v-29.5L44.5,163c-0.2,0-0.3-0.1-0.5-0.1c-0.6-0.2-1.1-0.4-1.6-0.6
	c-0.3-0.1-0.5-0.3-0.8-0.5l-8.9-5.4c-0.6-0.4-1.2-0.8-1.7-1.4l-9.9-9.9c-0.2-0.2-0.4-0.4-0.6-0.7c-0.2-0.2-0.4-0.5-0.5-0.7l-9-12.6
	c-0.2-0.2-0.3-0.4-0.4-0.7l-9-15.4c-0.4-0.7-0.8-1.5-1-2.4C0.1,111.9,0,111,0,110.2V50.3c0-0.8,0.1-1.7,0.3-2.5
	c0.1-0.4,0.3-0.8,0.4-1.2c0.3-0.7,0.7-1.4,1.3-2.1c0.3-0.4,0.6-0.7,1-1l14.5-13.5c0.2-0.1,0.3-0.3,0.5-0.4l14.6-11.9
	c0.7-0.6,1.5-1,2.3-1.4l1.1-0.5l13.6-7.2c0.6-0.3,1.2-0.5,1.8-0.7l12.6-3.6c0.3-0.1,0.6-0.2,0.9-0.2c0.3-0.1,0.7-0.1,1-0.1l34.5-3.6
	c0.3,0,0.6,0,0.9,0h12.6c0.3,0,0.7,0,1,0c0.3,0,0.6,0.1,1,0.1l34.5,6.4c0.1,0,0.3,0.1,0.4,0.1l11.7,2.7c0.6,0.1,1.2,0.3,1.8,0.6
	c0.6,0.3,1.2,0.6,1.7,1l9,6.3c0.4,0.3,0.8,0.6,1.2,1l8.9,8.9c0.1,0.1,0.2,0.2,0.2,0.2l1.8,1.8c0.4,0.4,0.7,0.8,1.1,1.3l8.2,11.9
	c0.2,0.2,0.3,0.5,0.4,0.7l7.9,14c0.1,0.2,0.3,0.4,0.4,0.6c0.5,0.9,0.9,1.9,1,3c0.1,0.6,0.1,1.1,0.1,1.7v60c0,0.2,0,0.4,0,0.5
	c0,0,0,0,0,0c0,0,0,0,0,0c-0.1,1-0.3,1.9-0.6,2.8c-0.3,0.8-0.8,1.6-1.3,2.3c-0.1,0.2-0.3,0.4-0.5,0.5l-12.7,13.7
	c-0.4,0.4-0.8,0.8-1.3,1.2l-13.1,9.6l-1.2,1.2c-0.3,0.4-0.7,0.7-1.1,1c-0.4,0.3-0.8,0.5-1.2,0.8l-14.4,8.1c-0.6,0.3-1.1,0.6-1.7,0.8
	l-6.4,2v28.6c2.2,1.7,3.6,4.3,3.6,7.2v5.5c0,0.1,0,0.3,0,0.4c0,0.6,0,1.3-0.1,2l-0.9,5.5c-0.2,1.1-0.5,2.1-1.1,3l-0.5,0.9l0.8,1.5
	c0.4,0.9,0.7,1.8,0.9,2.8l0.4,2.7c0.9,1.4,1.5,3.1,1.5,5v6.8c0.1,1.1-0.1,2.2-0.5,3.3l-1.8,5.5c-0.4,1.3-1.2,2.5-2.2,3.5l-2.8,2.9
	v95.4l0.9,15l2.7,24.8l5.3,23.8l7.1,23.9l5.3,12.3c0,0,0,0,0,0l2.6,6.1l11.6,23.2l14.2,24l15.9,22.1l18.7,21.4l20.5,20.5l22.2,18.7
	l24.3,17.1l12.7,9.1l3.9,2.4l24.2,13.5l25.8,11.6l26.8,9.8l27.7,8l28.5,6.2l29.4,3.6l28.7,1.8H536l28.5-2.7l28.7-4.5l28.5-6.2
	l26.8-9l25.9-9.8l24.8-12.4l23.1-14.2l22.2-16l20.4-17.7l17.8-18.7l16.8-19.5l14-21l11.5-23l9.7-23l7-22.9l5.3-24.7l2.6-24.6v-11.4
	c0-0.3,0-0.6,0-0.9v-20.6l-3-4.6c-0.4-0.7-0.8-1.4-1-2.1l-1.5-4.6c-0.5-1.1-0.8-2.4-0.8-3.7v-6.4c0,0,0,0,0,0
	c-0.1-0.8-0.1-1.6,0.1-2.4l0.9-5.5c0.2-1.3,0.7-2.5,1.4-3.6l0.5-0.7c-0.4-0.7-0.6-1.4-0.8-2.1l-1.6-6.4c-0.4-1-0.5-2-0.5-3.1v-5.5
	c0-3,1.5-5.7,3.8-7.4v-29L845,278c-0.8-0.1-1.5-0.4-2.2-0.7c-0.1,0-0.1-0.1-0.2-0.1l-10.3-4.3c-0.7-0.3-1.3-0.7-1.9-1.1l-11-8.2
	c-0.3-0.3-0.7-0.5-1-0.9l-0.9-0.9c0,0,0,0,0,0L804.7,249c-0.3-0.3-0.6-0.6-0.8-0.9l-11-14.5c-0.5-0.7-1-1.5-1.3-2.3c0,0,0,0,0,0
	c0,0,0,0,0,0c-0.4-1.1-0.6-2.2-0.6-3.3V168c0-0.7,0-1.3,0.2-2c0.2-1.1,0.6-2,1.1-2.9c0.4-0.7,0.9-1.3,1.5-1.8l10.1-13.4
	c0.3-0.4,0.7-0.8,1.1-1.2l11.3-10.5l0.3-0.6c0.7-1.4,1.8-2.6,3.1-3.5l11-7.3c0.3-0.2,0.6-0.4,0.9-0.5l10.8-5.4
	c0.4-0.2,0.8-0.4,1.2-0.5c0.4-0.2,0.9-0.3,1.3-0.4l12.5-2.7c0.3-0.1,0.6-0.1,0.9-0.1l33.8-3.6c0.8-0.2,1.7-0.2,2.5-0.2l12.8,0.9
	c0.3,0,0.5,0,0.8,0.1l34.7,5.5c1,0.2,1.9,0.5,2.8,0.9l11.5,5.3c0.6,0.3,1.2,0.6,1.7,1l11.4,8.8l0.8,0.4c1,0.5,1.9,1.2,2.6,2
	l10.9,11.9c0.1,0.2,0.3,0.3,0.4,0.5l11,13.7c1.6,1.9,2.2,4.3,1.9,6.6V228c0,1.1-0.2,2.1-0.5,3.2v0c0,0,0,0,0,0c0,0,0,0,0,0
	c0,0,0,0,0,0c0,0,0,0,0,0c0,0,0,0,0,0c0,0,0,0,0,0c0,0,0,0,0,0c0,0,0,0,0,0c0,0,0,0,0,0c0,0,0,0,0,0c0,0,0,0,0,0c0,0,0,0,0,0
	c0,0,0,0,0,0c0,0,0,0,0,0c0,0,0,0,0,0c0,0,0,0,0,0c0,0,0,0,0,0c0,0,0,0,0,0c0,0,0,0,0,0c0,0,0,0,0,0c0,0,0,0,0,0
	c-0.3,0.9-0.8,1.7-1.4,2.4l-10.9,13.6c-0.1,0.2-0.3,0.3-0.4,0.5l-10.9,11.9c-0.1,0.1-0.2,0.2-0.2,0.2l-1.7,1.7
	c-0.2,0.2-0.5,0.5-0.8,0.7c-0.3,0.2-0.5,0.4-0.8,0.6l-11.7,8.1c-0.4,0.3-0.9,0.6-1.4,0.8l-11.7,5.4c-0.1,0.1-0.2,0.1-0.3,0.1
	c-0.5,0.2-1.1,0.4-1.7,0.6c-0.2,0.1-0.5,0.1-0.7,0.1l-1.1,0.2c0,0.1-0.1,0.2-0.1,0.3v28.9c2.2,1.7,3.6,4.3,3.6,7.2v5.3
	c0,0.3,0,0.5,0,0.8c0,0.3-0.1,0.5-0.1,0.8l-0.9,6.2c-0.2,1.3-0.7,2.6-1.4,3.7l-0.2,0.3l0.8,1.6c0.4,0.9,0.7,1.8,0.9,2.8l0.4,2.6
	c1,1.4,1.5,3.2,1.5,5v5.9c0.1,1.1-0.1,2.2-0.5,3.3l-1.8,5.5c-0.4,1.1-0.9,2.1-1.6,2.9l-3.4,4.1v29.4c0,0.2,0,0.4,0,0.6l-1.8,28.3
	c0,0.3,0,0.5-0.1,0.8l-4.6,29.2c0,0.3-0.1,0.6-0.2,0.9l-7.3,27.4c0,0.2-0.1,0.3-0.1,0.5l-9.1,28.3c-0.1,0.3-0.2,0.6-0.4,0.9
	l-11.9,26.5c-0.1,0.3-0.3,0.5-0.4,0.8l-14.6,25.6c-0.1,0.2-0.2,0.4-0.3,0.5l-16.4,24.6c-0.2,0.2-0.3,0.5-0.5,0.7l-19.2,23.7
	c-0.2,0.2-0.3,0.4-0.5,0.6l-21,21.9c-0.2,0.2-0.4,0.4-0.6,0.5L807,657.3c-0.1,0.1-0.3,0.2-0.4,0.3L782,676.9
	c-0.2,0.1-0.3,0.2-0.5,0.4L756,694.5c-0.3,0.2-0.6,0.4-1,0.6l-28.3,14.5c-0.1,0-0.2,0.1-0.3,0.1l-29.2,13.7
	c-0.2,0.1-0.5,0.2-0.7,0.3l-30.1,11c-0.3,0.1-0.5,0.2-0.8,0.2l-31,8.2c-0.1,0-0.2,0.1-0.3,0.1l-31.9,7.3c-0.2,0.1-0.5,0.1-0.7,0.1
	l-31.9,4.6c-0.2,0-0.4,0-0.5,0.1l-32.9,2.7C536.1,758.1,535.8,758.1,535.5,758.1z M503.1,740h32.1l32.2-2.7l31.3-4.5l31.4-7.2
	l30.5-8.1l29.3-10.7l28.7-13.5l27.7-14.2l24.8-16.9l24.2-18.9l22.3-19.6l20.5-21.3l18.7-23.1l16-24l14.2-24.9l11.5-25.6l8.9-27.6
	l7.1-26.7l4.4-28.3l1.8-27.6v-18.7l-2.2,0.9c-0.6,0.2-1.1,0.4-1.7,0.5l-10,1.8c-0.3,0.1-0.6,0.1-0.9,0.1l-11,0.9c-0.5,0-1,0-1.5,0
	l-11-0.9c-0.3,0-0.6-0.1-0.9-0.1l-10-1.8c-0.7-0.1-1.4-0.3-2.1-0.6l-1.9-0.8v10.8c0,0.3,0,0.6,0,0.9v11c0,0.3,0,0.6-0.1,1l-2.7,25.6
	c0,0.3-0.1,0.6-0.1,0.9l-5.5,25.5c-0.1,0.3-0.1,0.5-0.2,0.7l-7.3,23.8c-0.1,0.3-0.2,0.6-0.3,0.9l-10,23.7c-0.1,0.2-0.2,0.4-0.3,0.5
	L829.2,525c-0.2,0.3-0.4,0.7-0.6,1l-14.6,21.9c-0.2,0.3-0.4,0.6-0.7,0.9l-17.3,20.1c-0.1,0.1-0.2,0.2-0.3,0.3l-18.2,19.1
	c-0.2,0.2-0.4,0.4-0.6,0.6l-21,18.2c-0.2,0.2-0.4,0.3-0.6,0.5l-22.8,16.5c-0.2,0.1-0.4,0.3-0.6,0.4l-23.7,14.6
	c-0.2,0.1-0.5,0.3-0.7,0.4l-25.5,12.8c-0.3,0.1-0.6,0.3-0.8,0.4l-26.5,10c-0.1,0-0.2,0.1-0.3,0.1l-27.4,9.2
	c-0.3,0.1-0.6,0.2-0.9,0.3l-29.2,6.4c-0.2,0-0.4,0.1-0.5,0.1l-29.2,4.6c-0.2,0-0.4,0.1-0.6,0.1l-29.2,2.7c-0.3,0-0.6,0-0.8,0h-30.1
	c-0.2,0-0.4,0-0.6,0l-29.2-1.8c-0.2,0-0.4,0-0.5,0l-30.1-3.7c-0.3,0-0.6-0.1-0.8-0.1l-29.2-6.4c-0.2,0-0.4-0.1-0.6-0.1l-28.3-8.2
	c-0.2-0.1-0.4-0.1-0.6-0.2l-27.4-10c-0.2-0.1-0.4-0.2-0.6-0.2L332,643.3c-0.2-0.1-0.5-0.2-0.7-0.4l-24.7-13.7
	c-0.1,0-0.2-0.1-0.2-0.1l-4.6-2.7c-0.4-0.2-0.7-0.5-1.1-0.8l-12.3-8.8l-24.6-17.3c-0.2-0.1-0.4-0.3-0.6-0.5l-22.8-19.2
	c-0.2-0.2-0.4-0.3-0.6-0.5l-21-21c-0.1-0.1-0.3-0.3-0.4-0.4L199.3,536c-0.2-0.2-0.4-0.4-0.5-0.7l-16.4-22.8
	c-0.2-0.2-0.3-0.4-0.4-0.7l-14.6-24.6c-0.1-0.2-0.2-0.4-0.3-0.6l-11.9-23.7c-0.1-0.2-0.2-0.3-0.2-0.5l-2.7-6.4c0,0,0,0,0,0
	l-5.5-12.7c-0.1-0.3-0.3-0.7-0.4-1l-7.3-24.7c-0.1-0.2-0.1-0.4-0.2-0.6l-5.5-24.6c-0.1-0.3-0.1-0.7-0.2-1l-2.7-25.5
	c0-0.1,0-0.3,0-0.4l-0.9-15.3c0-0.2,0-0.5,0-0.7c0-0.1,0-0.1,0-0.2v-84.5l-2.2,0.9c-0.6,0.2-1.1,0.4-1.7,0.5l-10,1.8
	c-0.3,0.1-0.6,0.1-0.9,0.1l-10.9,0.9c-0.5,0-1,0-1.5,0l-11.1-0.9c-0.3,0-0.6-0.1-0.9-0.1l-10-1.8c-0.7-0.1-1.4-0.3-2-0.6l-1.9-0.8
	v84.4l0.9,16.2l1.8,27.6l5.3,27.3l8,27.7l9.7,28.4l7.1,15.1l14.4,27.8l16,25.8l18.8,25l20.6,24.2l22.3,22.3l25.1,21.5l25.9,19.7
	l21.6,13.5c0.1,0.1,0.2,0.1,0.3,0.2l14,8.7l27.7,14.3l29.6,13.4l30.2,10.7l31.3,8l31.5,6.3l32.3,4.5L503.1,740z M884.4,361.4
	l9.8,0.8l9.8-0.8l8.7-1.6l7.7-3.1l2.7-1.5c0.7-0.8,1.6-1.5,2.6-2l1.6-1.9l0.8-2.4v-1c-0.2-0.3-0.3-0.6-0.4-1l-4.8,2.4
	c-0.5,0.2-0.9,0.4-1.4,0.6l-9.1,2.7c-0.3,0.1-0.7,0.2-1,0.2l-10,1.8c-0.5,0.1-1.1,0.1-1.6,0.1h-11c-0.5,0-1.1,0-1.6-0.1l-10-1.8
	c-0.3-0.1-0.7-0.1-1-0.2l-9.1-2.7c-0.7-0.2-1.3-0.5-1.9-0.8l-3.8-2.2v1.8l1,3.1l1.3,1.9c0.5,0.3,0.9,0.6,1.3,1l4,2l7,3.1
	L884.4,361.4z M889.4,336.7h9.4l8.7-1.6l7.9-2.4l5.3-2.7l2.5-2.4c0.4-1.1,1.1-2.1,2-2.9c0.1-0.1,0.3-0.3,0.4-0.4
	c-1.4-1.6-2.2-3.6-2.2-5.9v-37.3l-15.1,2.4c-0.3,0-0.5,0.1-0.8,0.1l-12.6,0.9c-0.3,0-0.6,0-0.9,0c-0.3,0-0.7,0-1-0.1l-28.1-3v36.9
	c0,2.3-0.8,4.3-2.2,5.9l0,0.1c1,0.8,1.7,1.9,2.3,3.1l3.2,2.6l4.9,2.8l7.6,2.3L889.4,336.7z M860.9,262.9l33.4,3.5l11.6-0.8l25.1-4
	c0.5-0.2,1-0.3,1.5-0.5v-44.7l-26.5-4.9h-11.4l-33.7,3.5l-5.2,1.1v45.6L860.9,262.9z M830.7,249.5l6.9,5.2v-42.7l-8.9-11.8
	l-10.5-11.3l-0.3-0.1c-0.5-0.2-0.9-0.5-1.4-0.9l-7.5-5.6V225l8.8,11.7L830.7,249.5z M950.6,212v42.6l8.8-6.1l1.1-1.1l10.6-11.5
	l8.8-11v-42.5l-8.8,6.1l-1.2,1.2l-10.7,11.5L950.6,212z M93.2,250.1l9.9,0.8l9.7-0.8l8.7-1.6l7.2-2.9l4.9-3.5l2.5-2.5l0.7-2v-2
	c0,0,0-0.1-0.1-0.1l-5.1,2.5c-0.5,0.2-0.9,0.4-1.4,0.6l-9.1,2.7c-0.6,0.2-1.2,0.3-1.8,0.3l-10,0.9c-0.3,0-0.5,0-0.8,0h-10
	c-0.2,0-0.5,0-0.7,0l-11-0.9c-0.6-0.1-1.3-0.2-1.9-0.4l-9.1-2.7c-0.7-0.2-1.3-0.5-1.9-0.8l-3.8-2.2v2l0.9,2.6l1.7,2.1l5.4,3.4l6.7,3
	L93.2,250.1z M98.9,224.5h9.2l8.7-0.8l7.5-2.3l5.3-2.6l2.6-2.6c0.5-1.1,1.2-2.2,2.1-3l0.1-0.3c-1.3-1.6-2.2-3.6-2.2-5.9v-36.3
	l-3.2,0.5c-0.4,0.1-0.8,0.1-1.1,0.1l-34.6,0.9c-0.2,0-0.4,0-0.5,0c-0.2,0-0.4,0-0.6,0l-12.7-0.9c-0.5,0-1-0.1-1.5-0.2l-4.3-1.1v37
	c0,2-0.7,3.9-1.8,5.5l1.6,2.5l0.3,0.3c0.1,0.1,0.2,0.2,0.3,0.3c0.2,0.2,0.4,0.4,0.6,0.6l2.8,2.8l4.4,2.5l7.2,2.2L98.9,224.5z
	 M880.4,189.8l14.1,0.9l14.3-0.8l12.8-1.7l12.7-3.4l10.4-4l1.4-1c0.1-0.1,0.1-0.1,0.2-0.2l3.3-3.2l1.3-3v-3.6l-1.3-3.1l-4.7-4.7
	l-5.9-4.4l-9.6-4l-10.8-3.4l-11.7-1.7l-12.7-0.8l-12.7,0.8l-11.7,1.7l-10.6,3.3l-8.8,4l-6.6,4.4l-3.8,4.4l-1.5,3.4v3.6l1.5,3.6
	l1.7,2.2l2.8,1.8l10.6,4.1l11.7,3.3L880.4,189.8z M81.6,153.4l11.6,0.8l33.7-0.9l3.6-0.6v-46.2l-4.6-1.1l-33.7-6.2H80.7L55.5,102v45
	l7,1.7c1.7-0.1,3.4,0.3,4.9,1.2L81.6,153.4z M148.6,103.4v44.9l1.9-0.6l12.7-7.1l1-1c0.3-0.3,0.7-0.6,1.1-0.9l13-9.5l9.8-10.5V74.5
	l-1,0.3l-13.7,7.7c-0.3,0.2-0.6,0.3-0.9,0.5c-0.3,0.1-0.7,0.3-1,0.4l-0.9,0.3l-11.3,9.7L148.6,103.4z M34.2,132.8l3.2,3.2V96.3
	l-7.5-12.8l-9.1-11.6c-0.6-0.6-1.2-1.4-1.6-2.2L19,69.2l-0.9-0.9v39.6l7.7,13L34.2,132.8z M94.8,78.5l13.5,0.8l13.5-1.7L136,75
	l-6.8-2.3L117.6,71l-12.1-0.9H92.7l-11.4,1.6l-10,3.1l9.6,1.9L94.8,78.5z M47.6,62.1l1.9,3.3l3.2-2c0.3-0.2,0.7-0.4,1-0.6l10-4.6
	c0.4-0.2,0.7-0.3,1.1-0.4l11.8-3.6c0.5-0.1,0.9-0.2,1.4-0.3l12.8-1.8C91.2,52,91.6,52,92,52h13.7c0.2,0,0.5,0,0.7,0l12.8,1
	c0.2,0,0.4,0,0.6,0.1l12.8,1.8c0.5,0.1,1.1,0.2,1.6,0.4l11,3.6c0.4,0.1,0.8,0.3,1.2,0.5l9.1,4.6c0.4,0.2,0.8,0.4,1.1,0.7l0.8,0.6
	l1.2-1.6l1-3.9l-0.4-2.9l-2-3.6l-5.7-5l-6.7-4.5l-9.4-3.1l-12-2.6l-12.7-1.7H97.9l-11.8,0.8l-11.8,2.5l-10.4,3.2l-7.8,4.7L50.3,52
	l-2.8,3.9l-0.8,3.3L47.6,62.1z"/>
</svg>
