<?xml version="1.0" encoding="UTF-8"?>
<svg width="30px" height="30px" viewBox="0 0 30 30" version="1.1" xmlns="http://www.w3.org/2000/svg" xmlns:xlink="http://www.w3.org/1999/xlink">
    <!-- Generator: Sketch 53.1 (72631) - https://sketchapp.com -->
    <title>Icons/Linked-In</title>
    <desc>Created with Sketch.</desc>
    <g id="Icons/Linked-In" stroke="none" stroke-width="1" fill-rule="evenodd">
        <path d="M27.78,0 C29.0033333,0 29.9991667,0.968333333 29.9991667,2.16333333 L29.9991667,27.835 C29.9991667,29.03 29.0033333,30 27.78,30 L2.2125,30 C0.991666667,30 2.66453526e-14,29.03 2.66453526e-14,27.835 L2.66453526e-14,2.16333333 C2.66453526e-14,0.968333333 0.991666667,0 2.2125,0 L27.78,0 Z M25.5641667,25.5633333 L25.5641667,17.7116667 C25.5641667,13.8558333 24.7316667,10.8916667 20.2258333,10.8916667 C18.0616667,10.8916667 16.61,12.0783333 16.0166667,13.2041667 L15.955,13.2041667 L15.955,11.2466667 L11.69,11.2466667 L11.69,25.5633333 L16.1341667,25.5633333 L16.1341667,18.4825 C16.1341667,16.6141667 16.4875,14.805 18.8033333,14.805 C21.0866667,14.805 21.115,16.9408333 21.115,18.6008333 L21.115,25.5633333 L25.5641667,25.5633333 Z M6.67333333,9.29083333 C8.09666667,9.29083333 9.25166667,8.135 9.25166667,6.71 C9.25166667,5.28583333 8.09666667,4.13 6.67333333,4.13 C5.24416667,4.13 4.09166667,5.28583333 4.09166667,6.71 C4.09166667,8.135 5.24416667,9.29083333 6.67333333,9.29083333 Z M4.445,25.5633333 L8.89916667,25.5633333 L8.89916667,11.2466667 L4.445,11.2466667 L4.445,25.5633333 Z" id="Combined-Shape" fill-rule="nonzero"></path>
    </g>
</svg>
