<svg xmlns="http://www.w3.org/2000/svg" viewBox="0 0 100 100"><defs><style>.cls-1,.cls-3{fill:#fff;}.cls-2{fill:none;}.cls-2,.cls-3{stroke:#000;stroke-linejoin:round;stroke-width:1.8px;}.cls-4{fill:#1d1d1b;}</style></defs><title>np_kreisPictosWeb_100x100px_190726</title><g id="weisser_hg"><path class="cls-1" d="M100,50A50,50,0,1,1,50,0,50,50,0,0,1,100,50Z"/></g><g id="illu"><polygon class="cls-2" points="17.85 44.13 44.73 31.19 77.93 47.07 77.93 68.26 51.03 81.2 17.85 65.33 17.85 44.13"/><line class="cls-2" x1="51.03" y1="59.99" x2="51.03" y2="81.3"/><line class="cls-2" x1="77.93" y1="47.08" x2="51.03" y2="60.02"/><line class="cls-2" x1="17.85" y1="44.14" x2="51.03" y2="60.02"/><polygon class="cls-2" points="34.45 19.43 7.59 32.38 17.85 44.14 44.73 31.19 34.45 19.43"/><polygon class="cls-2" points="85.63 34.01 52.45 18.15 44.73 31.19 77.93 47.07 85.63 34.01"/><polygon class="cls-3" points="95.1 47.94 68.24 60.9 51.03 60.02 77.93 47.07 95.1 47.94"/><polygon class="cls-3" points="51.03 60 17.85 44.14 10.14 57.18 43.33 73.06 51.03 60"/><line class="cls-2" x1="44.75" y1="31.19" x2="44.75" y2="52.49"/><line class="cls-2" x1="40.06" y1="54.75" x2="44.75" y2="52.49"/><line class="cls-2" x1="44.75" y1="52.49" x2="55.75" y2="57.75"/></g><g id="obererRING"><path class="cls-4" d="M50,1.8A48.2,48.2,0,1,1,1.8,50,48.25,48.25,0,0,1,50,1.8M50,0a50,50,0,1,0,50,50A50,50,0,0,0,50,0Z"/></g></svg>
