<?xml version="1.0" encoding="utf-8"?>
<!-- Generator: Adobe Illustrator 24.1.0, SVG Export Plug-In . SVG Version: 6.00 Build 0)  -->
<svg version="1.1" 	 viewBox="0 0 80 80" style="enable-background:new 0 0 80 80;" xml:space="preserve">
<style type="text/css">
	.st0{fill:#F2F2F0;}
	.st1{fill:none;stroke:#4A4A4A;stroke-width:2;stroke-linecap:round;stroke-linejoin:round;}
	.st2{fill:none;stroke:#4A4A4A;stroke-width:2;stroke-linecap:round;stroke-linejoin:round;stroke-miterlimit:10;}
	.st3{fill:none;stroke:#4A4A4A;stroke-width:2;stroke-linecap:round;stroke-linejoin:round;stroke-dasharray:3.4068,3.4068;}
	.st4{fill:none;stroke:#4A4A4A;stroke-width:2;stroke-linecap:round;stroke-linejoin:round;stroke-dasharray:3.22585,3.22585;}
	.st5{fill:none;stroke:#534F4E;stroke-width:2;stroke-linecap:round;stroke-linejoin:round;}
	.st6{fill:none;stroke:#534F4E;stroke-width:2;stroke-linecap:round;stroke-linejoin:round;stroke-miterlimit:10;}
	.st7{fill:#534F4E;}
	.st8{fill:none;stroke:#534F4E;stroke-width:2;stroke-linejoin:round;stroke-miterlimit:10;}
	.st9{fill:none;stroke:#534F4E;stroke-width:2;stroke-miterlimit:10;}
	.st10{fill:none;stroke:#000000;stroke-width:2.5;stroke-linecap:round;stroke-linejoin:round;stroke-miterlimit:10;}
	.st11{fill:#F2F2F0;stroke:#534F4E;stroke-width:2;stroke-linecap:round;stroke-linejoin:round;stroke-miterlimit:10;}
	.st12{fill:#F2F2F0;stroke:#534F4E;stroke-width:2;stroke-linecap:round;stroke-linejoin:round;}
	.st13{fill:#FFFFFF;stroke:#534F4E;stroke-width:2;stroke-linecap:round;stroke-linejoin:round;}
	.st14{fill:none;stroke:#534F4E;stroke-width:2;stroke-linecap:round;stroke-miterlimit:10;}
	.st15{fill:none;stroke:#534F4E;stroke-width:1.12243;stroke-miterlimit:10;}
	.st16{stroke:#534F4E;stroke-miterlimit:10;}
	.st17{fill:none;stroke:#534F4E;stroke-width:2;stroke-linecap:round;stroke-linejoin:round;stroke-dasharray:3.4068,3.4068;}
	.st18{fill:none;stroke:#534F4E;stroke-width:2;stroke-linecap:round;stroke-linejoin:round;stroke-dasharray:3.22585,3.22585;}
	.st19{fill:none;stroke:#534F4E;stroke-width:2.35866;stroke-linecap:round;stroke-linejoin:round;stroke-miterlimit:10;}
	.st20{fill:#534F4E;stroke:#534F4E;stroke-width:2;stroke-miterlimit:10;}
	.st21{fill:#534F4E;stroke:#534F4E;stroke-width:2;stroke-linecap:round;stroke-miterlimit:10;}
	.st22{fill:none;stroke:#534F4E;stroke-width:2.82782;stroke-linecap:round;stroke-linejoin:round;}
	
		.st23{fill:none;stroke:#534F4E;stroke-width:2.82782;stroke-linecap:round;stroke-linejoin:round;stroke-dasharray:0.05581,5.02265;}
</style>
<g id="BildHG">
</g>
<g id="_x38_0pxFlaeche">
</g>
<g id="Icon">
	<g>
		<g>
			<path class="st2" d="M29.36814,43.54824c-3.1054-2.9507-6.9121-2.3496-8.0683-2.334h-0.1104
				c-3.7705,0.1328-7.583-1.2407-10.4638-4.1172c-4.125-4.125-5.1621-10.1684-3.0977-15.2558l7.40331,7.4033
				c2.12209,2.1211,5.59089,2.1211,7.71189,0l0.0547-0.0552c2.1221-2.1216,2.1221-5.5923,0.002-7.7129l-7.4043-7.4038
				c5.0869-2.0625,11.1299-1.0244,15.2549,3.1006c2.8779,2.8774,4.2509,6.6929,4.1172,10.4629l0.0009,0.1094
				c-0.0175,1.1582-0.6377,4.9843,2.3116,8.0908"/>
			<path class="st2" d="M51.58884,50.34214l6.3487,6.3487c2.5908,2.5908,3.4521,5.8501,0.8613,8.4414l-0.1123,0.1118
				c-2.5918,2.5918-5.8711,1.751-8.4619-0.8394l-6.1572-6.1591"/>
		</g>
		<g>
			<line class="st2" x1="50.88674" y1="36.57214" x2="60.46194" y2="26.99454"/>
			<polygon class="st2" points="72.55273,18.80024 66.96484,27.97894 60.85154,27.29144 60.16704,26.60294 59.47954,20.49454 
				68.65625,14.90374 			"/>
			<g>
				<path class="st2" d="M31.55374,65.06774c-2.334,2.3335-6.1524,2.333-8.4863,0l-0.6778-0.6777
					c-2.332-2.3335-2.332-6.1519,0-8.4854l19.6875-19.6875c2.333-2.333,6.1514-2.3339,8.4854,0.001l0.67671,0.6758
					c2.335,2.334,2.334,6.1523,0,8.4854L31.55374,65.06774z"/>
			</g>
			<line class="st2" x1="45.07134" y1="42.38714" x2="28.42094" y2="59.03554"/>
		</g>
	</g>
</g>
<g id="Ebene_3">
</g>
<g id="bestehende_x5F_icons">
</g>
</svg>
