<?xml version="1.0" encoding="utf-8"?>
<!-- Generator: Adobe Illustrator 23.0.6, SVG Export Plug-In . SVG Version: 6.00 Build 0)  -->
<svg version="1.1" id="Druckregler" 	 y="0px" viewBox="0 0 746.8 1001" style="enable-background:new 0 0 746.8 1001;" xml:space="preserve">
<title>Druckregler</title>
<path d="M388.8,1001H358c-0.5,0-1,0-1.5-0.1l-6.7-1h-7.7c-4.9,0-9-3.4-10.2-7.9l-24.5-1.6c-0.3,0-0.5,0-0.8-0.1l-29.7-4.2
	c0,0-0.1,0-0.1,0l-13.8-2.1c-0.3,0-0.6-0.1-0.9-0.2l-12.7-3.2c-0.2,0-0.3-0.1-0.5-0.1l-21.2-6.4c-0.1,0-0.2-0.1-0.3-0.1l-9.5-3.2
	c-0.7-0.2-1.3-0.5-1.9-0.8l-7.4-4.2c-0.2-0.1-0.4-0.2-0.6-0.4l-6.4-4.2c-0.6-0.4-1.1-0.8-1.6-1.3l-4.2-4.2c-0.3-0.3-0.7-0.7-1-1.1
	l-3.2-4.2c-0.4-0.5-0.7-1-1-1.6l-2.1-4.2c-0.7-1.5-1.1-3.1-1.1-4.7v-1.2c0-0.3,0-0.6,0-0.9v-36l-1.4-0.3l-14.7-3.1
	c-0.3-0.1-0.6-0.1-0.9-0.2l-5.7-1.8c-0.3,0.6-0.7,1.1-1.1,1.6l-5.3,6.4c-0.2,0.2-0.4,0.5-0.6,0.7l-1.1,1.1c0,0,0,0,0,0c0,0,0,0,0,0
	l-6.4,6.3c-0.4,0.4-0.7,0.7-1.1,1l-3.4,2.5l-1.8,1.8c-0.6,0.6-1.3,1.1-2,1.6l-10.6,6.4c-0.9,0.5-1.9,0.9-2.9,1.2l-8.5,2.1
	c-0.3,0.1-0.6,0.1-0.9,0.2l-5.2,0.8c-0.9,0.2-1.8,0.4-2.8,0.4H70.9c-0.2,0-0.4,0-0.7,0h-0.4c-1.6,0-3.2-0.4-4.6-1.1l-2.1-1
	c-1-0.5-2-1.2-2.8-2l-2.1-2.1c-0.8-0.8-1.5-1.7-2-2.7l-1.1-2.1c-0.9-1.7-1.2-3.6-1.1-5.4v-9.7c0-0.6,0-1.3,0.1-1.9
	c0.1-0.6,0.3-1.3,0.5-1.9l0.5-1.4c0.2-2.5,1.3-4.9,3.1-6.7l1.4-1.4c0.2-0.2,0.4-0.5,0.6-0.7l13.8-13.8c0.1-0.1,0.1-0.1,0.2-0.2
	L92.2,859v-3.7c-0.7-1.4-1.1-3-1.1-4.6V442.2c0-0.2,0-0.3,0-0.5v-5.3c0-0.7,0.1-1.4,0.2-2.1l1.1-5.3c0.1-0.6,0.3-1.2,0.5-1.8
	l2.1-5.3c0.4-1,0.9-1.8,1.5-2.7l4.2-5.3c1-1.2,2.2-2.2,3.5-2.8l0.9-0.5l7.2-6.7l0.3-0.5c0.8-1.3,1.9-2.5,3.2-3.3l2.7-1.8
	c0.3-0.2,0.7-0.5,1-0.7l2.2-1.5l5.9-4.9c0.4-0.3,0.8-0.6,1.2-0.8l8.5-5.3c0.5-0.3,1.1-0.6,1.7-0.8l21.2-8.5c0.2-0.1,0.4-0.1,0.6-0.2
	l12.7-4.2c0.1,0,0.2-0.1,0.2-0.1l1.5-0.5l-10.1-2.5l-16.7-3.1c-0.3,0-0.5-0.1-0.8-0.2l-15.9-4.2c-0.1,0-0.3-0.1-0.4-0.1l-13.8-4.2
	c-0.2-0.1-0.5-0.1-0.7-0.2l-13.7-5.3l-11.6-4.2c-0.4-0.1-0.8-0.3-1.1-0.5L80,340.9c-0.1-0.1-0.3-0.1-0.4-0.2l-9.5-5.3
	c-0.3-0.2-0.7-0.4-1-0.6l-7.4-5.3c-0.5-0.3-0.9-0.7-1.3-1.1l-6.4-6.3c-0.4-0.4-0.7-0.7-1-1.1l-2.9-3.8c0-0.1-0.1-0.1-0.1-0.2
	l-4.2-5.3c-0.4-0.5-0.7-1-1-1.5l-5.3-9.5c-0.2-0.4-0.4-0.8-0.6-1.2l-4.3-10.6l-4.2-10.7c-0.3-0.6-0.4-1.3-0.6-2l-2.1-11.7
	c-0.1-0.3-0.1-0.6-0.1-0.9L26.5,252c0-0.3,0-0.6,0-1v-12.7c0-0.6,0.1-1.3,0.2-1.9l2.1-11.6c0-0.1,0.1-0.3,0.1-0.4l0.5-2.5l-0.5-0.3
	l-8.1-5.1c-0.7-0.4-1.3-0.9-1.9-1.5l-6.4-6.4c-0.5-0.5-0.9-1-1.3-1.6l-4.2-6.4c-0.1-0.1-0.2-0.3-0.3-0.4L3.6,195
	c-0.4-0.7-0.7-1.4-1-2.1l-2.1-6.4c-0.4-1.1-0.5-2.2-0.5-3.3v-2.5c0-0.2,0-0.4,0-0.7v-27.5c0-1.1,0.2-2.2,0.5-3.3l2.1-6.4
	c0.1-0.3,0.2-0.6,0.3-0.9c-0.1-0.1-0.1-0.3-0.2-0.4l-2.1-5.3C0.2,135,0,133.7,0,132.4v-3.2c0-0.3,0-0.5,0-0.8v-23.6
	c0-0.2,0-0.4,0-0.7v-2.5c0-1.1,0.2-2.2,0.5-3.3L2.7,92C2.8,91.5,3,91,3.2,90.6l3.2-6.4c0.2-0.4,0.4-0.7,0.6-1.1l4.2-6.4
	c0.6-0.9,1.3-1.6,2.1-2.3l6.3-5.2c0.1-0.1,0.3-0.2,0.4-0.3l8.5-6.4c0.2-0.2,0.5-0.3,0.7-0.5l8.5-5.3c0.1,0,0.1-0.1,0.2-0.1l10.6-6.4
	c0.4-0.3,0.9-0.5,1.4-0.7l12.7-5.3c0.1,0,0.2-0.1,0.3-0.1l13.8-5.3c0.3-0.1,0.6-0.2,0.9-0.3l14.6-4.2l15.7-5.2
	c0.3-0.1,0.5-0.2,0.8-0.2l17-4.2c0,0,0.1,0,0.1,0l18-4.2c0.2-0.1,0.5-0.1,0.7-0.1l19.1-3.1l20.2-3.2c0,0,0.1,0,0.1,0l42.4-6.4
	c0.2,0,0.4-0.1,0.6-0.1L249,5.3l23.4-2.1c0.2,0,0.3,0,0.5,0L342.7,0c0.2,0,0.3,0,0.5,0h72c0.2,0,0.3,0,0.5,0L440,1.1
	c0.2,0,0.3,0,0.5,0l23.1,2.1l23.1,1c0.2,0,0.3,0,0.5,0l22.2,2.1c0.2,0,0.3,0,0.5,0.1l22,3.1l21,2.1c0.2,0,0.4,0,0.6,0.1l20.1,3.2
	c0.2,0,0.4,0.1,0.5,0.1l20,4.2l17.8,3.1c0.2,0,0.4,0.1,0.6,0.1l18,4.2c0.2,0.1,0.5,0.1,0.7,0.2l16.9,5.3l14.7,4.2
	c0.3,0.1,0.6,0.2,0.9,0.3l13.8,5.3c0.1,0,0.2,0.1,0.3,0.1l12.7,5.3c0.1,0,0.2,0.1,0.3,0.1l11.6,5.3c0.1,0.1,0.2,0.1,0.4,0.2
	l10.6,5.3c0.6,0.3,1.1,0.6,1.6,1l8.5,6.4c0.1,0.1,0.3,0.2,0.4,0.3l6.4,5.3c0.2,0.2,0.5,0.4,0.7,0.6l6.4,6.4c0.8,0.8,1.5,1.7,2,2.7
	l6.4,12.7c0.7,1.5,1.1,3.1,1.1,4.7v6.3c0,0,0,0,0,0c0,0,0,0,0,0v24.4c0,0,0,0,0,0c0,0,0,0,0,0v6.3c0,1.9-0.5,3.8-1.5,5.4l-0.8,1.3
	l1.2,2.4c0.7,1.5,1.1,3.1,1.1,4.7V161c0,0.2,0,0.4,0,0.6v24.8c0,1.9-0.5,3.8-1.5,5.4l-3,5l-3,6c-0.5,1-1.2,1.9-2,2.7l-12.7,12.7
	c-0.6,0.6-1.2,1.1-1.9,1.5l-4.9,3.1l2.1,7.5c0.2,0.6,0.3,1.2,0.3,1.8l1.1,11.6c0.1,0.6,0.1,1.3,0,1.9l-1.1,11.6
	c0,0.3-0.1,0.5-0.1,0.8l-2.1,12.7c-0.1,0.4-0.1,0.7-0.2,1l-3.2,11.7c-0.1,0.4-0.2,0.8-0.4,1.1l-4.2,10.6c-0.1,0.3-0.2,0.5-0.4,0.8
	l-5.3,10.6c-0.1,0.3-0.3,0.6-0.5,0.9l-5.3,8.5c-0.5,0.8-1.1,1.6-1.8,2.2l-10.3,10.2c-0.4,0.4-0.8,0.8-1.3,1.1l-7.4,5.3
	c-0.2,0.1-0.4,0.2-0.5,0.4l-8.5,5.3c-0.3,0.2-0.6,0.3-0.9,0.5l-10.6,5.3c-0.4,0.2-0.9,0.4-1.4,0.6l-12.4,4.1l-12.4,5.2
	c-0.4,0.2-0.8,0.3-1.2,0.4l-29.7,8.5c-0.3,0.1-0.6,0.2-1,0.2l-16.8,3.1l-11,2.6l1.4,0.4c0.1,0,0.2,0,0.2,0.1l12.7,4.2
	c0.1,0,0.2,0.1,0.3,0.1l11.7,4.2c0.2,0.1,0.5,0.2,0.7,0.3l9.5,4.2c0.5,0.2,0.9,0.4,1.3,0.7l8.5,5.3c0.2,0.1,0.4,0.2,0.5,0.4l7.4,5.3
	c0.2,0.1,0.3,0.2,0.5,0.3l0.8,0.6c1.2,0.5,2.3,1.3,3.2,2.2l11.5,11.5l0.6,0.3c1.4,0.7,2.6,1.7,3.5,2.8l4.2,5.3
	c0.3,0.4,0.6,0.7,0.8,1.1l3.2,5.3c0.6,1,1.1,2.2,1.3,3.3l1.1,5.3c0.2,1,0.3,2.1,0.2,3.1c0,0.3,0,0.7,0,1v412.2
	c0,2.4-0.8,4.6-2.1,6.3v0.8l0.1,0.2l30.5,30.5l0.7,0.3c2.5,1.2,4.4,3.4,5.3,6.1l1.1,3.2c0.4,1.1,0.5,2.2,0.5,3.3v2.1c0,0,0,0,0,0
	s0,0,0,0v11.7c0,2.7-1,5.3-2.9,7.2l-0.3,0.6c-1,2.2-2.8,3.9-5,4.9l-2.1,1c-1.4,0.7-2.9,1-4.5,1h-42.2c-0.4,0-0.7,0-1.1,0
	c-0.3,0-0.7-0.1-1-0.1l-12.5-2.1c-0.8-0.1-1.7-0.4-2.4-0.7l-7.4-3.2c-1-0.4-1.9-1-2.7-1.7l-7.4-6.4c-0.1-0.1-0.3-0.2-0.4-0.4l-7-6
	c-0.2-0.2-0.4-0.4-0.6-0.6l-3.2-3.2c-0.1-0.1-0.2-0.2-0.3-0.3l-4-4c-0.7-0.7-1.2-1.4-1.7-2.2l-1.8-3.1l-5.1,1.6
	c-0.3,0.1-0.7,0.2-1,0.3l-15.6,3.1l-1.4,0.4v35.1c0,0.3,0,0.6,0,0.9v2.1c0,0.9-0.1,1.7-0.3,2.6l-1.1,4.2c-0.3,1.4-0.9,2.6-1.8,3.8
	l-3.2,4.2c-0.5,0.7-1.1,1.3-1.8,1.9l-5.3,4.2c-0.2,0.2-0.5,0.4-0.7,0.5l-6.4,4.2c-0.2,0.1-0.4,0.3-0.6,0.4l-7.5,4.3
	c-0.5,0.3-1,0.5-1.5,0.7l-8.5,3.2c-0.2,0.1-0.4,0.2-0.6,0.2l-10.5,3.2c-0.1,0-0.2,0.1-0.3,0.1l-11.7,3.2c-0.1,0-0.1,0-0.2,0.1
	l-12.7,3.2c-0.3,0.1-0.6,0.1-0.9,0.2l-27.5,4.2c-0.1,0-0.1,0-0.2,0l-15.9,2.1c-0.2,0-0.5,0.1-0.7,0.1l-24.4,1.6
	c-1.1,4.6-5.3,7.9-10.2,7.9h-6.8l-7.8,1C389.6,1001,389.2,1001,388.8,1001z M358.8,980h29.3l6-0.8v-3.6c0,0,0,0,0,0c0,0,0,0,0,0
	v-53.7c-0.1-0.4-0.1-0.9-0.1-1.3V910c0-1.1,0.2-2.1,0.5-3.1l0,0c0,0,0,0,0,0c0.5-1.6,1.3-3,2.5-4.2c0,0,0,0,0,0c0,0,0,0,0,0
	c0,0,0,0,0,0c0,0,0,0,0,0c1.1-1.1,2.4-2,3.8-2.5c0,0,0,0,0,0c0,0,0,0,0,0c1-0.4,2.1-0.6,3.2-0.7l42-2.1l40-4.2l18.8-2.1l35.2-6.2
	l3.1-0.8c1.7-1,3.7-1.6,5.8-1.5l6.6-1.7c0.2-0.1,0.4-0.1,0.6-0.2l15.4-3.1l7.9-2.4c1.5-2,3.7-3.5,6.4-4c1.8-0.4,3.6-0.2,5.3,0.3
	l5.5-1.8l9.7-4.9l9.3-5.2c0.1-0.1,0.3-0.1,0.4-0.2l7.4-3.7l4.7-3.9l4.2-5l2.8-4.6c0.2-0.3,0.4-0.6,0.6-0.9V470.4l-0.8,0.6
	c-0.2,0.2-0.4,0.3-0.6,0.5l-7.4,5.3c-0.6,0.4-1.2,0.8-1.8,1.1l-9.5,4.2c-0.1,0.1-0.2,0.1-0.4,0.2l-10.6,4.2
	c-0.2,0.1-0.4,0.1-0.6,0.2l-25.4,8.5c-0.2,0.1-0.3,0.1-0.5,0.1l-14.8,4.2c-0.2,0.1-0.4,0.1-0.7,0.2l-14.8,3.2c-0.1,0-0.2,0-0.3,0.1
	l-34,6.4c-0.2,0-0.5,0.1-0.7,0.1l-18,2.1l-19.1,2.1l-20.2,2.1c-0.2,0-0.3,0-0.5,0l-19,1.1l-41.4,2.2c-0.2,0-0.4,0-0.5,0h-41.3
	c-0.2,0-0.4,0-0.6,0l-40.3-2.1l-20.1-1.1c-0.2,0-0.4,0-0.6,0l-38.1-4.2l-18.1-2.1c-0.2,0-0.4-0.1-0.6-0.1l-18-3.2
	c-0.1,0-0.2,0-0.2,0l-31.8-6.3c-0.4-0.1-0.7-0.2-1-0.3l-27.6-8.5c-0.2-0.1-0.3-0.1-0.5-0.2l-11.6-4.2c-0.1,0-0.2-0.1-0.3-0.1
	l-10.6-4.2c-0.1,0-0.2-0.1-0.4-0.2l-9.5-4.2c-0.5-0.2-0.9-0.4-1.3-0.7l-8.5-5.3c-0.3-0.2-0.6-0.4-0.9-0.6v371.3l3,3.7
	c0.2,0.2,0.4,0.5,0.5,0.7l3.4,5.1l4.2,3.5l7.4,3.7c0.1,0.1,0.3,0.1,0.4,0.2l9.2,5.1l10.8,4.9l5.6,1.9c2.4-0.8,5-0.7,7.5,0.4
	c1.7,0.8,3.1,1.9,4.2,3.3l8,2.5l14.4,3.1c0.1,0,0.2,0.1,0.3,0.1l7.2,1.8c1.6,0,3.2,0.4,4.5,1.1l5,1.2l16.5,3.1l17.6,3.1l18.7,2.1
	l20.1,2.1l20.9,2.1l19.9,1l21.1,1.1c1.1,0,2.2,0.3,3.1,0.6c0,0,0,0,0,0c0,0,0,0,0,0c1.5,0.6,2.9,1.5,4,2.7c0,0,0,0,0,0c0,0,0,0,0,0
	c1,1.1,1.8,2.4,2.3,3.9c0,0,0,0,0,0c0,0,0,0,0,0c0.4,1.1,0.5,2.2,0.5,3.4v9.2c0.1,0.4,0.1,0.9,0.1,1.3v7.4c0,0,0,0.1,0,0.1v47.5
	c0,0,0,0,0,0c0,0,0,0,0,0v3.4L358.8,980z M309.3,969.5l22.4,1.5v-43c0,0,0-0.1,0-0.1v-6c-0.1-0.4-0.1-0.9-0.1-1.3V920l-11.2-0.6
	l-20.2-1.1c-0.2,0-0.3,0-0.5,0l-21.2-2.1l-20.2-2.1l-19.1-2.1c-0.2,0-0.4-0.1-0.7-0.1l-18-3.2c0,0-0.1,0-0.1,0l-11.9-2.2v30.2
	c0,0.2,0,0.4,0,0.6l0.6,1.2l2.2,2.9l3,3l5.2,3.5l6.2,3.5l8.4,2.8l20.8,6.2l12,3l13.2,2L309.3,969.5z M415.2,968.2v2.7l22.4-1.5
	l15.4-2.1l27-4.2l12.1-3l11.4-3.1l10.1-3l7.4-2.8l6.4-3.7l5.7-3.8l3.9-3.1l1.1-1.5l0.2-0.9c0-0.3,0-0.6,0-0.8v-31l-30,5.3
	c-0.2,0-0.5,0.1-0.7,0.1l-19.2,2.1l-40.3,4.2c-0.2,0-0.4,0-0.6,0l-32.3,1.6c0,0.2,0,0.4,0,0.6V968.2z M75.1,909.1h34.9l5.5-0.9
	l6.5-1.6l8.1-4.9l0.5-0.5c0.5-0.6,1.1-1.2,1.8-1.7l3.6-2.7l5.8-5.8c0,0,0,0,0,0l0.7-0.7l0.9-1c-0.2-0.1-0.4-0.2-0.6-0.3l-11.7-5.3
	c-0.3-0.1-0.5-0.2-0.8-0.4l-9.3-5.2l-8.3-4.1c-0.7-0.4-1.4-0.8-2-1.3l-1.3-1.1c-0.1,0.2-0.3,0.3-0.4,0.4l-1,1c0,0,0,0,0,0
	c-0.1,0.1-0.2,0.1-0.2,0.2L88.8,891l-13,13c-0.2,0.2-0.3,0.4-0.5,0.5l-0.3,0.8V909.1z M636.5,909h35.2v-4.2c0,0-0.1-0.1-0.1-0.1
	l-31.2-31.3c-0.2-0.2-0.4-0.3-0.6-0.5l-1.1-1.1c-0.3-0.3-0.5-0.6-0.8-0.9l-1.9,1.6c-0.6,0.5-1.3,1-2,1.3l-8.3,4.1l-9.3,5.2
	c-0.1,0.1-0.3,0.1-0.4,0.2l-10.6,5.3c-0.4,0.2-0.9,0.4-1.4,0.6l-0.5,0.2l1.5,1.5c0.1,0.1,0.2,0.2,0.3,0.3l2.6,2.6l7.1,6.1
	c0.2,0.1,0.3,0.3,0.4,0.4l5.8,4.9l4.8,2L636.5,909z M373.9,481h19.9l19.9-1c0.2,0,0.4,0,0.5,0h11.7v-92.7l-29.2,1.4
	c-0.2,0-0.3,0-0.5,0h-44.5c-0.2,0-0.3,0-0.5,0l-29.2-1.4v92.7h11.7c0.2,0,0.4,0,0.6,0l19.9,1H373.9z M239.9,471.6l35.6,4.2l25.3,2.8
	v-92.3l-16.5-0.8c-0.2,0-0.4,0-0.5,0l-42.4-4.2l-12.4-1.3c-0.1,0-0.3,0.1-0.4,0.1l-21.1,4.2l-14.3,3.1l-13.2,4.1l-12.3,4.1l-20,8
	l-7.1,4.4l-5.8,4.8c-0.3,0.2-0.6,0.5-0.9,0.7l-2.6,1.7l-2.4,2.3l-1.9,3.2c5.9,0,10.6,4.7,10.6,10.5v0.4l0.1,0.2l0.8,1.1l7,7l5,3.3
	l7.4,3.7l8,3c0.1,0,0.1,0,0.2,0.1l10.2,4.1l10.2,3c2.7,0.8,4.9,2.7,6.2,5l0.8,0.3l14.3,3.1l15.9,3.1L239.9,471.6z M446.9,386.2v92.2
	l43.4-4.8l16.6-2.1l16.5-3.1l12.9-2.6c1.4-1.7,3.3-3,5.7-3.6l12.6-3.1l11.1-3l10.9-4l9.2-4.1c0.2-0.1,0.4-0.2,0.6-0.2l7.3-2.8
	l10.8-7.2l3-3l1.7-2.2l0.4-1.3l1-3.9c1.1-4.5,5.1-7.6,9.5-7.9l-2.5-3.1l-4.2-3.3l-6.9-4.9l-7.6-4.7l-8.5-3.8l-11.2-4.1l-12.5-4.2
	l-13.2-4.1l-14.3-3.1l-15.9-3.2c-0.2,0-0.3-0.1-0.5-0.1l-4.2-1.1c-0.1,0-0.1,0-0.2-0.1l-33.2,3.5c0,0-0.1,0-0.1,0l-22.2,2.1
	c-0.2,0-0.3,0-0.5,0L446.9,386.2z M351.9,367.6h44l44.3-2.1l20.9-1l22-2.1l39.9-4.2l19.7-3.1l17.6-3.1l17.7-4.2
	c0.2,0,0.3-0.1,0.5-0.1l16.5-3.1l28.6-8.2l12.1-5.1c0.2-0.1,0.5-0.2,0.7-0.3l12-4l9.5-4.7l7.8-4.9l6.4-4.6l9.2-9.2l4.4-7l4.9-9.8
	l3.9-9.6l2.9-10.6l2-11.8l0.9-10.3l-0.9-9.8l-0.6-2.3l-7.9,3.6c-0.1,0-0.2,0.1-0.3,0.1l-12.7,5.3c-0.1,0-0.2,0.1-0.3,0.1l-13.8,5.3
	c-0.1,0-0.2,0.1-0.2,0.1l-14.8,5.3c-0.3,0.1-0.7,0.2-1,0.3l-17,4.2c0,0-0.1,0-0.1,0l-36,8.5c-0.3,0.1-0.5,0.1-0.8,0.2l-40.3,6.3
	l-21.3,3.2c-0.2,0-0.4,0.1-0.6,0.1l-44.5,4.2l-23.4,2.1c-0.2,0-0.3,0-0.5,0l-23.3,1.1l-24.4,1.1c-0.2,0-0.3,0-0.5,0h-72
	c-0.2,0-0.3,0-0.5,0l-69.9-3.2c-0.2,0-0.3,0-0.5,0l-23.3-2.1l-22.3-2.1c-0.2,0-0.4,0-0.6-0.1l-42.3-6.3c0,0-0.1,0-0.1,0l-20.1-3.2
	l-19.2-3.2c-0.2,0-0.5-0.1-0.7-0.1l-18-4.2c0,0-0.1,0-0.1,0l-17-4.2c-0.3-0.1-0.5-0.1-0.8-0.2l-15.7-5.2l-14.6-4.2
	c-0.3-0.1-0.6-0.2-0.9-0.3l-13.8-5.3c-0.1,0-0.2-0.1-0.3-0.1l-12.7-5.3c-0.2-0.1-0.4-0.2-0.6-0.3l-0.7-0.4l-1,5.7v11.3l1,10.7
	l1.8,10.2l3.8,9.6l4,9.9l4.5,8.2l3.3,4.2c0.2,0.2,0.4,0.4,0.6,0.7l2.7,3.6l5.2,5.2l6.2,4.5l8.8,4.9l9.8,4.9l11.1,4
	c0.1,0,0.1,0,0.2,0.1l13.4,5.2l13.2,4.1l15.3,4.1l16.6,3.1c0.2,0,0.4,0.1,0.6,0.1l16.5,4.1l37.3,6.2l19.8,2.1l42.1,4.2L351.9,367.6z
	 M343.4,262.7H415l24.1-1l23-1l23.1-2.1l44.2-4.2l20.9-3.1l39.8-6.3l35.5-8.4l16.4-4.1l14.2-5.1l13.5-5.2l12.4-5.2l11.3-5.2l4.7-2.3
	c1.3-1.2,2.9-2.1,4.7-2.6c0.3-0.1,0.5-0.1,0.8-0.2l6.7-4.2l-7.6,3.8c-0.1,0.1-0.2,0.1-0.3,0.2l-11.7,5.3c-0.1,0-0.2,0.1-0.3,0.1
	l-12.7,5.3c-0.1,0-0.2,0.1-0.3,0.1l-13.8,5.3c-0.1,0-0.2,0.1-0.2,0.1l-14.8,5.3c-0.3,0.1-0.7,0.2-1,0.3l-17,4.2c0,0-0.1,0-0.1,0
	l-18,4.2c-0.2,0-0.4,0.1-0.6,0.1l-17.8,3.1l-20,4.2c-0.2,0-0.4,0.1-0.5,0.1l-20.1,3.2l-21.3,3.2c-0.2,0-0.4,0.1-0.6,0.1l-44.5,4.2
	l-23.4,2.1c-0.2,0-0.3,0-0.5,0l-23.3,1.1l-24.4,1.1c-0.2,0-0.3,0-0.5,0h-72c-0.2,0-0.3,0-0.5,0l-69.9-3.2c-0.2,0-0.3,0-0.5,0
	l-45.6-4.2c-0.2,0-0.4,0-0.6-0.1l-42.3-6.4l-20.2-3.2l-19.2-3.2c-0.2,0-0.5-0.1-0.7-0.1l-18-4.2c0,0-0.1,0-0.1,0l-17-4.2
	c-0.3-0.1-0.5-0.1-0.8-0.2L92.2,225l-14.6-4.2c-0.3-0.1-0.6-0.2-0.9-0.3l-13.8-5.3c-0.1,0-0.2-0.1-0.3-0.1l-12.7-5.3
	c-0.2-0.1-0.4-0.2-0.7-0.3l-1.7-0.9c0.7,0.5,1.3,1.1,1.9,1.8l8.9,4.5l12.3,5.1l13.2,5.1l14.4,4.1c0.1,0,0.3,0.1,0.4,0.1l15.5,5.2
	l16.5,4.1l17.6,4.1L167,246l20,3.2l42,6.3l22,2.1l23,2.1L343.4,262.7z M343.5,238.4H415l24.1-1.1l23-1l23.1-2.1l44.2-4.2l20.9-3.1
	l19.8-3.1l19.9-4.2c0.1,0,0.2,0,0.3-0.1l17.7-3.1l17.6-4.2l16.4-4.1l14.2-5.1l13.5-5.2l12.4-5.2l11.3-5.2l9.6-4.8l7.5-5.6l3.6-3
	c-0.3,0.2-0.6,0.3-0.9,0.5l-10.6,5.3c-0.1,0.1-0.2,0.1-0.3,0.2l-11.6,5.3c-0.1,0-0.2,0.1-0.3,0.1l-12.7,5.3c-0.1,0-0.2,0.1-0.3,0.1
	l-13.8,5.3c-0.1,0-0.2,0.1-0.2,0.1l-14.8,5.3c-0.3,0.1-0.7,0.2-1,0.3l-17,4.2c0,0-0.1,0-0.1,0l-36,8.5c-0.3,0.1-0.5,0.1-0.8,0.2
	l-40.3,6.4l-21.3,3.2c-0.2,0-0.4,0.1-0.6,0.1l-44.5,4.2l-23.3,2.1c-0.2,0-0.3,0-0.5,0l-23.3,1.1l-24.4,1.1c-0.2,0-0.3,0-0.5,0h-72
	c-0.2,0-0.3,0-0.5,0l-69.9-3.2c-0.2,0-0.3,0-0.5,0l-23.3-2.1l-22.3-2.1c-0.2,0-0.4,0-0.6-0.1l-42.3-6.3l-20.2-3.2l-19.2-3.2
	c-0.2,0-0.5-0.1-0.7-0.1l-18-4.2c0,0-0.1,0-0.1,0l-17-4.2c-0.3-0.1-0.5-0.1-0.8-0.2l-15.7-5.2l-14.6-4.2c-0.3-0.1-0.6-0.2-0.9-0.3
	l-13.8-5.3c-0.1,0-0.2-0.1-0.3-0.1l-12.7-5.3c-0.2-0.1-0.5-0.2-0.7-0.3l-10.6-5.3c-0.6-0.3-1.1-0.6-1.6-1l-8.1-6.1l-0.6-0.4l4.6,4.6
	l7.5,4.7c0.2,0.2,0.5,0.3,0.7,0.5l7.7,5.8l9.4,4.7l12.3,5.1l13.2,5.1l14.4,4.1c0.1,0,0.3,0.1,0.4,0.1l15.5,5.2l16.5,4.1l17.6,4.1
	l18.7,3.1l20,3.2l41.9,6.3l45.1,4.1L343.5,238.4z M343.4,211.9H415l24.1-1.1l23-1l23.1-2.1l44.2-4.2l20.9-3.1l39.8-6.3l35.6-8.4
	l16.4-4.1l14.2-5.1l13.5-5.2l12.4-5.2l11.3-5.1l9.6-4.8l3.1-2.4l-3.5,1.7c-0.1,0.1-0.2,0.1-0.3,0.2l-11.6,5.3
	c-0.1,0-0.2,0.1-0.3,0.1l-12.7,5.3c-0.1,0-0.2,0.1-0.3,0.1l-13.8,5.3c-0.3,0.1-0.6,0.2-0.9,0.3l-14.7,4.2l-16.9,5.3
	c-0.2,0.1-0.5,0.1-0.7,0.2l-18,4.2c-0.2,0-0.4,0.1-0.6,0.1l-17.8,3.1l-20,4.2c-0.2,0-0.3,0.1-0.5,0.1l-20.1,3.2
	c-0.2,0-0.4,0.1-0.6,0.1l-20.9,2.1l-22,3.1c-0.2,0-0.3,0-0.5,0.1l-22.2,2.1c-0.2,0-0.3,0-0.5,0l-23.1,1l-23.1,2.1
	c-0.2,0-0.3,0-0.5,0l-24.4,1.1c-0.2,0-0.3,0-0.5,0h-72c-0.2,0-0.3,0-0.5,0l-69.9-3.2c-0.2,0-0.3,0-0.5,0l-23.3-2.1l-22.3-2.1
	c-0.2,0-0.4,0-0.6-0.1l-42.4-6.4l-20.2-3.2l-19.2-3.2c-0.2,0-0.5-0.1-0.7-0.1l-18-4.2c0,0-0.1,0-0.1,0l-17-4.2
	c-0.3-0.1-0.5-0.1-0.8-0.2l-15.7-5.2L77.6,170c-0.3-0.1-0.6-0.2-0.9-0.3l-13.8-5.3c-0.1,0-0.2-0.1-0.3-0.1L49.9,159
	c-0.5-0.2-0.9-0.4-1.4-0.7l-5.4-3.2l5.8,4.3l9.4,4.7l12.2,5.1l13.2,5.1l14.4,4.1c0.1,0,0.3,0.1,0.4,0.1l15.5,5.2l16.5,4.1l17.6,4.1
	l18.7,3.1l20,3.2l42,6.3l22,2.1l23,2.1L343.4,211.9z M343.5,187.5H415l23.9-1l23.1-2.1c0.2,0,0.3,0,0.5,0l23.1-1l21.7-2.1l22-3.1
	c0.2,0,0.3,0,0.5-0.1l20.9-2l19.6-3.1l19.9-4.2c0.1,0,0.2,0,0.3-0.1l17.7-3.1l17.3-4.1l16.6-5.2c0.1,0,0.2,0,0.2-0.1l14.4-4.1
	l13.2-5.1l12.4-5.2l11.3-5.2l9.6-4.8l7.5-5.6l5.8-4.8l4.8-4.8l4.4-9v-2.9c0-0.3,0-0.5,0-0.8v-3.1l-4.5-9l-4.8-4.8l-5.8-4.8l-7.5-5.6
	l-9.6-4.8l-11.3-5.1l-12.4-5.2l-13.2-5.1l-14.4-4.1c-0.1,0-0.2,0-0.2-0.1l-16.6-5.2L608,43.1l-17.7-3.1c-0.1,0-0.2,0-0.3-0.1
	l-19.9-4.2l-19.6-3.1l-20.9-2.1c-0.1,0-0.3,0-0.4-0.1l-22-3.1l-21.7-2.1l-23.1-1c-0.2,0-0.3,0-0.5,0l-23.1-2.1L415,21h-71.5
	L274,24.2l-23.1,2.1L229,28.4l-42,6.3l-20.1,3.2L148.2,41l-17.6,4.1l-16.5,4.1l-15.5,5.2c-0.1,0-0.3,0.1-0.4,0.1l-14.4,4.1
	l-13.2,5.1l-11.9,4.9l-9.8,5.9l-8,5l-7.9,5.9L28,89.6l-3,4.6l-2.6,5.1l-1.3,4v1.9l1.3,4l2.5,5.1l3.3,5l4.8,4.8l15.8,9.9l9.9,5.9
	l11.9,4.9l13.2,5.1l14.4,4.1c0.1,0,0.3,0.1,0.4,0.1l15.5,5.2l16.5,4.1l17.6,4.1l18.7,3.1l20,3.2l42,6.3l22,2.1l23,2.1L343.5,187.5z
	 M402.5,160.9h-49.8c-0.2,0-0.4,0-0.7,0l-16.9-1.1l-31.8-2.1c-0.3,0-0.5,0-0.8-0.1l-14.8-2.1c0,0-0.1,0-0.1,0l-13.7-2.1
	c-0.3,0-0.5-0.1-0.8-0.1l-13.4-3.1l-12.4-2.1c-0.3-0.1-0.7-0.1-1-0.2l-11.6-3.1c-0.5-0.1-1-0.3-1.5-0.5l-9.1-4l-9-3
	c-0.7-0.2-1.3-0.5-1.9-0.8l-7.2-4.1l-6.1-3.1c-1-0.5-1.9-1.2-2.7-1.9l-4.2-4.2c-0.4-0.4-0.7-0.7-1-1.1l-3.2-4.2
	c-0.8-1.1-1.4-2.4-1.8-3.8l-1.1-4.2c-0.2-0.8-0.3-1.7-0.3-2.5v-5.3c0-0.9,0.1-1.7,0.3-2.6l1.1-4.2c0.3-1.4,0.9-2.6,1.8-3.8l3.2-4.2
	c0.3-0.4,0.6-0.8,1-1.1l4.2-4.2c0.8-0.8,1.7-1.5,2.7-2l6.1-3.1l7.2-4.1c0.6-0.3,1.2-0.6,1.9-0.8l9-3l9.1-4c0.5-0.2,1-0.4,1.5-0.5
	l11.6-3.2c0.3-0.1,0.7-0.2,1-0.2l12.4-2.1l13.4-3.1c0.3-0.1,0.5-0.1,0.8-0.2l13.8-2.1l14.9-2.1c0.3,0,0.5-0.1,0.8-0.1l15.9-1.1
	l32.9-2.1c0.2,0,0.4,0,0.7,0h33.9c0.2,0,0.5,0,0.7,0l15.5,1h16.7c0.4,0,0.9,0,1.3,0.1l15.6,2l14.5,1c0.2,0,0.5,0,0.7,0.1l14.8,2.1
	c0,0,0.1,0,0.1,0l13.8,2.1c0.3,0,0.5,0.1,0.8,0.1l13.8,3.2c0.1,0,0.3,0.1,0.4,0.1l11.6,3.2c0.1,0,0.2,0,0.3,0.1l10.6,3.2
	c0.1,0,0.2,0.1,0.3,0.1l9.6,3.2c0.5,0.2,0.9,0.3,1.4,0.6l8.5,4.2c0.4,0.2,0.8,0.4,1.1,0.7l5.8,3.9l5.8,2.9c1.5,0.7,2.7,1.8,3.7,3.1
	l3.2,4.2c0.4,0.5,0.7,1.1,1,1.7l2.1,4.2c0.4,0.8,0.7,1.7,0.9,2.6l1.1,5.3c0.1,0.3,0.1,0.6,0.1,1c0.1,1.2,0.1,2.4-0.3,3.7l-1.1,4.2
	c-0.2,0.7-0.5,1.5-0.8,2.2l-2.1,4.2c-0.3,0.6-0.6,1.1-1,1.6l-3.2,4.2c-1,1.3-2.2,2.3-3.7,3.1l-5.8,2.9l-5.8,3.9
	c-0.4,0.2-0.7,0.5-1.1,0.6l-8.5,4.2c-0.5,0.2-0.9,0.4-1.4,0.6l-9.5,3.2c-0.1,0-0.2,0.1-0.3,0.1l-10.6,3.2c-0.1,0-0.2,0-0.2,0.1
	l-11.7,3.2c-0.1,0-0.3,0.1-0.4,0.1l-13.8,3.2c-0.3,0.1-0.5,0.1-0.8,0.1l-13.8,2.1c0,0-0.1,0-0.1,0l-14.8,2.1c-0.2,0-0.5,0.1-0.7,0.1
	l-14.5,1.1l-15.6,2.1c-0.2,0-0.5,0.1-0.7,0.1l-17,1.1C402.9,160.9,402.7,160.9,402.5,160.9z M353,139.9h49.1l16.3-1l15.5-2.1
	c0.2,0,0.4,0,0.6-0.1l14.4-1.1l14.4-2.1l13.3-2.1l13.2-3l11.3-3.1l10.4-3.1l8.6-2.9l7.2-3.6l5.8-3.9c0.4-0.2,0.7-0.5,1.1-0.7
	l4.2-2.1l1.1-1.5l1.2-2.3l0.2-0.8l-0.3-1.6l-1-2.1l-1.1-1.5l-4.1-2.1c-0.4-0.2-0.8-0.4-1.1-0.7l-5.8-3.9l-7.2-3.6l-8.7-2.9
	l-10.3-3.1L490,80l-13.2-3l-13.3-2l-14.4-2l-14.5-1c-0.2,0-0.4,0-0.6-0.1l-15.2-1.9h-16.3c-0.2,0-0.5,0-0.7,0l-15.5-1H353l-32.5,2
	l-15.5,1l-14.4,2.1l-13.3,2L264,79c-0.2,0-0.4,0.1-0.7,0.1l-12.2,2L240.8,84l-8.8,3.9c-0.3,0.1-0.6,0.3-1,0.4l-8.6,2.8l-6.5,3.7
	c-0.2,0.1-0.3,0.2-0.5,0.3l-4.8,2.4l-2.5,2.5l-1.5,1.9l-0.2,0.9v2.7l0.2,0.9l1.5,1.9l2.5,2.5l4.9,2.5c0.2,0.1,0.3,0.2,0.5,0.3
	l6.5,3.7l8.5,2.9c0.3,0.1,0.6,0.2,0.9,0.4l8.8,3.9l10.4,2.8l12.2,2c0.2,0,0.4,0.1,0.6,0.1l13.4,3.1l13.3,2.1l14.4,2.1l31.4,2.1
	L353,139.9z"/>
</svg>
