<?xml version="1.0" encoding="utf-8"?>
<!-- Generator: Adobe Illustrator 23.1.1, SVG Export Plug-In . SVG Version: 6.00 Build 0)  -->
<svg version="1.1" id="Ebene_1" 	 viewBox="0 0 28 30" style="enable-background:new 0 0 28 30;" xml:space="preserve">
<title>XMLID_1550_</title>
<desc>Created with Sketch.</desc>
<g>
	<g transform="translate(-1.000000, 0.000000)">
		<path id="XMLID_1550_" d="M28.2,1.3c-0.2-0.4-0.7-0.7-1.1-0.7H2.9C2.5,0.7,2,0.9,1.8,1.3S1.7,2.3,1.9,2.7l9.2,14.9v9.9
			c0,1,0.7,1.9,1.7,1.9c4.1-3.2,6.1-4.9,6.1-4.9v-6.9l9.2-14.9C28.3,2.3,28.4,1.8,28.2,1.3z M16.6,16.5c-0.2,0.2-0.3,0.5-0.3,0.7
			v6.3l-2.6,2.1v-8.4c0-0.3-0.1-0.5-0.3-0.7L5.5,3.3c0.7-0.2,18.9,0.1,19.4,0L16.6,16.5z"/>
	</g>
</g>
</svg>
