<?xml version="1.0" encoding="utf-8"?>
<!-- Generator: Adobe Illustrator 24.1.0, SVG Export Plug-In . SVG Version: 6.00 Build 0)  -->
<svg version="1.1" 	 viewBox="0 0 80 80" style="enable-background:new 0 0 80 80;" xml:space="preserve">
<style type="text/css">
	.st0{fill:#F2F2F0;}
	.st1{fill:none;stroke:#4A4A4A;stroke-width:2;stroke-linecap:round;stroke-linejoin:round;}
	.st2{fill:none;stroke:#4A4A4A;stroke-width:2;stroke-linecap:round;stroke-linejoin:round;stroke-miterlimit:10;}
	.st3{fill:none;stroke:#4A4A4A;stroke-width:2;stroke-linecap:round;stroke-linejoin:round;stroke-dasharray:3.4068,3.4068;}
	.st4{fill:none;stroke:#4A4A4A;stroke-width:2;stroke-linecap:round;stroke-linejoin:round;stroke-dasharray:3.22585,3.22585;}
	.st5{fill:none;stroke:#534F4E;stroke-width:2;stroke-linecap:round;stroke-linejoin:round;}
	.st6{fill:none;stroke:#534F4E;stroke-width:2;stroke-linecap:round;stroke-linejoin:round;stroke-miterlimit:10;}
	.st7{fill:#534F4E;}
	.st8{fill:none;stroke:#534F4E;stroke-width:2;stroke-linejoin:round;stroke-miterlimit:10;}
	.st9{fill:none;stroke:#534F4E;stroke-width:2;stroke-miterlimit:10;}
	.st10{fill:none;stroke:#000000;stroke-width:2.5;stroke-linecap:round;stroke-linejoin:round;stroke-miterlimit:10;}
	.st11{fill:#F2F2F0;stroke:#534F4E;stroke-width:2;stroke-linecap:round;stroke-linejoin:round;stroke-miterlimit:10;}
	.st12{fill:#F2F2F0;stroke:#534F4E;stroke-width:2;stroke-linecap:round;stroke-linejoin:round;}
	.st13{fill:#FFFFFF;stroke:#534F4E;stroke-width:2;stroke-linecap:round;stroke-linejoin:round;}
	.st14{fill:none;stroke:#534F4E;stroke-width:2;stroke-linecap:round;stroke-miterlimit:10;}
	.st15{fill:none;stroke:#534F4E;stroke-width:1.12243;stroke-miterlimit:10;}
	.st16{stroke:#534F4E;stroke-miterlimit:10;}
	.st17{fill:none;stroke:#534F4E;stroke-width:2;stroke-linecap:round;stroke-linejoin:round;stroke-dasharray:3.4068,3.4068;}
	.st18{fill:none;stroke:#534F4E;stroke-width:2;stroke-linecap:round;stroke-linejoin:round;stroke-dasharray:3.22585,3.22585;}
	.st19{fill:none;stroke:#534F4E;stroke-width:2.35866;stroke-linecap:round;stroke-linejoin:round;stroke-miterlimit:10;}
	.st20{fill:#534F4E;stroke:#534F4E;stroke-width:2;stroke-miterlimit:10;}
	.st21{fill:#534F4E;stroke:#534F4E;stroke-width:2;stroke-linecap:round;stroke-miterlimit:10;}
	.st22{fill:none;stroke:#534F4E;stroke-width:2.82782;stroke-linecap:round;stroke-linejoin:round;}
	
		.st23{fill:none;stroke:#534F4E;stroke-width:2.82782;stroke-linecap:round;stroke-linejoin:round;stroke-dasharray:0.05581,5.02265;}
</style>
<g id="BildHG">
</g>
<g id="_x38_0pxFlaeche">
</g>
<g id="Icon">
	<g>
		<path class="st2" d="M20.88545,45.63091H9.22029v13.88049H40.0843C31.13191,59.51141,23.55061,53.69012,20.88545,45.63091z"/>
		<polygon class="st2" points="40.0843,59.51141 40.08442,59.51141 40.08442,59.51141 		"/>
	</g>
	<path class="st2" d="M70.94864,19.04967H40.08438c-11.1731,0-20.23083,9.05762-20.23083,20.23084
		s9.05774,20.23083,20.23083,20.23083c11.17322,0,20.23096-9.05762,20.23096-20.23083c0-2.22058-0.37097-4.35144-1.03198-6.35034
		h11.66528V19.04967z"/>
	<circle class="st2" cx="40.08443" cy="39.28052" r="0.54607"/>
	<path class="st2" d="M40.26572,23.33111c-1.80497,3.12873-2.00695,4.20873-1.39297,8.15717
		c0.15633,1.00536,0.29652,1.90689,0.42249,2.71699"/>
	<path class="st2" d="M53.98767,31.46281c-3.61205,0.00122-4.64835,0.3663-7.7608,2.87224
		c-0.79269,0.63821-1.50348,1.2105-2.14217,1.72473"/>
	<path class="st2" d="M53.80639,47.41221c-1.80708-3.12751-2.6414-3.84243-6.36783-5.28493
		c-0.94861-0.36721-1.79927-0.69649-2.56368-0.99239"/>
	<path class="st2" d="M39.90316,55.22992c1.80497-3.12873,2.00695-4.20873,1.39297-8.15717
		c-0.15633-1.00537-0.29652-1.90689-0.42249-2.71699"/>
	<path class="st2" d="M26.18121,47.09823c3.61204-0.00122,4.64834-0.3663,7.7608-2.87224
		c0.79272-0.63824,1.50354-1.21055,2.14226-1.7248"/>
	<path class="st2" d="M26.36249,31.14882c1.80708,3.12751,2.6414,3.84243,6.36783,5.28493
		c0.9486,0.3672,1.79924,0.69648,2.56364,0.99238"/>
	<circle class="st2" cx="40.08443" cy="39.28052" r="0.54607"/>
	<circle class="st2" cx="40.08443" cy="39.28052" r="5.13569"/>
</g>
<g id="Ebene_3">
</g>
<g id="bestehende_x5F_icons">
</g>
</svg>
