<?xml version="1.0" encoding="utf-8"?>
<!-- Generator: Adobe Illustrator 25.3.1, SVG Export Plug-In . SVG Version: 6.00 Build 0)  -->
<svg version="1.1" id="Ebene_1" 	 viewBox="0 0 78 56" style="enable-background:new 0 0 78 56;" xml:space="preserve">
<style type="text/css">
	.st0{fill:#C51A1B;}
</style>
<g>
	<path class="st0" d="M18.5,0C8.3,0,0,8.9,0,19.9c0,9.2,5.6,16.9,13.7,19.2c-1.1,4.7-3,8.6-5.6,11.6l-4.3,5l6.4-1.8
		C23.1,50.2,37,38,37,19.9C37,8.9,28.7,0,18.5,0z"/>
	<path class="st0" d="M59.5,0C49.3,0,41,8.9,41,19.9c0,9.2,5.6,16.9,13.7,19.2c-1.1,4.7-3,8.6-5.6,11.6l-4.3,5l6.4-1.8
		C64.1,50.2,78,38,78,19.9C78,8.9,69.7,0,59.5,0z"/>
</g>
</svg>
