<?xml version="1.0" encoding="utf-8"?>
<!-- Generator: Adobe Illustrator 24.1.0, SVG Export Plug-In . SVG Version: 6.00 Build 0)  -->
<svg version="1.1" 	 viewBox="0 0 80 80" style="enable-background:new 0 0 80 80;" xml:space="preserve">
<style type="text/css">
	.st0{fill:#F2F2F0;}
	.st1{fill:none;stroke:#4A4A4A;stroke-width:2;stroke-linecap:round;stroke-linejoin:round;}
	.st2{fill:none;stroke:#4A4A4A;stroke-width:2;stroke-linecap:round;stroke-linejoin:round;stroke-miterlimit:10;}
	.st3{fill:none;stroke:#4A4A4A;stroke-width:2;stroke-linecap:round;stroke-linejoin:round;stroke-dasharray:3.4068,3.4068;}
	.st4{fill:none;stroke:#4A4A4A;stroke-width:2;stroke-linecap:round;stroke-linejoin:round;stroke-dasharray:3.22585,3.22585;}
	.st5{fill:none;stroke:#534F4E;stroke-width:2;stroke-linecap:round;stroke-linejoin:round;}
	.st6{fill:none;stroke:#534F4E;stroke-width:2;stroke-linecap:round;stroke-linejoin:round;stroke-miterlimit:10;}
	.st7{fill:#534F4E;}
	.st8{fill:none;stroke:#534F4E;stroke-width:2;stroke-linejoin:round;stroke-miterlimit:10;}
	.st9{fill:none;stroke:#534F4E;stroke-width:2;stroke-miterlimit:10;}
	.st10{fill:none;stroke:#000000;stroke-width:2.5;stroke-linecap:round;stroke-linejoin:round;stroke-miterlimit:10;}
	.st11{fill:#F2F2F0;stroke:#534F4E;stroke-width:2;stroke-linecap:round;stroke-linejoin:round;stroke-miterlimit:10;}
	.st12{fill:#F2F2F0;stroke:#534F4E;stroke-width:2;stroke-linecap:round;stroke-linejoin:round;}
	.st13{fill:#FFFFFF;stroke:#534F4E;stroke-width:2;stroke-linecap:round;stroke-linejoin:round;}
	.st14{fill:none;stroke:#534F4E;stroke-width:2;stroke-linecap:round;stroke-miterlimit:10;}
	.st15{fill:none;stroke:#534F4E;stroke-width:1.12243;stroke-miterlimit:10;}
	.st16{stroke:#534F4E;stroke-miterlimit:10;}
	.st17{fill:none;stroke:#534F4E;stroke-width:2;stroke-linecap:round;stroke-linejoin:round;stroke-dasharray:3.4068,3.4068;}
	.st18{fill:none;stroke:#534F4E;stroke-width:2;stroke-linecap:round;stroke-linejoin:round;stroke-dasharray:3.22585,3.22585;}
	.st19{fill:none;stroke:#534F4E;stroke-width:2.35866;stroke-linecap:round;stroke-linejoin:round;stroke-miterlimit:10;}
	.st20{fill:#534F4E;stroke:#534F4E;stroke-width:2;stroke-miterlimit:10;}
	.st21{fill:#534F4E;stroke:#534F4E;stroke-width:2;stroke-linecap:round;stroke-miterlimit:10;}
	.st22{fill:none;stroke:#534F4E;stroke-width:2.82782;stroke-linecap:round;stroke-linejoin:round;}
	
		.st23{fill:none;stroke:#534F4E;stroke-width:2.82782;stroke-linecap:round;stroke-linejoin:round;stroke-dasharray:0.05581,5.02265;}
</style>
<g id="BildHG">
</g>
<g id="_x38_0pxFlaeche">
</g>
<g id="Icon">
	<g>
		<polygon class="st2" points="44.1338,35.3152 44.1338,9.95565 36.24659,9.95565 36.24659,35.3152 18.36243,35.3152 
			18.36243,43.20241 62.01789,43.20241 62.01789,35.3152 		"/>
		<g>
			<g>
				<g>
					<path class="st2" d="M29.6438,51.24104c0,0.4311-0.3467,0.7788-0.7783,0.7788c-0.4297,0-0.7793-0.3477-0.7793-0.7788
						c0-0.4321,0.3496-0.7798,0.7793-0.7798C29.2971,50.46124,29.6438,50.80894,29.6438,51.24104z"/>
				</g>
			</g>
			<g>
				<g>
					<path class="st2" d="M37.1939,51.24104c0,0.4311-0.3466,0.7788-0.7783,0.7788c-0.4297,0-0.7793-0.3477-0.7793-0.7788
						c0-0.4321,0.34959-0.7798,0.7793-0.7798C36.84731,50.46124,37.1939,50.80894,37.1939,51.24104z"/>
				</g>
			</g>
			<g>
				<g>
					<path class="st2" d="M44.74402,51.24104c0,0.4311-0.34671,0.7788-0.77831,0.7788c-0.4297,0-0.7793-0.3477-0.7793-0.7788
						c0-0.4321,0.34961-0.7798,0.7793-0.7798C44.39731,50.46124,44.74402,50.80894,44.74402,51.24104z"/>
				</g>
			</g>
			<g>
				<g>
					<path class="st2" d="M52.29412,51.24104c0,0.4311-0.3467,0.7788-0.7783,0.7788c-0.4297,0-0.7793-0.3477-0.7793-0.7788
						c0-0.4321,0.3496-0.7798,0.7793-0.7798C51.94742,50.46124,52.29412,50.80894,52.29412,51.24104z"/>
				</g>
			</g>
			<g>
				<g>
					<path class="st2" d="M29.6438,58.20294c0,0.4312-0.3467,0.7788-0.7783,0.7788c-0.4297,0-0.7793-0.3476-0.7793-0.7788
						c0-0.4321,0.3496-0.7798,0.7793-0.7798C29.2971,57.42314,29.6438,57.77084,29.6438,58.20294z"/>
				</g>
			</g>
			<g>
				<g>
					<path class="st2" d="M37.1939,58.20294c0,0.4312-0.3466,0.7788-0.7783,0.7788c-0.4297,0-0.7793-0.3476-0.7793-0.7788
						c0-0.4321,0.34959-0.7798,0.7793-0.7798C36.84731,57.42314,37.1939,57.77084,37.1939,58.20294z"/>
				</g>
			</g>
			<g>
				<g>
					<path class="st2" d="M44.74402,58.20294c0,0.4312-0.34671,0.7788-0.77831,0.7788c-0.4297,0-0.7793-0.3476-0.7793-0.7788
						c0-0.4321,0.34961-0.7798,0.7793-0.7798C44.39731,57.42314,44.74402,57.77084,44.74402,58.20294z"/>
				</g>
			</g>
			<g>
				<g>
					<path class="st2" d="M52.29412,58.20294c0,0.4312-0.3467,0.7788-0.7783,0.7788c-0.4297,0-0.7793-0.3476-0.7793-0.7788
						c0-0.4321,0.3496-0.7798,0.7793-0.7798C51.94742,57.42314,52.29412,57.77084,52.29412,58.20294z"/>
				</g>
			</g>
			<g>
				<g>
					<path class="st2" d="M29.6438,65.16434c0,0.4312-0.3467,0.77879-0.7783,0.77879c-0.4297,0-0.7793-0.3476-0.7793-0.77879
						c0-0.43211,0.3496-0.7798,0.7793-0.7798C29.2971,64.38454,29.6438,64.73224,29.6438,65.16434z"/>
				</g>
			</g>
			<g>
				<g>
					<path class="st2" d="M22.09369,51.24104c0,0.4311-0.3467,0.7788-0.7783,0.7788c-0.4297,0-0.7793-0.3477-0.7793-0.7788
						c0-0.4321,0.3496-0.7798,0.7793-0.7798C21.74699,50.46124,22.09369,50.80894,22.09369,51.24104z"/>
				</g>
			</g>
			<g>
				<g>
					<path class="st2" d="M22.09369,58.20294c0,0.4312-0.3467,0.7788-0.7783,0.7788c-0.4297,0-0.7793-0.3476-0.7793-0.7788
						c0-0.4321,0.3496-0.7798,0.7793-0.7798C21.74699,57.42314,22.09369,57.77084,22.09369,58.20294z"/>
				</g>
			</g>
			<g>
				<g>
					<path class="st2" d="M22.09369,65.16434c0,0.4312-0.3467,0.77879-0.7783,0.77879c-0.4297,0-0.7793-0.3476-0.7793-0.77879
						c0-0.43211,0.3496-0.7798,0.7793-0.7798C21.74699,64.38454,22.09369,64.73224,22.09369,65.16434z"/>
				</g>
			</g>
			<g>
				<g>
					<path class="st2" d="M37.1939,65.16434c0,0.4312-0.3466,0.77879-0.7783,0.77879c-0.4297,0-0.7793-0.3476-0.7793-0.77879
						c0-0.43211,0.34959-0.7798,0.7793-0.7798C36.84731,64.38454,37.1939,64.73224,37.1939,65.16434z"/>
				</g>
			</g>
			<g>
				<g>
					<path class="st2" d="M44.74402,65.16434c0,0.4312-0.34671,0.77879-0.77831,0.77879c-0.4297,0-0.7793-0.3476-0.7793-0.77879
						c0-0.43211,0.34961-0.7798,0.7793-0.7798C44.39731,64.38454,44.74402,64.73224,44.74402,65.16434z"/>
				</g>
			</g>
			<g>
				<g>
					<path class="st2" d="M52.29412,65.16434c0,0.4312-0.3467,0.77879-0.7783,0.77879c-0.4297,0-0.7793-0.3476-0.7793-0.77879
						c0-0.43211,0.3496-0.7798,0.7793-0.7798C51.94742,64.38454,52.29412,64.73224,52.29412,65.16434z"/>
				</g>
			</g>
			<g>
				<g>
					<path class="st2" d="M59.84423,51.24104c0,0.4311-0.3467,0.7788-0.7783,0.7788c-0.4297,0-0.7793-0.3477-0.7793-0.7788
						c0-0.4321,0.3496-0.7798,0.7793-0.7798C59.49753,50.46124,59.84423,50.80894,59.84423,51.24104z"/>
				</g>
			</g>
			<g>
				<g>
					<path class="st2" d="M59.84423,58.20294c0,0.4312-0.3467,0.7788-0.7783,0.7788c-0.4297,0-0.7793-0.3476-0.7793-0.7788
						c0-0.4321,0.3496-0.7798,0.7793-0.7798C59.49753,57.42314,59.84423,57.77084,59.84423,58.20294z"/>
				</g>
			</g>
			<g>
				<g>
					<path class="st2" d="M59.84423,65.16434c0,0.4312-0.3467,0.77879-0.7783,0.77879c-0.4297,0-0.7793-0.3476-0.7793-0.77879
						c0-0.43211,0.3496-0.7798,0.7793-0.7798C59.49753,64.38454,59.84423,64.73224,59.84423,65.16434z"/>
				</g>
			</g>
		</g>
	</g>
</g>
<g id="Ebene_3">
</g>
<g id="bestehende_x5F_icons">
</g>
</svg>
