<?xml version="1.0" encoding="utf-8"?>
<!-- Generator: Adobe Illustrator 24.1.0, SVG Export Plug-In . SVG Version: 6.00 Build 0)  -->
<svg version="1.1" 	 viewBox="0 0 80 80" style="enable-background:new 0 0 80 80;" xml:space="preserve">
<style type="text/css">
	.st0{fill:#F2F2F0;}
	.st1{fill:none;stroke:#4A4A4A;stroke-width:2;stroke-linecap:round;stroke-linejoin:round;}
	.st2{fill:none;stroke:#4A4A4A;stroke-width:2;stroke-linecap:round;stroke-linejoin:round;stroke-miterlimit:10;}
	.st3{fill:none;stroke:#4A4A4A;stroke-width:2;stroke-linecap:round;stroke-linejoin:round;stroke-dasharray:3.4068,3.4068;}
	.st4{fill:none;stroke:#4A4A4A;stroke-width:2;stroke-linecap:round;stroke-linejoin:round;stroke-dasharray:3.22585,3.22585;}
	.st5{fill:none;stroke:#534F4E;stroke-width:2;stroke-linecap:round;stroke-linejoin:round;}
	.st6{fill:none;stroke:#534F4E;stroke-width:2;stroke-linecap:round;stroke-linejoin:round;stroke-miterlimit:10;}
	.st7{fill:#534F4E;}
	.st8{fill:none;stroke:#534F4E;stroke-width:2;stroke-linejoin:round;stroke-miterlimit:10;}
	.st9{fill:none;stroke:#534F4E;stroke-width:2;stroke-miterlimit:10;}
	.st10{fill:none;stroke:#000000;stroke-width:2.5;stroke-linecap:round;stroke-linejoin:round;stroke-miterlimit:10;}
	.st11{fill:#F2F2F0;stroke:#534F4E;stroke-width:2;stroke-linecap:round;stroke-linejoin:round;stroke-miterlimit:10;}
	.st12{fill:#F2F2F0;stroke:#534F4E;stroke-width:2;stroke-linecap:round;stroke-linejoin:round;}
	.st13{fill:#FFFFFF;stroke:#534F4E;stroke-width:2;stroke-linecap:round;stroke-linejoin:round;}
	.st14{fill:none;stroke:#534F4E;stroke-width:2;stroke-linecap:round;stroke-miterlimit:10;}
	.st15{fill:none;stroke:#534F4E;stroke-width:1.12243;stroke-miterlimit:10;}
	.st16{stroke:#534F4E;stroke-miterlimit:10;}
	.st17{fill:none;stroke:#534F4E;stroke-width:2;stroke-linecap:round;stroke-linejoin:round;stroke-dasharray:3.4068,3.4068;}
	.st18{fill:none;stroke:#534F4E;stroke-width:2;stroke-linecap:round;stroke-linejoin:round;stroke-dasharray:3.22585,3.22585;}
	.st19{fill:none;stroke:#534F4E;stroke-width:2.35866;stroke-linecap:round;stroke-linejoin:round;stroke-miterlimit:10;}
	.st20{fill:#534F4E;stroke:#534F4E;stroke-width:2;stroke-miterlimit:10;}
	.st21{fill:#534F4E;stroke:#534F4E;stroke-width:2;stroke-linecap:round;stroke-miterlimit:10;}
	.st22{fill:none;stroke:#534F4E;stroke-width:2.82782;stroke-linecap:round;stroke-linejoin:round;}
	
		.st23{fill:none;stroke:#534F4E;stroke-width:2.82782;stroke-linecap:round;stroke-linejoin:round;stroke-dasharray:0.05581,5.02265;}
</style>
<g id="BildHG">
</g>
<g id="_x38_0pxFlaeche">
</g>
<g id="Icon">
	<g>
		<g>
			<g>
				<path class="st2" d="M20.48935,11.86432c-4.00169,0-7.24484,2.35149-7.24484,5.2522h14.48931
					C27.73381,14.21581,24.4903,11.86432,20.48935,11.86432z"/>
				<path class="st2" d="M41.76015,7.42379H22.5563c-1.14251,0-2.07733,0.93486-2.07733,2.07755v2.29083"/>
			</g>
			<g>
				<g>
					<g>
						<g>
							<path class="st2" d="M15.09599,21.38c0,0.24198-0.19461,0.43715-0.43687,0.43715c-0.2412,0-0.43743-0.19517-0.43743-0.43715
								c0-0.24254,0.19623-0.43771,0.43743-0.43771C14.90138,20.94229,15.09599,21.13745,15.09599,21.38z"/>
						</g>
					</g>
					<g>
						<g>
							<path class="st2" d="M18.69948,21.38c0,0.24198-0.19455,0.43715-0.43687,0.43715c-0.24119,0-0.43743-0.19517-0.43743-0.43715
								c0-0.24254,0.19623-0.43771,0.43743-0.43771C18.50493,20.94229,18.69948,21.13745,18.69948,21.38z"/>
						</g>
					</g>
					<g>
						<g>
							<path class="st2" d="M22.30275,21.38c0,0.24198-0.19461,0.43715-0.43687,0.43715c-0.24119,0-0.43743-0.19517-0.43743-0.43715
								c0-0.24254,0.19624-0.43771,0.43743-0.43771C22.10814,20.94229,22.30275,21.13745,22.30275,21.38z"/>
						</g>
					</g>
					<g>
						<g>
							<path class="st2" d="M25.90623,21.38c0,0.24198-0.19461,0.43715-0.43687,0.43715c-0.2412,0-0.43743-0.19517-0.43743-0.43715
								c0-0.24254,0.19623-0.43771,0.43743-0.43771C25.71163,20.94229,25.90623,21.13745,25.90623,21.38z"/>
						</g>
					</g>
				</g>
				<g>
					<g>
						<g>
							<path class="st2" d="M15.09599,25.28779c0,0.24204-0.19461,0.43715-0.43687,0.43715
								c-0.2412,0-0.43743-0.19511-0.43743-0.43715c0-0.24254,0.19623-0.43771,0.43743-0.43771
								C14.90138,24.85008,15.09599,25.04524,15.09599,25.28779z"/>
						</g>
					</g>
					<g>
						<g>
							<path class="st2" d="M18.69948,25.28779c0,0.24204-0.19455,0.43715-0.43687,0.43715
								c-0.24119,0-0.43743-0.19511-0.43743-0.43715c0-0.24254,0.19623-0.43771,0.43743-0.43771
								C18.50493,24.85008,18.69948,25.04524,18.69948,25.28779z"/>
						</g>
					</g>
					<g>
						<g>
							<path class="st2" d="M22.30275,25.28779c0,0.24204-0.19461,0.43715-0.43687,0.43715
								c-0.24119,0-0.43743-0.19511-0.43743-0.43715c0-0.24254,0.19624-0.43771,0.43743-0.43771
								C22.10814,24.85008,22.30275,25.04524,22.30275,25.28779z"/>
						</g>
					</g>
					<g>
						<g>
							<path class="st2" d="M25.90623,25.28779c0,0.24204-0.19461,0.43715-0.43687,0.43715
								c-0.2412,0-0.43743-0.19511-0.43743-0.43715c0-0.24254,0.19623-0.43771,0.43743-0.43771
								C25.71163,24.85008,25.90623,25.04524,25.90623,25.28779z"/>
						</g>
					</g>
				</g>
				<g>
					<g>
						<g>
							<path class="st2" d="M15.09599,29.1953c0,0.24204-0.19461,0.43715-0.43687,0.43715
								c-0.2412,0-0.43743-0.19511-0.43743-0.43715c0-0.24254,0.19623-0.43771,0.43743-0.43771
								C14.90138,28.75759,15.09599,28.95275,15.09599,29.1953z"/>
						</g>
					</g>
					<g>
						<g>
							<path class="st2" d="M18.69948,29.1953c0,0.24204-0.19455,0.43715-0.43687,0.43715
								c-0.24119,0-0.43743-0.19511-0.43743-0.43715c0-0.24254,0.19623-0.43771,0.43743-0.43771
								C18.50493,28.75759,18.69948,28.95275,18.69948,29.1953z"/>
						</g>
					</g>
					<g>
						<g>
							<path class="st2" d="M22.30275,29.1953c0,0.24204-0.19461,0.43715-0.43687,0.43715
								c-0.24119,0-0.43743-0.19511-0.43743-0.43715c0-0.24254,0.19624-0.43771,0.43743-0.43771
								C22.10814,28.75759,22.30275,28.95275,22.30275,29.1953z"/>
						</g>
					</g>
					<g>
						<g>
							<path class="st2" d="M25.90623,29.1953c0,0.24204-0.19461,0.43715-0.43687,0.43715
								c-0.2412,0-0.43743-0.19511-0.43743-0.43715c0-0.24254,0.19623-0.43771,0.43743-0.43771
								C25.71163,28.75759,25.90623,28.95275,25.90623,29.1953z"/>
						</g>
					</g>
				</g>
			</g>
			<rect x="2.70361" y="2.9858" class="st2" width="39.05654" height="74.77967"/>
			<line class="st2" x1="7.54504" y1="36.93693" x2="7.54504" y2="44.78436"/>
		</g>
		<rect x="54.11734" y="4.48161" class="st2" width="18.59859" height="23.69979"/>
		<g>
			<path class="st2" d="M48.97669,45.16453v3.02822c0,3.62479,2.96574,6.59053,6.59053,6.59053h15.69882
				c3.62479,0,6.59053-2.96575,6.59053-6.59053v-3.02822H48.97669z"/>
			<line class="st2" x1="63.41663" y1="42.04086" x2="63.41663" y2="34.50221"/>
			<g>
				<circle class="st2" cx="67.43963" cy="39.32526" r="0.7376"/>
				<circle class="st2" cx="59.39364" cy="39.32526" r="0.7376"/>
			</g>
		</g>
		<rect x="59.6489" y="54.78328" class="st2" width="7.53547" height="7.53547"/>
	</g>
</g>
<g id="Ebene_3">
</g>
<g id="bestehende_x5F_icons">
</g>
</svg>
