<?xml version="1.0" encoding="utf-8"?>
<!-- Generator: Adobe Illustrator 23.0.6, SVG Export Plug-In . SVG Version: 6.00 Build 0)  -->
<svg version="1.1" id="Serviceschlüssel" 	 y="0px" viewBox="0 0 1000.7 496.1" style="enable-background:new 0 0 1000.7 496.1;" xml:space="preserve">
<title>Serviceschlüssel</title>
<path d="M267.8,496h-16.7c-0.2,0-0.4,0-0.6,0l-17.7-1c-0.2,0-0.5,0-0.7-0.1l-16.7-2.1c-0.2,0-0.3,0-0.5-0.1l-17.7-3.1
	c0,0-0.1,0-0.1,0l-16.7-3.1c-0.5-0.1-0.9-0.2-1.4-0.4l-15.6-5.2c-0.2-0.1-0.4-0.1-0.6-0.2l-15.6-6.3c-0.2-0.1-0.4-0.1-0.5-0.2
	l-15.6-7.3c-0.1,0-0.2-0.1-0.2-0.1l-14.6-7.3c-0.2-0.1-0.3-0.2-0.5-0.3l-14.6-8.3c-0.4-0.2-0.8-0.5-1.2-0.8l-13.5-10.4
	c-0.1-0.1-0.2-0.2-0.3-0.3L73.6,429c-0.1-0.1-0.2-0.2-0.3-0.3l-11.5-10.4c-0.2-0.2-0.5-0.5-0.7-0.7l-10.4-11.5
	c-0.1-0.1-0.2-0.2-0.3-0.3l-10.5-12.5c-0.3-0.4-0.6-0.8-0.9-1.2l-8.3-13.5c-0.1-0.2-0.2-0.3-0.3-0.5l-14.6-27.1
	c-0.2-0.4-0.4-0.9-0.6-1.4L10,335c-0.1-0.2-0.2-0.4-0.2-0.7l-4.2-14.6c-0.1-0.2-0.1-0.5-0.2-0.7l-3.1-14.6c-0.1-0.5-0.2-0.9-0.2-1.4
	L1,288.4l-1-15.6c0-0.1,0-0.3,0-0.4c0-0.1,0-0.3,0-0.4V223c0-0.3,0-0.5,0-0.8l1-14.5l1.1-14.7c0-0.4,0.1-0.8,0.2-1.3l3.1-15.6
	c0.1-0.3,0.1-0.5,0.2-0.8l4.2-14.6c0.1-0.3,0.2-0.6,0.3-0.9l5.2-13.5c0.1-0.3,0.3-0.6,0.4-0.9l7.3-14.6c0-0.1,0.1-0.2,0.1-0.3
	l7.3-13.5c0.2-0.3,0.3-0.6,0.5-0.8l8.3-12.5c0.2-0.3,0.4-0.6,0.7-0.9l10.5-12.5c0.1-0.1,0.2-0.2,0.3-0.3l10.4-11.5
	c0.1-0.1,0.2-0.3,0.4-0.4l11.5-11.5c0.2-0.2,0.4-0.4,0.7-0.6l12.5-10.4c0.2-0.2,0.5-0.4,0.7-0.6l13.5-9.4c0.2-0.2,0.5-0.3,0.8-0.5
	l29.2-16.7c0.4-0.2,0.8-0.4,1.3-0.6l31.3-12.5c0.2-0.1,0.4-0.1,0.6-0.2l15.6-5.2c0.2-0.1,0.5-0.2,0.7-0.2l16.7-4.2
	c0.2-0.1,0.5-0.1,0.7-0.2L215,2.2c0.4-0.1,0.8-0.1,1.2-0.1l16.7-1l17.8-1c0.2,0,0.4,0,0.6,0h16.7c0.2,0,0.4,0,0.6,0l17.7,1
	c0.2,0,0.5,0,0.7,0.1l16.7,2.1c0.2,0,0.3,0,0.5,0.1l17.7,3.1c0.1,0,0.2,0,0.3,0.1c0.1,0,0.3,0.1,0.4,0.1l611.9,140.7l9.3,2.1
	c0.8,0.2,1.6,0.5,2.4,0.9l16.6,8.3c0.6,0.3,1.1,0.6,1.6,1l8.3,6.3c0.4,0.3,0.7,0.6,1.1,0.9l12.5,12.5c0.6,0.6,1.2,1.4,1.7,2.2
	l4.2,7.3c0.3,0.5,0.5,1,0.7,1.5l6.3,16.7c0.3,0.8,0.5,1.6,0.6,2.4l1,8.3c0,0.4,0.1,0.8,0.1,1.2v3.1c0,0.4,0.1,0.7,0.1,1.1v49
	c0,0.4,0,0.8-0.1,1.1v4.1c0,0.4,0,0.8-0.1,1.2l-1,8.3c-0.1,0.8-0.3,1.6-0.6,2.4l-3.1,8.3c-0.1,0.1-0.1,0.3-0.2,0.4l-3.1,7.3
	c-0.2,0.4-0.3,0.7-0.5,1.1l-4.2,7.3c-0.3,0.6-0.7,1.1-1.1,1.6l-6.2,7.3c-0.2,0.2-0.4,0.4-0.5,0.6l-6.3,6.2c-0.5,0.5-1.1,1-1.8,1.4
	l-16.7,10.5c-0.6,0.4-1.2,0.7-1.9,0.9l-8.3,3.1c-0.1,0-0.2,0.1-0.4,0.1l-9,3c-0.4,0.2-0.9,0.3-1.4,0.4l-612,139.7
	c-0.3,0.1-0.5,0.1-0.8,0.1l-17.4,3.1l-16.6,3.1c-0.4,0.1-0.9,0.1-1.3,0.2l-17.7,1C268.2,496,268,496,267.8,496z M251.4,475.4h16.1
	l16.8-0.9l16-3c0,0,0.1,0,0.1,0l17.6-3.1l611.1-139.5l8.8-2.9l7.2-2.7l14.8-9.3l5.2-5.1l5.3-6.2l3.4-5.9l2.8-6.5l2.6-7l0.8-6.5v-2.5
	c0,0,0,0,0,0l-6.3,6.2c-0.5,0.5-1.1,1-1.8,1.4l-8.3,5.2c-0.3,0.2-0.6,0.3-0.9,0.5l-16.7,8.3c-0.8,0.4-1.6,0.7-2.4,0.8l-9.4,2.1
	l-612,140.7c-0.5,0.1-1,0.2-1.4,0.2l-16.8,3c-0.2,0-0.3,0.1-0.5,0.1l-16.7,2.1L269,447c-0.4,0-0.8,0.1-1.2,0.1h-16.7
	c-0.2,0-0.4,0-0.6,0l-17.7-1c-0.2,0-0.5,0-0.7-0.1l-16.7-2.1c-0.2,0-0.3,0-0.5-0.1l-17.7-3.1c-0.2,0-0.5-0.1-0.7-0.2l-16.7-4.2
	c-0.1,0-0.1,0-0.2,0l-15.6-4.2c-0.4-0.1-0.8-0.2-1.2-0.4l-15.6-6.3c-0.2-0.1-0.4-0.1-0.5-0.2l-15.6-7.3c-0.1,0-0.2-0.1-0.2-0.1
	l-14.6-7.3c-0.3-0.2-0.7-0.4-1-0.6l-14.6-9.4c-0.1-0.1-0.2-0.1-0.3-0.2L86.9,391c-0.3-0.2-0.5-0.4-0.7-0.6L73.6,380
	c-0.1-0.1-0.2-0.2-0.3-0.3l-11.5-10.4c-0.4-0.3-0.7-0.7-1-1l-20.9-25c-0.2-0.3-0.5-0.6-0.7-0.9l-8.3-12.5c-0.2-0.3-0.3-0.5-0.5-0.8
	l-1.4-2.7l0.5,1.9l4.9,13.5L48.5,368l7.8,12.7l9.9,11.8l9.9,10.9l10.9,9.9l12.2,10.2l12.8,9.9l13.7,7.9l14.2,7.1l15.2,7.1l15.1,6
	l14.6,4.9l15.9,3l17.4,3.1l16.1,2L251.4,475.4z M251.4,426.4h15.8l17.1-2l16.3-2l17.5-3.1c0.1,0,0.2,0,0.4-0.1l611.1-140.5
	c0,0,0.1,0,0.1,0l8.1-1.8l15.1-7.5l6.9-4.3l5.2-5.1l5.3-6.2l3.3-5.7l5.5-14.7l0.8-6.5v-7.1l-0.8-6.5l-5.5-14.7l-3.1-5.4l-11-11
	l-7-5.3l-14.7-7.4l-8.1-1.8c0,0-0.1,0-0.1,0L317.9,26.7l-17.2-3l-16.1-2l-17.1-1h-16.1l-3,0.2h16.3c0.2,0,0.4,0,0.7,0l15.6,1
	c0.2,0,0.4,0,0.6,0.1l16.7,2.1c0.2,0,0.4,0.1,0.6,0.1l16.6,3.1c0.1,0,0.2,0,0.3,0c0.1,0,0.2,0,0.3,0.1l611.9,140.7
	c0.1,0,0.2,0.1,0.3,0.1c0.1,0,0.2,0.1,0.3,0.1l7.2,2.1c0.4,0.1,0.8,0.3,1.2,0.4l7.3,3.1c0.4,0.2,0.7,0.3,1.1,0.5l7.3,4.2
	c0.8,0.5,1.5,1,2.2,1.7l5.2,5.2c0.2,0.2,0.4,0.5,0.6,0.7l5.2,6.3c0.2,0.3,0.4,0.6,0.6,0.9l4.2,6.3c0.6,0.9,1.1,1.9,1.3,2.9l2.1,7.3
	c0.1,0.5,0.2,1,0.3,1.4l1,7.3c0.1,0.5,0.1,0.9,0.1,1.4v7.3c0,0.5,0,0.9-0.1,1.4l-1,7.3c-0.1,0.6-0.2,1.3-0.4,1.9L972,244
	c-0.3,0.9-0.7,1.7-1.2,2.5l-4.2,6.3c-0.2,0.3-0.4,0.6-0.7,0.9l-5.2,6.2c-0.2,0.2-0.4,0.5-0.6,0.7l-5.2,5.2c-0.7,0.7-1.4,1.2-2.2,1.7
	l-7.3,4.2c-0.3,0.2-0.7,0.4-1.1,0.5l-14.6,6.2c-0.7,0.3-1.4,0.5-2.1,0.7L316,418.7c-0.1,0-0.1,0-0.2,0c-0.1,0-0.2,0-0.3,0.1
	l-16.6,3.1c-0.2,0-0.4,0.1-0.6,0.1l-16.7,2.1c-0.2,0-0.4,0-0.6,0.1l-15.6,1c-0.2,0-0.4,0-0.7,0H248c-0.2,0-0.4,0-0.6,0l-16.7-1
	c-0.2,0-0.4,0-0.7-0.1l-16.7-2.1c-0.2,0-0.5-0.1-0.7-0.1l-15.6-3.1c-0.2,0-0.4-0.1-0.6-0.1l-15.6-4.2c-0.2-0.1-0.4-0.1-0.6-0.2
	l-15.6-5.2c-0.3-0.1-0.5-0.2-0.8-0.3l-14.6-6.3c-0.2-0.1-0.4-0.2-0.5-0.3l-14.6-7.3c-0.3-0.1-0.5-0.3-0.8-0.4L106,377.8
	c-0.5-0.3-1.1-0.7-1.5-1.2l-22.9-20.8c-0.2-0.2-0.5-0.5-0.7-0.7l-10.4-11.5c-0.1-0.1-0.2-0.3-0.3-0.4l-9.4-11.5
	c-0.2-0.3-0.4-0.5-0.6-0.8l-8.3-12.5c-0.1-0.2-0.2-0.4-0.3-0.6l-7.3-12.5c-0.3-0.5-0.5-1-0.7-1.5L33,276.8c-0.1-0.3-0.2-0.6-0.3-0.9
	l-4.2-14.5c-0.1-0.4-0.2-0.8-0.3-1.3l-2.1-13.6c0-0.3-0.1-0.6-0.1-0.9l-1-14.6c0-0.2,0-0.5,0-0.7v-14.6c0-0.3,0-0.5,0-0.8l1-13.5
	c0-0.2,0-0.5,0.1-0.7l2.1-14.6c0.1-0.5,0.2-1.1,0.4-1.6l4.2-13.5c0.1-0.2,0.1-0.4,0.2-0.6l10.4-27.2c0.2-0.4,0.3-0.8,0.5-1.2
	l7.3-13.6c0.2-0.3,0.3-0.6,0.5-0.9l8.4-12.5c0.2-0.3,0.4-0.5,0.6-0.8l9.4-11.5c0.1-0.1,0.2-0.3,0.3-0.4L80.9,91
	c0.2-0.2,0.5-0.5,0.7-0.7L93,79.8c0.1-0.1,0.3-0.2,0.4-0.3l11.5-9.4c0.2-0.2,0.4-0.3,0.7-0.5l13.5-9.4c0.2-0.1,0.3-0.2,0.5-0.3
	l13.5-8.3c0.4-0.3,0.9-0.5,1.4-0.7l29.2-12.5c0.3-0.1,0.5-0.2,0.8-0.3l31.3-10.4c0.4-0.1,0.8-0.2,1.3-0.3l15.6-3.1
	c0.2,0,0.5-0.1,0.7-0.1l16.7-2.1c0.2,0,0.4,0,0.7-0.1l5.5-0.3l-2.2,0.1l-16.1,1l-16.8,3l-16,4l-15,5l-30.3,12.1l-28.2,16.1
	l-12.8,8.9l-11.8,9.8l-11,11l-10.1,11.1l-10,11.9l-7.8,11.6l-7,13l-7,14l-4.9,12.7l-3.9,13.7l-2.9,14.6l-1,14l-0.9,13.9l1,15l1,13.8
	l2.9,13.6l4,13.9l4.9,13.5l14,26l7.8,11.6l20.1,24.1l10.8,9.8l12,10l13,9l14,9l14,7l15.2,7.1l14.8,5.9l14.9,4l16.2,4.1l17.1,3
	l16.1,2L251.4,426.4z M201.3,398.5l2.7,0.5l-21.6-6.6c-0.4-0.1-0.9-0.3-1.3-0.5l-13.6-6.3c-0.1,0-0.2-0.1-0.3-0.1l-12.5-6.2
	c-0.3-0.2-0.6-0.3-0.9-0.5l-11.5-7.3c-0.2-0.1-0.4-0.2-0.5-0.4l-11.5-8.3c-0.1-0.1-0.3-0.2-0.4-0.3l-10.4-8.3
	c-0.4-0.4-0.8-0.7-1.2-1.2l-9.4-10.4c-0.1-0.2-0.3-0.3-0.4-0.5l-8.3-10.4c-0.1-0.2-0.3-0.4-0.4-0.5l-7.3-10.4
	c-0.1-0.1-0.2-0.2-0.2-0.4L85,308.9c-0.3-0.4-0.5-0.8-0.7-1.3l-5.2-11.5c-0.1-0.3-0.3-0.7-0.4-1l-4.2-12.5c-0.1-0.2-0.1-0.5-0.2-0.7
	l-3.2-12.5c-0.1-0.6-0.2-1.1-0.3-1.7l-2-24.8c0-0.3,0-0.6-0.1-0.9c0-0.1,0-0.2,0-0.2v-45.7c0-0.7,0.1-1.3,0.2-1.9l1.9-23.9
	c0-0.6,0.1-1.1,0.3-1.7l3.1-12.5c0.1-0.3,0.1-0.5,0.2-0.8l4.2-12.5c0.1-0.3,0.2-0.7,0.4-1l5.2-11.5c0.2-0.4,0.4-0.9,0.7-1.3
	l7.3-11.5c0.1-0.1,0.2-0.3,0.3-0.4l7.3-10.4c0.1-0.2,0.2-0.3,0.4-0.5l8.3-10.5c0.1-0.2,0.3-0.3,0.4-0.5l5.7-6.3l-8,6.5l-10.9,9.9
	l-9.9,10.9L77,127l-7.8,11.7l-6.8,12.5l-10,26.2l-3.8,12.5l-1.9,13.4l-0.9,12.8V230l0.9,13.8l1.9,12.5l3.9,13.5l10,25.9l6.7,11.5
	L77,319l8.9,10.9l9.9,10.9l21.9,19.9l25.9,15.9l13.9,7l13.9,6l14.9,5L201.3,398.5z M316.6,396.6l-7.6,2.3l2.5-0.5l552.8-126.2l0,0
	c-0.2-0.2-0.4-0.5-0.5-0.7l-4.2-6.2c-0.2-0.4-0.5-0.7-0.6-1.1l-3.1-6.3c-0.5-0.9-0.8-2-1-3l-1-6.2c-0.1-0.5-0.1-1.1-0.1-1.6v-13.6
	c0-1.1,0.2-2.2,0.5-3.3l2.1-6.2c0.3-0.9,0.7-1.7,1.2-2.5l4.2-6.3c0.2-0.3,0.3-0.5,0.5-0.7l4.2-5.2c0.2-0.3,0.5-0.6,0.8-0.8l5.2-5.2
	c0.5-0.5,1-0.9,1.6-1.3l6.2-4.2c0.5-0.4,1.1-0.7,1.7-0.9l7.3-3.1c0.4-0.2,0.8-0.3,1.2-0.4l7.3-2.1c0.5-0.1,0.9-0.2,1.4-0.3l7.3-1
	c0.5-0.1,0.9-0.1,1.4-0.1h7.3c0.4,0,0.8,0,1.2,0.1l8.3,1c0.5,0.1,1.1,0.2,1.6,0.3l7.3,2.1c0.6,0.2,1.2,0.4,1.8,0.7l6.3,3.1
	c0.4,0.2,0.8,0.4,1.1,0.6l0.7,0.4l-2.3-2.3l-5.6-3.2l-6.2-2.6l-6.4-1.8L357.2,58.1l0.8,0.4c0.2,0.1,0.4,0.2,0.6,0.3L371,66
	c0.4,0.3,0.9,0.5,1.3,0.9l20.9,16.7c0.4,0.4,0.8,0.7,1.2,1.2l18.8,20.9c0.3,0.3,0.5,0.6,0.8,1l7.3,10.4c0.2,0.3,0.4,0.6,0.6,1
	l6.2,11.5c0.1,0.2,0.2,0.4,0.3,0.7l5.2,11.5c0.1,0.3,0.3,0.7,0.4,1l4.2,12.5c0.1,0.2,0.2,0.5,0.2,0.8l3.1,12.5
	c0.1,0.3,0.1,0.5,0.2,0.8l2.1,12.5c0.1,0.6,0.1,1.1,0.1,1.7v70.9c0,0.6,0,1.1-0.1,1.7l-2.1,12.5c0,0.3-0.1,0.5-0.2,0.8l-3.1,12.5
	c-0.1,0.3-0.1,0.5-0.2,0.8l-4.2,12.5c-0.1,0.3-0.2,0.7-0.4,1l-5.2,11.5c-0.1,0.2-0.2,0.5-0.3,0.7l-6.2,11.5c-0.2,0.3-0.4,0.7-0.6,1
	l-7.3,10.4c-0.2,0.3-0.5,0.7-0.8,1L394.4,353c-0.4,0.4-0.8,0.8-1.2,1.2l-20.9,16.7c-0.4,0.3-0.8,0.6-1.2,0.9l-12.5,7.3
	c-0.2,0.1-0.4,0.2-0.6,0.3l-25,12.5c-0.6,0.3-1.2,0.5-1.8,0.7L316.6,396.6z M256.3,384.7h13.9l27.7-4l12.8-3.9c0.1,0,0.1,0,0.2-0.1
	l13.7-3.9l23.9-11.9l11.6-6.7l19.6-15.7l17.8-19.8l6.6-9.4l5.8-10.6l4.8-10.6l1.9-5.8l-2.3,3.7c-0.3,0.5-0.7,0.9-1,1.4l-9.4,10.4
	c-0.1,0.1-0.2,0.3-0.4,0.4l-9.4,9.4c-0.1,0.1-0.3,0.3-0.4,0.4l-10.4,9.4c-0.3,0.3-0.6,0.5-1,0.8l-10.4,7.3c-0.1,0-0.1,0.1-0.2,0.1
	l-12.5,8.3c-0.3,0.2-0.7,0.4-1.1,0.6l-12.5,6.3c-0.2,0.1-0.4,0.2-0.7,0.3l-12.5,5.2c-0.2,0.1-0.3,0.1-0.5,0.2l-14.6,5.2
	c-0.4,0.1-0.8,0.2-1.1,0.3l-13.6,3.1c-0.1,0-0.1,0-0.2,0l-14.6,3.1c-0.5,0.1-1,0.2-1.5,0.2l-29.2,2c-0.8,0.1-1.6,0-2.4-0.1
	l-28.2-1.9c-0.5,0-1-0.1-1.5-0.2l-14.6-3.1c-0.1,0-0.1,0-0.2,0l-13.6-3.2c-0.5-0.1-0.9-0.2-1.4-0.4l-27.1-10.4
	c-0.3-0.1-0.6-0.3-0.9-0.4l-12.5-6.2c-0.5-0.3-1-0.6-1.5-0.9l-11.2-8.2l-11.2-7.1c-0.5-0.3-0.9-0.7-1.4-1l-10.4-9.4
	c-0.1-0.1-0.3-0.2-0.4-0.4l-9.4-9.4c-0.3-0.3-0.5-0.6-0.8-0.8l-8.3-10.4c-0.2-0.3-0.5-0.6-0.7-0.9l-4.5-7.1l3.1,9.3l4.7,10.3
	l6.8,10.7l7,10l7.9,9.9l8.6,9.6l9.6,7.7l11,8l10.7,6.8l11.9,5.9l12.8,5.9l25.7,7.9l27.7,4H256.3z M228.6,337.9l28,1.9l27.4-1.9
	l13.8-3l12.9-3l13.8-4.9l11.9-5l11.7-5.9l11.9-7.9l9.8-6.9l9.7-8.8l9-9l8.6-9.6l6.6-10.4l5.9-10.8l4.8-10.6l3.9-11.6l2.9-11.7
	l1.9-11.3v-23.3l-1.9-11.3l-2.9-11.7l-3.9-11.6l-4.8-10.6l-5.8-10.6l-6.6-9.4l-17.8-19.8L360,83.5l-11.6-6.7l-23.8-11.9L310.9,61
	c-0.1,0-0.2,0-0.2-0.1L297.9,57l-27.7-4h-27.7l-27.7,4l-25.7,7.9l-12.8,5.9l-11.9,5.9l-10.8,6.8l-11,8l-9.6,7.7l-8.6,9.5l-7.9,10
	l-7,10l-6.8,10.7l-4.7,10.3l-3.9,11.6l-2.8,11.3l-1.9,23.3l1.9,23.3l2.8,11.3l3.9,11.6l4.7,10.3l13.9,21.9l7.6,9.5l8.8,8.8l9.6,8.6
	l10.7,6.8c0.2,0.1,0.4,0.2,0.5,0.4l10.8,7.8l11.3,5.6l26,10l12.8,3L228.6,337.9z M888.1,266.2l0.9,0.4l33.5-7.7l13.2-5.6l5.6-3.2
	l3.9-3.9l4-4.8l0.4-1.9l-0.6-3.6l-1.4-4.1l-3.2-4.7l-3.5-4.4l-4.1-4.1l-4.9-3.2l-4.8-2.4l-5.6-1.6l-6.9-0.8h-6l-5.9,0.8l-6,1.7
	l-5.8,2.5l-4.6,3.1l-4.1,4.1l-3.5,4.4l-3.2,4.7l-1.1,3.3v11.1l0.6,3.9l2.1,4.3l3.6,5.3l2.9,3.6L888.1,266.2z M205.3,317.8
	c-0.7,0-1.3-0.1-2-0.2c-0.8-0.1-1.5-0.4-2.2-0.7l-12.3-5.1c-0.1,0-0.2-0.1-0.3-0.1l-11.5-5.2c-0.4-0.2-0.7-0.3-1-0.6l-10.5-6.3
	c-0.4-0.2-0.8-0.5-1.1-0.8l-10.4-8.3c-0.1-0.1-0.2-0.2-0.3-0.3l-8.3-7.3c-0.3-0.3-0.6-0.6-0.9-0.9l-8.3-9.4
	c-0.1-0.2-0.3-0.3-0.4-0.5l-7.3-9.4c-0.3-0.3-0.5-0.7-0.7-1l-6.3-10.4c-0.3-0.5-0.5-1-0.7-1.5l-4.2-10.4c0-0.1-0.1-0.2-0.1-0.3
	l-4.2-11.5c-0.2-0.5-0.3-1-0.4-1.5l-2.1-10.4c0-0.1,0-0.1,0-0.2l-0.1-0.3c-0.9-1.7-1.2-3.7-1-5.7l-1-5.5c-0.1-0.6-0.2-1.2-0.2-1.9
	v-11.5c0-0.6,0.1-1.2,0.2-1.9l4.2-22.9c0.1-0.7,0.3-1.4,0.6-2l4.1-10.3l4.1-11.3c0.3-0.8,0.7-1.5,1.1-2.2l6.3-9.4
	c0.1-0.2,0.3-0.4,0.4-0.6l7.3-9.4c0.1-0.2,0.3-0.4,0.4-0.5l8.3-9.4c0.1-0.2,0.3-0.3,0.4-0.4l8.3-8.3c0.4-0.4,0.9-0.8,1.4-1.2
	l20.9-14.6c0.5-0.4,1.1-0.7,1.6-0.9l11.5-5.2c0.1,0,0.2-0.1,0.3-0.1l12.3-5.1c0.7-0.3,1.4-0.5,2.1-0.7c0.8-0.2,1.5-0.2,2.3-0.2h102
	c1.7-0.2,3.5,0.1,5.2,0.9l22.9,10.4c0.6,0.3,1.1,0.6,1.7,0.9l20.9,14.6c0.3,0.2,0.6,0.5,1,0.8l9.3,8.3c0.5,0.4,0.9,0.9,1.3,1.4
	l14.6,18.8c0.2,0.2,0.3,0.4,0.4,0.6l6.2,9.4c0.3,0.5,0.6,1,0.8,1.5l5.2,11.5c0.2,0.4,0.4,0.9,0.5,1.3l3.1,10.4c0,0.1,0,0.2,0.1,0.3
	l3.1,11.5c0.2,0.6,0.3,1.2,0.3,1.8l1,11.5c0,0.3,0,0.6,0,0.9v11.4c0,0.3,0,0.6,0,0.9l-1,11.5c-0.1,0.7-0.2,1.4-0.4,2.1l-3.1,10.3
	l-3.1,11.3c-0.2,0.7-0.4,1.3-0.7,1.9l-4.3,8.5c-0.3,2.1-1.3,4.1-2.9,5.7c-0.2,0.2-0.4,0.4-0.6,0.6l-4.1,6.8c-0.2,0.4-0.5,0.7-0.7,1
	l-14.6,18.8c-0.5,0.7-1.1,1.3-1.8,1.8l-9.3,7.2c-0.5,0.6-1.1,1.1-1.8,1.5l-0.7,0.5l-7.9,6.3c-0.4,0.3-0.7,0.5-1.1,0.8l-10.4,6.3
	c-0.3,0.2-0.7,0.4-1,0.6L313,316.8c-0.7,0.4-1.5,0.6-2.3,0.8c-0.8,0.2-1.6,0.2-2.4,0.2H205.6C205.5,317.8,205.4,317.8,205.3,317.8z
	 M207.4,297.1h98.9l20.4-9.3l9.3-5.6l4.2-3.4c0.6-0.7,1.4-1.4,2.2-2l1-0.7l9-16.2l3.6-8l1.8-8.3l1.9-9.3v-7.9l-0.9-9.4l-1.9-9.3
	l-2.8-8.3l-3.8-8.5l-4.5-8l-6.4-7.3l-6.8-6.8l-7.6-6.6l-8.5-5.7l-8.4-4.7l-9.7-3.9l-10.5-3.8l-21.1-3.8h-21.1l-21,3.8l-19.5,7.8
	l-9.5,4.7l-8.3,5.5l-7.6,6.6l-6.5,6.5l-5.4,7.2l-9.6,17.3l-2.6,7.9l-1.9,9.3l-0.9,8.9l0.9,8.3c0,0,0,0.1,0,0.1l0.9,9.3l5.6,16.7
	l4.5,8.2l5.4,8.2l1.4,1.3c0.1,0.1,0.3,0.3,0.4,0.4l4.5,3.6l9.3,5.6l10.8,4.9L207.4,297.1z M318.9,107.7l6.2,2.6
	c0.2,0.1,0.4,0.2,0.6,0.3l12.5,6.2c0.3,0.2,0.6,0.3,0.9,0.5l11.5,7.3c0.3,0.2,0.6,0.4,0.9,0.7l7.9,6.3l-5.2-6.7l-8.2-7.3l-19.6-13.7
	l-7.5-3.4V107.7z M159.7,124.8l-4.2,4.7l9.5-6.7c0.2-0.1,0.4-0.3,0.6-0.4l10.4-6.2c0.1-0.1,0.2-0.1,0.4-0.2l11.5-6.3
	c0.5-0.3,1.1-0.5,1.7-0.7l5.4-1.8v-7.2l-8.5,3.9l-19.3,13.5L159.7,124.8z M215.7,104.2h82.5v-9.5h-82.5V104.2z"/>
</svg>
