<?xml version="1.0" encoding="utf-8"?>
<!-- Generator: Adobe Illustrator 24.1.0, SVG Export Plug-In . SVG Version: 6.00 Build 0)  -->
<svg version="1.1" 	 viewBox="0 0 80 80" style="enable-background:new 0 0 80 80;" xml:space="preserve">
<style type="text/css">
	.st0{fill:#F2F2F0;}
	.st1{fill:none;stroke:#4A4A4A;stroke-width:2;stroke-linecap:round;stroke-linejoin:round;}
	.st2{fill:none;stroke:#4A4A4A;stroke-width:2;stroke-linecap:round;stroke-linejoin:round;stroke-miterlimit:10;}
	.st3{fill:none;stroke:#4A4A4A;stroke-width:2;stroke-linecap:round;stroke-linejoin:round;stroke-dasharray:3.4068,3.4068;}
	.st4{fill:none;stroke:#4A4A4A;stroke-width:2;stroke-linecap:round;stroke-linejoin:round;stroke-dasharray:3.22585,3.22585;}
	.st5{fill:none;stroke:#534F4E;stroke-width:2;stroke-linecap:round;stroke-linejoin:round;}
	.st6{fill:none;stroke:#534F4E;stroke-width:2;stroke-linecap:round;stroke-linejoin:round;stroke-miterlimit:10;}
	.st7{fill:#534F4E;}
	.st8{fill:none;stroke:#534F4E;stroke-width:2;stroke-linejoin:round;stroke-miterlimit:10;}
	.st9{fill:none;stroke:#534F4E;stroke-width:2;stroke-miterlimit:10;}
	.st10{fill:none;stroke:#000000;stroke-width:2.5;stroke-linecap:round;stroke-linejoin:round;stroke-miterlimit:10;}
	.st11{fill:#F2F2F0;stroke:#534F4E;stroke-width:2;stroke-linecap:round;stroke-linejoin:round;stroke-miterlimit:10;}
	.st12{fill:#F2F2F0;stroke:#534F4E;stroke-width:2;stroke-linecap:round;stroke-linejoin:round;}
	.st13{fill:#FFFFFF;stroke:#534F4E;stroke-width:2;stroke-linecap:round;stroke-linejoin:round;}
	.st14{fill:none;stroke:#534F4E;stroke-width:2;stroke-linecap:round;stroke-miterlimit:10;}
	.st15{fill:none;stroke:#534F4E;stroke-width:1.12243;stroke-miterlimit:10;}
	.st16{stroke:#534F4E;stroke-miterlimit:10;}
	.st17{fill:none;stroke:#534F4E;stroke-width:2;stroke-linecap:round;stroke-linejoin:round;stroke-dasharray:3.4068,3.4068;}
	.st18{fill:none;stroke:#534F4E;stroke-width:2;stroke-linecap:round;stroke-linejoin:round;stroke-dasharray:3.22585,3.22585;}
	.st19{fill:none;stroke:#534F4E;stroke-width:2.35866;stroke-linecap:round;stroke-linejoin:round;stroke-miterlimit:10;}
	.st20{fill:#534F4E;stroke:#534F4E;stroke-width:2;stroke-miterlimit:10;}
	.st21{fill:#534F4E;stroke:#534F4E;stroke-width:2;stroke-linecap:round;stroke-miterlimit:10;}
	.st22{fill:none;stroke:#534F4E;stroke-width:2.82782;stroke-linecap:round;stroke-linejoin:round;}
	
		.st23{fill:none;stroke:#534F4E;stroke-width:2.82782;stroke-linecap:round;stroke-linejoin:round;stroke-dasharray:0.05581,5.02265;}
</style>
<g id="BildHG">
</g>
<g id="_x38_0pxFlaeche">
</g>
<g id="Icon">
	<g>
		<path class="st2" d="M43.4681,11.28882c-4.00169,0-7.24484,2.35149-7.24484,5.2522h14.48931
			C50.71257,13.64031,47.46905,11.28882,43.4681,11.28882z"/>
		<path class="st2" d="M43.45773,11.21667V8.92584c0-1.14269,0.93482-2.07755,2.07732-2.07755h15.15686v30.17612h4.04699"/>
	</g>
	<g>
		<g>
			<g>
				<g>
					<path class="st2" d="M37.85617,20.80436c0,0.12099-0.09731,0.21857-0.21844,0.21857c-0.1206,0-0.21871-0.09758-0.21871-0.21857
						c0-0.12127,0.09811-0.21885,0.21871-0.21885C37.75887,20.5855,37.85617,20.68308,37.85617,20.80436z"/>
				</g>
			</g>
			<g>
				<g>
					<path class="st2" d="M41.45966,20.80436c0,0.12099-0.09727,0.21857-0.21843,0.21857c-0.1206,0-0.21872-0.09758-0.21872-0.21857
						c0-0.12127,0.09812-0.21885,0.21872-0.21885C41.36239,20.5855,41.45966,20.68308,41.45966,20.80436z"/>
				</g>
			</g>
			<g>
				<g>
					<path class="st2" d="M45.06293,20.80436c0,0.12099-0.0973,0.21857-0.21843,0.21857c-0.1206,0-0.21872-0.09758-0.21872-0.21857
						c0-0.12127,0.09812-0.21885,0.21872-0.21885C44.96563,20.5855,45.06293,20.68308,45.06293,20.80436z"/>
				</g>
			</g>
			<g>
				<g>
					<path class="st2" d="M48.66642,20.80436c0,0.12099-0.09731,0.21857-0.21843,0.21857c-0.1206,0-0.21872-0.09758-0.21872-0.21857
						c0-0.12127,0.09812-0.21885,0.21872-0.21885C48.56911,20.5855,48.66642,20.68308,48.66642,20.80436z"/>
				</g>
			</g>
		</g>
		<g>
			<g>
				<g>
					<path class="st2" d="M37.85617,24.71214c0,0.12102-0.09731,0.21857-0.21844,0.21857c-0.1206,0-0.21871-0.09756-0.21871-0.21857
						c0-0.12127,0.09811-0.21885,0.21871-0.21885C37.75887,24.49329,37.85617,24.59087,37.85617,24.71214z"/>
				</g>
			</g>
			<g>
				<g>
					<path class="st2" d="M41.45966,24.71214c0,0.12102-0.09727,0.21857-0.21843,0.21857c-0.1206,0-0.21872-0.09756-0.21872-0.21857
						c0-0.12127,0.09812-0.21885,0.21872-0.21885C41.36239,24.49329,41.45966,24.59087,41.45966,24.71214z"/>
				</g>
			</g>
			<g>
				<g>
					<path class="st2" d="M45.06293,24.71214c0,0.12102-0.0973,0.21857-0.21843,0.21857c-0.1206,0-0.21872-0.09756-0.21872-0.21857
						c0-0.12127,0.09812-0.21885,0.21872-0.21885C44.96563,24.49329,45.06293,24.59087,45.06293,24.71214z"/>
				</g>
			</g>
			<g>
				<g>
					<path class="st2" d="M48.66642,24.71214c0,0.12102-0.09731,0.21857-0.21843,0.21857c-0.1206,0-0.21872-0.09756-0.21872-0.21857
						c0-0.12127,0.09812-0.21885,0.21872-0.21885C48.56911,24.49329,48.66642,24.59087,48.66642,24.71214z"/>
				</g>
			</g>
		</g>
		<g>
			<g>
				<g>
					<path class="st2" d="M37.85617,28.61965c0,0.12102-0.09731,0.21857-0.21844,0.21857c-0.1206,0-0.21871-0.09756-0.21871-0.21857
						c0-0.12127,0.09811-0.21885,0.21871-0.21885C37.75887,28.4008,37.85617,28.49838,37.85617,28.61965z"/>
				</g>
			</g>
			<g>
				<g>
					<path class="st2" d="M41.45966,28.61965c0,0.12102-0.09727,0.21857-0.21843,0.21857c-0.1206,0-0.21872-0.09756-0.21872-0.21857
						c0-0.12127,0.09812-0.21885,0.21872-0.21885C41.36239,28.4008,41.45966,28.49838,41.45966,28.61965z"/>
				</g>
			</g>
			<g>
				<g>
					<path class="st2" d="M45.06293,28.61965c0,0.12102-0.0973,0.21857-0.21843,0.21857c-0.1206,0-0.21872-0.09756-0.21872-0.21857
						c0-0.12127,0.09812-0.21885,0.21872-0.21885C44.96563,28.4008,45.06293,28.49838,45.06293,28.61965z"/>
				</g>
			</g>
			<g>
				<g>
					<path class="st2" d="M48.66642,28.61965c0,0.12102-0.09731,0.21857-0.21843,0.21857c-0.1206,0-0.21872-0.09756-0.21872-0.21857
						c0-0.12127,0.09812-0.21885,0.21872-0.21885C48.56911,28.4008,48.66642,28.49838,48.66642,28.61965z"/>
				</g>
			</g>
		</g>
	</g>
	<rect x="15.50508" y="2.4103" class="st2" width="49.23382" height="74.77967"/>
	<line class="st2" x1="25.7471" y1="2.4103" x2="25.7471" y2="77.18996"/>
	<line class="st2" x1="30.52379" y1="36.36143" x2="30.52379" y2="44.20885"/>
	<circle class="st2" cx="60.69191" cy="37.02441" r="1.39703"/>
	<line class="st2" x1="56.01503" y1="37.02441" x2="60.69191" y2="37.02441"/>
</g>
<g id="Ebene_3">
</g>
<g id="bestehende_x5F_icons">
</g>
</svg>
