<?xml version="1.0" encoding="utf-8"?>
<!-- Generator: Adobe Illustrator 24.1.0, SVG Export Plug-In . SVG Version: 6.00 Build 0)  -->
<svg version="1.1" 	 viewBox="0 0 80 80" style="enable-background:new 0 0 80 80;" xml:space="preserve">
<style type="text/css">
	.st0{fill:#F2F2F0;}
	.st1{fill:none;stroke:#4A4A4A;stroke-width:2;stroke-linecap:round;stroke-linejoin:round;}
	.st2{fill:none;stroke:#4A4A4A;stroke-width:2;stroke-linecap:round;stroke-linejoin:round;stroke-miterlimit:10;}
	.st3{fill:none;stroke:#4A4A4A;stroke-width:2;stroke-linecap:round;stroke-linejoin:round;stroke-dasharray:3.4068,3.4068;}
	.st4{fill:none;stroke:#4A4A4A;stroke-width:2;stroke-linecap:round;stroke-linejoin:round;stroke-dasharray:3.22585,3.22585;}
	.st5{fill:none;stroke:#534F4E;stroke-width:2;stroke-linecap:round;stroke-linejoin:round;}
	.st6{fill:none;stroke:#534F4E;stroke-width:2;stroke-linecap:round;stroke-linejoin:round;stroke-miterlimit:10;}
	.st7{fill:#534F4E;}
	.st8{fill:none;stroke:#534F4E;stroke-width:2;stroke-linejoin:round;stroke-miterlimit:10;}
	.st9{fill:none;stroke:#534F4E;stroke-width:2;stroke-miterlimit:10;}
	.st10{fill:none;stroke:#000000;stroke-width:2.5;stroke-linecap:round;stroke-linejoin:round;stroke-miterlimit:10;}
	.st11{fill:#F2F2F0;stroke:#534F4E;stroke-width:2;stroke-linecap:round;stroke-linejoin:round;stroke-miterlimit:10;}
	.st12{fill:#F2F2F0;stroke:#534F4E;stroke-width:2;stroke-linecap:round;stroke-linejoin:round;}
	.st13{fill:#FFFFFF;stroke:#534F4E;stroke-width:2;stroke-linecap:round;stroke-linejoin:round;}
	.st14{fill:none;stroke:#534F4E;stroke-width:2;stroke-linecap:round;stroke-miterlimit:10;}
	.st15{fill:none;stroke:#534F4E;stroke-width:1.12243;stroke-miterlimit:10;}
	.st16{stroke:#534F4E;stroke-miterlimit:10;}
	.st17{fill:none;stroke:#534F4E;stroke-width:2;stroke-linecap:round;stroke-linejoin:round;stroke-dasharray:3.4068,3.4068;}
	.st18{fill:none;stroke:#534F4E;stroke-width:2;stroke-linecap:round;stroke-linejoin:round;stroke-dasharray:3.22585,3.22585;}
	.st19{fill:none;stroke:#534F4E;stroke-width:2.35866;stroke-linecap:round;stroke-linejoin:round;stroke-miterlimit:10;}
	.st20{fill:#534F4E;stroke:#534F4E;stroke-width:2;stroke-miterlimit:10;}
	.st21{fill:#534F4E;stroke:#534F4E;stroke-width:2;stroke-linecap:round;stroke-miterlimit:10;}
	.st22{fill:none;stroke:#534F4E;stroke-width:2.82782;stroke-linecap:round;stroke-linejoin:round;}
	
		.st23{fill:none;stroke:#534F4E;stroke-width:2.82782;stroke-linecap:round;stroke-linejoin:round;stroke-dasharray:0.05581,5.02265;}
</style>
<g id="BildHG">
</g>
<g id="_x38_0pxFlaeche">
</g>
<g id="Icon">
	<polygon class="st2" points="54.80034,46.02631 37.61223,46.02631 37.61223,53.84443 41.02483,53.84443 41.02483,72.49482 
		48.84295,72.49482 48.84295,53.84443 54.80034,53.84443 	"/>
	<polyline class="st2" points="37.33019,49.93538 33.1951,49.93538 33.1951,61.16607 	"/>
	<line class="st1" x1="58.34595" y1="45.46915" x2="59.84748" y2="44.96709"/>
	<line class="st3" x1="63.07843" y1="43.88679" x2="74.38691" y2="40.10572"/>
	<line class="st1" x1="76.00239" y1="39.56557" x2="77.50391" y2="39.06351"/>
	<g>
		<line class="st1" x1="58.34595" y1="48.42428" x2="59.91791" y2="48.23543"/>
		<line class="st4" x1="63.12073" y1="47.85065" x2="74.33057" y2="46.50391"/>
		<line class="st1" x1="75.93195" y1="46.31152" x2="77.50391" y2="46.12268"/>
	</g>
	<g>
		<line class="st1" x1="58.34595" y1="53.91666" x2="59.84748" y2="54.41871"/>
		<line class="st3" x1="63.07843" y1="55.49902" x2="74.38691" y2="59.28009"/>
		<line class="st1" x1="76.00239" y1="59.82024" x2="77.50391" y2="60.32229"/>
	</g>
	<g>
		<line class="st1" x1="58.34595" y1="50.96152" x2="59.91791" y2="51.15038"/>
		<line class="st4" x1="63.12073" y1="51.53516" x2="74.33057" y2="52.88189"/>
		<line class="st1" x1="75.93195" y1="53.07428" x2="77.50391" y2="53.26313"/>
	</g>
	<path class="st1" d="M10.52612,48.48094H4.22603V22.40195c0-4.05562,2.01434-9.21568,5.13146-13.14658
		c4.07889-5.14343,9.75809-7.97621,15.99133-7.97621c6.48766,0,11.91942,2.0456,16.14431,6.08026
		c3.55278,3.39215,6.09789,8.14781,7.36097,13.75284l-6.14578,1.38479c-1.25543-5.57144-5.18034-14.91781-17.3595-14.91781
		c-10.26491,0-14.8227,10.74048-14.8227,14.8227V48.48094z"/>
	<polygon class="st1" points="9.6076,65.18293 9.6076,54.32807 12.80364,54.32807 12.80364,48.4809 1.94872,48.4809 
		1.94872,72.49482 12.80364,72.49482 12.80364,65.18293 	"/>
	
		<rect x="10.11368" y="53.82197" transform="matrix(-1.836970e-16 1 -1 -1.836970e-16 75.29663 44.2144)" class="st1" width="10.85488" height="11.86709"/>
	<polygon class="st1" points="17.29417,39.46985 17.29417,57.85929 17.29417,57.85929 17.29417,39.46985 	"/>
</g>
<g id="Ebene_3">
</g>
<g id="bestehende_x5F_icons">
</g>
</svg>
