<svg xmlns="http://www.w3.org/2000/svg" viewBox="0 0 100 100"><defs><style>.cls-1,.cls-3,.cls-5{fill:#fff;}.cls-2,.cls-4{fill:none;}.cls-2,.cls-3,.cls-4,.cls-5{stroke:#000;stroke-linejoin:round;stroke-width:1.8px;}.cls-4,.cls-5{stroke-linecap:round;}.cls-6{fill:#1d1d1b;}</style></defs><title>np_kreisPictosWeb_100x100px_190726</title><g id="weisser_hg"><path class="cls-1" d="M100,50A50,50,0,1,1,50,0,50,50,0,0,1,100,50Z"/></g><g id="illu"><polygon class="cls-2" points="34.88 88.54 34.88 19.31 65.23 10.04 65.25 79.12 34.88 88.54"/><path class="cls-2" d="M47.94,23.06a1.76,1.76,0,0,0,2.14.68,3.82,3.82,0,0,0,2.2-2l2.6-.8a2.05,2.05,0,0,0,1.33-1.83v-.2A.94.94,0,0,0,55,17.88l-2.59.8A1.8,1.8,0,0,0,50.24,18,4,4,0,0,0,48,20l-2.59.78a2,2,0,0,0-1.32,1.83l0,.21a.94.94,0,0,0,1.24,1.05Z"/><line class="cls-3" x1="65.32" y1="21.74" x2="34.87" y2="31.13"/><path class="cls-4" d="M44.72,81.79c3.06,1.25,10,3.33,15,1.77,3.23-1,4.16-3.3-2.61-5.57Z"/><polygon class="cls-4" points="57.14 77.99 44.72 81.77 44.72 64.46 57.14 60.7 57.14 77.99"/><line class="cls-4" x1="62.18" y1="81.41" x2="62.18" y2="64.11"/><path class="cls-5" d="M44.72,64.46c3.06,1.25,10,3.35,15,1.78,3.23-1,4.16-3.29-2.61-5.55Z"/><path class="cls-5" d="M44.72,81.79c3.06,1.25,10,3.33,15,1.77,1.53-.48,2.53-1.25,2.46-2.15h0V64.11h0c.06.89-1,1.64-2.46,2.13-5,1.57-11.93-.53-15-1.78Z"/><path d="M46.51,46.78,50,39.5a.36.36,0,0,1,.26-.23l2.7-.92c.17-.05.21,0,.15.15l-3.09,6.34,0,0a3.88,3.88,0,0,1,.89-.43c2.28-.77,4.14.21,4.12,2.73,0,2.76-2.12,5.09-4.86,6s-4.84,0-4.82-2.67A8.49,8.49,0,0,1,46.51,46.78Zm3.75,4a2.75,2.75,0,0,0,1.92-2.55c0-1.12-.73-1.65-1.9-1.26a2.75,2.75,0,0,0-1.92,2.57C48.35,50.67,49.09,51.21,50.26,50.81Z"/></g><g id="obererRING"><path class="cls-6" d="M50,1.8A48.2,48.2,0,1,1,1.8,50,48.25,48.25,0,0,1,50,1.8M50,0a50,50,0,1,0,50,50A50,50,0,0,0,50,0Z"/></g></svg>
