<svg xmlns="http://www.w3.org/2000/svg" viewBox="0 0 100 100"><defs><style>.cls-1,.cls-3,.cls-5{fill:#fff;}.cls-2,.cls-4{fill:none;}.cls-2,.cls-3,.cls-4,.cls-5{stroke:#000;stroke-linejoin:round;stroke-width:1.8px;}.cls-4,.cls-5{stroke-linecap:round;}.cls-6{fill:#1d1d1b;}</style></defs><title>np_kreisPictosWeb_100x100px_190726</title><g id="weisser_hg"><path class="cls-1" d="M100,50A50,50,0,1,1,50,0,50,50,0,0,1,100,50Z"/></g><g id="illu"><polygon class="cls-2" points="34.88 88.54 34.88 19.31 65.23 10.04 65.25 79.12 34.88 88.54"/><path class="cls-2" d="M47.94,23.06a1.76,1.76,0,0,0,2.14.68,3.82,3.82,0,0,0,2.2-2l2.6-.8a2.05,2.05,0,0,0,1.33-1.83v-.2A.94.94,0,0,0,55,17.88l-2.59.8A1.8,1.8,0,0,0,50.24,18,4,4,0,0,0,48,20l-2.59.78a2,2,0,0,0-1.32,1.83l0,.21a.94.94,0,0,0,1.24,1.05Z"/><line class="cls-3" x1="65.32" y1="21.74" x2="34.87" y2="31.13"/><path class="cls-4" d="M44.72,81.79c3.06,1.25,10,3.33,15,1.77,3.23-1,4.16-3.3-2.61-5.57Z"/><polygon class="cls-4" points="57.14 77.99 44.72 81.77 44.72 64.46 57.14 60.7 57.14 77.99"/><line class="cls-4" x1="62.18" y1="81.41" x2="62.18" y2="64.11"/><path class="cls-5" d="M44.72,64.46c3.06,1.25,10,3.35,15,1.78,3.23-1,4.16-3.29-2.61-5.55Z"/><path class="cls-5" d="M44.72,81.79c3.06,1.25,10,3.33,15,1.77,1.53-.48,2.53-1.25,2.46-2.15h0V64.11h0c.06.89-1,1.64-2.46,2.13-5,1.57-11.93-.53-15-1.78Z"/><path d="M49.54,42.71h0L47.2,45c-.13.13-.24.12-.24,0l0-2.5a.45.45,0,0,1,.15-.33l2.43-2.48a.88.88,0,0,1,.38-.24l2.38-.81c.13-.05.21,0,.21.12L52.46,52a.32.32,0,0,1-.22.28l-2.55.86c-.12.05-.21,0-.2-.13Z"/></g><g id="obererRING"><path class="cls-6" d="M50,1.8A48.2,48.2,0,1,1,1.8,50,48.25,48.25,0,0,1,50,1.8M50,0a50,50,0,1,0,50,50A50,50,0,0,0,50,0Z"/></g></svg>
