<svg xmlns="http://www.w3.org/2000/svg" xmlns:xlink="http://www.w3.org/1999/xlink" viewBox="0 0 100 100"><defs><style>.cls-1,.cls-4,.cls-5{fill:none;}.cls-2,.cls-6,.cls-8{fill:#fff;}.cls-3{clip-path:url(#clip-path);}.cls-4{stroke:#e20613;stroke-linejoin:round;}.cls-4,.cls-6{stroke-linecap:round;stroke-width:2.5px;}.cls-5,.cls-6,.cls-7,.cls-8{stroke:#1d1d1b;stroke-miterlimit:10;}.cls-5,.cls-8{stroke-width:1.8px;}.cls-7,.cls-9{fill:#1d1d1b;}.cls-7{stroke-width:0.94px;}</style><clipPath id="clip-path"><path class="cls-1" d="M100,50A50,50,0,1,1,50,0,50,50,0,0,1,100,50Z"/></clipPath></defs><title>np_kreisPictosWeb_100x100px_190726</title><g id="weisser_hg"><path class="cls-2" d="M100,50A50,50,0,1,1,50,0,50,50,0,0,1,100,50Z"/></g><g id="illu"><g class="cls-3"><line class="cls-4" x1="33.19" y1="82.23" x2="47.82" y2="82.1"/><line class="cls-4" x1="33.19" y1="82.23" x2="39.26" y2="77.54"/><line class="cls-4" x1="33.19" y1="82.27" x2="39.31" y2="86.7"/><line class="cls-4" x1="66.68" y1="82.02" x2="52.06" y2="82.15"/><line class="cls-4" x1="66.68" y1="82.02" x2="60.62" y2="86.7"/><line class="cls-4" x1="66.68" y1="81.98" x2="60.56" y2="77.55"/><rect class="cls-5" x="15.51" y="-5.97" width="69.08" height="37.08"/><line class="cls-6" x1="82.51" y1="34.5" x2="17.6" y2="34.5"/><polygon class="cls-7" points="37.66 36.53 37.22 38.88 39.69 38.52 39.69 36.53 37.66 36.53"/><polygon class="cls-7" points="33.43 38 31.76 41.43 31.76 41.92 34.35 41.85 35.3 41.02 33.43 38"/><path class="cls-7" d="M35.23,43.56,37.12,43l.64,2.52a18.26,18.26,0,0,1-2.18,1.07C35.58,46.5,35.23,43.56,35.23,43.56Z"/><path class="cls-7" d="M28.3,40c.12.11,1.09,3.81,1.09,3.81L26,42.34Z"/><path class="cls-7" d="M30.36,49.49c.22-.17,1.79-2.09,1.79-2.09l1.38,2.32-2.46.36Z"/><polygon class="cls-7" points="26.07 47.4 27.63 48.67 27.77 51.24 24.68 51.43 26.07 47.4"/><path class="cls-7" d="M30.61,53.81c-1.18,1.3-2.91,2.69-2.11,2.36.06,0,3.53,0,3.39-.1A23.4,23.4,0,0,1,30.61,53.81Z"/><polygon class="cls-7" points="18.06 55.25 19.95 55.35 19.95 58.1 17.5 58.34 18.06 55.25"/><polygon class="cls-7" points="27.05 60.92 28.69 61.01 28.94 63.78 26.91 63.98 27.05 60.92"/><path class="cls-8" d="M37,52.82,34.28,60c-.83,2.22.1,4,2.53,4.92l13.13,4.94,2.47.93L95.79,87.09l12.76-33.93L71.11,39.07C54.62,32.87,42.31,38.63,37,52.82Z"/><path class="cls-5" d="M65,75.49l1.19-3.17c2.1-5.59-8.83-12.28-16.62-14.78a55.47,55.47,0,0,0-13.3-2.75"/></g></g><g id="obererRING"><path class="cls-9" d="M50,1.8A48.2,48.2,0,1,1,1.8,50,48.25,48.25,0,0,1,50,1.8M50,0a50,50,0,1,0,50,50A50,50,0,0,0,50,0Z"/></g></svg>
