<svg xmlns="http://www.w3.org/2000/svg" viewBox="0 0 100 100"><defs><style>.cls-1,.cls-2{fill:#fff;}.cls-2{stroke:#000;stroke-linejoin:round;stroke-width:1.8px;}.cls-3{fill:#1d1d1b;}</style></defs><title>np_kreisPictosWeb_100x100px_190726</title><g id="weisser_hg"><path class="cls-1" d="M100,50A50,50,0,1,1,50,0,50,50,0,0,1,100,50Z"/></g><g id="illu"><polygon class="cls-2" points="9.23 36.31 29.04 26.77 90.93 56.55 90.93 62.97 71.14 72.51 9.23 42.73 9.23 36.31"/><line class="cls-2" x1="71.14" y1="66.07" x2="71.14" y2="72.4"/><line class="cls-2" x1="90.93" y1="56.54" x2="71.14" y2="66.1"/><line class="cls-2" x1="9.23" y1="36.32" x2="71.14" y2="66.1"/><line class="cls-2" x1="54.45" y1="58.11" x2="54.45" y2="64.54"/><path class="cls-2" d="M65.17,51.78c0-1.43,2.32-2.59,5.18-2.59s5.21,1.16,5.21,2.59-2.34,2.58-5.21,2.58S65.17,53.21,65.17,51.78Z"/><path class="cls-2" d="M56.33,56.13c0-1.43,2.32-2.59,5.2-2.59s5.19,1.16,5.19,2.59-2.32,2.59-5.19,2.59S56.33,57.56,56.33,56.13Z"/><line class="cls-2" x1="84.77" y1="56.24" x2="84.77" y2="59.38"/><path class="cls-2" d="M65.55,60.71c0-1.44,2.34-2.6,5.2-2.6s5.2,1.16,5.2,2.6-2.33,2.58-5.2,2.58S65.55,62.13,65.55,60.71Z"/><path class="cls-2" d="M74.38,56.35c0-1.44,2.34-2.6,5.22-2.6s5.17,1.16,5.17,2.6-2.32,2.59-5.17,2.59S74.38,57.78,74.38,56.35Z"/><line class="cls-2" x1="75.56" y1="51.62" x2="75.56" y2="54.56"/><line class="cls-2" x1="74.38" y1="56.35" x2="74.38" y2="58.69"/><line class="cls-2" x1="75.95" y1="60.71" x2="75.95" y2="63.63"/><line class="cls-2" x1="65.57" y1="60.6" x2="65.57" y2="63.21"/><line class="cls-2" x1="66.72" y1="56.13" x2="66.72" y2="59.07"/><line class="cls-2" x1="65.17" y1="51.87" x2="65.17" y2="53.86"/><line class="cls-2" x1="56.33" y1="56.13" x2="56.33" y2="58.69"/><polygon class="cls-2" points="54.45 58.12 9.23 36.32 29.04 26.77 74.26 48.48 54.45 58.12"/><path d="M41.61,45.24l1.35-1a.4.4,0,0,1,.31,0,3.24,3.24,0,0,0,2.1-.17c.52-.26.7-.59.36-.9a3.24,3.24,0,0,0-.9-.57,4.5,4.5,0,0,0-1.15-.44,2.6,2.6,0,0,0-1.83.17c-.57.28-.62.59-.47.82.06.08.06.12-.05.18l-1.66.8a.34.34,0,0,1-.31,0l-5.77-2.84c-.09-.05-.09-.11,0-.15l5.9-2.88a.42.42,0,0,1,.31,0l1.53.76c.09,0,.09.1,0,.15l-4.06,2q-.09,0,0,.09l2.06,1,0,0c0-.24.3-.63,1.09-1A6.57,6.57,0,0,1,45,40.76a8.92,8.92,0,0,1,2,.78,5.17,5.17,0,0,1,1.4.92c.86.83.34,1.75-1.17,2.48a7.42,7.42,0,0,1-5.56.44C41.56,45.35,41.53,45.29,41.61,45.24Z"/></g><g id="obererRING"><path class="cls-3" d="M50,1.8A48.2,48.2,0,1,1,1.8,50,48.25,48.25,0,0,1,50,1.8M50,0a50,50,0,1,0,50,50A50,50,0,0,0,50,0Z"/></g></svg>
