<svg xmlns="http://www.w3.org/2000/svg" viewBox="0 0 100 100"><defs><style>.cls-1,.cls-2{fill:#fff;}.cls-2{stroke:#000;stroke-linejoin:round;stroke-width:1.8px;}.cls-3{fill:#1d1d1b;}</style></defs><title>np_kreisPictosWeb_100x100px_190726</title><g id="weisser_hg"><path class="cls-1" d="M100,50A50,50,0,1,1,50,0,50,50,0,0,1,100,50Z"/></g><g id="illu"><polygon class="cls-2" points="9.23 36.31 29.04 26.77 90.93 56.55 90.93 62.97 71.14 72.51 9.23 42.73 9.23 36.31"/><line class="cls-2" x1="71.14" y1="66.07" x2="71.14" y2="72.4"/><line class="cls-2" x1="90.93" y1="56.54" x2="71.14" y2="66.1"/><line class="cls-2" x1="9.23" y1="36.32" x2="71.14" y2="66.1"/><line class="cls-2" x1="54.45" y1="58.11" x2="54.45" y2="64.54"/><path class="cls-2" d="M65.17,51.78c0-1.43,2.32-2.59,5.18-2.59s5.21,1.16,5.21,2.59-2.34,2.58-5.21,2.58S65.17,53.21,65.17,51.78Z"/><path class="cls-2" d="M56.33,56.13c0-1.43,2.32-2.59,5.2-2.59s5.19,1.16,5.19,2.59-2.32,2.59-5.19,2.59S56.33,57.56,56.33,56.13Z"/><line class="cls-2" x1="84.77" y1="56.24" x2="84.77" y2="59.38"/><path class="cls-2" d="M65.55,60.71c0-1.44,2.34-2.6,5.2-2.6s5.2,1.16,5.2,2.6-2.33,2.58-5.2,2.58S65.55,62.13,65.55,60.71Z"/><path class="cls-2" d="M74.38,56.35c0-1.44,2.34-2.6,5.22-2.6s5.17,1.16,5.17,2.6-2.32,2.59-5.17,2.59S74.38,57.78,74.38,56.35Z"/><line class="cls-2" x1="75.56" y1="51.62" x2="75.56" y2="54.56"/><line class="cls-2" x1="74.38" y1="56.35" x2="74.38" y2="58.69"/><line class="cls-2" x1="75.95" y1="60.71" x2="75.95" y2="63.63"/><line class="cls-2" x1="65.57" y1="60.6" x2="65.57" y2="63.21"/><line class="cls-2" x1="66.72" y1="56.13" x2="66.72" y2="59.07"/><line class="cls-2" x1="65.17" y1="51.87" x2="65.17" y2="53.86"/><line class="cls-2" x1="56.33" y1="56.13" x2="56.33" y2="58.69"/><polygon class="cls-2" points="54.45 58.12 9.23 36.32 29.04 26.77 74.26 48.48 54.45 58.12"/><path d="M34.29,43.22l0,0-.54,1.38c0,.07-.14.1-.26,0l-1.92-.95c-.09,0-.12-.09-.1-.16L32,42.07c0-.07.08-.13.19-.18L33.88,41a.34.34,0,0,1,.31,0l10.17,5c.09,0,.09.11,0,.15l-1.86.91a.34.34,0,0,1-.31,0Z"/><path d="M41.33,42.55c-2.33-1.15-2.73-1.42-3-1.73-.91-.87-.62-1.79,1.05-2.6a7.76,7.76,0,0,1,5.32-.49,16.56,16.56,0,0,1,3.5,1.5,12.54,12.54,0,0,1,3,1.72c.9.88.62,1.8-1.05,2.61a7.76,7.76,0,0,1-5.32.49A16.56,16.56,0,0,1,41.33,42.55Zm7,.11c.54-.26.68-.56.36-.87a14.25,14.25,0,0,0-2.76-1.48,19,19,0,0,0-3-1.37,2.55,2.55,0,0,0-1.79.18q-.84.41-.36.87a13.8,13.8,0,0,0,2.76,1.48,18.14,18.14,0,0,0,3,1.36A2.45,2.45,0,0,0,48.34,42.66Z"/></g><g id="obererRING"><path class="cls-3" d="M50,1.8A48.2,48.2,0,1,1,1.8,50,48.25,48.25,0,0,1,50,1.8M50,0a50,50,0,1,0,50,50A50,50,0,0,0,50,0Z"/></g></svg>
