<svg xmlns="http://www.w3.org/2000/svg" viewBox="0 0 100 100"><defs><style>.cls-1,.cls-3{fill:#fff;}.cls-2{fill:none;}.cls-2,.cls-3{stroke:#000;stroke-linejoin:round;stroke-width:1.8px;}.cls-4{fill:#1d1d1b;}</style></defs><title>np_kreisPictosWeb_100x100px_190726</title><g id="weisser_hg"><path class="cls-1" d="M100,50A50,50,0,1,1,50,0,50,50,0,0,1,100,50Z"/></g><g id="illu"><rect class="cls-2" x="55.15" y="33.11" width="21.72" height="48.66"/><path class="cls-2" d="M56.11,76a4.69,4.69,0,1,1,4.69,4.69A4.69,4.69,0,0,1,56.11,76Z"/><path class="cls-2" d="M75.9,76a4.69,4.69,0,1,0-4.69,4.69A4.69,4.69,0,0,0,75.9,76Z"/><path class="cls-2" d="M56.11,65.65a4.69,4.69,0,1,1,4.69,4.69A4.69,4.69,0,0,1,56.11,65.65Z"/><path class="cls-2" d="M75.9,65.65a4.69,4.69,0,1,0-4.69,4.69A4.69,4.69,0,0,0,75.9,65.65Z"/><rect class="cls-3" x="55.15" y="17.83" width="21.72" height="48.66"/><path d="M62.15,44.8l2-.36a.19.19,0,0,1,.23.13,1.48,1.48,0,0,0,1.49,1,1.3,1.3,0,0,0,1.34-.82,4.33,4.33,0,0,0,0-2.26,1.26,1.26,0,0,0-1.34-.8,1.4,1.4,0,0,0-1.3.66.25.25,0,0,1-.25.17h-2a.17.17,0,0,1-.19-.17V35.94a.17.17,0,0,1,.19-.17h7.18a.17.17,0,0,1,.19.17v1.69a.17.17,0,0,1-.19.17H64.59c-.08,0-.12,0-.12.1v2.28h.06a3.76,3.76,0,0,1,5.24,1.42,5.49,5.49,0,0,1,.26,2,5.42,5.42,0,0,1-.28,1.81c-.51,1.41-2,2.16-3.8,2.16-2.2,0-3.73-1-4-2.56A.15.15,0,0,1,62.15,44.8Z"/><polygon class="cls-2" points="21.64 81.89 21.64 25.86 38.59 17.69 38.69 73.57 21.64 81.89"/><polygon class="cls-3" points="27.61 81.89 27.61 35.61 44.56 27.44 44.61 73.57 27.61 81.89"/><path class="cls-2" d="M28.82,28.78a1.28,1.28,0,0,0,1.72.26,4,4,0,0,0,1.85-2l2.14-1a2.11,2.11,0,0,0,1.09-1.72v-.16c0-.67-.43-1-1-.7l-2.14,1a1.33,1.33,0,0,0-1.75-.25,4.26,4.26,0,0,0-1.82,2l-2.13,1A2.12,2.12,0,0,0,25.66,29v.17c0,.67.43,1,1,.7Z"/><line class="cls-3" x1="38.66" y1="27.39" x2="21.63" y2="35.68"/><rect class="cls-3" x="21.63" y="35.68" width="5.98" height="46.2"/><polygon class="cls-3" points="27.57 35.69 21.63 35.69 38.66 27.39 44.52 27.44 27.57 35.69"/></g><g id="obererRING"><path class="cls-4" d="M50,1.8A48.2,48.2,0,1,1,1.8,50,48.25,48.25,0,0,1,50,1.8M50,0a50,50,0,1,0,50,50A50,50,0,0,0,50,0Z"/></g></svg>
