<svg xmlns="http://www.w3.org/2000/svg" viewBox="0 0 100 100"><defs><style>.cls-1,.cls-3{fill:#fff;}.cls-2{fill:none;}.cls-2,.cls-3{stroke:#000;stroke-linejoin:round;stroke-width:1.8px;}.cls-4{fill:#1d1d1b;}</style></defs><title>np_kreisPictosWeb_100x100px_190726</title><g id="weisser_hg"><path class="cls-1" d="M100,50A50,50,0,1,1,50,0,50,50,0,0,1,100,50Z"/></g><g id="illu"><path class="cls-2" d="M55.31,33.06c4,14.81,28,18.14,28,31.35S68.41,81.82,50,81.82s-33.32-4.2-33.32-17.41S40.76,47.87,44.76,33.06Z"/><path class="cls-3" d="M65,17.17,56.75,31.73A8.14,8.14,0,0,1,50,36.05a7.79,7.79,0,0,1-6.75-4.32L35,17.17Z"/><path class="cls-3" d="M34.87,16.5c0-3,6.78-5.48,15.13-5.48s15.12,2.45,15.12,5.48S58.35,22,50,22,34.87,19.53,34.87,16.5Z"/><path d="M49,55.7H48.9l-2.47,1.53c-.14.09-.25,0-.25-.12V54.55a.31.31,0,0,1,.16-.29L49,52.57a.63.63,0,0,1,.41-.13h2.57a.21.21,0,0,1,.23.21V66.27a.21.21,0,0,1-.23.21H49.18a.21.21,0,0,1-.23-.21Z"/></g><g id="obererRING"><path class="cls-4" d="M50,1.8A48.2,48.2,0,1,1,1.8,50,48.25,48.25,0,0,1,50,1.8M50,0a50,50,0,1,0,50,50A50,50,0,0,0,50,0Z"/></g></svg>
