<svg xmlns="http://www.w3.org/2000/svg" viewBox="0 0 100 100"><defs><style>.cls-1{fill:#fff;}.cls-2,.cls-3{fill:none;stroke:#000;stroke-linejoin:round;stroke-width:1.8px;}.cls-3{stroke-linecap:round;}.cls-4{fill:#1d1d1b;}</style></defs><title>np_kreisPictosWeb_100x100px_190726</title><g id="weisser_hg"><path class="cls-1" d="M100,50A50,50,0,1,1,50,0,50,50,0,0,1,100,50Z"/></g><g id="illu"><polygon class="cls-2" points="30.01 39.08 30.01 26.78 66.39 9.33 66.45 21.45 30.01 39.08"/><path class="cls-2" d="M46,27.1a1.67,1.67,0,0,0,2.21.32,5.22,5.22,0,0,0,2.27-2.48l2.69-1.3a2.67,2.67,0,0,0,1.38-2.15v-.2c0-.85-.54-1.22-1.28-.88l-2.68,1.3a1.67,1.67,0,0,0-2.19-.32,5.15,5.15,0,0,0-2.29,2.48l-2.69,1.3a2.66,2.66,0,0,0-1.37,2.14v.22c0,.83.54,1.22,1.28.86Z"/><path d="M49,59l2.21-1.49c.12-.08.2-.06.24,0,.24.53.73.79,1.61.37a2.72,2.72,0,0,0,1.45-1.68,4.58,4.58,0,0,0,.16-1.42,3.22,3.22,0,0,0-.16-1.29c-.23-.58-.78-.58-1.45-.26a2.88,2.88,0,0,0-1.41,1.48.49.49,0,0,1-.26.33l-2.18,1.05c-.12.06-.21,0-.21-.11V48.41a.34.34,0,0,1,.21-.3L57,44.37c.12,0,.21,0,.21.11v2a.36.36,0,0,1-.21.31l-5.32,2.56a.19.19,0,0,0-.12.18v2.73l.06,0a5.73,5.73,0,0,1,2.08-1.65c1.77-.86,3.06-.68,3.57.62a6.08,6.08,0,0,1,.28,2.22,8.75,8.75,0,0,1-.3,2.31,7.56,7.56,0,0,1-4.1,4.56c-2.36,1.14-4,.69-4.26-1A.31.31,0,0,1,49,59Z"/><path class="cls-2" d="M30,39.16s-17.9,39.35,0,45.9S30,39.16,30,39.16Z"/><path class="cls-3" d="M36.27,83.93c22-19.41,34.18-18.34,35.34-19.2,11.17-8.28-5.16-43.28-5.16-43.28"/></g><g id="obererRING"><path class="cls-4" d="M50,1.8A48.2,48.2,0,1,1,1.8,50,48.25,48.25,0,0,1,50,1.8M50,0a50,50,0,1,0,50,50A50,50,0,0,0,50,0Z"/></g></svg>
