<svg xmlns="http://www.w3.org/2000/svg" xmlns:xlink="http://www.w3.org/1999/xlink" viewBox="0 0 100 100"><defs><style>.cls-1,.cls-4,.cls-7{fill:none;}.cls-2{fill:#fff;}.cls-3{clip-path:url(#clip-path);}.cls-4{stroke:#1d1d1b;stroke-miterlimit:10;stroke-width:1.8px;}.cls-5{fill:#1d1d1b;}.cls-6{fill:#e20613;}.cls-7{stroke:#e20613;stroke-linecap:round;stroke-linejoin:round;stroke-width:2.5px;}</style><clipPath id="clip-path"><path class="cls-1" d="M100,50A50,50,0,1,1,50,0,50,50,0,0,1,100,50Z"/></clipPath></defs><title>np_kreisPictosWeb_100x100px_190726</title><g id="weisser_hg"><path class="cls-2" d="M100,50A50,50,0,1,1,50,0,50,50,0,0,1,100,50Z"/></g><g id="illu"><g class="cls-3"><path class="cls-4" d="M47.24,50l-4.36,5.72c-1.35,1.77-1,3.63,1,5.1l10.47,8,2,1.5,55.84,42.51,20.62-27.08L81.64,46.86C68.48,36.84,55.86,38.71,47.24,50Z"/><path class="cls-4" d="M66.3,78l1.93-2.53C71.62,71,63.59,62,57.26,57.66a51.7,51.7,0,0,0-11.22-6"/><path class="cls-5" d="M84.71,22.21v0"/><polygon class="cls-6" points="20.67 37.2 82.39 37.2 22.08 45.55 20.67 37.2"/><rect class="cls-4" x="15.48" y="-4.15" width="68.84" height="41.34"/><polyline class="cls-7" points="43.24 94.58 35.75 84.69 47.51 80.24"/><polyline class="cls-7" points="90.39 68.76 86.09 57.12 76.01 64.63"/><path class="cls-7" d="M35.75,84.69A37,37,0,0,0,86.1,57.12"/></g></g><g id="obererRING"><path class="cls-5" d="M50,1.8A48.2,48.2,0,1,1,1.8,50,48.25,48.25,0,0,1,50,1.8M50,0a50,50,0,1,0,50,50A50,50,0,0,0,50,0Z"/></g></svg>
