<svg xmlns="http://www.w3.org/2000/svg" xmlns:xlink="http://www.w3.org/1999/xlink" version="1.1" width="1000" height="1000" viewBox="0 0 1000 1000" xml:space="preserve">
<defs>
</defs>
<rect x="0" y="0" width="100%" height="100%" fill="rgba(197,26,27,0)"/>
<g transform="matrix(0 0.9106 -0.9106 0 500.015 499.9933)" id="170200">
<g style="" vector-effect="non-scaling-stroke">
		<g transform="matrix(1 0 0 1 2.405 201.915)" id="Absperrventile">
<path style="stroke: none; stroke-width: 1; stroke-dasharray: none; stroke-linecap: butt; stroke-dashoffset: 0; stroke-linejoin: miter; stroke-miterlimit: 4; is-custom-font: none; font-file-url: none; fill: rgb(255,255,255); fill-rule: nonzero; opacity: 1;" transform=" translate(-226.96, -701.07)" d="M 226.87 742.69 l -33.14 -1 l -30.79 -2.81 l -29.11 -3.77 l -25.38 -4.7 l -22.61 -6.93 l -18.26 -7.69 l -14.44 -9.27 l -7.9 -7.88 l -6.3 -10.1 l -1.28 -12.8 L 39.82 666 l 8.94 2 l 4.1 -8.18 l 3.34 1.67 l 4 1.6 l 5.28 1.77 l -2.9 8.68 l 5.07 -7.63 l 3.17 2.13 l 3 2.27 l 2.62 1.31 l 5 2 l 4.38 2.64 l 9.93 3.3 l 12.58 3.6 l 14.09 3.52 l 7.67 1 l 7.83 1.74 l 24.37 2.71 l 27.19 2.71 l 9.67 0 l 8.77 0.87 h 37.86 l 9.68 -0.92 h 8.77 l 27.18 -2.72 l 24.37 -2.7 l 8.66 -1.88 l 6.84 -0.86 l 14.09 -3.52 l 12.58 -3.6 l 9.93 -3.3 l 4.38 -2.64 l 5 -2 l 2.6 -1.31 l 3.47 -2.58 l 2.77 -1.84 l 5 7.6 l -3.39 -8.45 l 13.85 -5.54 L 405 668 l 9 -2 l 2.26 10.19 l -2.46 12.31 l -4.91 9.83 l -8.15 8.14 l -15.42 10.26 l -19.8 7.92 l -24.34 6.77 l -25.38 4.7 l -28.32 3.75 l -29.84 1.85 Z m -31.76 -19.22 l 31.74 0.9 l 30 -0.91 L 286 721.65 L 313.1 718 l 24.29 -4.51 l 22.2 -6.2 l 17.12 -6.86 l 12.32 -8.2 l 4.77 -4.75 l 2.47 -5 l 0.26 -1.31 l -1.2 0.49 l -1.69 1.12 L 389.5 686 l -5.14 2.54 l -3.93 1.56 L 375.59 693 l -12.41 4.12 L 350 700.87 l -15.3 3.82 l -7.5 0.95 l -8.38 1.86 l -25.5 2.83 l -28.6 2.82 h -8.77 l -9.68 0.92 H 207 l -9.23 -0.92 l -9.67 0 l -27.79 -2.78 l -25.4 -2.82 l -8.38 -1.86 l -7.5 -0.95 l -15.59 -3.9 L 90.17 697 l -12 -4 l -4.84 -2.91 l -4.64 -1.89 L 64.24 686 l -4.14 -3.08 l -1.56 -1 l -1.93 -0.65 l 0.13 1.31 l 2.92 4.68 l 5 5 l 11.46 7.35 l 16.37 6.89 l 20.28 6.17 l 24.13 4.47 l 28.19 3.64 Z" stroke-linecap="round"/>
</g>
		<g transform="matrix(1 0 0 1 2.275 429.62)" id="Absperrventile">
<path style="stroke: none; stroke-width: 1; stroke-dasharray: none; stroke-linecap: butt; stroke-dashoffset: 0; stroke-linejoin: miter; stroke-miterlimit: 4; is-custom-font: none; font-file-url: none; fill: rgb(255,255,255); fill-rule: nonzero; opacity: 1;" transform=" translate(-226.84, -928.775)" d="M 226.84 965.08 l -25.65 -1 l -23.52 -1.89 l -21.38 -3.9 l -26.78 -8.92 L 118.3 941.6 l -9.22 -10.39 l -4 -10.53 V 910 l 3.77 -10.07 l 5.31 -7.44 l 7.45 5.32 l 7.61 -5.08 l 1.36 2 l 2.39 2.39 l 1.55 1 l 2.29 1.14 l 3.32 0.83 l 8.88 3.55 l 5.27 0.88 l 5.53 1.85 l 4.72 0.78 l 19.2 2.74 l 7.46 0.94 l 5.82 0.83 h 7.24 l 8.31 0.92 h 28.44 l 7.39 -0.92 h 7.38 l 14.12 -1.77 l 19.2 -2.74 l 4.72 -0.78 l 5.54 -1.85 l 5.26 -0.88 l 8.88 -3.55 l 3.32 -0.83 l 2.29 -1.14 l 1.55 -1 l 2.39 -2.39 l 1.36 -2 l 7.59 5.07 l 7.47 -5.33 l 5.31 7.44 L 348.6 910 v 10.7 l -4 10.53 l -9.22 10.38 l -11.2 7.84 l -26.77 8.94 l -21.86 3.93 l -23.49 1.87 Z m -24.39 -19.22 l 24.39 0.9 l 24.39 -0.9 l 22.44 -1.8 l 19.22 -3.49 l 23 -7.68 l 7.26 -5.08 l 5.54 -6.24 l 1.59 -4.23 v -4.06 l -0.17 -0.43 L 328.35 914 l -5.09 2.55 l -4.06 1 l -9.58 3.83 l -5.79 1 l -5.55 1.85 l -6.46 1.07 l -19.54 2.79 L 257 930 h -7.38 l -7.39 0.93 h -30.6 l -8.31 -0.93 h -7.52 l -7 -1 l -7.46 -0.93 l -19.59 -2.8 l -6.25 -1 l -5.55 -1.85 l -5.79 -1 l -9.58 -3.83 l -4.06 -1 L 125.37 914 l -1.77 -1.17 l -0.16 0.44 v 4.06 l 1.58 4.23 l 5.54 6.23 l 7.25 5.06 l 23 7.68 l 19.2 3.5 Z" stroke-linecap="round"/>
</g>
		<g transform="matrix(1 0 0 1 2.305 -78.925)" id="Absperrventile">
<path style="stroke: none; stroke-width: 1; stroke-dasharray: none; stroke-linecap: butt; stroke-dashoffset: 0; stroke-linejoin: miter; stroke-miterlimit: 4; is-custom-font: none; font-file-url: none; fill: rgb(255,255,255); fill-rule: nonzero; opacity: 1;" transform=" translate(-226.86, -420.23)" d="M 392 727 a 9.16 9.16 0 0 1 -8 -13.5 l 6.46 -12 a 9.15 9.15 0 0 1 16.12 8.68 l -6.46 12 A 9.16 9.16 0 0 1 392 727 Z M 61.69 727 a 9.16 9.16 0 0 1 -8.07 -4.82 l -6.46 -12 a 9.15 9.15 0 1 1 16.12 -8.68 l 6.46 12 a 9.16 9.16 0 0 1 -8 13.5 Z m -17.55 -51.7 a 9.22 9.22 0 0 1 -4.86 -1.4 l -17.53 -11 a 9.16 9.16 0 0 1 9.74 -15.51 L 49 658.4 a 9.16 9.16 0 0 1 -4.88 16.91 Z m 365.44 0 a 9.16 9.16 0 0 1 -4.88 -16.91 l 17.53 -11 A 9.16 9.16 0 0 1 432 662.91 l -17.53 11 A 9.22 9.22 0 0 1 409.58 675.31 Z M 435.41 619 a 9.16 9.16 0 0 1 -9.16 -9.16 V 446.55 a 9.16 9.16 0 0 1 18.32 0 V 609.88 A 9.16 9.16 0 0 1 435.41 619 Z m -417.1 0 a 9.15 9.15 0 0 1 -9.16 -9.15 V 491.77 a 9.16 9.16 0 0 1 18.31 0 V 609.85 A 9.14 9.14 0 0 1 18.31 619 Z m 358 -174.37 a 9.16 9.16 0 0 1 -9.16 -9.09 L 365.35 155 a 9.15 9.15 0 0 1 9.1 -9.21 h 0.06 a 9.16 9.16 0 0 1 9.16 9.09 l 1.83 280.53 a 9.14 9.14 0 0 1 -9.09 9.21 Z m -299.9 -0.93 h -0.09 a 9.14 9.14 0 0 1 -9.06 -9.24 l 2.76 -279.6 a 9.14 9.14 0 0 1 9.15 -9.06 h 0.09 A 9.14 9.14 0 0 1 88.36 155 L 85.6 434.64 A 9.14 9.14 0 0 1 76.45 443.7 Z m 44.28 -308.2 a 9.16 9.16 0 0 1 -2.35 -18 l 13.84 -3.69 a 9.16 9.16 0 0 1 4.72 17.7 l -13.84 3.69 A 9.18 9.18 0 0 1 120.73 135.5 Z m 212.26 0 a 9.24 9.24 0 0 1 -2.37 -0.31 l -13.84 -3.69 a 9.16 9.16 0 1 1 4.72 -17.7 l 13.84 3.69 a 9.16 9.16 0 0 1 -2.35 18 Z" stroke-linecap="round"/>
</g>
		<g transform="matrix(1 0 0 1 2.32 312.805)" id="Absperrventile">
<path style="stroke: none; stroke-width: 1; stroke-dasharray: none; stroke-linecap: butt; stroke-dashoffset: 0; stroke-linejoin: miter; stroke-miterlimit: 4; is-custom-font: none; font-file-url: none; fill: rgb(255,255,255); fill-rule: evenodd; opacity: 1;" transform=" translate(-226.875, -811.96)" d="M 48.76 668 l -1.84 4.61 v 8.31 l 0.92 4.61 l 2.77 5.54 l 3.69 4.61 l 4.61 3.69 L 64.45 704 l 7.38 3.69 l 8.31 3.69 l 9.22 3.69 l 10.16 3.69 l 11.07 2.77 l 12 2.77 l 12.91 1.84 l 16.61 2.76 l 17.54 1.85 l 18.45 0.92 l 19.38 0.93 l 19.38 0.92 l 17.53 -0.92 h 17.54 l 16.61 -1.85 l 16.61 -0.92 l 15.71 -2.76 l 14.77 -1.85 l 13.84 -2.77 l 12 -3.69 L 362.54 716 l 10.15 -3.7 l 8.31 -3.69 l 7.38 -4.61 l 6.46 -4.62 l 4.61 -3.69 l 3.69 -4.61 l 1.85 -5.54 l 1.84 -4.61 v -8.31 L 405 668 l -2.77 0.92 l -3.69 1.85 l -3.69 0.92 l -3.69 1.85 l -1.85 1.84 l -2.77 1.85 l -2.77 0.92 L 380.07 680 l -3.69 1.84 l -3.69 1.85 L 369 685.55 l -4.61 1.85 l -4.62 0.92 l -5.57 1.83 l -4.61 0.92 l -5.54 1.85 l -5.53 0.92 l -6.46 1.84 l -5.54 0.93 l -6.46 0.92 l -6.46 0.92 l -6.46 0.92 l -7.38 0.93 l -6.46 0.92 l -7.38 0.92 l -6.46 0.93 h -7.38 l -7.39 0.92 H 249.93 l -8.31 0.92 H 212.1 l -8.31 -0.92 H 189 l -7.39 -0.92 h -7.38 l -6.46 -0.93 l -7.38 -0.92 L 153 700.3 l -6.46 -0.93 l -6.46 -0.92 l -6.46 -0.92 l -6.46 -0.92 l -5.54 -0.93 l -6.46 -1.84 l -5.53 -0.92 l -5.54 -1.85 l -4.61 -0.92 L 94 688.3 l -4.62 -0.92 l -4.61 -1.85 l -3.69 -1.84 l -3.69 -1.85 L 73.68 680 L 70 678.15 l -2.77 -0.92 l -2.77 -1.85 l -1.85 -1.84 l -3.69 -1.85 l -3.69 -0.92 l -3.69 -1.85 Z m 72.9 229.77 l -1.8 2.77 l -2.77 3.69 L 115.24 907 l -0.92 4.62 V 919 l 0.92 4.61 l 1.85 2.77 l 2.77 3.69 l 2.77 2.77 l 2.76 2.77 l 3.69 2.77 l 3.7 1.84 l 3.69 1.85 l 6.46 2.77 l 7.38 1.84 l 8.3 2.77 l 8.31 0.92 l 9.23 1.85 l 9.22 0.92 L 195.53 955 h 10.15 l 10.15 0.92 h 21.22 l 11.07 -0.92 h 10.15 l 10.12 -1.86 l 9.22 -0.92 l 9.23 -1.85 l 8.31 -0.92 l 8.3 -2.77 l 6.46 -1.84 l 6.46 -2.77 l 6.46 -2.77 l 2.77 -1.85 l 3.69 -1.84 l 2.77 -2.77 l 1.84 -2.77 l 2.77 -3.69 l 1.85 -2.77 l 0.92 -4.61 v -7.38 l -0.92 -4.62 l -1.85 -2.77 l -2.81 -3.68 L 332 897.79 l -0.93 1.85 l -0.92 0.92 l -0.92 0.93 l -1.85 1.84 l -1.84 0.92 l -1.85 0.93 l -1.84 0.92 L 320 907.94 l -2.77 0.93 l -1.84 0.92 l -2.77 0.92 l -2.77 0.93 l -3.69 0.92 l -2.77 0.92 l -3.69 0.92 l -3.69 0.93 l -3.69 0.92 h -3.69 l -3.69 0.92 l -3.7 0.93 l -4.61 0.92 H 273 l -4.61 0.92 h -4.62 l -4.61 0.92 h -9.23 l -4.61 0.93 h -37.8 l -4.61 -0.93 h -8.31 l -4.61 -0.92 h -4.62 l -4.61 -0.92 H 177 l -4.61 -0.92 l -3.7 -0.93 l -3.69 -0.92 h -4.61 l -2.77 -0.92 L 154 914.4 l -3.69 -0.92 l -2.77 -0.92 l -3.69 -0.92 l -2.77 -0.93 l -2.77 -0.92 l -1.84 -0.92 l -2.77 -0.93 l -1.8 -1.79 l -2.77 -0.92 l -0.92 -0.93 l -1.84 -0.92 l -1.85 -1.84 l -0.92 -0.93 l -0.92 -0.92 Z" stroke-linecap="round"/>
</g>
		<g transform="matrix(1 0 0 1 2.3025 258.3083)" id="Absperrventile">
<path style="stroke: none; stroke-width: 1; stroke-dasharray: none; stroke-linecap: butt; stroke-dashoffset: 0; stroke-linejoin: miter; stroke-miterlimit: 4; is-custom-font: none; font-file-url: none; fill: rgb(255,255,255); fill-rule: nonzero; opacity: 1;" transform=" translate(-226.8575, -757.4632)" d="M 235.17 764.51 a 2.36 2.36 0 0 1 -2.36 -2.36 v -9.22 a 2.36 2.36 0 0 1 4.72 0 v 9.22 A 2.36 2.36 0 0 1 235.17 764.51 Z m -16.62 0 a 2.36 2.36 0 0 1 -2.36 -2.36 v -9.22 a 2.36 2.36 0 1 1 4.71 0 v 9.22 A 2.36 2.36 0 0 1 218.55 764.51 Z" stroke-linecap="round"/>
</g>
		<g transform="matrix(1 0 0 1 2.3025 0)" id="Absperrventile">
<path style="stroke: none; stroke-width: 1; stroke-dasharray: none; stroke-linecap: butt; stroke-dashoffset: 0; stroke-linejoin: miter; stroke-miterlimit: 4; is-custom-font: none; font-file-url: none; fill: rgb(255,255,255); fill-rule: nonzero; opacity: 1;" transform=" translate(-226.8575, -499.155)" d="M 238.87 998.31 h -24 c -0.23 0 -0.47 0 -0.7 0 l -24 -1.85 L 179 995.5 a 8.62 8.62 0 0 1 -0.87 -0.11 l -20.31 -3.69 l -0.35 -0.07 l -16.6 -3.69 a 9.4 9.4 0 0 1 -1.63 -0.53 l -6.46 -2.77 l -0.48 -0.22 l -5.54 -2.77 c -0.22 -0.11 -0.42 -0.22 -0.62 -0.34 l -4.61 -2.77 a 8.79 8.79 0 0 1 -1.76 -1.38 l -3.69 -3.69 a 9.17 9.17 0 0 1 -2.21 -3.56 l -1.79 -5.34 a 9.63 9.63 0 0 1 -0.42 -1.62 a 8.83 8.83 0 0 1 -0.11 -1.7 v -24.7 a 8.81 8.81 0 0 1 0.11 -1.46 l -1 -1.34 c -0.19 -0.26 -0.37 -0.52 -0.53 -0.79 l -2.77 -4.62 a 9.28 9.28 0 0 1 -1.13 -2.92 l -0.92 -4.61 a 9 9 0 0 1 -0.17 -1.79 v -5.54 a 9 9 0 0 1 0.17 -1.79 l 0.92 -4.61 a 9 9 0 0 1 0.48 -1.61 l 1.85 -4.62 a 9.43 9.43 0 0 1 1.18 -2.1 l 2 -2.68 l -0.09 -0.44 a 8.78 8.78 0 0 1 -0.11 -1.69 v -9.87 l -11 -3.3 l -0.33 -0.11 l -8.34 -2.85 a 8.3 8.3 0 0 1 -1.58 -0.71 l -6.46 -3.69 l -0.54 -0.33 l -5.53 -3.7 l -0.41 -0.28 l -3.7 -2.77 a 9 9 0 0 1 -1.84 -1.85 l -2.76 -3.69 a 9 9 0 0 1 -0.86 -1.39 l -1.77 -3.53 a 9 9 0 0 1 -0.8 -2.16 a 9.32 9.32 0 0 1 -0.25 -2.28 v -9 a 8.11 8.11 0 0 1 0 -0.86 V 839 a 10 10 0 0 1 0.06 -1.34 a 10.73 10.73 0 0 1 0.25 -1.28 l 0.88 -3.5 a 9.08 9.08 0 0 1 2.41 -4.26 l 0.81 -0.81 L 69.1 774.3 v -0.08 h 0 v 0 h 0 V 734.75 l -2.75 -1.57 a 10.63 10.63 0 0 1 -1.18 -0.8 l -3.84 -3.08 l -1 -0.48 a 9 9 0 0 1 -2.77 -2.13 l -2.37 -2.37 a 9.15 9.15 0 0 1 -2.15 -9.57 a 9.17 9.17 0 0 1 -7 -8.9 v -7 l -1.68 -2.1 a 10 10 0 0 1 -0.7 -1 l -2.77 -4.62 a 10.16 10.16 0 0 1 -0.66 -1.32 l -1.84 -4.62 a 9.37 9.37 0 0 1 -0.65 -3.39 v -5.53 a 9 9 0 0 1 0.18 -1.79 l 0.27 -1.37 a 9.16 9.16 0 0 1 9.66 -15.34 l 8 3.57 l 9.4 3.41 l 10.62 2.66 l 0.47 0.13 l 11.56 3.55 l 26.91 5.38 l 14.48 1.81 l 15.62 1.83 L 160.31 682 l 26.94 1.49 V 665.25 a 9.12 9.12 0 0 1 2.68 -6.47 l 1.84 -1.85 a 9.18 9.18 0 0 1 6.47 -2.68 h 57.23 a 9.13 9.13 0 0 1 6.47 2.69 l 0.92 0.92 a 9 9 0 0 1 1.72 2.38 l 0.84 1.67 a 9 9 0 0 1 0.8 2.17 a 8.77 8.77 0 0 1 0.24 2.27 v 17.11 l 27 -1.5 l 31.1 -3.65 l 14.35 -1.8 l 13.46 -2.72 l 12.56 -2.68 l 12.63 -3.6 l 0.29 -0.08 l 10.62 -2.66 l 9.4 -3.41 l 8 -3.57 a 9.15 9.15 0 0 1 9.7 15.3 l 0.29 1.73 a 9.5 9.5 0 0 1 0.13 1.5 v 5.53 a 9.17 9.17 0 0 1 -0.66 3.39 l -1.83 4.62 a 10.16 10.16 0 0 1 -0.66 1.32 L 410 695.79 a 9.05 9.05 0 0 1 -0.7 1 l -1.68 2.1 v 7 a 9.17 9.17 0 0 1 -7 8.9 a 9.15 9.15 0 0 1 -2.15 9.57 l -2 2 a 9.16 9.16 0 0 1 -3.09 2.5 l -1 0.49 l -3.84 3 a 8.94 8.94 0 0 1 -1.15 0.78 l -2.86 1.63 V 766.4 a 9.1 9.1 0 0 1 0.1 1.29 v 2.77 a 9 9 0 0 1 -0.93 4 v 53.91 l 0.89 1.19 a 9 9 0 0 1 0.86 1.39 l 1.77 3.53 a 9.48 9.48 0 0 1 0.8 2.16 a 9.32 9.32 0 0 1 0.25 2.28 v 3.51 c 0 0.29 0 0.58 0 0.86 v 7.49 a 9.19 9.19 0 0 1 -0.93 5 l -1.85 3.7 a 9.36 9.36 0 0 1 -0.86 1.38 l -2.76 3.69 a 9.22 9.22 0 0 1 -1.84 1.85 l -3.7 2.77 l -0.41 0.28 l -5.53 3.7 l -0.55 0.34 l -6.42 3.65 a 9.64 9.64 0 0 1 -1.64 0.73 l -8.31 2.77 l -0.27 0.08 L 344 883.45 l -0.22 0.06 l -1.6 0.44 v 9.44 a 10.05 10.05 0 0 1 -0.07 2.12 l 2.41 4 a 6.29 6.29 0 0 1 0.37 0.67 l 1.85 3.69 a 8.82 8.82 0 0 1 0.85 2.6 l 0.92 5.54 a 9.5 9.5 0 0 1 0.13 1.5 v 4.62 a 9 9 0 0 1 -0.18 1.79 l -0.92 4.61 a 9.43 9.43 0 0 1 -1.13 2.93 L 342 934.76 a 8.84 8.84 0 0 1 0.18 1.79 v 24.28 a 9.14 9.14 0 0 1 -0.45 3.53 l -0.92 2.76 a 8.76 8.76 0 0 1 -1.08 2.19 l -1.85 2.77 l -0.29 0.42 l -2.77 3.69 a 9.17 9.17 0 0 1 -2.61 2.35 l -4.61 2.77 l -0.61 0.34 l -5.54 2.77 l -0.49 0.22 l -6.46 2.77 a 9.4 9.4 0 0 1 -1.63 0.53 l -16.6 3.69 l -0.35 0.07 l -20.31 3.69 a 8.62 8.62 0 0 1 -0.87 0.11 l -11.07 0.92 l -24.06 1.86 C 239.34 998.3 239.1 998.31 238.87 998.31 Z m -12 -18.31 h 11.65 l 23.64 -1.83 l 10.58 -0.88 l 19.68 -3.57 L 308 970.25 l 5.43 -2.33 l 5 -2.49 l 2.77 -1.67 l 1.55 -2 l 1.07 -1.67 v -11 l -4.29 2.14 a 8.47 8.47 0 0 1 -0.87 0.38 l -7.38 2.77 a 10.15 10.15 0 0 1 -1.43 0.41 l -8.67 1.73 l -7.77 2.59 a 9.94 9.94 0 0 1 -1.25 0.32 L 282 961.24 c -0.27 0 -0.54 0.08 -0.81 0.11 l -20.3 1.84 l -11.13 0.93 l -12.07 0.93 c -0.23 0 -0.47 0 -0.7 0 H 214.86 c -0.25 0 -0.51 0 -0.76 0 l -33.22 -2.77 a 8.62 8.62 0 0 1 -0.87 -0.11 l -10.11 -1.83 l -0.17 0 l -18.45 -3.7 c -0.28 -0.06 -0.55 -0.13 -0.82 -0.21 l -9.23 -2.76 l -0.6 -0.2 l -7.38 -2.77 a 9.33 9.33 0 0 1 -1.32 -0.62 l -2 -1.16 V 960 l 0.68 2.07 l 1.38 1.37 l 3.34 2 l 5 2.49 l 5.43 2.33 l 15.6 3.46 L 181 977.29 l 10.63 0.89 L 215.22 980 Z m -11.63 -33.24 h 21.42 l 11.65 -0.89 l 11 -0.92 l 19.83 -1.8 l 9.11 -1.66 l 7.7 -2.57 a 10.47 10.47 0 0 1 1.1 -0.29 l 8.5 -1.69 l 6.24 -2.34 l 6.72 -3.36 l 5.17 -3 l 2 -2 l 4.14 -6.9 l 0.44 -2.16 v -3 l -0.29 -1.68 L 327.58 914 c -0.24 0.14 -0.48 0.27 -0.73 0.39 l -5.57 2.7 l -0.38 0.17 l -4.85 2.08 a 9 9 0 0 1 -2.89 1.77 a 9.48 9.48 0 0 1 -2.17 1.06 l -2.51 0.83 l -4.37 1.75 l -0.44 0.16 l -5.56 1.9 l -0.45 0.15 l -6.46 1.83 a 9.14 9.14 0 0 1 -1.38 0.29 l -7 0.86 L 275 931.7 a 10.09 10.09 0 0 1 -1.08 0.17 l -9.23 0.92 l -20.37 1.86 c -0.28 0 -0.56 0 -0.84 0 H 212.1 c -0.28 0 -0.56 0 -0.83 0 l -9.75 -0.9 h -8.8 a 8.9 8.9 0 0 1 -1.63 -0.14 l -9.84 -1.79 l -8 -0.88 c -0.33 0 -0.66 -0.09 -1 -0.16 l -8.3 -1.85 l -0.52 -0.14 l -12.93 -3.69 a 9.12 9.12 0 0 1 -0.88 -0.3 l -4.37 -1.75 l -2.51 -0.83 a 9 9 0 0 1 -2.3 -1.15 a 8.91 8.91 0 0 1 -2.6 -1.56 l -5.07 -2.18 l -0.48 -0.22 l -5.54 -2.77 c -0.22 -0.11 -0.44 -0.23 -0.65 -0.36 l -2.29 -1.38 l -0.35 1.78 v 3.74 l 0.43 2.16 l 1.71 2.85 l 2.09 2.79 l 2.18 2.19 l 4.21 2.1 l 0.45 0.24 l 5.82 3.33 l 6.4 2.4 l 8.53 2.55 l 17.94 3.6 l 9.6 1.73 Z m 11.63 -34.15 h 11.65 l 23.65 -1.82 l 10.57 -0.88 l 19.67 -3.58 l 13.74 -3.05 a 8.8 8.8 0 0 1 2.61 -0.73 l 4.73 -2 l 5 -2.43 l 2.72 -1.64 l 1.19 -1.58 a 9.06 9.06 0 0 1 1.07 -2.16 a 5.48 5.48 0 0 1 0.35 -0.49 v -3.28 l -0.4 0.11 c -0.33 0.09 -0.67 0.16 -1 0.22 l -12 1.85 h -0.11 l -25.83 3.69 a 5.38 5.38 0 0 1 -0.69 0.07 l -41.53 2.78 l -0.61 0 H 212.1 l -0.61 0 L 170 894.89 a 5.38 5.38 0 0 1 -0.69 -0.07 L 156.35 893 l -12.86 -1.75 l -0.16 0 l -12 -1.85 c -0.27 -0.05 -0.55 -0.1 -0.82 -0.17 l -0.61 -0.15 v 3.27 a 9.21 9.21 0 0 1 1.54 3.3 l 0.53 0.52 l 3.31 2 l 5 2.48 l 4.45 1.91 a 8.72 8.72 0 0 1 1.26 0.21 a 9 9 0 0 1 2 0.71 l 13.33 3 l 10 1.73 l 9.78 1.78 l 10.63 0.89 l 23.59 1.81 Z m -21.89 -47 h 42.78 l 14.49 -0.91 l 13.46 -0.89 l 25.5 -3.69 l 11.51 -1.77 l 21.54 -5.38 l 8.72 -2.62 l 6.64 -2.49 L 361.3 842 l 3 -2.31 l 0.93 -1.24 l 0.2 -0.81 v -5.31 a 10.26 10.26 0 0 1 0 -1.92 v -59 a 9.16 9.16 0 0 1 0.83 -3.81 v -24 l -3 1.22 a 9 9 0 0 1 -1 0.33 L 352 747.9 l -0.18 0.05 l -11.07 2.77 l -0.16 0 l -12 2.77 l -0.67 0.13 l -12 1.85 l -0.18 0 l -27.71 3.68 l -0.64 0.07 l -17.59 1.09 l -2 0.5 a 9.11 9.11 0 0 1 -2.21 0.28 h -8.16 l -13.12 0.82 a 10 10 0 0 1 0.07 1.1 v 8.3 c 0 0.12 0 0.23 0 0.34 l -1.89 50.48 a 8.49 8.49 0 0 1 0.05 0.88 v 1.84 a 9.16 9.16 0 0 1 -1 4.08 l -0.93 1.85 a 9.09 9.09 0 0 1 -4.11 4.11 L 231 837.74 a 9.19 9.19 0 0 1 -7 0.49 l -2.77 -0.92 a 9.57 9.57 0 0 1 -1.24 -0.52 l -1.84 -0.93 a 9.17 9.17 0 0 1 -4 -4 l -1.88 -3.74 a 9.15 9.15 0 0 1 -0.95 -4.08 v -0.92 h 0 v -8.15 l -0.92 -26.61 l -0.88 -23.68 a 8.76 8.76 0 0 1 -0.14 -1.55 V 762 l -13.27 -0.83 h -8 a 9.11 9.11 0 0 1 -2.21 -0.28 l -2 -0.48 l -17.64 -1.1 l -0.64 -0.07 L 138 755.54 l -13 -1.87 a 7.12 7.12 0 0 1 -0.92 -0.18 L 101.89 748 l -0.18 -0.05 l -10.15 -2.76 a 9 9 0 0 1 -1 -0.33 l -3.16 -1.26 v 30.54 l 0.8 55.5 a 9.4 9.4 0 0 1 0 3.26 l 0.07 4.7 l 0.22 0.87 l 1 1.29 l 2.94 2.36 l 11.63 5.81 l 6.64 2.49 l 8.82 2.65 l 9.86 2.68 l 11.5 2.65 l 11.62 1.79 L 178 863.78 Z m 21.88 -121.82 H 236 l 14.32 -0.9 l 0.57 0 h 6 l 10.2 -0.64 a 9.09 9.09 0 0 1 3.39 -0.2 L 286 741 l 27.3 -3.63 l 11.57 -1.79 l 11.59 -2.67 l 10.9 -2.73 l 9.55 -2.6 l 4.66 -1.86 l -6.78 1.84 l -0.18 0 l -11.07 2.77 l -0.16 0 l -12 2.77 l -0.66 0.13 l -12 1.85 h -0.12 l -25.81 3.68 a 5.38 5.38 0 0 1 -0.69 0.07 l -13.85 0.92 l -14.8 0.93 l -13.8 0.92 l -14.81 0.93 h -15.9 l -14.77 -0.92 l -13.88 -0.94 l -14.72 -0.91 L 161.65 739 a 5.38 5.38 0 0 1 -0.69 -0.07 l -25.82 -3.69 H 135 l -12 -1.85 l -0.67 -0.13 l -12 -2.77 l -0.16 0 l -11.07 -2.77 l -0.18 0 l -6.76 -1.83 l 4.67 1.86 l 9.55 2.6 l 21.6 5.4 l 12.46 1.79 L 167.75 741 l 15.44 1 a 9.07 9.07 0 0 1 3.43 0.2 l 0.12 0 l 9.95 0.62 h 6.17 l 0.58 0 l 14.34 0.91 Z m -7.1 -19.4 H 234 l 14.48 -0.9 l 13.8 -0.92 l 14.8 -0.93 l 13.47 -0.89 L 316 717.09 l 11.6 -1.79 l 11.59 -2.67 l 10.9 -2.73 l 9.55 -2.6 l 8.73 -3.5 l 0.52 -0.19 l 7.26 -2.41 l 6.22 -3.89 l 5.61 -4 l 3.73 -3.73 l 3 -3.73 l 2.07 -3.45 l 0.54 -1.34 l -1.21 0.43 a 7.81 7.81 0 0 1 -0.79 0.6 l -5.53 3.69 a 10.18 10.18 0 0 1 -1.45 0.79 l -6.51 2.8 a 8.89 8.89 0 0 1 -2.24 1.59 l -1.54 0.77 l -4.32 2.6 a 10.54 10.54 0 0 1 -1.11 0.57 l -6.46 2.76 l -0.38 0.15 l -7.38 2.77 a 8.81 8.81 0 0 1 -1.21 0.36 l -8 1.79 l -8.92 2.68 a 8.56 8.56 0 0 1 -1 0.24 l -9.85 1.78 l -10.78 2.7 a 7.63 7.63 0 0 1 -0.83 0.17 l -12 1.85 l -0.69 0.08 l -11.71 0.9 l -12.65 1.79 a 5.23 5.23 0 0 1 -0.68 0.07 l -27.68 1.85 c -0.2 0 -0.41 0 -0.61 0 H 210.25 c -0.2 0 -0.41 0 -0.61 0 L 182 715 l -25.88 -1.84 c -0.25 0 -0.5 0 -0.74 -0.08 l -24 -3.69 a 7.63 7.63 0 0 1 -0.83 -0.17 l -10.78 -2.7 l -9.86 -1.79 a 10.91 10.91 0 0 1 -1.25 -0.32 L 92 698.83 c -0.24 -0.08 -0.48 -0.17 -0.71 -0.27 L 78.33 693 a 4.37 4.37 0 0 1 -0.49 -0.23 l -3.69 -1.85 a 9.06 9.06 0 0 1 -2.3 -1.63 l -6.4 -2.75 a 9.07 9.07 0 0 1 -1.44 -0.77 l -5.55 -3.67 a 9.94 9.94 0 0 1 -0.83 -0.62 l -1.16 -0.42 l 0.52 1.3 l 2.07 3.45 l 3 3.73 l 4 4 l 4.23 3.53 l 15.29 6.8 l 8.58 3.43 l 9.55 2.6 l 10.9 2.73 l 11.59 2.67 l 11.61 1.79 l 25.44 3.64 l 13.51 0.9 l 14.72 0.91 l 13.88 0.93 Z m 7.1 -28.6 h 15.4 l 7.46 -0.46 a 11 11 0 0 1 -0.61 -1 a 9 9 0 0 1 -0.94 -3.55 c 0 -0.22 0 -0.43 0 -0.64 V 672.57 h -42.6 v 17.49 c 0 0.2 0 0.41 0 0.61 a 9.13 9.13 0 0 1 -0.94 3.58 a 11 11 0 0 1 -0.61 1 l 7.45 0.46 Z M 26.62 664.31 a 9.08 9.08 0 0 1 -6.46 -2.68 l -3.7 -3.69 a 8.9 8.9 0 0 1 -1.73 -2.4 l -3.68 -7.36 a 8.41 8.41 0 0 1 -0.7 -1.89 l -0.92 -3.69 a 9.55 9.55 0 0 1 -0.28 -2.41 V 609.88 a 9.16 9.16 0 1 1 18.31 0 v 29.39 l 0.41 1.61 L 30.45 646 l 2.63 2.63 a 9.16 9.16 0 0 1 -6.46 15.64 Z m 400.48 -0.06 a 9.15 9.15 0 0 1 -6.46 -15.63 l 2.64 -2.64 l 2.57 -5.15 l 0.4 -1.61 V 609.88 a 9.16 9.16 0 1 1 18.32 0 v 30.26 a 11.45 11.45 0 0 1 -0.07 1.3 a 8 8 0 0 1 -0.26 1.31 l -0.87 3.5 a 8.52 8.52 0 0 1 -0.7 1.88 L 439 655.5 a 9 9 0 0 1 -1.73 2.39 l -3.7 3.69 A 9.11 9.11 0 0 1 427.1 664.25 Z m 8.31 -65.51 a 9.16 9.16 0 0 1 -9.16 -9.16 V 542.52 a 9.16 9.16 0 1 1 18.32 0 v 47.06 A 9.16 9.16 0 0 1 435.41 598.74 Z m -417.1 0 a 9.16 9.16 0 0 1 -9.16 -9.16 V 542.52 a 9.16 9.16 0 1 1 18.31 0 v 47.06 A 9.15 9.15 0 0 1 18.31 598.74 Z m 417.1 -67.36 a 9.16 9.16 0 0 1 -9.16 -9.16 V 489 a 9.16 9.16 0 0 1 18.32 0 v 33.22 A 9.16 9.16 0 0 1 435.41 531.38 Z m -417.1 0 a 9.16 9.16 0 0 1 -9.16 -9.16 V 446.55 a 9.08 9.08 0 0 1 0.4 -2.67 l 0.81 -3.24 c 0.06 -0.23 0.12 -0.45 0.2 -0.68 l 1.85 -5.54 a 9.62 9.62 0 0 1 0.83 -1.82 L 16 428 a 9.2 9.2 0 0 1 2.14 -2.43 l 4.54 -3.63 l 5.47 -4.56 a 8.65 8.65 0 0 1 1.32 -0.92 l 6.46 -3.69 l 0.45 -0.24 l 7.38 -3.69 l 0.68 -0.31 l 18.43 -7.38 a 9.55 9.55 0 0 1 1.18 -0.38 L 75.13 398 a 9.15 9.15 0 1 1 4.44 17.76 L 69.1 418.37 l -17.48 7 l -6.82 3.41 L 39.26 432 l -4.92 4.1 l -0.15 0.12 l -3.33 2.67 l -1.4 2.33 L 28 445.42 l -0.58 2.29 v 74.51 A 9.15 9.15 0 0 1 18.31 531.38 Z m 412.48 -65.52 a 9.16 9.16 0 0 1 -7.62 -14.23 l 1.53 -2.3 l 0.39 -0.76 l 0.53 -1.59 c -0.08 -0.31 -0.14 -0.62 -0.19 -0.92 l -0.71 -3.54 l -0.45 -1.35 l -1.41 -2.33 l -3.33 -2.67 l -0.14 -0.12 l -4.92 -4.1 l -5.54 -3.16 l -6.82 -3.41 l -17.73 -7.09 l -8.83 -2.65 a 9.16 9.16 0 1 1 5.26 -17.54 l 9.22 2.77 c 0.26 0.08 0.52 0.17 0.77 0.27 l 18.46 7.38 c 0.23 0.09 0.46 0.2 0.69 0.31 l 7.39 3.69 l 0.45 0.24 l 6.46 3.69 a 8.65 8.65 0 0 1 1.32 0.92 l 5.47 4.56 l 4.54 3.63 A 9.43 9.43 0 0 1 437.7 428 l 2.78 4.61 a 9.59 9.59 0 0 1 0.85 1.84 l 0.78 2.35 a 10.4 10.4 0 0 1 0.44 1.5 l 0.69 3.46 l 0.36 0.72 a 9.19 9.19 0 0 1 0.5 7 L 442.24 455 a 10.26 10.26 0 0 1 -0.49 1.19 l -0.92 1.84 c -0.17 0.33 -0.36 0.65 -0.56 1 l -1.84 2.77 A 9.18 9.18 0 0 1 430.79 465.86 Z M 226.86 317.3 a 9 9 0 0 1 -1.16 -0.07 l -6.8 -0.87 H 146.58 a 9.15 9.15 0 0 1 -9.16 -9.15 a 6.08 6.08 0 0 1 0 -0.61 V 226 a 11.09 11.09 0 0 1 8.61 -10 l 0.15 -0.08 a 9.19 9.19 0 0 1 4.08 -1 h 4.36 a 8.59 8.59 0 0 1 1.34 0.06 a 9.07 9.07 0 0 1 1.28 0.26 l 2.4 0.6 h 3.5 a 9.1 9.1 0 0 1 2.21 0.27 l 2.6 0.65 h 2.57 a 9.18 9.18 0 0 1 1.81 0.18 l 3.71 0.75 h 2.79 a 9 9 0 0 1 1.79 0.17 l 3.72 0.74 h 2.79 a 8.94 8.94 0 0 1 2.75 0.43 l 3.17 0.79 l 0.52 0.14 a 9.3 9.3 0 0 1 3.42 -0.41 h 60.29 a 9.09 9.09 0 0 1 2 0.22 a 9.11 9.11 0 0 1 4.43 -1.15 h 5.56 l 3.72 -0.74 a 9 9 0 0 1 1.79 -0.17 h 2.79 l 3.71 -0.75 a 9.18 9.18 0 0 1 1.81 -0.18 h 2.59 l 2.59 -0.65 a 9.25 9.25 0 0 1 2.22 -0.28 H 294 l 2.37 -0.6 a 8.28 8.28 0 0 1 1.35 -0.28 a 8.53 8.53 0 0 1 1.34 -0.06 h 4.4 a 9.11 9.11 0 0 1 4.07 0.95 l 1.86 0.92 a 9.46 9.46 0 0 1 2.4 1.73 l 1.87 1.88 a 9.18 9.18 0 0 1 2.65 6.44 V 307.2 a 9.17 9.17 0 0 1 -9.18 9.16 H 257.92 c -0.2 0 -0.41 0 -0.61 0 h -22.5 l -6.82 0.85 A 8.47 8.47 0 0 1 226.86 317.3 Z m -21.3 -19.25 h 13.92 a 9 9 0 0 1 1.16 0.08 l 6.23 0.79 l 6.24 -0.77 a 8.47 8.47 0 0 1 1.13 -0.08 h 13.23 l 0.61 0 h 0.07 V 237.94 H 205.56 Z m 60.9 0 H 298 V 233.82 l -0.55 0.15 a 9.19 9.19 0 0 1 -2.28 0.28 h -3.5 l -2.59 0.65 a 9.25 9.25 0 0 1 -2.22 0.28 h -2.8 l -3.71 0.74 a 9.18 9.18 0 0 1 -1.81 0.18 h -2.8 l -3.72 0.75 a 9 9 0 0 1 -1.79 0.17 h -3.42 l -0.35 0.52 Z m -110.7 0 h 31.5 V 237.54 l -0.18 -0.26 L 186 237 h -2.51 a 9 9 0 0 1 -1.79 -0.17 l -3.72 -0.75 h -2.8 a 9.18 9.18 0 0 1 -1.81 -0.18 l -3.71 -0.74 h -2.78 a 9.11 9.11 0 0 1 -2.21 -0.28 l -2.6 -0.65 h -3.5 a 9.24 9.24 0 0 1 -2.22 -0.27 l -0.57 -0.14 Z M 190 181.63 a 9.15 9.15 0 0 1 -9.16 -9.15 V 123 a 9.44 9.44 0 0 1 -0.85 -2.9 a 9.14 9.14 0 0 1 0 -1.88 V 112.8 l -12.14 -1.35 a 10.26 10.26 0 0 1 -1.21 -0.22 l -14.77 -3.69 l -0.29 -0.08 l -7.76 -2.22 v 52.48 a 9.16 9.16 0 1 1 -18.31 0 V 134.21 a 9.14 9.14 0 0 1 -3.65 1.23 l -7.73 3.1 l -0.52 0.19 l -7.29 2.42 l -6.3 3.9 l -5.59 4 l -2.8 2.79 L 89 155 l -1.34 3.36 a 9.16 9.16 0 0 1 -17 -6.82 l 1.85 -4.61 a 9.15 9.15 0 0 1 1.35 -2.3 L 77.56 140 a 8.19 8.19 0 0 1 0.68 -0.76 l 3.69 -3.69 a 8.27 8.27 0 0 1 1.15 -1 L 89.54 130 a 5.39 5.39 0 0 1 0.5 -0.33 L 97.5 125 a 9.44 9.44 0 0 1 1.93 -0.91 l 8 -2.67 l 9 -3.6 a 9.28 9.28 0 0 1 3.41 -0.66 h 0.88 a 9.08 9.08 0 0 1 4.68 1.29 V 97.73 a 9.16 9.16 0 0 1 -3.71 -7.37 v -3.5 a 7.73 7.73 0 0 1 0.08 -1.44 a 9.17 9.17 0 0 1 0.9 -2.9 l 5.37 -11.63 l 0.15 -0.31 h 0 a 9.12 9.12 0 0 1 2.18 -2.82 a 9 9 0 0 1 3.25 -1.81 h 0 l 0.28 -0.09 l 4.42 -1.26 V 33.15 a 9.13 9.13 0 0 1 1.45 -5 A 9.14 9.14 0 0 1 142 24.82 l 4.62 -4.62 a 9.11 9.11 0 0 1 3.32 -2.13 a 9.15 9.15 0 0 1 5 -1.47 h 0.73 L 215.35 1.44 l 1 -0.49 A 9.19 9.19 0 0 1 220.4 0 h 12.92 a 9.15 9.15 0 0 1 4.08 1 l 1 0.49 L 298.15 16.6 h 0.71 a 9.15 9.15 0 0 1 5 1.47 a 9.11 9.11 0 0 1 3.32 2.13 l 4.62 4.62 a 9.14 9.14 0 0 1 2.15 3.37 a 9.14 9.14 0 0 1 1.46 5 V 64.6 l 3.85 1.13 a 9.26 9.26 0 0 1 6.58 5.62 l 4.87 10.54 A 9.11 9.11 0 0 1 332 86.66 v 2.77 A 9.11 9.11 0 0 1 331.3 93 h 0 a 9.28 9.28 0 0 1 -1.68 2.62 h 0 c -0.08 0.08 -0.16 0.17 -0.25 0.25 l -0.75 0.76 a 7.8 7.8 0 0 1 -1 0.91 l -0.22 0.17 v 3.42 a 9.18 9.18 0 0 1 0.91 4 v 13.3 a 9.15 9.15 0 0 1 7.28 -0.88 l 9.23 2.77 a 10.12 10.12 0 0 1 1.09 0.4 l 8.3 3.69 a 9.45 9.45 0 0 1 1.13 0.61 l 7.25 4.53 l 6.35 3.64 a 8.77 8.77 0 0 1 1.91 1.47 l 3.65 3.65 a 8.07 8.07 0 0 1 0.68 0.75 l 3.69 4.61 a 10.08 10.08 0 0 1 0.7 1 l 2.77 4.62 a 9.18 9.18 0 0 1 1.3 4.71 V 155 a 9.15 9.15 0 0 1 -18.09 2 l -1.36 -2.27 l -3 -3.73 l -2.43 -2.44 l -5.45 -3.12 l -0.29 -0.18 l -6.85 -4.28 L 339 137.71 l -8.67 -2.6 a 9.36 9.36 0 0 1 -2 -0.88 v 23.49 a 9.16 9.16 0 1 1 -18.31 0 V 109.15 a 9.2 9.2 0 0 1 -0.91 -3.6 l -6.79 1.94 l -0.29 0.08 l -14.78 3.69 a 9.74 9.74 0 0 1 -1.2 0.22 l -12.17 1.35 v 1.58 a 9.62 9.62 0 0 1 0.87 1.4 l 2.76 5.53 a 9.15 9.15 0 1 1 -16.38 8.18 L 260.3 128 c -0.28 -0.16 -0.56 -0.33 -0.83 -0.52 a 7 7 0 0 1 -0.61 -0.46 l -3.77 -0.94 a 9.15 9.15 0 0 1 -6.94 -9.07 V 86.55 a 9.86 9.86 0 0 1 0.22 -1.89 a 9.12 9.12 0 0 1 0.83 -2.24 a 8.68 8.68 0 0 1 1.73 -2.32 a 9.07 9.07 0 0 1 2.24 -1.61 h 0 a 9.09 9.09 0 0 1 2 -0.74 l 41.85 -10.82 V 39.79 L 237.77 54.84 a 9.39 9.39 0 0 1 -2 0.36 h -0.28 a 9.13 9.13 0 0 1 -4 0.92 h -9.22 a 9.06 9.06 0 0 1 -4 -0.92 a 8.91 8.91 0 0 1 -2 -0.28 L 156.65 39.8 V 66.93 l 41.87 10.82 a 9.19 9.19 0 0 1 2 0.74 h 0 a 9.42 9.42 0 0 1 2.21 1.57 a 9 9 0 0 1 1.76 2.36 a 9.12 9.12 0 0 1 0.83 2.24 a 9.86 9.86 0 0 1 0.22 1.89 c 0 0.11 0 0.22 0 0.32 V 117 a 9 9 0 0 1 -0.22 2.21 a 9.17 9.17 0 0 1 -4.8 6.15 a 9 9 0 0 1 -1.44 0.58 v 46.58 A 9.14 9.14 0 0 1 190 181.63 Z m 84.79 -90 l 1 2.58 l 7.64 -0.84 l 14 -3.5 l 12.32 -3.52 l 2.4 -1 l -1.28 -2.78 a 9.11 9.11 0 0 1 -4.61 1.24 a 10 10 0 0 1 -1.1 -0.06 Z M 170.39 93.32 l 7.55 0.83 l 1 -2.55 L 148.6 83.76 a 10 10 0 0 1 -1.1 0.06 a 9.12 9.12 0 0 1 -4.66 -1.27 l -1.28 2.78 l 2.46 1 l 12.36 3.54 Z m 54 -55.5 h 4.92 a 9.22 9.22 0 0 1 4 -0.91 H 234 l 34.84 -8.85 L 233.11 19 a 7.3 7.3 0 0 1 -1.1 -0.33 a 6.24 6.24 0 0 1 -0.84 -0.36 h -8.62 a 6.24 6.24 0 0 1 -0.84 0.36 a 7.3 7.3 0 0 1 -1.1 0.33 l -35.76 9.08 l 34.82 8.84 h 0.73 A 9.22 9.22 0 0 1 224.4 37.82 Z" stroke-linecap="round"/>
</g>
		<g transform="matrix(1 0 0 1 44.755 -349.745)" id="Absperrventile">
<path style="stroke: none; stroke-width: 1; stroke-dasharray: none; stroke-linecap: butt; stroke-dashoffset: 0; stroke-linejoin: miter; stroke-miterlimit: 4; is-custom-font: none; font-file-url: none; fill: rgb(255,255,255); fill-rule: nonzero; opacity: 1;" transform=" translate(-269.31, -149.41)" d="M 269.31 186.49 a 13.08 13.08 0 0 1 -13.08 -13.08 v -48 a 13.08 13.08 0 1 1 26.16 0 v 48 A 13.08 13.08 0 0 1 269.31 186.49 Z" stroke-linecap="round"/>
</g>
		<g transform="matrix(1 0 0 1 -206.25 -52.5935)" id="Absperrventile">
<path style="stroke: none; stroke-width: 1; stroke-dasharray: none; stroke-linecap: butt; stroke-dashoffset: 0; stroke-linejoin: miter; stroke-miterlimit: 4; is-custom-font: none; font-file-url: none; fill: rgb(255,255,255); fill-rule: nonzero; opacity: 1;" transform=" translate(-18.305, -446.5615)" d="M 18.31 464.88 q -0.9 0 -1.8 -0.09 c -0.59 -0.06 -1.19 -0.15 -1.78 -0.27 s -1.17 -0.27 -1.74 -0.44 s -1.13 -0.38 -1.68 -0.61 s -1.1 -0.48 -1.62 -0.76 s -1 -0.59 -1.55 -0.92 s -1 -0.69 -1.44 -1.07 a 17.73 17.73 0 0 1 -2.55 -2.55 c -0.38 -0.46 -0.74 -0.95 -1.07 -1.44 s -0.64 -1 -0.92 -1.54 s -0.53 -1.07 -0.76 -1.63 S 1 452.45 0.79 451.88 s -0.32 -1.16 -0.44 -1.74 s -0.2 -1.19 -0.26 -1.78 a 16.25 16.25 0 0 1 0 -3.6 c 0.06 -0.59 0.15 -1.19 0.26 -1.78 s 0.27 -1.17 0.44 -1.74 s 0.38 -1.13 0.61 -1.68 s 0.48 -1.1 0.76 -1.63 s 0.59 -1 0.92 -1.54 s 0.69 -1 1.07 -1.44 A 17.73 17.73 0 0 1 6.7 432.4 c 0.46 -0.38 1 -0.74 1.44 -1.07 s 1 -0.64 1.54 -0.92 s 1.07 -0.53 1.63 -0.76 s 1.11 -0.43 1.68 -0.61 s 1.16 -0.32 1.74 -0.44 s 1.19 -0.21 1.78 -0.27 a 18 18 0 0 1 3.6 0 c 0.59 0.06 1.19 0.15 1.78 0.27 s 1.17 0.27 1.74 0.44 s 1.14 0.38 1.69 0.61 s 1.09 0.48 1.62 0.76 s 1 0.59 1.54 0.92 a 16.78 16.78 0 0 1 1.44 1.07 A 17.73 17.73 0 0 1 32.47 435 c 0.38 0.46 0.74 0.95 1.07 1.44 s 0.64 1 0.92 1.54 s 0.53 1.07 0.76 1.63 s 0.43 1.11 0.61 1.68 s 0.32 1.16 0.44 1.74 s 0.2 1.19 0.26 1.78 s 0.09 1.2 0.09 1.8 s 0 1.2 -0.09 1.8 s -0.15 1.19 -0.26 1.78 s -0.27 1.17 -0.44 1.74 s -0.38 1.13 -0.61 1.68 s -0.48 1.1 -0.76 1.63 s -0.59 1 -0.92 1.54 s -0.69 1 -1.07 1.44 a 17.73 17.73 0 0 1 -2.55 2.55 a 16.78 16.78 0 0 1 -1.44 1.07 c -0.5 0.33 -1 0.64 -1.54 0.92 s -1.07 0.53 -1.62 0.76 s -1.12 0.43 -1.69 0.61 s -1.16 0.32 -1.74 0.44 s -1.19 0.21 -1.78 0.27 S 18.91 464.88 18.31 464.88 Z" stroke-linecap="round"/>
</g>
		<g transform="matrix(1 0 0 1 -0.1898 -185.05)" id="Absperrventile">
<path style="stroke: none; stroke-width: 1; stroke-dasharray: none; stroke-linecap: butt; stroke-dashoffset: 0; stroke-linejoin: miter; stroke-miterlimit: 4; is-custom-font: none; font-file-url: none; fill: rgb(255,255,255); fill-rule: nonzero; opacity: 1;" transform=" translate(-224.3652, -314.105)" d="M 257.31 518.39 H 206.56 c -0.34 0 -0.68 0 -1 0 l -49.84 -2.77 c -0.37 0 -0.74 -0.06 -1.11 -0.1 l -31.39 -3.69 c -0.49 -0.06 -1 -0.13 -1.44 -0.23 l -13.27 -2.64 l -13.26 -1.78 a 17.65 17.65 0 0 1 -2.6 -0.54 l -12.47 -3.56 l -11.54 -2.66 c -0.56 -0.13 -1.12 -0.29 -1.67 -0.47 l -11.07 -3.69 l -0.48 -0.17 l -10.15 -3.7 c -0.4 -0.15 -0.79 -0.3 -1.17 -0.47 l -8.3 -3.69 l -0.74 -0.35 l -7.37 -3.68 c -0.31 -0.16 -0.62 -0.32 -0.92 -0.5 L 20.3 480 A 18 18 0 0 1 16.45 477 l -4.61 -4.61 a 17.53 17.53 0 0 1 -1.35 -1.51 L 6.8 466.3 a 18.14 18.14 0 0 1 -2 -3.2 l -1.87 -3.71 a 17.88 17.88 0 0 1 -1.61 -4.66 l -0.92 -4.62 A 18.31 18.31 0 1 1 36.27 443 l 0.41 2.07 l 1.78 2.22 l 2.16 2.16 l 3.89 2.23 L 51 454.89 l 7.35 3.27 l 9.32 3.4 l 10 3.33 l 11.15 2.57 c 0.3 0.07 0.61 0.15 0.91 0.24 L 101.42 471 l 12.52 1.68 c 0.38 0.05 0.77 0.11 1.15 0.19 l 13.13 2.62 L 158.31 479 l 48.76 2.72 H 256.8 l 15.6 -0.87 l 16.09 -1.79 c 0.32 0 0.64 -0.06 1 -0.08 l 15.16 -0.89 l 14.53 -1.71 l 14.14 -2.65 l 1 -0.15 l 13.26 -1.78 l 12.36 -2.47 L 371 466 l 0.93 -0.26 l 10.16 -2.54 l 9 -3.26 l 8.63 -3.46 l 6.3 -2.8 l 4.95 -3.53 l 0.47 -0.32 l 3.18 -2.12 l 1.92 -2.41 a 18.32 18.32 0 0 1 28.59 22.9 l -3.7 4.62 a 18.06 18.06 0 0 1 -4.12 3.78 L 432 480.08 l -6.23 4.45 a 18.48 18.48 0 0 1 -3.21 1.83 l -8.31 3.69 l -0.62 0.26 L 404.39 494 c -0.19 0.08 -0.37 0.15 -0.56 0.21 l -10.16 3.69 a 18.74 18.74 0 0 1 -1.8 0.56 l -10.6 2.65 l -11.54 3.55 a 18 18 0 0 1 -1.79 0.45 l -13.85 2.77 c -0.38 0.08 -0.77 0.14 -1.16 0.19 l -13.37 1.79 l -14.28 2.68 c -0.41 0.08 -0.83 0.14 -1.25 0.19 l -15.69 1.84 c -0.35 0 -0.7 0.07 -1.06 0.09 l -15.21 0.9 L 276 517.35 l -1 0.09 l -16.61 0.92 C 258 518.38 257.65 518.39 257.31 518.39 Z M 247.16 201 H 220.4 c -0.41 0 -0.81 0 -1.22 -0.05 L 206 200.07 h -12.3 c -0.43 0 -0.87 0 -1.3 0 l -12.92 -0.92 c -0.5 0 -1 -0.09 -1.49 -0.17 l -24 -3.69 l -0.3 -0.05 l -11.12 -1.9 l -0.19 0 l -10.15 -1.84 a 17.61 17.61 0 0 1 -2 -0.48 L 121 188.18 l -0.52 -0.16 l -8.31 -2.77 l -0.65 -0.23 l -7.38 -2.77 a 18.09 18.09 0 0 1 -3.71 -1.91 l -5.19 -3.45 L 91 174.34 a 18.34 18.34 0 0 1 -3.52 -2.75 l -3.69 -3.69 a 18.36 18.36 0 0 1 -3.42 -4.74 l -1.71 -3.4 q -0.37 -0.73 -0.69 -1.5 c -0.21 -0.5 -0.4 -1 -0.56 -1.53 l -0.82 -2.47 a 18.25 18.25 0 0 1 -0.39 -10.2 l 0.92 -3.69 a 17.82 17.82 0 0 1 1.51 -4 l 1.89 -3.65 a 18.2 18.2 0 0 1 5.06 -6.07 l 3.57 -2.76 l 4.48 -3.59 a 18.21 18.21 0 0 1 3.26 -2.08 l 12.92 -6.46 a 18.34 18.34 0 0 1 8.19 -1.94 h 2.77 a 18.32 18.32 0 0 1 1.71 36.56 l -4 2 l 0.47 0.32 l 5.1 1.91 l 7.72 2.58 l 8 2.39 l 9 1.64 l 10.88 1.86 l 23.12 3.55 l 11.52 0.82 h 12.26 c 0.41 0 0.81 0 1.22 0.05 l 13.23 0.88 h 25.5 L 271 162.62 l 23.15 -3.55 l 10.83 -1.81 l 9 -1.64 l 8 -2.39 l 7.32 -2.44 l 4.8 -2.06 l 0.7 -0.4 l -5.1 -1.91 l -2.43 -0.81 a 18.31 18.31 0 1 1 11.54 -34.76 l 2.77 0.92 l 0.67 0.23 l 7.38 2.77 c 0.59 0.23 1.18 0.48 1.75 0.77 l 5.54 2.77 a 17.78 17.78 0 0 1 3.25 2.08 l 4.39 3.51 l 3.47 2.6 a 18.31 18.31 0 0 1 5.23 6.17 l 1.89 3.62 a 17.89 17.89 0 0 1 1.54 4.05 l 0.92 3.69 a 18.2 18.2 0 0 1 0 8.86 l -0.92 3.69 a 18.3 18.3 0 0 1 -2.48 5.65 l -1.88 2.85 a 18 18 0 0 1 -2.34 2.87 l -3.69 3.69 a 18.34 18.34 0 0 1 -3.52 2.75 l -4.61 2.77 l -0.35 0.2 l -6.46 3.69 a 16.13 16.13 0 0 1 -1.86 0.93 L 343 184.75 c -0.47 0.2 -1 0.38 -1.43 0.54 l -8.31 2.77 l -0.52 0.17 L 323.5 191 a 17.61 17.61 0 0 1 -2 0.48 l -10.15 1.84 l -0.25 0 L 300 195.21 l -0.24 0 l -24 3.69 c -0.49 0.08 -1 0.13 -1.49 0.17 L 248.46 201 C 248 201 247.59 201 247.16 201 Z" stroke-linecap="round"/>
</g>
</g>
</g>
</svg>
