<?xml version="1.0" encoding="utf-8"?>
<!-- Generator: Adobe Illustrator 23.0.6, SVG Export Plug-In . SVG Version: 6.00 Build 0)  -->
<svg version="1.1" id="Filter" 	 viewBox="0 0 997.8 381.4" style="enable-background:new 0 0 997.8 381.4;" xml:space="preserve">
<title>Filter</title>
<path d="M531.7,381.4h-53.1c-0.1,0-0.2,0-0.3,0l-77.4-2.7c-0.1,0-0.2,0-0.3,0l-26.1-1.8l-50.4-3.6c-0.1,0-0.2,0-0.4,0l-24.3-2.7
	l-23.4-2.7c-0.1,0-0.2,0-0.3,0l-23.4-3.6l-22.6-3.6l-21.7-3.6c-0.1,0-0.3-0.1-0.4-0.1l-20.6-4.5l-19.9-4.5l-19-4.5
	c-0.2,0-0.3-0.1-0.5-0.1l-17.9-5.4l-17-4.5c-0.2-0.1-0.5-0.1-0.7-0.2l-15.3-5.4c-0.1-0.1-0.3-0.1-0.4-0.2l-15.3-6.3L67.7,316
	c-0.3-0.1-0.6-0.3-0.9-0.4l-11.7-6.3c-0.1,0-0.2-0.1-0.3-0.2L44,302.8c-0.1-0.1-0.2-0.1-0.3-0.2l-9.9-6.3c-0.2-0.2-0.5-0.3-0.7-0.5
	l-8.1-6.3c-0.1-0.1-0.3-0.2-0.4-0.3l-7.2-6.3c-0.5-0.4-0.9-0.9-1.3-1.4l-5.4-7.2c0-0.1-0.1-0.1-0.1-0.2l-4.5-6.3
	c-0.5-0.6-0.8-1.3-1.1-2.1l-2.7-7.2c-0.1-0.2-0.2-0.5-0.2-0.7l-1.8-6.3C0.1,250.9,0,250,0,249.2v-99c0-0.7,0.1-1.5,0.3-2.2l1.8-7.2
	c0.1-0.3,0.2-0.7,0.3-1l2.7-7.2c0.3-0.7,0.6-1.4,1.1-2l4.5-6.3c0.2-0.2,0.3-0.4,0.5-0.6l5.4-6.3c0.1-0.2,0.3-0.3,0.5-0.5l7.2-7.2
	c0.3-0.3,0.5-0.5,0.8-0.7l8.1-6.3c0.2-0.2,0.5-0.3,0.7-0.5l9.9-6.3c0.1-0.1,0.2-0.1,0.3-0.2l10.8-6.3c0.2-0.1,0.5-0.3,0.8-0.4
	l11.7-5.4l13.5-6.3c0.3-0.1,0.5-0.2,0.8-0.3l30.6-10.8c0.1,0,0.2-0.1,0.3-0.1l17.1-5.4c0,0,0.1,0,0.1,0l18-5.4
	c0.2,0,0.3-0.1,0.5-0.1l18.9-4.5l19.9-4.5c0.1,0,0.3-0.1,0.4-0.1l20.6-3.6l21.5-4.5c0.1,0,0.3-0.1,0.4-0.1l22.5-3.6
	c0.1,0,0.3,0,0.4-0.1l23.2-2.7l23.2-3.6c0.2,0,0.5-0.1,0.7-0.1l24.2-1.8l25.1-2.7c0.1,0,0.2,0,0.3,0l37.8-2.7c3.1-0.2,6,1.2,7.7,3.5
	l2.9-1.4l2.2-1.5c0.1-0.1,0.2-0.1,0.3-0.2c0,0,0,0,0,0c0,0,0,0,0,0c0,0,0,0,0,0c0,0,0,0,0,0c0,0,0,0,0,0c0,0,0,0,0,0c0,0,0,0,0,0
	c0,0,0,0,0,0c0,0,0,0,0,0s0,0,0,0c0,0,0,0,0,0c0,0,0,0,0,0c0,0,0,0,0,0c0,0,0,0,0,0c0,0,0,0,0,0c0,0,0,0,0,0c0,0,0,0,0,0
	c0,0,0,0,0,0c0,0,0,0,0,0c0,0,0,0,0,0c0,0,0,0,0,0c0,0,0,0,0,0c0,0,0,0,0,0c0,0,0,0,0,0c0,0,0,0,0,0c0,0,0,0,0,0c0,0,0,0,0,0
	c0,0,0,0,0,0c0,0,0,0,0,0c0,0,0,0,0,0c0,0,0,0,0,0c0,0,0,0,0,0c0,0,0,0,0,0c0,0,0,0,0,0c0,0,0,0,0,0c0,0,0,0,0,0c0,0,0,0,0,0
	c0,0,0,0,0,0c0,0,0,0,0,0c0,0,0,0,0,0c0,0,0,0,0,0c0,0,0,0,0,0l13.9-7l2.1-1.4c0.8-0.6,1.7-1,2.7-1.3c0.8-0.2,1.7-0.3,2.5-0.3h2.4
	l2.5-0.6c0.7-0.2,1.4-0.3,2.2-0.3h19.7c0.3,0,0.5,0,0.8,0c1.3,0.1,2.4,0.4,3.5,1c0.9,0.5,1.8,1.2,2.5,2c0.7-0.2,1.5-0.3,2.2-0.3
	c0.8,0,1.5,0.1,2.3,0.3l2.5,0.6h0.3c0.2-0.7,0.5-1.4,0.9-2.1c0.7-1.1,1.5-2,2.6-2.7c0.4-0.3,0.8-0.5,1.2-0.7l3.4-1.7
	c0.6-0.3,1.2-0.5,1.8-0.7l6.9-1.7l2.4-0.8c0.2-0.1,0.4-0.1,0.7-0.2l7.2-1.8c0.7-0.2,1.4-0.3,2.2-0.3h2.1l1.2-0.4
	c0.8-0.3,1.7-0.5,2.6-0.5c0.9,0,1.8,0.1,2.6,0.3l2.4,0.6h2.5c0.7,0,1.5,0.1,2.2,0.3l3.6,0.9c0.2,0.1,0.4,0.1,0.7,0.2l2.4,0.8
	L525,5.7c1,0.2,1.9,0.7,2.8,1.2l2.4,1.6c0.7,0.4,1.3,0.9,1.8,1.5c0.6,0.6,1,1.2,1.4,1.9c0.3,0.5,0.5,1,0.7,1.6h0.8l1.4-0.5
	c1.1-0.4,2.3-0.5,3.4-0.4c0.6,0,1.2,0.1,1.7,0.3c0.6-0.7,1.2-1.2,2-1.7c1.1-0.7,2.3-1.1,3.6-1.3c0.4-0.1,0.9-0.1,1.3-0.1h20.5
	c0.7,0,1.5,0.1,2.2,0.3l2.5,0.6h1.3c0.3,0,0.6,0,1,0h0c0,0,0,0,0,0c0,0,0,0,0,0c0,0,0,0,0,0c0,0,0,0,0,0c0,0,0,0,0,0c0,0,0,0,0,0
	c0,0,0,0,0,0c0,0,0,0,0,0c0,0,0,0,0,0l0,0c0.3,0,0.6,0.1,1,0.2c0.7,0.2,1.4,0.4,2,0.7l14.4,7.2c0.3,0.2,0.7,0.4,1,0.6l2.2,1.5
	l3.1,1.6c0.3,0.1,0.5,0.3,0.8,0.4l2.5,1.3c1.8-2.3,4.6-3.7,7.7-3.5l50.4,3.6c0.1,0,0.2,0,0.3,0l48.6,5.4l23.4,2.7
	c0.1,0,0.3,0,0.4,0.1l44.9,7.2c0.2,0,0.3,0.1,0.5,0.1l41.4,9c0.1,0,0.1,0,0.2,0l37.8,9c0.2,0,0.4,0.1,0.6,0.2l17.1,5.4
	c0,0,0.1,0,0.1,0l16.2,5.4c0,0,0.1,0,0.1,0.1l15.3,5.4c0.1,0,0.1,0,0.2,0.1l14.4,5.4c0.3,0.1,0.6,0.2,0.9,0.4l12.6,6.3
	c0.1,0,0.2,0.1,0.2,0.1l11.7,6.3c0.1,0,0.2,0.1,0.3,0.2l10.8,6.3c0.2,0.1,0.4,0.3,0.6,0.4l9,6.3c0.3,0.2,0.5,0.4,0.8,0.6l7.2,6.3
	c0.1,0.1,0.3,0.3,0.4,0.4l6.3,6.3c0.3,0.3,0.6,0.6,0.8,1l5.4,7.2c0.4,0.6,0.8,1.2,1.1,1.8l2.7,6.3c0.1,0.1,0.1,0.3,0.2,0.4l2.7,7.2
	c0.2,0.6,0.4,1.2,0.5,1.9l0.9,6.1c0.1,0.4,0.1,0.9,0.1,1.4c0,0.1,0,0.2,0,0.3v92.4c0,0.1,0,0.3,0,0.4c0,0.3,0,0.7-0.1,1l-0.9,7
	c-0.1,0.8-0.3,1.6-0.7,2.4l-2.6,6.1l-2.6,7c-0.4,1-0.9,1.9-1.6,2.7l-5.4,6.3c-0.1,0.2-0.3,0.3-0.5,0.5L970,292.4
	c-0.4,0.4-0.8,0.7-1.2,1l-9,6.3c-0.2,0.1-0.4,0.3-0.6,0.4l-10.8,6.3c-0.2,0.1-0.5,0.3-0.8,0.4l-11.6,5.3l-12.5,6.2
	c-0.3,0.1-0.6,0.3-0.9,0.4l-14.3,5.3l-15.2,6.2c-0.2,0.1-0.4,0.1-0.6,0.2l-16.2,5.4c-0.2,0.1-0.4,0.1-0.6,0.2l-17,4.5l-18.8,5.4
	c-0.1,0-0.3,0.1-0.4,0.1l-18.9,4.5c-0.2,0-0.4,0.1-0.5,0.1l-20.5,3.6l-20.5,4.5c-0.2,0-0.3,0.1-0.5,0.1l-45,7.2
	c-0.1,0-0.3,0-0.4,0.1l-23.4,2.7l-48.6,5.4c-0.1,0-0.2,0-0.3,0l-50.4,3.6l-26.2,1.8c-0.1,0-0.2,0-0.3,0l-52.2,1.8
	C531.9,381.4,531.8,381.4,531.7,381.4z M478.8,363.6h52.8l51.9-1.8l26-1.8l50.2-3.6l48.4-5.4l23.2-2.7l44.6-7.1l20.5-4.4
	c0.1,0,0.2,0,0.4-0.1l20.4-3.6l18.4-4.4l18.7-5.3c0.1,0,0.1,0,0.2,0l16.8-4.4l15.6-5.2l15-6.2c0.1,0,0.2-0.1,0.3-0.1l14-5.2
	l12.2-6.1c0.1,0,0.2-0.1,0.2-0.1l11.3-5.2l10.1-5.9l8.1-5.6l12.7-12.7l4.2-4.8l2.1-5.7c0-0.1,0.1-0.3,0.2-0.4l2.2-5.1l0.7-5.4v-54.8
	l-2.4,2.7c-0.3,0.3-0.5,0.6-0.8,0.8l-7.2,6.3c-0.2,0.2-0.5,0.4-0.8,0.6l-9,6.3c-0.2,0.1-0.4,0.3-0.6,0.4l-10.8,6.3
	c-0.1,0.1-0.2,0.1-0.3,0.2l-11.7,6.3c-0.2,0.1-0.5,0.2-0.7,0.3l-12.6,5.4l-14.3,6.3c-0.2,0.1-0.4,0.2-0.6,0.2l-15.3,5.4
	c0,0-0.1,0-0.1,0l-16.2,5.4c0,0-0.1,0-0.1,0l-17.1,5.4c-0.2,0.1-0.4,0.1-0.6,0.2l-37.8,9c-0.1,0-0.1,0-0.2,0l-20.7,4.5
	c-0.1,0-0.2,0-0.4,0.1l-20.7,3.6c0,0-0.1,0-0.1,0l-45,7.2l-23.5,3.6c-0.1,0-0.2,0-0.4,0l-24.3,2.7c-0.1,0-0.2,0-0.3,0l-24.2,1.8
	l-25,2.7c-0.1,0-0.2,0-0.3,0l-25.2,1.8c-0.1,0-0.2,0-0.3,0l-78.3,2.7c-0.1,0-0.2,0-0.3,0h-79.2c-0.1,0-0.2,0-0.3,0l-26.1-0.9
	c-0.1,0-0.2,0-0.3,0l-25-1.8l-25.9-0.9c-0.2,0-0.4,0-0.6,0l-25-2.7l-25-1.8c-0.1,0-0.2,0-0.4,0l-24.3-2.7l-23.4-2.7
	c-0.1,0-0.2,0-0.3,0l-23.4-3.6l-22.6-3.6l-21.7-3.6c-0.1,0-0.3-0.1-0.4-0.1l-20.7-4.5l-19.9-4.5l-19-4.5l-18.1-4.5
	c-0.2,0-0.4-0.1-0.5-0.1l-17.1-5.4c-0.1,0-0.2-0.1-0.3-0.1l-30.6-10.8c-0.3-0.1-0.5-0.2-0.8-0.3l-13.5-6.3c-0.2-0.1-0.3-0.2-0.5-0.2
	l-11.6-6.2l-10.7-5.3c-0.4-0.2-0.9-0.5-1.3-0.8l-9.9-7.2c-0.1-0.1-0.2-0.1-0.2-0.2l-8.1-6.3c-0.1-0.1-0.3-0.2-0.4-0.3l-6.8-5.9V248
	l1.4,4.8l2.2,5.8l3.8,5.3l4.8,6.4l6.3,5.5l7.6,5.9l9.4,6l10.5,6.1l11.1,6l13,5.2l15.2,6.2l14.7,5.2l16.7,4.4c0.1,0,0.2,0.1,0.3,0.1
	l17.8,5.3l18.7,4.4l19.7,4.5l20.3,4.4l21.4,3.6l22.4,3.6l23.2,3.6l23.2,2.7l24.1,2.7l50.2,3.6l25.9,1.8L478.8,363.6z M452.7,270.9
	h78.9l78-2.7l24.9-1.8l25-2.7c0.1,0,0.2,0,0.3,0l24.1-1.8l24-2.7l23.2-3.6l44.9-7.2l20.5-3.6l20.4-4.4l37.4-8.9l16.7-5.3L887,221
	l14.9-5.3l14.1-6.2l12.3-5.3l11.2-6l10.4-6l8.3-5.8l6.4-5.6l5.9-6.8l4.3-5l2.1-5.7c0-0.1,0.1-0.3,0.2-0.4l2.2-5.1l0.6-4.8l-0.6-4.2
	l-2.3-6.1l-2.2-5.1l-4.4-5.8l-5.6-5.6l-6.6-5.8l-8.3-5.8l-10.3-6l-11.5-6.2l-12.1-6l-13.9-5.2L887,85.8L871,80.4l-16.7-5.3
	l-37.4-8.9l-41.1-8.9l-44.5-7.1l-23.2-2.7l-48.4-5.4l-19.5-1.4l0.7,0.2c0.2,0.1,0.4,0.1,0.6,0.2l4.7,1.6c0.8,0.3,1.5,0.6,2.1,1
	l2,1.3c0.1,0,0.1,0.1,0.2,0.1l4.8,2.4c0.1,0,0.2,0.1,0.3,0.1c0.3,0.1,0.5,0.3,0.8,0.4c0.3,0.2,0.6,0.4,0.9,0.7l17,13.7
	c2.1-1.9,5.2-2.8,8.1-2l3.1,0.8l19.3,2.6c0.2,0,0.3,0,0.5,0.1l18.9,3.6c0.1,0,0.1,0,0.2,0l17.1,3.6c0.1,0,0.3,0.1,0.4,0.1l16.9,4.5
	l16,3.6c0.2,0.1,0.5,0.1,0.7,0.2l14.4,4.5c0.2,0.1,0.4,0.1,0.7,0.2l13.3,5.3l12.4,4.4c0.2,0.1,0.5,0.2,0.7,0.3l11.7,5.4
	c0.2,0.1,0.4,0.2,0.5,0.3l9.9,5.4c0.1,0.1,0.2,0.1,0.3,0.2l9,5.4c0.1,0.1,0.2,0.1,0.4,0.2l8.1,5.4c0.3,0.2,0.6,0.4,0.9,0.6l6.3,5.4
	c0.5,0.5,1,1,1.5,1.6l4.5,6.3c0.1,0.1,0.1,0.2,0.2,0.2l3.6,5.4c0.5,0.8,0.9,1.6,1.2,2.5l1.8,6.3c0.1,0.3,0.2,0.7,0.2,1l0.9,5.2
	c0.1,0.5,0.2,1,0.2,1.6c0,0.5,0,1.1-0.1,1.6l-0.9,6.1c-0.1,0.5-0.2,1.1-0.4,1.6l-1.8,5.4c-0.2,0.6-0.4,1.1-0.7,1.6l-3.6,6.3
	c-0.3,0.5-0.6,0.9-0.9,1.3l-4.5,5.4c-0.2,0.2-0.4,0.4-0.5,0.6l-6.3,6.3c-0.4,0.4-0.9,0.8-1.4,1.1l-8.1,5.4c-0.1,0.1-0.2,0.2-0.4,0.2
	l-9,5.4c-0.1,0.1-0.2,0.1-0.3,0.2l-9.9,5.4c-0.3,0.2-0.7,0.4-1.1,0.5l-11.5,4.4l-12.4,5.3c-0.2,0.1-0.5,0.2-0.7,0.3l-13.5,4.5
	c-0.1,0-0.1,0-0.2,0.1l-14.4,4.5c-0.1,0-0.2,0.1-0.3,0.1l-16.2,4.5c-0.2,0-0.4,0.1-0.5,0.1l-34.2,7.2c-0.1,0-0.1,0-0.2,0l-18.9,3.6
	l-19.9,3.6c-0.1,0-0.3,0-0.4,0.1l-19.8,2.7c-0.1,0-0.3,0-0.4,0l-20.5,1.8l-21.4,2.7c-0.1,0-0.2,0-0.4,0l-21.6,1.8
	c-0.1,0-0.3,0-0.4,0l-22.3,0.9l-21.4,1.8c-0.2,0-0.5,0-0.7,0h-23.2l-22.3,0.9c-0.1,0-0.2,0-0.4,0h-22.5c-0.1,0-0.2,0-0.3,0
	l-23.2-0.9h-22.3c-0.2,0-0.5,0-0.7,0l-22.3-1.8l-21.4-0.9c-0.1,0-0.2,0-0.4,0l-21.6-1.8c-0.1,0-0.2,0-0.4,0l-21.4-2.7l-20.5-1.8
	c-0.1,0-0.3,0-0.4,0l-20.7-2.7c-0.2,0-0.3-0.1-0.5-0.1l-37.8-7.2l-18.1-3.6c-0.1,0-0.1,0-0.2,0l-16.2-3.6c-0.2,0-0.3-0.1-0.5-0.1
	l-16.2-4.5c-0.1,0-0.2-0.1-0.3-0.1l-28.8-9c-0.3-0.1-0.6-0.2-0.9-0.3l-12.6-5.4l-10.7-4.5c-0.2-0.1-0.4-0.2-0.6-0.3l-10.8-5.4
	c-0.2-0.1-0.4-0.2-0.6-0.3l-9-5.4c-0.3-0.2-0.5-0.3-0.8-0.5l-7.2-5.4c-0.3-0.3-0.7-0.5-1-0.8l-6.3-6.3c-0.2-0.2-0.4-0.4-0.5-0.6
	l-4.5-5.4c-0.3-0.4-0.6-0.8-0.9-1.3l-3.6-6.3c-0.1-0.1-0.2-0.3-0.2-0.4l-2.7-5.4c-0.6-1.2-0.9-2.6-0.9-4v-11.7
	c0-1.2,0.2-2.4,0.7-3.5l2.7-6.3c0.2-0.5,0.5-1,0.8-1.4l3.6-5.4c0.1-0.1,0.1-0.2,0.2-0.2l4.5-6.3c0.4-0.6,0.9-1.1,1.5-1.6l6.3-5.4
	c0.1-0.1,0.3-0.2,0.4-0.4l7.2-5.4c0.2-0.2,0.5-0.4,0.8-0.5l9-5.4c0.2-0.1,0.4-0.2,0.6-0.3l21.6-10.8c0.3-0.2,0.7-0.3,1-0.4l12.5-4.5
	l14.3-5.4c0.2-0.1,0.3-0.1,0.5-0.2l14.4-4.5c0.2-0.1,0.5-0.1,0.7-0.2l16-3.5l16-4.4c0.2-0.1,0.4-0.1,0.6-0.2l18-3.6l19-3.6
	c0.1,0,0.3,0,0.4-0.1l18.7-2.7l4.3-0.9c2.8-0.6,5.6,0.3,7.6,2l16-13.4c0.4-0.3,0.8-0.7,1.3-0.9c0.4-0.3,0.9-0.5,1.4-0.7l4.5-1.9
	l0.6-0.6c1-1,2.2-1.7,3.5-2.2l5.8-1.9l-5.7,0.4l-25,2.7c-0.1,0-0.2,0-0.3,0l-23.9,1.8l-23.1,3.5c-0.1,0-0.2,0-0.3,0L254.9,52
	l-22.1,3.5L211.4,60c-0.1,0-0.2,0-0.3,0.1l-20.5,3.6L171.1,68l-18.5,4.4l-17.7,5.3l-16.9,5.3L87.9,93.7l-13.1,6.1L63.4,105l-10.3,6
	l-9.4,6l-7.3,5.7l-6.6,6.6L25,135l-3.6,5l-2.1,5.6l-1.4,5.6v4.1l1.4,5.4l2.1,5l3.8,6l4.5,5.3l6.5,5.7L44,189l9.2,6.7l10.1,5.1
	c0.1,0,0.2,0.1,0.2,0.1L75,207l12.9,6l30.1,10.6l16.7,5.3l17.7,4.4l18.8,4.5l19.7,4.5l20.4,4.4l21.4,3.6l22.4,3.6l23.2,3.6l23.2,2.7
	l24.1,2.7l25,1.8c0.1,0,0.2,0,0.3,0l24.9,2.7l25.8,0.9c0.1,0,0.2,0,0.3,0l25,1.8L452.7,270.9z M487.9,240.3H510l22.3-0.9
	c0.1,0,0.2,0,0.4,0h23l21.2-1.8c0.1,0,0.3,0,0.4,0l22.3-0.9l21.2-1.8l21.4-2.7c0.1,0,0.2,0,0.3,0l20.5-1.8l19.4-2.6l19.6-3.6
	l18.7-3.6l33.8-7.1l15.8-4.4l14.2-4.4l13.1-4.4l12.3-5.3c0.1,0,0.2-0.1,0.3-0.1l11.1-4.3l9.2-5l8.7-5.2l7.2-4.8l5.4-5.4l3.7-4.5
	l2.8-4.9l1.3-3.8l0.6-4.1l-0.6-3.5l-1.3-4.5l-2.7-4.1l-3.8-5.3l-5.1-4.3l-7.5-5l-8.7-5.2l-9.5-5.2l-11.1-5.1l-12.2-4.4
	c-0.1,0-0.2-0.1-0.3-0.1l-13.2-5.3l-13.7-4.3l-15.8-3.5c-0.1,0-0.2-0.1-0.3-0.1l-16.9-4.4l-16.8-3.5l-18.6-3.5l-14-1.9
	c0,0.2-0.1,0.4-0.1,0.6l6.6,1.7c1.5,0.3,2.8,1,3.9,1.9c0.2,0,0.4-0.1,0.5-0.1c1.3-0.3,2.6-0.2,3.9,0.1c0.6,0.1,1.1,0.3,1.6,0.6
	L731,95.9c1.3,0.5,2.4,1.2,3.4,2.1l27.1,22.7c0.4,0.3,0.8,0.7,1.2,1.1c0.9,1,1.5,2.2,1.8,3.4c0.4,1.2,0.5,2.5,0.2,3.8
	c0,0.2-0.1,0.3-0.1,0.5l7.1,2.1c0.7,0.2,1.5,0.5,2.2,0.9c0.3,0.2,0.6,0.4,0.9,0.6c0.4,0.3,0.7,0.6,1,0.9l22.9,22c1.8,1.6,3,4,3,6.7
	c0,1.8-0.6,3.6-1.5,5c-1.3,3.3-4.5,5.7-8.3,5.7h-0.7c-0.4,0-0.9,0-1.3-0.1c-0.4-0.1-0.8-0.1-1.2-0.2l-5.4-1.4l0.9,1
	c0.3,0.3,0.6,0.7,0.9,1.1c0.6,0.9,1,1.8,1.3,2.8c0.3,1.3,0.4,2.7,0.1,3.9c-0.2,1.3-0.8,2.5-1.5,3.6c-0.6,0.8-1.3,1.5-2.2,2.1
	c-0.4,0.3-0.8,0.5-1.2,0.7l-2.2,1.1l-0.7,0.7c-0.7,0.7-1.5,1.2-2.3,1.7l-0.5,0.3l-0.8,0.8c-1,1-2.2,1.7-3.5,2.2l-2.1,0.7l-0.7,0.4
	l-2.2,1.4c-0.7,0.5-1.5,0.9-2.4,1.1c-1.2,0.4-2.4,0.5-3.6,0.4c-0.3,0.5-0.7,0.9-1.2,1.3c-0.2,0.2-0.5,0.4-0.7,0.6
	c-0.4,0.3-0.9,0.6-1.4,0.8h0c0,0,0,0,0,0c0,0,0,0,0,0c0,0,0,0,0,0c0,0,0,0,0,0c0,0,0,0,0,0c0,0,0,0,0,0c0,0,0,0,0,0c0,0,0,0,0,0
	c0,0,0,0,0,0c-0.2,0.1-0.3,0.2-0.5,0.2c-0.1,0-0.2,0.1-0.2,0.1c-1,0.7-2.2,1.1-3.4,1.3c-0.3,0.2-0.7,0.3-1.1,0.5
	c-1.4,0.9-3.1,1.4-4.9,1.4h-0.4l-17.4,1.7c-0.2,0-0.5,0-0.7,0c-0.2,0-0.4,0-0.6,0c-0.3,0.5-0.7,1.1-1.1,1.6
	c-0.7,0.8-1.5,1.4-2.5,1.9c-0.7,0.3-1.3,0.6-2,0.8l-26.6,7.1c-0.4,0.1-0.8,0.2-1.3,0.3c-1.3,0.2-2.6,0.1-3.8-0.3
	c-1.2-0.4-2.3-1-3.3-1.8c-0.2-0.2-0.4-0.3-0.5-0.5c0,0.1-0.1,0.1-0.1,0.2c-0.6,0.8-1.4,1.5-2.3,2.1c-0.5,0.3-1,0.6-1.6,0.8l-17.5,7
	l-1.5,0.7c-1.2,0.6-2.6,0.9-4,0.9H658c-1.2,0.6-2.6,0.9-3.9,0.9h-4.5c-0.1,0-0.1,0-0.2,0c-1.2,0-2.4-0.3-3.4-0.8
	c-0.9-0.4-1.8-1-2.6-1.8c-0.5,1.1-1.3,2.2-2.2,3c-1.7,1.5-3.8,2.2-5.9,2.2h0h-3.6l-8.1,1.6c-0.6,0.1-1.2,0.2-1.8,0.2h-4.5l-3.6,0.7
	c-0.6,0.1-1.2,0.2-1.7,0.2h-3.8l-4.7,0.8c-0.5,0.1-1,0.1-1.5,0.1h-4.4c0,0,0,0-0.1,0c-2.3,0-4.6-0.9-6.3-2.6l-6.2-6.2
	c-1.6-0.7-3-1.9-4-3.5c-0.9-1.5-1.3-3.1-1.3-4.7c-0.2-2.6,0.6-5.2,2.6-7.1c0.7-0.7,1.6-1.3,2.5-1.7l27.1-15.8
	c1.2-0.7,2.5-1.1,3.8-1.3c0-0.4,0-0.8,0.1-1.1c-0.1,0-0.2,0-0.2,0c-1.3-0.2-2.6-0.6-3.8-1.4c-0.4-0.3-0.8-0.6-1.1-0.9
	c-0.5,1.3-1.3,2.6-2.4,3.6c-0.6,0.5-1.3,1-2,1.4l-22.5,13.8l-2.4,1.8c-1.6,1.5-3.6,2.3-5.6,2.4c0.2,0.8,0.2,1.7,0.2,2.6
	c-0.1,1.3-0.5,2.7-1.2,3.9c-0.5,0.8-1.1,1.6-1.9,2.3c-0.2,0.2-0.5,0.4-0.7,0.6l-19.3,13.9c-1.6,2.3-4.3,3.9-7.4,3.9h-0.8
	c-0.1,0-0.1,0-0.2,0h-0.4c-1.2,0.6-2.5,0.9-3.9,0.9h-4.5c-1.2,0-2.4-0.2-3.5-0.7c-0.9-0.4-1.8-1-2.6-1.7c-0.2-0.2-0.3-0.3-0.5-0.5
	c0,0,0,0,0,0l0,0c-0.1-0.1-0.1-0.1-0.2-0.2l-5.1-4.9c-0.1,0.8-0.3,1.6-0.6,2.3l0,0c0,0,0,0,0,0c-0.3,0.7-0.6,1.3-1,1.9l0,0
	c0,0,0,0,0,0c0,0,0,0,0,0c0,0,0,0,0,0c-0.2,0.3-0.5,0.6-0.8,0.9c0,0,0,0,0,0c0,0,0,0,0,0c-0.8,0.9-1.7,1.5-2.8,2
	c-1.1,0.5-2.4,0.8-3.7,0.8c0,0-0.1,0-0.1,0c0,0,0,0,0,0h-31.4c0,0,0,0,0,0h-0.9c0,0-0.1,0-0.1,0c-1.3,0-2.5-0.3-3.6-0.8
	c-1-0.5-2-1.1-2.8-2c-0.3-0.3-0.5-0.6-0.7-0.9c0,0,0,0,0,0c0,0,0,0,0,0c0,0,0,0,0,0l0,0c-0.4-0.6-0.8-1.2-1-1.9
	c-0.3-0.7-0.5-1.5-0.6-2.3l-2.8,2.7c-0.4,1-1,1.8-1.8,2.6c-1.9,1.9-4.3,2.7-6.8,2.6c-0.2,0-0.3,0-0.5,0H458c-1.4,0-2.7-0.3-3.9-0.9
	h-0.5c-0.1,0-0.1,0-0.2,0h-0.8c-3,0-5.7-1.5-7.4-3.9l-19.2-13.8c-0.5-0.3-0.9-0.6-1.3-1c-2.3-2.2-3.1-5.4-2.5-8.3
	c-1.1,0-2.3-0.1-3.3-0.5c-0.8-0.3-1.7-0.7-2.4-1.3l-3.2-2.4l-22.9-14.1c-0.3-0.2-0.6-0.4-0.8-0.6c-0.8-0.6-1.6-1.4-2.1-2.2
	c0,0,0,0,0,0c0,0,0,0,0,0c-0.3-0.4-0.5-0.9-0.7-1.3c-0.2,0.1-0.3,0.2-0.5,0.3c-1.1,0.7-2.4,1.2-3.7,1.4c-0.4,0.1-0.8,0.1-1.2,0.1
	c0,0.3,0.1,0.7,0.1,1c0.6,0,1.1,0,1.6,0.1h0c0,0,0,0,0,0c0,0,0,0,0,0c0.4,0.1,0.7,0.2,1.1,0.3c0.7,0.2,1.4,0.5,2,0.9l26.4,15.8
	c0.7,0.3,1.3,0.8,1.9,1.3c2.2,1.9,3.1,4.7,2.9,7.4c0,1.7-0.4,3.4-1.4,4.9c-0.9,1.4-2.1,2.5-3.5,3.2l-5.5,6.1c0,0.1-0.1,0.1-0.1,0.2
	c-0.8,0.9-1.8,1.6-2.8,2c-1.1,0.5-2.3,0.8-3.6,0.8c0,0-0.1,0-0.1,0H395c-0.6,0-1.2-0.1-1.8-0.2l-3.6-0.7H386c-0.5,0-1,0-1.5-0.1
	l-4.7-0.8h-3.8c-0.6,0-1.2-0.1-1.8-0.2l-8.1-1.6h-3.6c-2.1,0-4.2-0.7-5.9-2.2c-1-0.9-1.7-1.9-2.3-3c-1.6,1.6-3.8,2.5-6.3,2.5
	c0,0,0,0,0,0h-4.4c-1.4,0-2.7-0.3-3.9-0.9h-2.4c-1.4,0-2.7-0.3-3.9-0.9c-2.6-0.1-4.9-1.3-6.4-3.1l-8-3.2c-2.2,0.1-4.5-0.6-6.3-2.1
	c-0.7-0.6-1.3-1.3-1.7-2c0,0,0,0,0,0c-1,0.9-2.1,1.5-3.3,1.9c-1.2,0.4-2.5,0.5-3.8,0.3c-0.4-0.1-0.9-0.2-1.3-0.3l-22.9-6.1
	c-2.6,0.5-5.3-0.2-7.4-2c-1.1-0.9-1.9-2.1-2.4-3.3c-0.3,0-0.6,0-0.9,0c-0.4,0-0.8,0-1.2-0.1l-10.8-1.1c-2,0.6-4.3,0.4-6.3-0.6
	c-1.6-0.1-3.2-0.6-4.5-1.4c-0.4-0.1-0.8-0.3-1.1-0.5c-1.2-0.2-2.3-0.6-3.4-1.3c-0.1,0-0.2-0.1-0.2-0.1l0,0c0,0,0,0,0,0c0,0,0,0,0,0
	c0,0,0,0,0,0c0,0,0,0,0,0c0,0,0,0,0,0c-0.5-0.2-1-0.5-1.5-0.8c0,0,0,0,0,0c0,0,0,0,0,0c0,0,0,0,0,0c0,0,0,0,0,0
	c-0.4-0.3-0.8-0.5-1.1-0.9c-0.4-0.4-0.8-0.8-1.2-1.3c-1.2,0.1-2.4,0-3.5-0.3c-0.8-0.3-1.7-0.6-2.4-1.2l-2.1-1.4l-0.7-0.4l-2.1-0.7
	c-1.3-0.4-2.5-1.2-3.5-2.2l-0.8-0.8l-0.5-0.3c-0.9-0.4-1.6-1-2.3-1.7l-0.3-0.3l-0.7-0.2c-1.3-0.4-2.5-1.2-3.5-2.2l-0.8-0.8
	c-0.7-0.6-1.2-1.4-1.6-2.2c-0.6-1.2-1-2.5-1.1-3.8c0,0,0,0,0,0c0,0,0,0,0,0c-0.1-1.3,0.2-2.6,0.7-3.8c0.3-0.8,0.8-1.6,1.4-2.3
	l1.2-1.4l-0.9,0.2c-3,2.8-7.6,3.1-10.9,0.9c-2.4-0.9-4.3-2.8-5.3-5.2c-0.9-1.4-1.5-3.1-1.5-4.9c0-2.7,1.2-5.1,3.1-6.8l22.7-21.8
	c1.1-1.2,2.6-2.1,4.3-2.6l7-2.1c0-0.1,0-0.2-0.1-0.4c-0.2-1.3-0.1-2.6,0.2-3.9c0.3-1.2,0.9-2.4,1.8-3.4c0.3-0.4,0.7-0.8,1.1-1.1
	L263,97.7c0.4-0.4,0.8-0.7,1.3-1c0.4-0.3,0.9-0.5,1.3-0.7c0,0,0,0,0,0c0,0,0,0,0,0c0,0,0,0,0,0c0,0,0,0,0,0c0,0,0,0,0,0l26.6-11.5
	c0.5-0.2,1.1-0.4,1.6-0.6c1.3-0.3,2.6-0.3,3.9-0.1c0.4,0.1,0.8,0.2,1.2,0.3c0.5-0.4,1-0.8,1.6-1.1c0.3-0.2,0.7-0.4,1-0.5
	c0.4-0.2,0.9-0.3,1.3-0.4l7-1.9c-0.1-0.2-0.1-0.4-0.1-0.7c0,0,0,0,0,0l-14,2L277,85.2l-17.6,3.5l-15.9,4.4c-0.2,0-0.3,0.1-0.5,0.1
	l-15.8,3.5l-13.8,4.3l-14.2,5.3c0,0-0.1,0-0.1,0l-12.1,4.3l-20.8,10.4l-8.3,5l-6.6,5l-5.3,4.5l-3.8,5.3l-3.1,4.6l-1.7,3.9v7.8
	l1.6,3.3l3.1,5.4l3.7,4.5l5.6,5.6l6.3,4.7l8.3,5l10.2,5.1l10.5,4.4l12.3,5.3l28.2,8.8l15.8,4.4l15.9,3.5l17.9,3.6l37.5,7.1l20.3,2.6
	l20.5,1.8c0.1,0,0.2,0,0.3,0l21.4,2.7l21.2,1.8l21.4,0.9c0.1,0,0.2,0,0.3,0l22.1,1.8h22.1c0.1,0,0.2,0,0.3,0L487.9,240.3z
	 M538.1,219.6h3.4l11.6-8.4l-14.7-14.7l-13.1,10.9L538.1,219.6z M456.4,219.6h2.6l12.7-12.2l-13-10.8l-14.1,14.5L456.4,219.6z
	 M608.4,215.1h2.6l3.6-0.7c0.6-0.1,1.2-0.2,1.7-0.2h0.9l-2.6-2.9L608.4,215.1z M386.9,215.1h2.2l-5.9-3.7l-2.5,2.8h0.8
	c0.6,0,1.2,0.1,1.7,0.2L386.9,215.1z M639.4,194l13.8,15.3c0.9-0.3,1.8-0.4,2.8-0.4h1.5c0.1,0,0.2-0.1,0.2-0.1
	c0.1-0.1,0.3-0.1,0.4-0.2l6.1-2.5l-14.6-16.5L639.4,194z M341.3,208.8h1.5c0.6,0,1.3,0.1,1.9,0.2l13-15l-9.7-4.2l-14,16.4l4.4,1.8
	C339.4,208,340.4,208.3,341.3,208.8z M463.8,177.6l26.9,22.5c2.2,1.9,3.3,4.6,3.2,7.3c0.2-0.1,0.5-0.3,0.7-0.4
	c1.2-0.6,2.5-0.9,3.8-0.9c0,0,0,0,0,0c1.3,0,2.6,0.3,3.8,0.8c0.3,0.1,0.5,0.3,0.8,0.4c-0.1-2.7,1-5.4,3.2-7.3l26.9-22.4
	c0.7-0.6,1.4-1.1,2.2-1.4c1.1-0.5,2.3-0.7,3.5-0.7c0,0,0,0,0.1,0c0.1,0,0.1,0,0.2,0c-0.2-0.9-0.2-1.9-0.1-2.9c-0.2,0-0.5,0-0.7,0
	c-1.3-0.1-2.6-0.5-3.8-1.1c-0.1,0-0.1-0.1-0.2-0.1c-0.1,1.2-0.4,2.4-0.9,3.5c-0.4,0.9-1,1.7-1.8,2.4c-0.2,0.1-0.3,0.3-0.5,0.4
	L504.4,201c-0.6,0.6-1.3,1-2,1.4c0,0,0,0,0,0c-1.2,0.6-2.5,0.9-3.9,0.9c0,0,0,0,0,0c-1.3,0-2.6-0.3-3.9-0.9
	c-0.7-0.4-1.4-0.8-2.1-1.4l-26.8-23.2c-0.1-0.1-0.3-0.2-0.4-0.4c-0.8-0.7-1.4-1.6-1.8-2.5c0,0,0,0,0,0c0,0,0,0,0,0
	c-0.5-1.1-0.9-2.3-0.9-3.5c-0.1,0-0.1,0.1-0.2,0.1c-1.2,0.7-2.5,1-3.8,1.1c-0.3,0-0.5,0-0.8,0c0.1,0.9,0.1,1.9-0.1,2.9
	c0.1,0,0.2,0,0.3,0c0,0,0,0,0,0c1.1,0,2.3,0.2,3.3,0.6c0,0,0,0,0,0c0,0,0,0,0,0C462.2,176.5,463,177,463.8,177.6z M681.9,182.9
	l13.9,15.7l8-2.1l-13.5-15.8L681.9,182.9z M294.6,196.7l7.2,1.9l13.5-15.7l-7.2-1.9L294.6,196.7z M408.8,182.5l12,7.4l14.4-14.9
	l-12-8.4L408.8,182.5z M561.7,174.9l14.4,14.9l12-7.4l-14.5-15.9L561.7,174.9z M720,174.1l11.6,13.6l4.6-0.5l-12.1-13.4L720,174.1z
	 M261.2,187.2l4.1,0.4l11.6-13.6l-4.1-0.3L261.2,187.2z M484.8,170.7l13.7,11.8l13.7-11.8l-13.7-12.7L484.8,170.7z M338.6,171.2
	c0.2,0.2,0.3,0.4,0.5,0.6c1.1-1.1,2.4-1.8,3.8-2.3l-26.3-6.1c-0.7-0.2-1.4-0.4-2.1-0.7c-0.9-0.4-1.7-1-2.4-1.7l-0.3,0.4
	c-0.1,0.1-0.2,0.2-0.3,0.3c-0.2,0.2-0.5,0.5-0.7,0.7l23.2,6.2c0.7,0.2,1.4,0.4,2.1,0.8C337.1,169.8,338,170.5,338.6,171.2z
	 M654.1,169.6c1.4,0.4,2.7,1.2,3.7,2.2c0.1-0.2,0.3-0.4,0.4-0.5c0.7-0.8,1.5-1.4,2.4-1.9c0.7-0.4,1.4-0.6,2.2-0.8l24.1-6.2
	c-0.2-0.1-0.3-0.3-0.5-0.5c-0.1-0.1-0.2-0.3-0.4-0.4l-0.4-0.5c-0.7,0.7-1.5,1.3-2.4,1.7c-0.7,0.3-1.4,0.6-2.2,0.8L654.1,169.6z
	 M603.1,153l15.1,16.6l10.4-4.6l-14.9-16.8l-2.8,1.1L603.1,153z M369.3,165l10.2,4.6l14.6-16.6l-8.7-4.4l-1.2-0.5L369.3,165z
	 M444.8,143.2l12.4,8.9l14.3-13.9l-12.6-10.1L444.8,143.2z M525.5,138.3l14.3,13.9l12.7-9.2l-14.4-14.8L525.5,138.3z M641.1,135.2
	l13.6,15.9l7.9-1.8l-14.2-16.1L641.1,135.2z M334.9,149.4l7.4,1.7l13.6-15.9l-7.2-1.9L334.9,149.4z M579.7,147.1
	c0.1,0.1,0.2,0.1,0.3,0.2c0.7-2.2,2.3-4,4.5-5.1l16.2-8.1c0.3-0.1,0.5-0.2,0.8-0.4l2.4-0.9l8.5-4.1c0.2-0.1,0.4-0.2,0.7-0.3
	c0,0,0,0,0,0c0,0,0,0,0,0c0,0,0,0,0,0c0,0,0,0,0,0c0.3-0.1,0.5-0.2,0.8-0.3c-1.2-0.4-2.3-1-3.3-1.8c0,0,0,0,0,0
	c-0.2-0.2-0.5-0.4-0.7-0.7c-0.3,0.6-0.7,1.1-1.1,1.6c-0.7,0.8-1.5,1.5-2.5,2c-0.5,0.3-1.1,0.5-1.7,0.7l-4.5,1.5l-20.8,11.2
	c-0.7,0.4-1.3,0.7-2,0.8c-0.5,0.1-1.1,0.2-1.6,0.3c0.1,0.7,0.1,1.3,0,2c0.1,0,0.2,0,0.2,0C577.2,146,578.5,146.4,579.7,147.1
	C579.7,147.1,579.7,147.1,579.7,147.1C579.7,147.1,579.7,147.1,579.7,147.1z M392.6,132.3l3.9,1.5c0.3,0.1,0.7,0.3,1,0.4l15.3,8.1
	c2.1,1.1,3.6,2.9,4.3,5c0.1-0.1,0.2-0.1,0.2-0.2c1.2-0.7,2.4-1.2,3.8-1.3c0.2,0,0.5,0,0.7-0.1c0.1,0,0.2,0,0.4,0
	c-0.1-0.6-0.1-1.3,0-1.9c-0.8,0-1.6-0.1-2.4-0.3c-0.7-0.2-1.4-0.5-2.1-0.9l-20.7-11.2l-4.5-1.5c-0.6-0.2-1.2-0.4-1.7-0.7
	c-0.9-0.5-1.8-1.2-2.4-2c-0.3-0.3-0.5-0.6-0.7-1c0,0,0,0,0,0c-1,0.9-2.1,1.5-3.3,1.9c0,0-0.1,0-0.1,0c0.6,0.2,1.2,0.4,1.8,0.8
	L392.6,132.3z M684.8,133l11.9,13.4l3.7-0.2L688.8,133H684.8z M297.5,146.2l3.6,0.2l11.4-13.4h-3.5L297.5,146.2z M463.7,109.1
	l26.9,21.6c2.3,1.9,3.5,4.6,3.3,7.4c0.3-0.2,0.5-0.3,0.8-0.4c0,0,0,0,0,0c0,0,0,0,0,0c1.2-0.5,2.4-0.8,3.7-0.8
	c1.3,0,2.6,0.3,3.8,0.8c0,0,0,0,0,0c0,0,0,0,0,0c0.2,0.1,0.5,0.2,0.7,0.4c-0.1-2.7,1-5.5,3.3-7.4l26.9-21.5c0.7-0.6,1.5-1,2.3-1.4
	c0,0,0,0,0,0c1.1-0.4,2.2-0.6,3.3-0.6c0,0,0,0,0.1,0c0,0,0.1,0,0.1,0c0-0.3-0.1-0.6-0.1-0.9c0-0.3-0.1-0.7-0.1-1
	c-0.4,0-0.8,0-1.2-0.1c-1.3-0.2-2.4-0.6-3.5-1.2c-0.3,1.8-1.1,3.6-2.5,5c-0.4,0.4-0.7,0.7-1.1,1l-26.4,22c-0.6,0.5-1.3,1-2,1.3
	c-1.2,0.6-2.5,0.9-3.8,0.9c0,0,0,0,0,0c-1.3,0-2.6-0.3-3.9-0.9c-0.7-0.3-1.4-0.8-2-1.3l-26.8-22.3c-0.1-0.1-0.2-0.2-0.4-0.3
	c-0.8-0.7-1.4-1.6-1.9-2.5c0,0,0,0,0,0c0,0,0,0,0,0c-0.5-0.9-0.8-1.8-0.9-2.8c-1.4,0.9-3,1.3-4.7,1.3c0,0,0,0,0,0c0,0.2,0,0.4,0,0.5
	c0,0.5,0,0.9,0,1.4c1.1,0,2.3,0.2,3.4,0.6c0,0,0,0,0,0C462.1,108,462.9,108.5,463.7,109.1z M562.3,107.8l14.5,16l10.4-5.6
	l-14.6-16.6l-1.8,1L562.3,107.8z M409.8,118.2l10.3,5.6l14.5-16l-10.2-6.3L409.8,118.2z M337.2,116.8c0.3,0.2,0.5,0.4,0.7,0.6
	l0.5-0.6H337.2z M658.7,117l0.4,0.4c0.2-0.2,0.5-0.4,0.7-0.6h-1.2C658.6,116.9,658.6,117,658.7,117z M485.2,102.4l13.2,11l13.8-11.5
	l-3.1-3.1c-0.3-0.2-0.6-0.5-0.8-0.7l-2.3-2.3l-1.7-1.1c-0.5-0.3-0.9-0.7-1.4-1.1l-2-2c-0.1-0.1-0.2-0.2-0.3-0.2l-1.8-1.2
	c-0.2-0.1-0.3-0.2-0.4-0.3c-0.1,0.1-0.3,0.2-0.4,0.3l-2,1.3l-2.1,2.1c-0.4,0.4-0.9,0.8-1.4,1.1l-1.2,0.8l-0.8,1.2
	c-0.3,0.5-0.7,0.9-1.1,1.4L485.2,102.4z M604.2,92.3l15.2,17.3l7.7-2.1l-14.5-16.5l-1.2,0.3c-0.7,0.2-1.4,0.3-2.2,0.3h-2.5
	L604.2,92.3z M370.5,107.5l7.9,2.1L393,92.3l-0.2,0c-0.2-0.1-0.4-0.1-0.7-0.2l-1.3-0.4h-2.2c-0.7,0-1.5-0.1-2.2-0.3l-2-0.5
	L370.5,107.5z M655.6,99h2.3l-10.6-11.3l-1.3-0.1L655.6,99z M339.5,99h1.9l10-11.4l-1.7,0.1L339.5,99z M451.6,81.3l3.1,1.6
	c0.9,0.4,1.6,1,2.3,1.7l8.1-8.1c0.3-0.3,0.6-0.6,1-0.8l3.1-2.3l0.4-0.4l-2.1-1c-0.9-0.4-1.6-1-2.3-1.7l-1-1l-1.2-0.3
	c-0.6-0.2-1.2-0.4-1.8-0.7l-2.1-1l-1.2,1.2c-0.3,0.3-0.6,0.6-0.9,0.8l-3.1,2.3l-3.2,3.2c-0.3,0.3-0.6,0.6-1,0.8l-2.6,1.9l-0.7,0.9
	l1.8,0.9c0.3,0.2,0.7,0.4,1,0.6L451.6,81.3z M531.3,76l3.1,2.3c0.3,0.3,0.7,0.5,1,0.8l5.3,5.3l1-0.8c0.1-0.1,0.3-0.2,0.4-0.3
	l2.7-1.8c0.3-0.2,0.6-0.4,1-0.6l5.6-2.8l-0.6-0.9l-2.6-1.9c-0.3-0.3-0.7-0.5-1-0.8l-2.9-2.9l-3.5-2.6c-0.3-0.2-0.5-0.4-0.8-0.7
	l-1.5-1.2l-1.7,0.9c-0.6,0.3-1.2,0.5-1.8,0.7l-1.9,0.5l-2.2,1.6c-0.1,0.1-0.3,0.2-0.4,0.3l-2.3,1.6L531.3,76z M413.3,80.5
	c1.1,0.7,2.1,1.6,2.8,2.7c1-0.9,2.1-1.5,3.4-1.9c-0.1,0-0.3-0.1-0.4-0.1l-2.2-0.7L411,79L413.3,80.5z M577.9,81.2
	c1.2,0.3,2.3,0.8,3.3,1.6c0.6-0.8,1.4-1.5,2.2-2.1c0.4-0.2,0.7-0.5,1.1-0.6l1.9-0.9L577.9,81.2z M608.7,72.4
	c-0.1,0.2-0.3,0.3-0.4,0.5c0,0,0,0,0,0l0.7-0.2L608.7,72.4z M493.5,68.5c0.1,0.4,0.2,0.8,0.3,1.2c0.3-0.2,0.6-0.4,0.9-0.5
	c-0.1-0.1-0.3-0.1-0.4-0.2C494,68.9,493.8,68.7,493.5,68.5z M502.2,69.2c0.3,0.1,0.6,0.3,0.9,0.5c0.1-0.3,0.1-0.7,0.2-1l-0.8,0.4
	C502.5,69.1,502.3,69.1,502.2,69.2z M570.9,57l3.1,2.3c0.3,0.3,0.7,0.5,1,0.8l2.7,2.7l6.1-1.6l-0.8-1.1l-9.9-7.4c-0.3,0-0.6,0-0.9,0
	h-2.5l-2.5,0.6l0.5,0.4c0.3,0.3,0.7,0.5,1,0.8L570.9,57z M413.7,61.3l6.5,1.6l5.4-5.4c0.3-0.3,0.6-0.6,1-0.8l4.1-3.1l-0.3-0.1
	l-2.2-0.6h-2.5c-0.5,0-1,0-1.6-0.1l-2,2c-0.3,0.3-0.6,0.6-1,0.8l-6.7,5L413.7,61.3z M493.3,48.1l5.6,2.8l5.1-2.5l1.7-1.7
	c0.4-0.4,0.8-0.7,1.3-1.1l-4.4-2.2l-2.6-0.7c-0.3-0.1-0.7-0.2-1-0.3c-0.3,0.1-0.7,0.2-1,0.3l-2.6,0.7l-4.9,2.5L493.3,48.1z
	 M537.4,31.9l2.9,1.4c0.1,0.1,0.2,0.1,0.3,0.2l1.6-0.4l-4-2c-0.1,0-0.2,0-0.3,0.1l-1.2,0.3L537.4,31.9z M455.7,33.1l1.6,0.4l2.7-1.3
	l0.8-0.8l-1.7-0.4l-0.2,0.1l-2.2,1.5c-0.3,0.2-0.5,0.3-0.8,0.5c0,0,0,0,0,0C455.8,33,455.8,33.1,455.7,33.1L455.7,33.1z"/>
</svg>
