<?xml version="1.0" encoding="utf-8"?>
<!-- Generator: Adobe Illustrator 24.1.0, SVG Export Plug-In . SVG Version: 6.00 Build 0)  -->
<svg version="1.1" 	 viewBox="0 0 80 80" style="enable-background:new 0 0 80 80;" xml:space="preserve">
<style type="text/css">
	.st0{fill:#F2F2F0;}
	.st1{fill:none;stroke:#4A4A4A;stroke-width:2;stroke-linecap:round;stroke-linejoin:round;}
	.st2{fill:none;stroke:#4A4A4A;stroke-width:2;stroke-linecap:round;stroke-linejoin:round;stroke-miterlimit:10;}
	.st3{fill:none;stroke:#4A4A4A;stroke-width:2;stroke-linecap:round;stroke-linejoin:round;stroke-dasharray:3.4068,3.4068;}
	.st4{fill:none;stroke:#4A4A4A;stroke-width:2;stroke-linecap:round;stroke-linejoin:round;stroke-dasharray:3.22585,3.22585;}
	.st5{fill:none;stroke:#534F4E;stroke-width:2;stroke-linecap:round;stroke-linejoin:round;}
	.st6{fill:none;stroke:#534F4E;stroke-width:2;stroke-linecap:round;stroke-linejoin:round;stroke-miterlimit:10;}
	.st7{fill:#534F4E;}
	.st8{fill:none;stroke:#534F4E;stroke-width:2;stroke-linejoin:round;stroke-miterlimit:10;}
	.st9{fill:none;stroke:#534F4E;stroke-width:2;stroke-miterlimit:10;}
	.st10{fill:none;stroke:#000000;stroke-width:2.5;stroke-linecap:round;stroke-linejoin:round;stroke-miterlimit:10;}
	.st11{fill:#F2F2F0;stroke:#534F4E;stroke-width:2;stroke-linecap:round;stroke-linejoin:round;stroke-miterlimit:10;}
	.st12{fill:#F2F2F0;stroke:#534F4E;stroke-width:2;stroke-linecap:round;stroke-linejoin:round;}
	.st13{fill:#FFFFFF;stroke:#534F4E;stroke-width:2;stroke-linecap:round;stroke-linejoin:round;}
	.st14{fill:none;stroke:#534F4E;stroke-width:2;stroke-linecap:round;stroke-miterlimit:10;}
	.st15{fill:none;stroke:#534F4E;stroke-width:1.12243;stroke-miterlimit:10;}
	.st16{stroke:#534F4E;stroke-miterlimit:10;}
	.st17{fill:none;stroke:#534F4E;stroke-width:2;stroke-linecap:round;stroke-linejoin:round;stroke-dasharray:3.4068,3.4068;}
	.st18{fill:none;stroke:#534F4E;stroke-width:2;stroke-linecap:round;stroke-linejoin:round;stroke-dasharray:3.22585,3.22585;}
	.st19{fill:none;stroke:#534F4E;stroke-width:2.35866;stroke-linecap:round;stroke-linejoin:round;stroke-miterlimit:10;}
	.st20{fill:#534F4E;stroke:#534F4E;stroke-width:2;stroke-miterlimit:10;}
	.st21{fill:#534F4E;stroke:#534F4E;stroke-width:2;stroke-linecap:round;stroke-miterlimit:10;}
	.st22{fill:none;stroke:#534F4E;stroke-width:2.82782;stroke-linecap:round;stroke-linejoin:round;}
	
		.st23{fill:none;stroke:#534F4E;stroke-width:2.82782;stroke-linecap:round;stroke-linejoin:round;stroke-dasharray:0.05581,5.02265;}
</style>
<g id="BildHG">
</g>
<g id="_x38_0pxFlaeche">
</g>
<g id="Icon">
	<g>
		<g>
			<g>
				<path class="st2" d="M22.1519,50.5943l-4.3501,6.061l5.543,5.543l6.063-4.3506c1.6704,0.9932,3.4882,1.7549,5.4179,2.2505
					l1.2544,7.3755H43.92l1.2548-7.375c1.9302-0.4956,3.7491-1.2569,5.4195-2.2505l6.061,4.3501l5.543-5.543l-4.3491-6.0605
					c1.0019-1.6836,1.768-3.5181,2.2636-5.4659l7.3609-1.2099v-7.8379l-7.3604-1.21c-0.4917-1.9321-1.2495-3.7529-2.2397-5.4262
					l4.3257-6.0992l-5.543-5.5429l-6.1001,4.3261c-1.6729-0.9902-3.4937-1.7475-5.4258-2.2392L43.92,12.5264h-7.8399l-1.2104,7.3643
					c-1.9312,0.4917-3.7515,1.249-5.4243,2.2387l-6.1006-4.3266l-5.543,5.542l4.3262,6.0996
					c-0.9834,1.6601-1.7373,3.4663-2.2295,5.3823l-7.3721,1.2544v7.8379l7.3726,1.2544
					C20.3951,47.1045,21.1573,48.9234,22.1519,50.5943z"/>
			</g>
		</g>
		<path class="st2" d="M47.5293,40c0,4.1582-3.3711,7.5293-7.5283,7.5293S32.4707,44.1582,32.4707,40s3.3731-7.5293,7.5303-7.5293
			S47.5293,35.8418,47.5293,40z"/>
	</g>
</g>
<g id="Ebene_3">
</g>
<g id="bestehende_x5F_icons">
</g>
</svg>
