<?xml version="1.0" encoding="UTF-8"?>
<svg width="48px" height="43px" viewBox="0 0 48 43" version="1.1" xmlns="http://www.w3.org/2000/svg" xmlns:xlink="http://www.w3.org/1999/xlink">
    <title>Icons/doc</title>
    <g stroke="none" stroke-width="1" fill-rule="evenodd">
       <path d="M47.483871,26.8387097 C47.1741936,31.3290323 43.6645162,36.2322581 36.8,36.2322581 C33.6516129,36.2322581 32,36.2322581 32,36.2322581 C30.8645162,36.2322581 29.9354839,35.3548387 29.9354839,34.2193549 C29.9354839,33.083871 30.8645162,32.2580645 32,32.2580645 C32,32.2580645 32,32.2580645 32,32.2580645 C32,32.2580645 33.6516129,32.1548387 36.8,32.1548387 C41.083871,32.1548387 43.2000001,29.2645161 43.4064517,26.5290323 C43.6129033,23.6903226 41.8064517,20.5419355 37.4193549,19.9225806 C36.8516129,19.8193548 36.3354839,19.5096774 36.0258065,19.0451613 C35.7161291,18.5806451 35.6129033,17.9612903 35.7161291,17.3935484 C36.283871,14.9677419 35.6645162,13.0580645 34.0645162,12.1806451 C32.7225807,11.4064516 30.5548387,11.4580645 28.8,13.1612903 C28.3354839,13.6258064 27.6645161,13.832258 27.0451613,13.7290322 C26.4258065,13.6258064 25.8580645,13.2129032 25.5483871,12.6451613 C22.5548387,7.01935478 17.9612903,6.76129027 14.916129,8.20645156 C11.9741935,9.59999995 9.65161286,13.0580645 11.4580645,17.4451613 C11.6645161,17.9612903 11.6645161,18.5806451 11.4064516,19.0967742 C11.1483871,19.6129032 10.6838709,20.0258064 10.1677419,20.1806451 C3.87096767,22.0903226 4.02580639,26.2193548 4.1806451,27.4580645 C4.54193542,29.7290323 6.34838704,32.0516129 9.13548382,32.0516129 L15.5870967,32.1032258 C16.7225806,32.1032258 17.6516129,33.083871 17.6516129,34.2193549 C17.6516129,35.3548387 16.7225806,36.3870968 15.5870967,36.3870968 C15.5870967,36.3870968 15.5870967,36.3870968 15.5870967,36.3870968 L9.18709672,36.2322581 C4.64516123,36.2322581 0.877419278,32.7225807 0.15483863,28.0258065 C-0.412903307,24.4129032 1.13548379,19.5612903 6.91612898,16.9806451 C5.57419349,11.3032258 8.7741935,6.50322575 13.1096774,4.49032252 C17.5483871,2.37419348 23.7935484,2.99354832 27.9225807,8.72258059 C30.5032258,7.2774193 33.5483871,7.17419349 36.0774194,8.61935479 C38.2451613,9.85806447 40.2064517,12.4387096 40.0000001,16.3096774 C45.4709678,17.9612903 47.7419356,22.7096774 47.483871,26.8387097 Z M31.0193549,28.5419355 C31.4322581,28.9548387 31.9483871,29.1612903 32.4645162,29.1612903 C32.9806452,29.1612903 33.4967742,28.9548387 33.9096775,28.5419355 C34.7354839,27.716129 34.7354839,26.4258065 33.9096775,25.6 L25.1870968,16.8258064 C24.8258065,16.4645161 24.3096774,16.2580645 23.7419355,16.2580645 C23.1741935,16.2580645 22.6580645,16.4645161 22.2967742,16.8774193 L13.5741935,25.6516129 C12.7483871,26.4774194 12.7483871,27.7677419 13.5741935,28.5935484 C14.4,29.4193549 15.6903226,29.4193549 16.516129,28.5935484 L21.6774193,23.2774194 L21.7290323,42.5806452 C21.7290323,43.7161291 22.6580645,44.6451614 23.7935484,44.6451614 C23.7935484,44.6451614 23.7935484,44.6451614 23.7935484,44.6451614 C24.9290323,44.6451614 25.8580645,43.7161291 25.8580645,42.5806452 L25.8064516,23.3290323 L31.0193549,28.5419355 Z" id="XMLID_1228_"></path>
    </g>
</svg>
