<?xml version="1.0" encoding="utf-8"?>
<!-- Generator: Adobe Illustrator 24.1.0, SVG Export Plug-In . SVG Version: 6.00 Build 0)  -->
<svg version="1.1" 	 viewBox="0 0 80 80" style="enable-background:new 0 0 80 80;" xml:space="preserve">
<style type="text/css">
	.st0{fill:#F2F2F0;}
	.st1{fill:none;stroke:#4A4A4A;stroke-width:2;stroke-linecap:round;stroke-linejoin:round;}
	.st2{fill:none;stroke:#4A4A4A;stroke-width:2;stroke-linecap:round;stroke-linejoin:round;stroke-miterlimit:10;}
	.st3{fill:none;stroke:#4A4A4A;stroke-width:2;stroke-linecap:round;stroke-linejoin:round;stroke-dasharray:3.4068,3.4068;}
	.st4{fill:none;stroke:#4A4A4A;stroke-width:2;stroke-linecap:round;stroke-linejoin:round;stroke-dasharray:3.22585,3.22585;}
	.st5{fill:none;stroke:#534F4E;stroke-width:2;stroke-linecap:round;stroke-linejoin:round;}
	.st6{fill:none;stroke:#534F4E;stroke-width:2;stroke-linecap:round;stroke-linejoin:round;stroke-miterlimit:10;}
	.st7{fill:#534F4E;}
	.st8{fill:none;stroke:#534F4E;stroke-width:2;stroke-linejoin:round;stroke-miterlimit:10;}
	.st9{fill:none;stroke:#534F4E;stroke-width:2;stroke-miterlimit:10;}
	.st10{fill:none;stroke:#000000;stroke-width:2.5;stroke-linecap:round;stroke-linejoin:round;stroke-miterlimit:10;}
	.st11{fill:#F2F2F0;stroke:#534F4E;stroke-width:2;stroke-linecap:round;stroke-linejoin:round;stroke-miterlimit:10;}
	.st12{fill:#F2F2F0;stroke:#534F4E;stroke-width:2;stroke-linecap:round;stroke-linejoin:round;}
	.st13{fill:#FFFFFF;stroke:#534F4E;stroke-width:2;stroke-linecap:round;stroke-linejoin:round;}
	.st14{fill:none;stroke:#534F4E;stroke-width:2;stroke-linecap:round;stroke-miterlimit:10;}
	.st15{fill:none;stroke:#534F4E;stroke-width:1.12243;stroke-miterlimit:10;}
	.st16{stroke:#534F4E;stroke-miterlimit:10;}
	.st17{fill:none;stroke:#534F4E;stroke-width:2;stroke-linecap:round;stroke-linejoin:round;stroke-dasharray:3.4068,3.4068;}
	.st18{fill:none;stroke:#534F4E;stroke-width:2;stroke-linecap:round;stroke-linejoin:round;stroke-dasharray:3.22585,3.22585;}
	.st19{fill:none;stroke:#534F4E;stroke-width:2.35866;stroke-linecap:round;stroke-linejoin:round;stroke-miterlimit:10;}
	.st20{fill:#534F4E;stroke:#534F4E;stroke-width:2;stroke-miterlimit:10;}
	.st21{fill:#534F4E;stroke:#534F4E;stroke-width:2;stroke-linecap:round;stroke-miterlimit:10;}
	.st22{fill:none;stroke:#534F4E;stroke-width:2.82782;stroke-linecap:round;stroke-linejoin:round;}
	
		.st23{fill:none;stroke:#534F4E;stroke-width:2.82782;stroke-linecap:round;stroke-linejoin:round;stroke-dasharray:0.05581,5.02265;}
</style>
<g id="BildHG">
</g>
<g id="_x38_0pxFlaeche">
</g>
<g id="Icon">
	<g>
		<g>
			<g>
				<path class="st6" d="M20.13599,35.07148c0-3.3728,0.84662-6.5459,2.32983-9.32788H6.33667v16.88611h15.29675
					C20.6731,40.29877,20.13599,37.74897,20.13599,35.07148z"/>
				<path class="st6" d="M57.53418,25.7436c1.48322,2.78198,2.32983,5.95508,2.32983,9.32788
					c0,2.67749-0.53711,5.22729-1.49744,7.55823h15.29675V25.7436H57.53418z"/>
			</g>
			<circle class="st6" cx="40" cy="35.07154" r="19.86399"/>
			<rect x="30.59359" y="25.75055" class="st6" width="18.81282" height="6.45079"/>
			<g>
				<path class="st6" d="M14.57149,62.77985c4.23589,0,4.23589,4.0252,8.47178,4.0252c4.23699,0,4.23699-4.0252,8.47397-4.0252
					c4.23846,0,4.23846,4.0252,8.47692,4.0252c4.23711,0,4.23711-4.0252,8.47423-4.0252c4.24003,0,4.24003,4.0252,8.48006,4.0252
					s4.24002-4.0252,8.48006-4.0252"/>
			</g>
		</g>
		<g>
			<path class="st6" d="M40.07558,37.33666c-0.73954,1.28191-0.82229,1.72441-0.57073,3.34218
				c0.25156,1.61777,0.40108,2.57931,0.49646,3.19266"/>
			<path class="st6" d="M33.80925,41.78148c0.99065,1.09948,1.38591,1.31492,3.00224,1.57559
				c1.61632,0.26067,2.57701,0.4156,3.18982,0.51443"/>
			<path class="st6" d="M36.10013,49.11464c1.35179-0.60241,1.67884-0.91175,2.42622-2.36842
				c0.74738-1.45667,1.1916-2.32246,1.47496-2.87473"/>
			<path class="st6" d="M43.7823,49.20196c-0.15519-1.47178-0.34834-1.87841-1.50275-3.03935
				c-1.15442-1.16093-1.84056-1.85095-2.27824-2.29111"/>
			<path class="st6" d="M46.23927,41.92276c-1.4477-0.30721-1.89412-0.24917-3.35497,0.48999s-2.32913,1.1785-2.88299,1.45874"/>
		</g>
	</g>
</g>
<g id="Ebene_3">
</g>
<g id="bestehende_x5F_icons">
</g>
</svg>
