<?xml version="1.0" encoding="utf-8"?>
<!-- Generator: Adobe Illustrator 24.1.0, SVG Export Plug-In . SVG Version: 6.00 Build 0)  -->
<svg version="1.1" 	 viewBox="0 0 80 80" style="enable-background:new 0 0 80 80;" xml:space="preserve">
<style type="text/css">
	.st0{fill:#F2F2F0;}
	.st1{fill:none;stroke:#4A4A4A;stroke-width:2;stroke-linecap:round;stroke-linejoin:round;}
	.st2{fill:none;stroke:#4A4A4A;stroke-width:2;stroke-linecap:round;stroke-linejoin:round;stroke-miterlimit:10;}
	.st3{fill:none;stroke:#4A4A4A;stroke-width:2;stroke-linecap:round;stroke-linejoin:round;stroke-dasharray:3.4068,3.4068;}
	.st4{fill:none;stroke:#4A4A4A;stroke-width:2;stroke-linecap:round;stroke-linejoin:round;stroke-dasharray:3.22585,3.22585;}
	.st5{fill:none;stroke:#534F4E;stroke-width:2;stroke-linecap:round;stroke-linejoin:round;}
	.st6{fill:none;stroke:#534F4E;stroke-width:2;stroke-linecap:round;stroke-linejoin:round;stroke-miterlimit:10;}
	.st7{fill:#534F4E;}
	.st8{fill:none;stroke:#534F4E;stroke-width:2;stroke-linejoin:round;stroke-miterlimit:10;}
	.st9{fill:none;stroke:#534F4E;stroke-width:2;stroke-miterlimit:10;}
	.st10{fill:none;stroke:#000000;stroke-width:2.5;stroke-linecap:round;stroke-linejoin:round;stroke-miterlimit:10;}
	.st11{fill:#F2F2F0;stroke:#534F4E;stroke-width:2;stroke-linecap:round;stroke-linejoin:round;stroke-miterlimit:10;}
	.st12{fill:#F2F2F0;stroke:#534F4E;stroke-width:2;stroke-linecap:round;stroke-linejoin:round;}
	.st13{fill:#FFFFFF;stroke:#534F4E;stroke-width:2;stroke-linecap:round;stroke-linejoin:round;}
	.st14{fill:none;stroke:#534F4E;stroke-width:2;stroke-linecap:round;stroke-miterlimit:10;}
	.st15{fill:none;stroke:#534F4E;stroke-width:1.12243;stroke-miterlimit:10;}
	.st16{stroke:#534F4E;stroke-miterlimit:10;}
	.st17{fill:none;stroke:#534F4E;stroke-width:2;stroke-linecap:round;stroke-linejoin:round;stroke-dasharray:3.4068,3.4068;}
	.st18{fill:none;stroke:#534F4E;stroke-width:2;stroke-linecap:round;stroke-linejoin:round;stroke-dasharray:3.22585,3.22585;}
	.st19{fill:none;stroke:#534F4E;stroke-width:2.35866;stroke-linecap:round;stroke-linejoin:round;stroke-miterlimit:10;}
	.st20{fill:#534F4E;stroke:#534F4E;stroke-width:2;stroke-miterlimit:10;}
	.st21{fill:#534F4E;stroke:#534F4E;stroke-width:2;stroke-linecap:round;stroke-miterlimit:10;}
	.st22{fill:none;stroke:#534F4E;stroke-width:2.82782;stroke-linecap:round;stroke-linejoin:round;}
	
		.st23{fill:none;stroke:#534F4E;stroke-width:2.82782;stroke-linecap:round;stroke-linejoin:round;stroke-dasharray:0.05581,5.02265;}
</style>
<g id="BildHG">
</g>
<g id="_x38_0pxFlaeche">
</g>
<g id="Icon">
	<g>
		<path class="st2" d="M18.70976,38.01902c-3.51042,3.51042-3.51042,9.20193,0,12.71235s9.20193,3.51042,12.71235,0
			s3.51042-9.20193,0-12.71235l-6.35617-6.35617L18.70976,38.01902z"/>
		<path class="st2" d="M38.82291,56.95254c-3.51042,3.51042-3.51042,9.20193,0,12.71235c3.51042,3.51042,9.20193,3.51042,12.71235,0
			c3.51042-3.51041,3.51042-9.20193,0-12.71235l-6.35617-6.35617L38.82291,56.95254z"/>
		<path class="st2" d="M29.83007,13.05742c-3.51042,3.51042-3.51042,9.20193,0,12.71235s9.20193,3.51042,12.71235,0
			s3.51042-9.20193,0-12.71235l-6.35617-6.35617L29.83007,13.05742z"/>
		<path class="st2" d="M36.18646,13.77271l-2.8208,2.82031L33.36517,16.594c-0.75293,0.75293-1.16797,1.75391-1.16797,2.81934
			s0.41504,2.06738,1.16846,2.82129c1.50781,1.50684,4.13477,1.50586,5.64111,0c0.75342-0.75391,1.16846-1.75586,1.16846-2.82129
			s-0.41504-2.06641-1.16797-2.81934L36.18646,13.77271z M29.83002,13.05787h0.00977H29.83002z"/>
		<path class="st2" d="M47.8119,33.4549c-3.51042,3.51042-3.51042,9.20193,0,12.71235s9.20193,3.51042,12.71235,0
			c3.51041-3.51042,3.51041-9.20193,0-12.71235l-6.35617-6.35617L47.8119,33.4549z"/>
		<line class="st2" x1="9.49036" y1="41.20204" x2="70.50964" y2="41.20204"/>
		<polygon class="st2" points="27.53345,41.202 25.06617,38.73428 22.59803,41.202 		"/>
		<path class="st2" d="M57.89661,41.202c0.16406-0.44037,0.26044-0.90729,0.26044-1.39117
			c0-1.06543-0.41504-2.06641-1.16797-2.81934l-2.8208-2.82129l-2.8208,2.82031l-0.00049,0.00098
			c-0.75293,0.75293-1.16797,1.75391-1.16797,2.81934c0,0.48389,0.09637,0.95081,0.26044,1.39117H57.89661z"/>
		<circle class="st2" cx="36.18622" cy="19.38568" r="0.10989"/>
		<circle class="st2" cx="54.16804" cy="39.61562" r="0.10989"/>
	</g>
</g>
<g id="Ebene_3">
</g>
<g id="bestehende_x5F_icons">
</g>
</svg>
