<?xml version="1.0" encoding="UTF-8"?>
<svg width="30px" height="30px" viewBox="0 0 30 30" version="1.1" xmlns="http://www.w3.org/2000/svg" xmlns:xlink="http://www.w3.org/1999/xlink">
    <!-- Generator: Sketch 53.1 (72631) - https://sketchapp.com -->
    <title>Icons/Xing</title>
    <desc>Created with Sketch.</desc>
    <g id="Icons/Xing" stroke="none" stroke-width="1" fill-rule="evenodd">
        <path d="M27.7807717,0 C29.004139,0 30,0.968333333 30,2.16333333 L30,27.835 C30,29.03 29.004139,30 27.7807717,30 L2.21256146,30 C0.991694214,30 5.15143483e-14,29.03 5.15143483e-14,27.835 L5.15143483e-14,2.16333333 C5.15143483e-14,0.968333333 0.991694214,0 2.21256146,0 L27.7807717,0 Z M7.91775878,8.91665115 C7.74010256,8.91665115 7.59067806,8.97715262 7.51558594,9.09547121 C7.43791073,9.21777209 7.44991453,9.37523522 7.53242165,9.53455675 L9.52602469,12.8844683 C9.52936752,12.8910464 9.52936752,12.8949402 9.52602469,12.9007809 L6.3931548,18.2671821 C6.31140741,18.4252647 6.31538841,18.5839373 6.3931548,18.7063267 C6.4682773,18.8240258 6.60092688,18.9015184 6.77849193,18.9015184 L9.72695916,18.9015184 C10.1678481,18.9015184 10.3803609,18.6126983 10.5311529,18.3485096 C10.5311529,18.3485096 13.5949174,13.0887455 13.7143172,12.8844978 C13.7021614,12.8656187 11.6871643,9.45322932 11.6871643,9.45322932 C11.5403229,9.1995715 11.3185413,8.91665115 10.866226,8.91665115 L7.91775878,8.91665115 Z M20.8107411,5.00014865 C20.3582577,5.00014865 20.1619671,5.27163459 19.9994378,5.54951229 C19.9994378,5.54951229 13.4713149,16.5695467 13.2564103,16.9313793 C13.2674975,16.95106 17.5621549,24.4507255 17.5621549,24.4507255 C17.7123789,24.7063064 17.9444297,25 18.4085938,25 L21.4353731,25 C21.6179218,25 21.7605253,24.9344771 21.8375424,24.8157986 C21.9181512,24.6926013 21.9160899,24.5299238 21.8314523,24.3700705 L17.5594065,16.9404467 C17.5553152,16.934709 17.5553152,16.9271578 17.5594065,16.9214498 L24.2686727,5.62933487 C24.3527794,5.4700762 24.3548407,5.30739868 24.2748253,5.1842311 C24.197652,5.06555262 24.0544552,5 23.8720001,5 L20.8107411,5 L20.8107411,5.00014865 Z" id="Combined-Shape" fill-rule="nonzero"></path>
    </g>
</svg>
