<?xml version="1.0" encoding="UTF-8"?>
<svg width="90px" height="30px" viewBox="0 0 90 30" version="1.1" xmlns="http://www.w3.org/2000/svg" xmlns:xlink="http://www.w3.org/1999/xlink">
    <!-- Generator: Sketch 54.1 (76490) - https://sketchapp.com -->
    <title>Icons/YoutTube</title>
    <desc>Created with Sketch.</desc>
    <defs>
        <polygon id="path-1" points="82.470874 10.8274882 89.982189 10.8274882 89.982189 23.8385118 82.470874 23.8385118"></polygon>
    </defs>
    <g id="Icons/YoutTube" stroke="none" stroke-width="1"  fill-rule="evenodd">
        <path d="M44.8348819,21.3046929 C44.9919685,20.8946142 45.0708661,20.2242205 45.0708661,19.293748 L45.0708661,15.3739055 C45.0708661,14.4710709 44.9919685,13.8110709 44.8348819,13.3936693 C44.6773228,12.9765039 44.4002362,12.767685 44.003622,12.767685 C43.6204724,12.767685 43.3502362,12.9765039 43.1931496,13.3936693 C43.0355906,13.8110709 42.9571654,14.4710709 42.9571654,15.3739055 L42.9571654,19.293748 C42.9571654,20.2242205 43.0320472,20.8946142 43.1827559,21.3046929 C43.3332283,21.7152441 43.6067717,21.9202835 44.003622,21.9202835 C44.4002362,21.9202835 44.6773228,21.7152441 44.8348819,21.3046929 M41.653937,23.2750079 C41.086063,22.8923307 40.6823622,22.2968189 40.4433071,21.4894173 C40.2037795,20.6824882 40.0840157,19.6083937 40.0840157,18.2676063 L40.0840157,16.4411496 C40.0840157,15.0866614 40.2205512,13.9988661 40.4943307,13.1782362 C40.767874,12.3573701 41.1954331,11.7587874 41.7770079,11.3824882 C42.3583465,11.0064252 43.1213386,10.8181575 44.0652756,10.8181575 C44.9955118,10.8181575 45.7410236,11.0097323 46.3020472,11.3928819 C46.8630709,11.7757953 47.2733858,12.3746142 47.5334646,13.1883937 C47.7930709,14.0024094 47.9234646,15.0866614 47.9234646,16.4411496 L47.9234646,18.2676063 C47.9234646,19.6083937 47.7968504,20.6860315 47.5438583,21.499811 C47.2906299,22.3138268 46.8800787,22.9091024 46.3124409,23.2851654 C45.7445669,23.6614646 44.9749606,23.8494961 44.003622,23.8494961 C43.0048819,23.8494961 42.2215748,23.6579213 41.653937,23.2750079" id="Fill-1"></path>
        <mask id="mask-2" fill="white">
            <use xlink:href="#path-1"></use>
        </mask>
        <g id="Clip-4"></g>
        <path d="M85.6005591,13.0028425 C85.4571732,13.1807165 85.3610315,13.4715039 85.313315,13.8749685 C85.265126,14.2786693 85.2415039,14.8907165 85.2415039,15.7115827 L85.2415039,16.6146535 L87.3141024,16.6146535 L87.3141024,15.7115827 C87.3141024,14.9046535 87.2867008,14.2923701 87.2321339,13.8749685 C87.1773307,13.4578031 87.0783543,13.1637087 86.9344961,12.992685 C86.790874,12.8214252 86.5685906,12.7359134 86.2676457,12.7359134 C85.9664646,12.7359134 85.7441811,12.8252047 85.6005591,13.0028425 L85.6005591,13.0028425 Z M85.2415039,18.2974882 L85.2415039,18.9336299 C85.2415039,19.7410315 85.265126,20.3464646 85.313315,20.7499291 C85.3610315,21.1536299 85.4600079,21.4477244 85.6109528,21.6324488 C85.7614252,21.816937 85.9936299,21.9095354 86.308748,21.9095354 C86.7325276,21.9095354 87.023315,21.7453622 87.1806378,21.4167795 C87.3377244,21.0884331 87.4234724,20.5413465 87.4371732,19.7750472 L89.8794567,19.9186693 C89.8931575,20.0285118 89.9000079,20.1789843 89.9000079,20.3700866 C89.9000079,21.5332362 89.5818189,22.4020551 88.9456772,22.9767795 C88.3097717,23.5510315 87.4097717,23.8385118 86.2470945,23.8385118 C84.8517402,23.8385118 83.873315,23.4010315 83.3122913,22.525126 C82.7510315,21.6496929 82.470874,20.2952047 82.470874,18.4616614 L82.470874,16.2657559 C82.470874,14.3776457 82.7614252,12.9995354 83.3432362,12.1304803 C83.9245748,11.2618976 84.9200079,10.8274882 86.3292992,10.8274882 C87.3004016,10.8274882 88.0461496,11.0053622 88.5660709,11.360874 C89.0857559,11.7168583 89.4518976,12.2710315 89.6640236,13.0231575 C89.8761496,13.7757559 89.9822126,14.8158346 89.9822126,16.142685 L89.9822126,18.2974882 L85.2415039,18.2974882 Z" id="Fill-3"></path>
        <path d="M34.7577874,18.0619528 L31.5357402,6.42573228 L34.3472362,6.42573228 L35.4758976,11.700063 C35.763378,12.9999843 35.9752677,14.1080945 36.1120394,15.0246299 L36.1942441,15.0246299 C36.2899134,14.367937 36.5020394,13.2666772 36.8303858,11.7206142 L38.0001496,6.42573228 L40.8116457,6.42573228 L37.5487323,18.0619528 L37.5487323,23.644315 L34.7577874,23.644315 L34.7577874,18.0619528 Z" id="Fill-6"></path>
        <path d="M57.0674882,11.0642756 L57.0674882,23.6441969 L54.8510315,23.6441969 L54.6046535,22.1052205 L54.5432362,22.1052205 C53.9411102,23.2681339 53.0380394,23.8494724 51.8342598,23.8494724 C50.9996929,23.8494724 50.3841024,23.5759291 49.987252,23.0286063 C49.5904016,22.4815197 49.3922126,21.6261654 49.3922126,20.4634882 L49.3922126,11.0642756 L52.2242598,11.0642756 L52.2242598,20.2990787 C52.2242598,20.8603386 52.2859134,21.2604961 52.4089843,21.4995512 C52.5320551,21.739315 52.7370945,21.8588425 53.0245748,21.8588425 C53.2709528,21.8588425 53.506937,21.7837244 53.7325276,21.6330157 C53.9583543,21.4825433 54.1258346,21.2912047 54.2354409,21.0585276 L54.2354409,11.0642756 L57.0674882,11.0642756 Z" id="Fill-8"></path>
        <path d="M71.594126,11.0642756 L71.594126,23.6441969 L69.3776693,23.6441969 L69.1312913,22.1052205 L69.069874,22.1052205 C68.4675118,23.2681339 67.5646772,23.8494724 66.3608976,23.8494724 C65.5263307,23.8494724 64.9107402,23.5759291 64.5138898,23.0286063 C64.1170394,22.4815197 63.9188504,21.6261654 63.9188504,20.4634882 L63.9188504,11.0642756 L66.7508976,11.0642756 L66.7508976,20.2990787 C66.7508976,20.8603386 66.812315,21.2604961 66.9353858,21.4995512 C67.0586929,21.739315 67.2637323,21.8588425 67.5512126,21.8588425 C67.7975906,21.8588425 68.0335748,21.7837244 68.2591654,21.6330157 C68.4849921,21.4825433 68.6522362,21.2912047 68.7620787,21.0585276 L68.7620787,11.0642756 L71.594126,11.0642756 Z" id="Fill-10"></path>
        <polygon id="Fill-12" points="64.7631024 8.70414961 61.9516063 8.70414961 61.9516063 23.6443858 59.1812126 23.6443858 59.1812126 8.70414961 56.3697165 8.70414961 56.3697165 6.42603937 64.7631024 6.42603937"></polygon>
        <path d="M78.3711496,18.2065906 C78.3711496,19.1233622 78.3333543,19.8417087 78.258,20.3613937 C78.1828819,20.8815512 78.0562677,21.251 77.8783937,21.4695039 C77.7005197,21.6884803 77.4607559,21.7978504 77.1602835,21.7978504 C76.9276063,21.7978504 76.7121732,21.7435197 76.5139843,21.6336772 C76.3153228,21.5243071 76.1546929,21.3603701 76.031622,21.1411575 L76.031622,13.9995039 C76.1270551,13.6576929 76.2912283,13.377063 76.5241417,13.1580866 C76.7565827,12.9395827 77.0093386,12.8297402 77.2833543,12.8297402 C77.5705984,12.8297402 77.7928819,12.9426535 77.9504409,13.1682441 C78.1075276,13.3940709 78.2171339,13.7736772 78.2785512,14.3075354 C78.3402047,14.8409213 78.3711496,15.6001339 78.3711496,16.5851732 L78.3711496,18.2065906 Z M80.9669764,13.0751732 C80.7959528,12.2819449 80.5188661,11.7072205 80.1359528,11.3512362 C79.7528031,10.9959606 79.2257953,10.8178504 78.5556378,10.8178504 C78.0357165,10.8178504 77.5500472,10.9650157 77.0986299,11.2591102 C76.6472126,11.5532047 76.298315,11.9398976 76.0521732,12.4187165 L76.0313858,12.4187165 L76.031622,5.78989764 L73.3020945,5.78989764 L73.3020945,23.6441496 L75.6413858,23.6441496 L75.9288661,22.4538346 L75.9905197,22.4538346 C76.2092598,22.8778504 76.5373701,23.2130472 76.9755591,23.4594252 C77.4130394,23.7055669 77.8989449,23.828874 78.4328031,23.828874 C79.3899685,23.828874 80.0948504,23.3876142 80.5462677,22.5050945 C80.997685,21.6225748 81.2235118,20.2444646 81.2235118,18.3698189 L81.2235118,16.3794252 C81.2235118,14.9703701 81.138,13.868874 80.9669764,13.0751732 L80.9669764,13.0751732 Z" id="Fill-14"></path>
        <path d="M28.0974803,8.13677165 C28.6970079,10.3747244 28.6970079,15.0440945 28.6970079,15.0440945 C28.6970079,15.0440945 28.6970079,19.7134646 28.0974803,21.9511811 C27.7674803,23.1859055 26.7949606,24.1584252 25.5602362,24.4884252 C23.3222835,25.088189 14.3485039,25.088189 14.3485039,25.088189 C14.3485039,25.088189 5.37472441,25.088189 3.13677165,24.4884252 C1.90204724,24.1584252 0.929527559,23.1859055 0.599527559,21.9511811 C1.72306613e-13,19.7134646 1.72306613e-13,15.0440945 1.72306613e-13,15.0440945 C1.72306613e-13,15.0440945 1.72306613e-13,10.3747244 0.599527559,8.13677165 C0.929527559,6.90204724 1.90204724,5.92976378 3.13677165,5.59976378 C5.37472441,5 14.3485039,5 14.3485039,5 C14.3485039,5 23.3222835,5 25.5602362,5.59976378 C26.7949606,5.92976378 27.7674803,6.90204724 28.0974803,8.13677165 Z M11.4787795,19.3487165 L18.9343701,15.0440709 L11.4787795,10.7394252 L11.4787795,19.3487165 Z" id="Combined-Shape"></path>
    </g>
</svg>
